<?xml version="1.0" encoding="utf-8"?>
<svg xmlns="http://www.w3.org/2000/svg" xmlns:xlink="http://www.w3.org/1999/xlink" width="600" height="400" viewBox="0 0 2400 1600">
<defs>
  <clipPath id="clip420">
    <rect x="0" y="0" width="2400" height="1600"/>
  </clipPath>
</defs>
<path clip-path="url(#clip420)" d="M0 1600 L2400 1600 L2400 0 L0 0  Z" fill="#ffffff" fill-rule="evenodd" fill-opacity="1"/>
<defs>
  <clipPath id="clip421">
    <rect x="480" y="0" width="1681" height="1600"/>
  </clipPath>
</defs>
<path clip-path="url(#clip420)" d="M247.459 1423.18 L2352.76 1423.18 L2352.76 47.2441 L247.459 47.2441  Z" fill="#ffffff" fill-rule="evenodd" fill-opacity="1"/>
<defs>
  <clipPath id="clip422">
    <rect x="247" y="47" width="2106" height="1377"/>
  </clipPath>
</defs>
<polyline clip-path="url(#clip422)" style="stroke:#000000; stroke-linecap:round; stroke-linejoin:round; stroke-width:2; stroke-opacity:0.1; fill:none" points="527.724,1423.18 527.724,47.2441 "/>
<polyline clip-path="url(#clip422)" style="stroke:#000000; stroke-linecap:round; stroke-linejoin:round; stroke-width:2; stroke-opacity:0.1; fill:none" points="969.086,1423.18 969.086,47.2441 "/>
<polyline clip-path="url(#clip422)" style="stroke:#000000; stroke-linecap:round; stroke-linejoin:round; stroke-width:2; stroke-opacity:0.1; fill:none" points="1410.45,1423.18 1410.45,47.2441 "/>
<polyline clip-path="url(#clip422)" style="stroke:#000000; stroke-linecap:round; stroke-linejoin:round; stroke-width:2; stroke-opacity:0.1; fill:none" points="1851.81,1423.18 1851.81,47.2441 "/>
<polyline clip-path="url(#clip422)" style="stroke:#000000; stroke-linecap:round; stroke-linejoin:round; stroke-width:2; stroke-opacity:0.1; fill:none" points="2293.17,1423.18 2293.17,47.2441 "/>
<polyline clip-path="url(#clip422)" style="stroke:#000000; stroke-linecap:round; stroke-linejoin:round; stroke-width:2; stroke-opacity:0.1; fill:none" points="247.459,1418.53 2352.76,1418.53 "/>
<polyline clip-path="url(#clip422)" style="stroke:#000000; stroke-linecap:round; stroke-linejoin:round; stroke-width:2; stroke-opacity:0.1; fill:none" points="247.459,1101 2352.76,1101 "/>
<polyline clip-path="url(#clip422)" style="stroke:#000000; stroke-linecap:round; stroke-linejoin:round; stroke-width:2; stroke-opacity:0.1; fill:none" points="247.459,783.476 2352.76,783.476 "/>
<polyline clip-path="url(#clip422)" style="stroke:#000000; stroke-linecap:round; stroke-linejoin:round; stroke-width:2; stroke-opacity:0.1; fill:none" points="247.459,465.949 2352.76,465.949 "/>
<polyline clip-path="url(#clip422)" style="stroke:#000000; stroke-linecap:round; stroke-linejoin:round; stroke-width:2; stroke-opacity:0.1; fill:none" points="247.459,148.421 2352.76,148.421 "/>
<polyline clip-path="url(#clip420)" style="stroke:#000000; stroke-linecap:round; stroke-linejoin:round; stroke-width:4; stroke-opacity:1; fill:none" points="247.459,1423.18 2352.76,1423.18 "/>
<polyline clip-path="url(#clip420)" style="stroke:#000000; stroke-linecap:round; stroke-linejoin:round; stroke-width:4; stroke-opacity:1; fill:none" points="527.724,1423.18 527.724,1404.28 "/>
<polyline clip-path="url(#clip420)" style="stroke:#000000; stroke-linecap:round; stroke-linejoin:round; stroke-width:4; stroke-opacity:1; fill:none" points="969.086,1423.18 969.086,1404.28 "/>
<polyline clip-path="url(#clip420)" style="stroke:#000000; stroke-linecap:round; stroke-linejoin:round; stroke-width:4; stroke-opacity:1; fill:none" points="1410.45,1423.18 1410.45,1404.28 "/>
<polyline clip-path="url(#clip420)" style="stroke:#000000; stroke-linecap:round; stroke-linejoin:round; stroke-width:4; stroke-opacity:1; fill:none" points="1851.81,1423.18 1851.81,1404.28 "/>
<polyline clip-path="url(#clip420)" style="stroke:#000000; stroke-linecap:round; stroke-linejoin:round; stroke-width:4; stroke-opacity:1; fill:none" points="2293.17,1423.18 2293.17,1404.28 "/>
<path clip-path="url(#clip420)" d="M522.376 1481.64 L538.696 1481.64 L538.696 1485.58 L516.751 1485.58 L516.751 1481.64 Q519.414 1478.89 523.997 1474.26 Q528.603 1469.61 529.784 1468.27 Q532.029 1465.74 532.909 1464.01 Q533.812 1462.25 533.812 1460.56 Q533.812 1457.8 531.867 1456.07 Q529.946 1454.33 526.844 1454.33 Q524.645 1454.33 522.191 1455.09 Q519.761 1455.86 516.983 1457.41 L516.983 1452.69 Q519.807 1451.55 522.261 1450.97 Q524.714 1450.39 526.751 1450.39 Q532.122 1450.39 535.316 1453.08 Q538.511 1455.77 538.511 1460.26 Q538.511 1462.39 537.7 1464.31 Q536.913 1466.2 534.807 1468.8 Q534.228 1469.47 531.126 1472.69 Q528.025 1475.88 522.376 1481.64 Z" fill="#000000" fill-rule="nonzero" fill-opacity="1" /><path clip-path="url(#clip420)" d="M972.095 1455.09 L960.289 1473.54 L972.095 1473.54 L972.095 1455.09 M970.868 1451.02 L976.748 1451.02 L976.748 1473.54 L981.678 1473.54 L981.678 1477.43 L976.748 1477.43 L976.748 1485.58 L972.095 1485.58 L972.095 1477.43 L956.493 1477.43 L956.493 1472.92 L970.868 1451.02 Z" fill="#000000" fill-rule="nonzero" fill-opacity="1" /><path clip-path="url(#clip420)" d="M1410.85 1466.44 Q1407.7 1466.44 1405.85 1468.59 Q1404.02 1470.74 1404.02 1474.49 Q1404.02 1478.22 1405.85 1480.39 Q1407.7 1482.55 1410.85 1482.55 Q1414 1482.55 1415.83 1480.39 Q1417.68 1478.22 1417.68 1474.49 Q1417.68 1470.74 1415.83 1468.59 Q1414 1466.44 1410.85 1466.44 M1420.14 1451.78 L1420.14 1456.04 Q1418.38 1455.21 1416.57 1454.77 Q1414.79 1454.33 1413.03 1454.33 Q1408.4 1454.33 1405.95 1457.45 Q1403.51 1460.58 1403.17 1466.9 Q1404.53 1464.89 1406.59 1463.82 Q1408.65 1462.73 1411.13 1462.73 Q1416.34 1462.73 1419.35 1465.9 Q1422.38 1469.05 1422.38 1474.49 Q1422.38 1479.82 1419.23 1483.03 Q1416.08 1486.25 1410.85 1486.25 Q1404.86 1486.25 1401.69 1481.67 Q1398.52 1477.06 1398.52 1468.33 Q1398.52 1460.14 1402.4 1455.28 Q1406.29 1450.39 1412.84 1450.39 Q1414.6 1450.39 1416.39 1450.74 Q1418.19 1451.09 1420.14 1451.78 Z" fill="#000000" fill-rule="nonzero" fill-opacity="1" /><path clip-path="url(#clip420)" d="M1851.81 1469.17 Q1848.48 1469.17 1846.56 1470.95 Q1844.66 1472.73 1844.66 1475.86 Q1844.66 1478.98 1846.56 1480.77 Q1848.48 1482.55 1851.81 1482.55 Q1855.14 1482.55 1857.06 1480.77 Q1858.99 1478.96 1858.99 1475.86 Q1858.99 1472.73 1857.06 1470.95 Q1855.17 1469.17 1851.81 1469.17 M1847.13 1467.18 Q1844.12 1466.44 1842.43 1464.38 Q1840.77 1462.32 1840.77 1459.35 Q1840.77 1455.21 1843.71 1452.8 Q1846.67 1450.39 1851.81 1450.39 Q1856.97 1450.39 1859.91 1452.8 Q1862.85 1455.21 1862.85 1459.35 Q1862.85 1462.32 1861.16 1464.38 Q1859.5 1466.44 1856.51 1467.18 Q1859.89 1467.96 1861.76 1470.26 Q1863.66 1472.55 1863.66 1475.86 Q1863.66 1480.88 1860.58 1483.57 Q1857.53 1486.25 1851.81 1486.25 Q1846.09 1486.25 1843.01 1483.57 Q1839.96 1480.88 1839.96 1475.86 Q1839.96 1472.55 1841.86 1470.26 Q1843.75 1467.96 1847.13 1467.18 M1845.42 1459.79 Q1845.42 1462.48 1847.09 1463.98 Q1848.78 1465.49 1851.81 1465.49 Q1854.82 1465.49 1856.51 1463.98 Q1858.22 1462.48 1858.22 1459.79 Q1858.22 1457.11 1856.51 1455.6 Q1854.82 1454.1 1851.81 1454.1 Q1848.78 1454.1 1847.09 1455.6 Q1845.42 1457.11 1845.42 1459.79 Z" fill="#000000" fill-rule="nonzero" fill-opacity="1" /><path clip-path="url(#clip420)" d="M2267.86 1481.64 L2275.5 1481.64 L2275.5 1455.28 L2267.19 1456.95 L2267.19 1452.69 L2275.45 1451.02 L2280.13 1451.02 L2280.13 1481.64 L2287.77 1481.64 L2287.77 1485.58 L2267.86 1485.58 L2267.86 1481.64 Z" fill="#000000" fill-rule="nonzero" fill-opacity="1" /><path clip-path="url(#clip420)" d="M2307.21 1454.1 Q2303.6 1454.1 2301.77 1457.66 Q2299.97 1461.2 2299.97 1468.33 Q2299.97 1475.44 2301.77 1479.01 Q2303.6 1482.55 2307.21 1482.55 Q2310.85 1482.55 2312.65 1479.01 Q2314.48 1475.44 2314.48 1468.33 Q2314.48 1461.2 2312.65 1457.66 Q2310.85 1454.1 2307.21 1454.1 M2307.21 1450.39 Q2313.02 1450.39 2316.08 1455 Q2319.16 1459.58 2319.16 1468.33 Q2319.16 1477.06 2316.08 1481.67 Q2313.02 1486.25 2307.21 1486.25 Q2301.4 1486.25 2298.32 1481.67 Q2295.27 1477.06 2295.27 1468.33 Q2295.27 1459.58 2298.32 1455 Q2301.4 1450.39 2307.21 1450.39 Z" fill="#000000" fill-rule="nonzero" fill-opacity="1" /><path clip-path="url(#clip420)" d="M1281.93 1520.52 L1288.84 1520.52 L1300.65 1538.19 L1312.52 1520.52 L1319.43 1520.52 L1304.15 1543.34 L1320.45 1568.04 L1313.54 1568.04 L1300.17 1547.83 L1286.71 1568.04 L1279.77 1568.04 L1296.73 1542.68 L1281.93 1520.52 Z" fill="#000000" fill-rule="nonzero" fill-opacity="1" /><polyline clip-path="url(#clip420)" style="stroke:#000000; stroke-linecap:round; stroke-linejoin:round; stroke-width:4; stroke-opacity:1; fill:none" points="247.459,1423.18 247.459,47.2441 "/>
<polyline clip-path="url(#clip420)" style="stroke:#000000; stroke-linecap:round; stroke-linejoin:round; stroke-width:4; stroke-opacity:1; fill:none" points="247.459,1418.53 266.356,1418.53 "/>
<polyline clip-path="url(#clip420)" style="stroke:#000000; stroke-linecap:round; stroke-linejoin:round; stroke-width:4; stroke-opacity:1; fill:none" points="247.459,1101 266.356,1101 "/>
<polyline clip-path="url(#clip420)" style="stroke:#000000; stroke-linecap:round; stroke-linejoin:round; stroke-width:4; stroke-opacity:1; fill:none" points="247.459,783.476 266.356,783.476 "/>
<polyline clip-path="url(#clip420)" style="stroke:#000000; stroke-linecap:round; stroke-linejoin:round; stroke-width:4; stroke-opacity:1; fill:none" points="247.459,465.949 266.356,465.949 "/>
<polyline clip-path="url(#clip420)" style="stroke:#000000; stroke-linecap:round; stroke-linejoin:round; stroke-width:4; stroke-opacity:1; fill:none" points="247.459,148.421 266.356,148.421 "/>
<path clip-path="url(#clip420)" d="M154.283 1404.33 Q150.672 1404.33 148.843 1407.89 Q147.038 1411.44 147.038 1418.57 Q147.038 1425.67 148.843 1429.24 Q150.672 1432.78 154.283 1432.78 Q157.917 1432.78 159.723 1429.24 Q161.552 1425.67 161.552 1418.57 Q161.552 1411.44 159.723 1407.89 Q157.917 1404.33 154.283 1404.33 M154.283 1400.63 Q160.093 1400.63 163.149 1405.23 Q166.227 1409.82 166.227 1418.57 Q166.227 1427.29 163.149 1431.9 Q160.093 1436.48 154.283 1436.48 Q148.473 1436.48 145.394 1431.9 Q142.339 1427.29 142.339 1418.57 Q142.339 1409.82 145.394 1405.23 Q148.473 1400.63 154.283 1400.63 Z" fill="#000000" fill-rule="nonzero" fill-opacity="1" /><path clip-path="url(#clip420)" d="M174.445 1429.93 L179.329 1429.93 L179.329 1435.81 L174.445 1435.81 L174.445 1429.93 Z" fill="#000000" fill-rule="nonzero" fill-opacity="1" /><path clip-path="url(#clip420)" d="M199.514 1404.33 Q195.903 1404.33 194.075 1407.89 Q192.269 1411.44 192.269 1418.57 Q192.269 1425.67 194.075 1429.24 Q195.903 1432.78 199.514 1432.78 Q203.149 1432.78 204.954 1429.24 Q206.783 1425.67 206.783 1418.57 Q206.783 1411.44 204.954 1407.89 Q203.149 1404.33 199.514 1404.33 M199.514 1400.63 Q205.324 1400.63 208.38 1405.23 Q211.459 1409.82 211.459 1418.57 Q211.459 1427.29 208.38 1431.9 Q205.324 1436.48 199.514 1436.48 Q193.704 1436.48 190.625 1431.9 Q187.57 1427.29 187.57 1418.57 Q187.57 1409.82 190.625 1405.23 Q193.704 1400.63 199.514 1400.63 Z" fill="#000000" fill-rule="nonzero" fill-opacity="1" /><path clip-path="url(#clip420)" d="M149.306 1114.35 L165.626 1114.35 L165.626 1118.28 L143.681 1118.28 L143.681 1114.35 Q146.343 1111.59 150.927 1106.96 Q155.533 1102.31 156.714 1100.97 Q158.959 1098.45 159.839 1096.71 Q160.741 1094.95 160.741 1093.26 Q160.741 1090.51 158.797 1088.77 Q156.876 1087.03 153.774 1087.03 Q151.575 1087.03 149.121 1087.8 Q146.691 1088.56 143.913 1090.11 L143.913 1085.39 Q146.737 1084.26 149.191 1083.68 Q151.644 1083.1 153.681 1083.1 Q159.052 1083.1 162.246 1085.78 Q165.44 1088.47 165.44 1092.96 Q165.44 1095.09 164.63 1097.01 Q163.843 1098.91 161.737 1101.5 Q161.158 1102.17 158.056 1105.39 Q154.954 1108.58 149.306 1114.35 Z" fill="#000000" fill-rule="nonzero" fill-opacity="1" /><path clip-path="url(#clip420)" d="M175.44 1112.4 L180.325 1112.4 L180.325 1118.28 L175.44 1118.28 L175.44 1112.4 Z" fill="#000000" fill-rule="nonzero" fill-opacity="1" /><path clip-path="url(#clip420)" d="M190.556 1083.72 L208.912 1083.72 L208.912 1087.66 L194.838 1087.66 L194.838 1096.13 Q195.857 1095.78 196.875 1095.62 Q197.894 1095.44 198.912 1095.44 Q204.699 1095.44 208.079 1098.61 Q211.459 1101.78 211.459 1107.2 Q211.459 1112.77 207.987 1115.88 Q204.514 1118.95 198.195 1118.95 Q196.019 1118.95 193.75 1118.58 Q191.505 1118.21 189.098 1117.47 L189.098 1112.77 Q191.181 1113.91 193.403 1114.46 Q195.625 1115.02 198.102 1115.02 Q202.107 1115.02 204.445 1112.91 Q206.783 1110.81 206.783 1107.2 Q206.783 1103.58 204.445 1101.48 Q202.107 1099.37 198.102 1099.37 Q196.227 1099.37 194.352 1099.79 Q192.5 1100.21 190.556 1101.08 L190.556 1083.72 Z" fill="#000000" fill-rule="nonzero" fill-opacity="1" /><path clip-path="url(#clip420)" d="M144.329 766.196 L162.686 766.196 L162.686 770.131 L148.612 770.131 L148.612 778.603 Q149.63 778.256 150.649 778.094 Q151.667 777.909 152.686 777.909 Q158.473 777.909 161.852 781.08 Q165.232 784.252 165.232 789.668 Q165.232 795.247 161.76 798.349 Q158.288 801.427 151.968 801.427 Q149.792 801.427 147.524 801.057 Q145.279 800.687 142.871 799.946 L142.871 795.247 Q144.954 796.381 147.177 796.937 Q149.399 797.492 151.876 797.492 Q155.88 797.492 158.218 795.386 Q160.556 793.279 160.556 789.668 Q160.556 786.057 158.218 783.951 Q155.88 781.844 151.876 781.844 Q150.001 781.844 148.126 782.261 Q146.274 782.678 144.329 783.557 L144.329 766.196 Z" fill="#000000" fill-rule="nonzero" fill-opacity="1" /><path clip-path="url(#clip420)" d="M174.445 794.877 L179.329 794.877 L179.329 800.756 L174.445 800.756 L174.445 794.877 Z" fill="#000000" fill-rule="nonzero" fill-opacity="1" /><path clip-path="url(#clip420)" d="M199.514 769.275 Q195.903 769.275 194.075 772.84 Q192.269 776.381 192.269 783.511 Q192.269 790.617 194.075 794.182 Q195.903 797.724 199.514 797.724 Q203.149 797.724 204.954 794.182 Q206.783 790.617 206.783 783.511 Q206.783 776.381 204.954 772.84 Q203.149 769.275 199.514 769.275 M199.514 765.571 Q205.324 765.571 208.38 770.178 Q211.459 774.761 211.459 783.511 Q211.459 792.238 208.38 796.844 Q205.324 801.427 199.514 801.427 Q193.704 801.427 190.625 796.844 Q187.57 792.238 187.57 783.511 Q187.57 774.761 190.625 770.178 Q193.704 765.571 199.514 765.571 Z" fill="#000000" fill-rule="nonzero" fill-opacity="1" /><path clip-path="url(#clip420)" d="M144.098 448.669 L166.32 448.669 L166.32 450.659 L153.774 483.229 L148.89 483.229 L160.695 452.604 L144.098 452.604 L144.098 448.669 Z" fill="#000000" fill-rule="nonzero" fill-opacity="1" /><path clip-path="url(#clip420)" d="M175.44 477.349 L180.325 477.349 L180.325 483.229 L175.44 483.229 L175.44 477.349 Z" fill="#000000" fill-rule="nonzero" fill-opacity="1" /><path clip-path="url(#clip420)" d="M190.556 448.669 L208.912 448.669 L208.912 452.604 L194.838 452.604 L194.838 461.076 Q195.857 460.729 196.875 460.567 Q197.894 460.382 198.912 460.382 Q204.699 460.382 208.079 463.553 Q211.459 466.724 211.459 472.141 Q211.459 477.719 207.987 480.821 Q204.514 483.9 198.195 483.9 Q196.019 483.9 193.75 483.53 Q191.505 483.159 189.098 482.418 L189.098 477.719 Q191.181 478.854 193.403 479.409 Q195.625 479.965 198.102 479.965 Q202.107 479.965 204.445 477.858 Q206.783 475.752 206.783 472.141 Q206.783 468.53 204.445 466.423 Q202.107 464.317 198.102 464.317 Q196.227 464.317 194.352 464.733 Q192.5 465.15 190.556 466.03 L190.556 448.669 Z" fill="#000000" fill-rule="nonzero" fill-opacity="1" /><path clip-path="url(#clip420)" d="M114.931 161.766 L122.57 161.766 L122.57 135.4 L114.26 137.067 L114.26 132.808 L122.524 131.141 L127.2 131.141 L127.2 161.766 L134.839 161.766 L134.839 165.701 L114.931 165.701 L114.931 161.766 Z" fill="#000000" fill-rule="nonzero" fill-opacity="1" /><path clip-path="url(#clip420)" d="M154.283 134.22 Q150.672 134.22 148.843 137.785 Q147.038 141.326 147.038 148.456 Q147.038 155.562 148.843 159.127 Q150.672 162.669 154.283 162.669 Q157.917 162.669 159.723 159.127 Q161.552 155.562 161.552 148.456 Q161.552 141.326 159.723 137.785 Q157.917 134.22 154.283 134.22 M154.283 130.516 Q160.093 130.516 163.149 135.123 Q166.227 139.706 166.227 148.456 Q166.227 157.183 163.149 161.789 Q160.093 166.372 154.283 166.372 Q148.473 166.372 145.394 161.789 Q142.339 157.183 142.339 148.456 Q142.339 139.706 145.394 135.123 Q148.473 130.516 154.283 130.516 Z" fill="#000000" fill-rule="nonzero" fill-opacity="1" /><path clip-path="url(#clip420)" d="M174.445 159.821 L179.329 159.821 L179.329 165.701 L174.445 165.701 L174.445 159.821 Z" fill="#000000" fill-rule="nonzero" fill-opacity="1" /><path clip-path="url(#clip420)" d="M199.514 134.22 Q195.903 134.22 194.075 137.785 Q192.269 141.326 192.269 148.456 Q192.269 155.562 194.075 159.127 Q195.903 162.669 199.514 162.669 Q203.149 162.669 204.954 159.127 Q206.783 155.562 206.783 148.456 Q206.783 141.326 204.954 137.785 Q203.149 134.22 199.514 134.22 M199.514 130.516 Q205.324 130.516 208.38 135.123 Q211.459 139.706 211.459 148.456 Q211.459 157.183 208.38 161.789 Q205.324 166.372 199.514 166.372 Q193.704 166.372 190.625 161.789 Q187.57 157.183 187.57 148.456 Q187.57 139.706 190.625 135.123 Q193.704 130.516 199.514 130.516 Z" fill="#000000" fill-rule="nonzero" fill-opacity="1" /><path clip-path="url(#clip420)" d="M16.4842 755.248 L16.4842 748.341 L36.0269 735.164 L16.4842 722.083 L16.4842 715.176 L41.3741 731.981 L64.0042 731.981 L64.0042 738.443 L41.3741 738.443 L16.4842 755.248 Z" fill="#000000" fill-rule="nonzero" fill-opacity="1" /><polyline clip-path="url(#clip422)" style="stroke:#000000; stroke-linecap:round; stroke-linejoin:round; stroke-width:4; stroke-opacity:1; fill:none" points="307.043,1339.78 307.043,1243.26 "/>
<polyline clip-path="url(#clip422)" style="stroke:#000000; stroke-linecap:round; stroke-linejoin:round; stroke-width:4; stroke-opacity:1; fill:none" points="527.724,1301.68 527.724,1083.22 "/>
<polyline clip-path="url(#clip422)" style="stroke:#000000; stroke-linecap:round; stroke-linejoin:round; stroke-width:4; stroke-opacity:1; fill:none" points="748.405,993.044 748.405,919.378 "/>
<polyline clip-path="url(#clip422)" style="stroke:#000000; stroke-linecap:round; stroke-linejoin:round; stroke-width:4; stroke-opacity:1; fill:none" points="969.086,1003.21 969.086,888.895 "/>
<polyline clip-path="url(#clip422)" style="stroke:#000000; stroke-linecap:round; stroke-linejoin:round; stroke-width:4; stroke-opacity:1; fill:none" points="1189.77,825.39 1189.77,657.735 "/>
<polyline clip-path="url(#clip422)" style="stroke:#000000; stroke-linecap:round; stroke-linejoin:round; stroke-width:4; stroke-opacity:1; fill:none" points="1410.45,1384.24 1410.45,759.344 "/>
<polyline clip-path="url(#clip422)" style="stroke:#000000; stroke-linecap:round; stroke-linejoin:round; stroke-width:4; stroke-opacity:1; fill:none" points="1631.13,512.943 1631.13,413.874 "/>
<polyline clip-path="url(#clip422)" style="stroke:#000000; stroke-linecap:round; stroke-linejoin:round; stroke-width:4; stroke-opacity:1; fill:none" points="1851.81,308.455 1851.81,194.145 "/>
<polyline clip-path="url(#clip422)" style="stroke:#000000; stroke-linecap:round; stroke-linejoin:round; stroke-width:4; stroke-opacity:1; fill:none" points="2072.49,769.505 2072.49,357.989 "/>
<polyline clip-path="url(#clip422)" style="stroke:#000000; stroke-linecap:round; stroke-linejoin:round; stroke-width:4; stroke-opacity:1; fill:none" points="2293.17,477.38 2293.17,86.1857 "/>
<line clip-path="url(#clip422)" x1="323.043" y1="1339.78" x2="291.043" y2="1339.78" style="stroke:#000000; stroke-width:4; stroke-opacity:1"/>
<line clip-path="url(#clip422)" x1="323.043" y1="1243.26" x2="291.043" y2="1243.26" style="stroke:#000000; stroke-width:4; stroke-opacity:1"/>
<line clip-path="url(#clip422)" x1="543.724" y1="1301.68" x2="511.724" y2="1301.68" style="stroke:#000000; stroke-width:4; stroke-opacity:1"/>
<line clip-path="url(#clip422)" x1="543.724" y1="1083.22" x2="511.724" y2="1083.22" style="stroke:#000000; stroke-width:4; stroke-opacity:1"/>
<line clip-path="url(#clip422)" x1="764.405" y1="993.044" x2="732.405" y2="993.044" style="stroke:#000000; stroke-width:4; stroke-opacity:1"/>
<line clip-path="url(#clip422)" x1="764.405" y1="919.378" x2="732.405" y2="919.378" style="stroke:#000000; stroke-width:4; stroke-opacity:1"/>
<line clip-path="url(#clip422)" x1="985.086" y1="1003.21" x2="953.086" y2="1003.21" style="stroke:#000000; stroke-width:4; stroke-opacity:1"/>
<line clip-path="url(#clip422)" x1="985.086" y1="888.895" x2="953.086" y2="888.895" style="stroke:#000000; stroke-width:4; stroke-opacity:1"/>
<line clip-path="url(#clip422)" x1="1205.77" y1="825.39" x2="1173.77" y2="825.39" style="stroke:#000000; stroke-width:4; stroke-opacity:1"/>
<line clip-path="url(#clip422)" x1="1205.77" y1="657.735" x2="1173.77" y2="657.735" style="stroke:#000000; stroke-width:4; stroke-opacity:1"/>
<line clip-path="url(#clip422)" x1="1426.45" y1="1384.24" x2="1394.45" y2="1384.24" style="stroke:#000000; stroke-width:4; stroke-opacity:1"/>
<line clip-path="url(#clip422)" x1="1426.45" y1="759.344" x2="1394.45" y2="759.344" style="stroke:#000000; stroke-width:4; stroke-opacity:1"/>
<line clip-path="url(#clip422)" x1="1647.13" y1="512.943" x2="1615.13" y2="512.943" style="stroke:#000000; stroke-width:4; stroke-opacity:1"/>
<line clip-path="url(#clip422)" x1="1647.13" y1="413.874" x2="1615.13" y2="413.874" style="stroke:#000000; stroke-width:4; stroke-opacity:1"/>
<line clip-path="url(#clip422)" x1="1867.81" y1="308.455" x2="1835.81" y2="308.455" style="stroke:#000000; stroke-width:4; stroke-opacity:1"/>
<line clip-path="url(#clip422)" x1="1867.81" y1="194.145" x2="1835.81" y2="194.145" style="stroke:#000000; stroke-width:4; stroke-opacity:1"/>
<line clip-path="url(#clip422)" x1="2088.49" y1="769.505" x2="2056.49" y2="769.505" style="stroke:#000000; stroke-width:4; stroke-opacity:1"/>
<line clip-path="url(#clip422)" x1="2088.49" y1="357.989" x2="2056.49" y2="357.989" style="stroke:#000000; stroke-width:4; stroke-opacity:1"/>
<line clip-path="url(#clip422)" x1="2309.17" y1="477.38" x2="2277.17" y2="477.38" style="stroke:#000000; stroke-width:4; stroke-opacity:1"/>
<line clip-path="url(#clip422)" x1="2309.17" y1="86.1857" x2="2277.17" y2="86.1857" style="stroke:#000000; stroke-width:4; stroke-opacity:1"/>
<circle clip-path="url(#clip422)" cx="307.043" cy="1291.52" r="14.4" fill="#009af9" fill-rule="evenodd" fill-opacity="1" stroke="#000000" stroke-opacity="1" stroke-width="3.2"/>
<circle clip-path="url(#clip422)" cx="527.724" cy="1192.45" r="14.4" fill="#009af9" fill-rule="evenodd" fill-opacity="1" stroke="#000000" stroke-opacity="1" stroke-width="3.2"/>
<circle clip-path="url(#clip422)" cx="748.405" cy="956.211" r="14.4" fill="#009af9" fill-rule="evenodd" fill-opacity="1" stroke="#000000" stroke-opacity="1" stroke-width="3.2"/>
<circle clip-path="url(#clip422)" cx="969.086" cy="946.05" r="14.4" fill="#009af9" fill-rule="evenodd" fill-opacity="1" stroke="#000000" stroke-opacity="1" stroke-width="3.2"/>
<circle clip-path="url(#clip422)" cx="1189.77" cy="741.563" r="14.4" fill="#009af9" fill-rule="evenodd" fill-opacity="1" stroke="#000000" stroke-opacity="1" stroke-width="3.2"/>
<circle clip-path="url(#clip422)" cx="1410.45" cy="1071.79" r="14.4" fill="#009af9" fill-rule="evenodd" fill-opacity="1" stroke="#000000" stroke-opacity="1" stroke-width="3.2"/>
<circle clip-path="url(#clip422)" cx="1631.13" cy="463.408" r="14.4" fill="#009af9" fill-rule="evenodd" fill-opacity="1" stroke="#000000" stroke-opacity="1" stroke-width="3.2"/>
<circle clip-path="url(#clip422)" cx="1851.81" cy="251.3" r="14.4" fill="#009af9" fill-rule="evenodd" fill-opacity="1" stroke="#000000" stroke-opacity="1" stroke-width="3.2"/>
<circle clip-path="url(#clip422)" cx="2072.49" cy="563.747" r="14.4" fill="#009af9" fill-rule="evenodd" fill-opacity="1" stroke="#000000" stroke-opacity="1" stroke-width="3.2"/>
<circle clip-path="url(#clip422)" cx="2293.17" cy="281.783" r="14.4" fill="#009af9" fill-rule="evenodd" fill-opacity="1" stroke="#000000" stroke-opacity="1" stroke-width="3.2"/>
</svg>
