<?xml version="1.0" encoding="utf-8"?>
<svg xmlns="http://www.w3.org/2000/svg" xmlns:xlink="http://www.w3.org/1999/xlink" width="600" height="400" viewBox="0 0 2400 1600">
<defs>
  <clipPath id="clip630">
    <rect x="0" y="0" width="2400" height="1600"/>
  </clipPath>
</defs>
<path clip-path="url(#clip630)" d="M0 1600 L2400 1600 L2400 0 L0 0  Z" fill="#ffffff" fill-rule="evenodd" fill-opacity="1"/>
<defs>
  <clipPath id="clip631">
    <rect x="480" y="0" width="1681" height="1600"/>
  </clipPath>
</defs>
<path clip-path="url(#clip630)" d="M339.542 1423.18 L2352.76 1423.18 L2352.76 47.2441 L339.542 47.2441  Z" fill="#ffffff" fill-rule="evenodd" fill-opacity="1"/>
<defs>
  <clipPath id="clip632">
    <rect x="339" y="47" width="2014" height="1377"/>
  </clipPath>
</defs>
<polyline clip-path="url(#clip632)" style="stroke:#000000; stroke-linecap:round; stroke-linejoin:round; stroke-width:2; stroke-opacity:0.1; fill:none" points="586.445,1423.18 586.445,47.2441 "/>
<polyline clip-path="url(#clip632)" style="stroke:#000000; stroke-linecap:round; stroke-linejoin:round; stroke-width:2; stroke-opacity:0.1; fill:none" points="966.297,1423.18 966.297,47.2441 "/>
<polyline clip-path="url(#clip632)" style="stroke:#000000; stroke-linecap:round; stroke-linejoin:round; stroke-width:2; stroke-opacity:0.1; fill:none" points="1346.15,1423.18 1346.15,47.2441 "/>
<polyline clip-path="url(#clip632)" style="stroke:#000000; stroke-linecap:round; stroke-linejoin:round; stroke-width:2; stroke-opacity:0.1; fill:none" points="1726,1423.18 1726,47.2441 "/>
<polyline clip-path="url(#clip632)" style="stroke:#000000; stroke-linecap:round; stroke-linejoin:round; stroke-width:2; stroke-opacity:0.1; fill:none" points="2105.85,1423.18 2105.85,47.2441 "/>
<polyline clip-path="url(#clip630)" style="stroke:#000000; stroke-linecap:round; stroke-linejoin:round; stroke-width:4; stroke-opacity:1; fill:none" points="339.542,1423.18 2352.76,1423.18 "/>
<polyline clip-path="url(#clip630)" style="stroke:#000000; stroke-linecap:round; stroke-linejoin:round; stroke-width:4; stroke-opacity:1; fill:none" points="586.445,1423.18 586.445,1404.28 "/>
<polyline clip-path="url(#clip630)" style="stroke:#000000; stroke-linecap:round; stroke-linejoin:round; stroke-width:4; stroke-opacity:1; fill:none" points="966.297,1423.18 966.297,1404.28 "/>
<polyline clip-path="url(#clip630)" style="stroke:#000000; stroke-linecap:round; stroke-linejoin:round; stroke-width:4; stroke-opacity:1; fill:none" points="1346.15,1423.18 1346.15,1404.28 "/>
<polyline clip-path="url(#clip630)" style="stroke:#000000; stroke-linecap:round; stroke-linejoin:round; stroke-width:4; stroke-opacity:1; fill:none" points="1726,1423.18 1726,1404.28 "/>
<polyline clip-path="url(#clip630)" style="stroke:#000000; stroke-linecap:round; stroke-linejoin:round; stroke-width:4; stroke-opacity:1; fill:none" points="2105.85,1423.18 2105.85,1404.28 "/>
<path clip-path="url(#clip630)" d="M555.346 1468.75 L585.022 1468.75 L585.022 1472.69 L555.346 1472.69 L555.346 1468.75 Z" fill="#000000" fill-rule="nonzero" fill-opacity="1" /><path clip-path="url(#clip630)" d="M607.961 1455.09 L596.156 1473.54 L607.961 1473.54 L607.961 1455.09 M606.734 1451.02 L612.614 1451.02 L612.614 1473.54 L617.545 1473.54 L617.545 1477.43 L612.614 1477.43 L612.614 1485.58 L607.961 1485.58 L607.961 1477.43 L592.36 1477.43 L592.36 1472.92 L606.734 1451.02 Z" fill="#000000" fill-rule="nonzero" fill-opacity="1" /><path clip-path="url(#clip630)" d="M936.239 1468.75 L965.915 1468.75 L965.915 1472.69 L936.239 1472.69 L936.239 1468.75 Z" fill="#000000" fill-rule="nonzero" fill-opacity="1" /><path clip-path="url(#clip630)" d="M980.035 1481.64 L996.355 1481.64 L996.355 1485.58 L974.41 1485.58 L974.41 1481.64 Q977.072 1478.89 981.656 1474.26 Q986.262 1469.61 987.443 1468.27 Q989.688 1465.74 990.568 1464.01 Q991.47 1462.25 991.47 1460.56 Q991.47 1457.8 989.526 1456.07 Q987.605 1454.33 984.503 1454.33 Q982.304 1454.33 979.85 1455.09 Q977.42 1455.86 974.642 1457.41 L974.642 1452.69 Q977.466 1451.55 979.92 1450.97 Q982.373 1450.39 984.41 1450.39 Q989.781 1450.39 992.975 1453.08 Q996.169 1455.77 996.169 1460.26 Q996.169 1462.39 995.359 1464.31 Q994.572 1466.2 992.466 1468.8 Q991.887 1469.47 988.785 1472.69 Q985.683 1475.88 980.035 1481.64 Z" fill="#000000" fill-rule="nonzero" fill-opacity="1" /><path clip-path="url(#clip630)" d="M1346.15 1454.1 Q1342.54 1454.1 1340.71 1457.66 Q1338.9 1461.2 1338.9 1468.33 Q1338.9 1475.44 1340.71 1479.01 Q1342.54 1482.55 1346.15 1482.55 Q1349.78 1482.55 1351.59 1479.01 Q1353.42 1475.44 1353.42 1468.33 Q1353.42 1461.2 1351.59 1457.66 Q1349.78 1454.1 1346.15 1454.1 M1346.15 1450.39 Q1351.96 1450.39 1355.01 1455 Q1358.09 1459.58 1358.09 1468.33 Q1358.09 1477.06 1355.01 1481.67 Q1351.96 1486.25 1346.15 1486.25 Q1340.34 1486.25 1337.26 1481.67 Q1334.2 1477.06 1334.2 1468.33 Q1334.2 1459.58 1337.26 1455 Q1340.34 1450.39 1346.15 1450.39 Z" fill="#000000" fill-rule="nonzero" fill-opacity="1" /><path clip-path="url(#clip630)" d="M1720.65 1481.64 L1736.97 1481.64 L1736.97 1485.58 L1715.03 1485.58 L1715.03 1481.64 Q1717.69 1478.89 1722.27 1474.26 Q1726.88 1469.61 1728.06 1468.27 Q1730.31 1465.74 1731.19 1464.01 Q1732.09 1462.25 1732.09 1460.56 Q1732.09 1457.8 1730.14 1456.07 Q1728.22 1454.33 1725.12 1454.33 Q1722.92 1454.33 1720.47 1455.09 Q1718.04 1455.86 1715.26 1457.41 L1715.26 1452.69 Q1718.08 1451.55 1720.54 1450.97 Q1722.99 1450.39 1725.03 1450.39 Q1730.4 1450.39 1733.59 1453.08 Q1736.79 1455.77 1736.79 1460.26 Q1736.79 1462.39 1735.98 1464.31 Q1735.19 1466.2 1733.08 1468.8 Q1732.51 1469.47 1729.4 1472.69 Q1726.3 1475.88 1720.65 1481.64 Z" fill="#000000" fill-rule="nonzero" fill-opacity="1" /><path clip-path="url(#clip630)" d="M2108.86 1455.09 L2097.06 1473.54 L2108.86 1473.54 L2108.86 1455.09 M2107.63 1451.02 L2113.51 1451.02 L2113.51 1473.54 L2118.44 1473.54 L2118.44 1477.43 L2113.51 1477.43 L2113.51 1485.58 L2108.86 1485.58 L2108.86 1477.43 L2093.26 1477.43 L2093.26 1472.92 L2107.63 1451.02 Z" fill="#000000" fill-rule="nonzero" fill-opacity="1" /><path clip-path="url(#clip630)" d="M1347.04 1524.09 L1363.5 1568.04 L1357.29 1568.04 L1347.29 1541.69 L1335.01 1568.04 L1328.8 1568.04 L1344.43 1533.86 L1342.07 1527.56 Q1340.58 1523.55 1337.17 1523.55 L1334.12 1523.55 L1334.12 1518.52 L1337.84 1518.58 Q1345.03 1518.68 1347.04 1524.09 Z" fill="#000000" fill-rule="nonzero" fill-opacity="1" /><polyline clip-path="url(#clip632)" style="stroke:#000000; stroke-linecap:round; stroke-linejoin:round; stroke-width:2; stroke-opacity:0.1; fill:none" points="339.542,1384.8 2352.76,1384.8 "/>
<polyline clip-path="url(#clip632)" style="stroke:#000000; stroke-linecap:round; stroke-linejoin:round; stroke-width:2; stroke-opacity:0.1; fill:none" points="339.542,1023.63 2352.76,1023.63 "/>
<polyline clip-path="url(#clip632)" style="stroke:#000000; stroke-linecap:round; stroke-linejoin:round; stroke-width:2; stroke-opacity:0.1; fill:none" points="339.542,662.467 2352.76,662.467 "/>
<polyline clip-path="url(#clip632)" style="stroke:#000000; stroke-linecap:round; stroke-linejoin:round; stroke-width:2; stroke-opacity:0.1; fill:none" points="339.542,301.3 2352.76,301.3 "/>
<polyline clip-path="url(#clip630)" style="stroke:#000000; stroke-linecap:round; stroke-linejoin:round; stroke-width:4; stroke-opacity:1; fill:none" points="339.542,1423.18 339.542,47.2441 "/>
<polyline clip-path="url(#clip630)" style="stroke:#000000; stroke-linecap:round; stroke-linejoin:round; stroke-width:4; stroke-opacity:1; fill:none" points="339.542,1384.8 358.439,1384.8 "/>
<polyline clip-path="url(#clip630)" style="stroke:#000000; stroke-linecap:round; stroke-linejoin:round; stroke-width:4; stroke-opacity:1; fill:none" points="339.542,1023.63 358.439,1023.63 "/>
<polyline clip-path="url(#clip630)" style="stroke:#000000; stroke-linecap:round; stroke-linejoin:round; stroke-width:4; stroke-opacity:1; fill:none" points="339.542,662.467 358.439,662.467 "/>
<polyline clip-path="url(#clip630)" style="stroke:#000000; stroke-linecap:round; stroke-linejoin:round; stroke-width:4; stroke-opacity:1; fill:none" points="339.542,301.3 358.439,301.3 "/>
<path clip-path="url(#clip630)" d="M291.597 1370.6 Q287.986 1370.6 286.157 1374.17 Q284.352 1377.71 284.352 1384.84 Q284.352 1391.94 286.157 1395.51 Q287.986 1399.05 291.597 1399.05 Q295.231 1399.05 297.037 1395.51 Q298.866 1391.94 298.866 1384.84 Q298.866 1377.71 297.037 1374.17 Q295.231 1370.6 291.597 1370.6 M291.597 1366.9 Q297.407 1366.9 300.463 1371.5 Q303.542 1376.09 303.542 1384.84 Q303.542 1393.56 300.463 1398.17 Q297.407 1402.75 291.597 1402.75 Q285.787 1402.75 282.708 1398.17 Q279.653 1393.56 279.653 1384.84 Q279.653 1376.09 282.708 1371.5 Q285.787 1366.9 291.597 1366.9 Z" fill="#000000" fill-rule="nonzero" fill-opacity="1" /><path clip-path="url(#clip630)" d="M116.668 1043.43 L124.306 1043.43 L124.306 1017.06 L115.996 1018.73 L115.996 1014.47 L124.26 1012.8 L128.936 1012.8 L128.936 1043.43 L136.575 1043.43 L136.575 1047.36 L116.668 1047.36 L116.668 1043.43 Z" fill="#000000" fill-rule="nonzero" fill-opacity="1" /><path clip-path="url(#clip630)" d="M146.019 1041.48 L150.903 1041.48 L150.903 1047.36 L146.019 1047.36 L146.019 1041.48 Z" fill="#000000" fill-rule="nonzero" fill-opacity="1" /><path clip-path="url(#clip630)" d="M171.089 1015.88 Q167.477 1015.88 165.649 1019.45 Q163.843 1022.99 163.843 1030.12 Q163.843 1037.22 165.649 1040.79 Q167.477 1044.33 171.089 1044.33 Q174.723 1044.33 176.528 1040.79 Q178.357 1037.22 178.357 1030.12 Q178.357 1022.99 176.528 1019.45 Q174.723 1015.88 171.089 1015.88 M171.089 1012.18 Q176.899 1012.18 179.954 1016.78 Q183.033 1021.37 183.033 1030.12 Q183.033 1038.84 179.954 1043.45 Q176.899 1048.03 171.089 1048.03 Q165.278 1048.03 162.2 1043.45 Q159.144 1038.84 159.144 1030.12 Q159.144 1021.37 162.2 1016.78 Q165.278 1012.18 171.089 1012.18 Z" fill="#000000" fill-rule="nonzero" fill-opacity="1" /><path clip-path="url(#clip630)" d="M219.422 1021.9 L208.843 1032.52 L219.422 1043.1 L216.667 1045.9 L206.042 1035.28 L195.417 1045.9 L192.686 1043.1 L203.241 1032.52 L192.686 1021.9 L195.417 1019.1 L206.042 1029.72 L216.667 1019.1 L219.422 1021.9 Z" fill="#000000" fill-rule="nonzero" fill-opacity="1" /><path clip-path="url(#clip630)" d="M231.783 1043.43 L239.422 1043.43 L239.422 1017.06 L231.111 1018.73 L231.111 1014.47 L239.375 1012.8 L244.051 1012.8 L244.051 1043.43 L251.69 1043.43 L251.69 1047.36 L231.783 1047.36 L231.783 1043.43 Z" fill="#000000" fill-rule="nonzero" fill-opacity="1" /><path clip-path="url(#clip630)" d="M271.134 1015.88 Q267.523 1015.88 265.695 1019.45 Q263.889 1022.99 263.889 1030.12 Q263.889 1037.22 265.695 1040.79 Q267.523 1044.33 271.134 1044.33 Q274.769 1044.33 276.574 1040.79 Q278.403 1037.22 278.403 1030.12 Q278.403 1022.99 276.574 1019.45 Q274.769 1015.88 271.134 1015.88 M271.134 1012.18 Q276.944 1012.18 280 1016.78 Q283.079 1021.37 283.079 1030.12 Q283.079 1038.84 280 1043.45 Q276.944 1048.03 271.134 1048.03 Q265.324 1048.03 262.245 1043.45 Q259.19 1038.84 259.19 1030.12 Q259.19 1021.37 262.245 1016.78 Q265.324 1012.18 271.134 1012.18 Z" fill="#000000" fill-rule="nonzero" fill-opacity="1" /><path clip-path="url(#clip630)" d="M295.755 995.182 L286.163 1010.17 L295.755 1010.17 L295.755 995.182 M294.758 991.872 L299.535 991.872 L299.535 1010.17 L303.542 1010.17 L303.542 1013.33 L299.535 1013.33 L299.535 1019.95 L295.755 1019.95 L295.755 1013.33 L283.079 1013.33 L283.079 1009.66 L294.758 991.872 Z" fill="#000000" fill-rule="nonzero" fill-opacity="1" /><path clip-path="url(#clip630)" d="M119.885 682.26 L136.204 682.26 L136.204 686.195 L114.26 686.195 L114.26 682.26 Q116.922 679.505 121.505 674.875 Q126.112 670.223 127.292 668.88 Q129.538 666.357 130.417 664.621 Q131.32 662.862 131.32 661.172 Q131.32 658.417 129.376 656.681 Q127.455 654.945 124.353 654.945 Q122.154 654.945 119.7 655.709 Q117.269 656.473 114.492 658.024 L114.492 653.302 Q117.316 652.167 119.769 651.589 Q122.223 651.01 124.26 651.01 Q129.63 651.01 132.825 653.695 Q136.019 656.38 136.019 660.871 Q136.019 663.001 135.209 664.922 Q134.422 666.82 132.316 669.413 Q131.737 670.084 128.635 673.301 Q125.533 676.496 119.885 682.26 Z" fill="#000000" fill-rule="nonzero" fill-opacity="1" /><path clip-path="url(#clip630)" d="M146.019 680.315 L150.903 680.315 L150.903 686.195 L146.019 686.195 L146.019 680.315 Z" fill="#000000" fill-rule="nonzero" fill-opacity="1" /><path clip-path="url(#clip630)" d="M171.089 654.714 Q167.477 654.714 165.649 658.278 Q163.843 661.82 163.843 668.95 Q163.843 676.056 165.649 679.621 Q167.477 683.162 171.089 683.162 Q174.723 683.162 176.528 679.621 Q178.357 676.056 178.357 668.95 Q178.357 661.82 176.528 658.278 Q174.723 654.714 171.089 654.714 M171.089 651.01 Q176.899 651.01 179.954 655.616 Q183.033 660.2 183.033 668.95 Q183.033 677.676 179.954 682.283 Q176.899 686.866 171.089 686.866 Q165.278 686.866 162.2 682.283 Q159.144 677.676 159.144 668.95 Q159.144 660.2 162.2 655.616 Q165.278 651.01 171.089 651.01 Z" fill="#000000" fill-rule="nonzero" fill-opacity="1" /><path clip-path="url(#clip630)" d="M219.422 660.732 L208.843 671.357 L219.422 681.936 L216.667 684.737 L206.042 674.112 L195.417 684.737 L192.686 681.936 L203.241 671.357 L192.686 660.732 L195.417 657.931 L206.042 668.556 L216.667 657.931 L219.422 660.732 Z" fill="#000000" fill-rule="nonzero" fill-opacity="1" /><path clip-path="url(#clip630)" d="M231.783 682.26 L239.422 682.26 L239.422 655.894 L231.111 657.561 L231.111 653.302 L239.375 651.635 L244.051 651.635 L244.051 682.26 L251.69 682.26 L251.69 686.195 L231.783 686.195 L231.783 682.26 Z" fill="#000000" fill-rule="nonzero" fill-opacity="1" /><path clip-path="url(#clip630)" d="M271.134 654.714 Q267.523 654.714 265.695 658.278 Q263.889 661.82 263.889 668.95 Q263.889 676.056 265.695 679.621 Q267.523 683.162 271.134 683.162 Q274.769 683.162 276.574 679.621 Q278.403 676.056 278.403 668.95 Q278.403 661.82 276.574 658.278 Q274.769 654.714 271.134 654.714 M271.134 651.01 Q276.944 651.01 280 655.616 Q283.079 660.2 283.079 668.95 Q283.079 677.676 280 682.283 Q276.944 686.866 271.134 686.866 Q265.324 686.866 262.245 682.283 Q259.19 677.676 259.19 668.95 Q259.19 660.2 262.245 655.616 Q265.324 651.01 271.134 651.01 Z" fill="#000000" fill-rule="nonzero" fill-opacity="1" /><path clip-path="url(#clip630)" d="M295.755 634.015 L286.163 649.004 L295.755 649.004 L295.755 634.015 M294.758 630.704 L299.535 630.704 L299.535 649.004 L303.542 649.004 L303.542 652.164 L299.535 652.164 L299.535 658.784 L295.755 658.784 L295.755 652.164 L283.079 652.164 L283.079 648.497 L294.758 630.704 Z" fill="#000000" fill-rule="nonzero" fill-opacity="1" /><path clip-path="url(#clip630)" d="M130.024 306.393 Q133.38 307.111 135.255 309.38 Q137.154 311.648 137.154 314.981 Q137.154 320.097 133.635 322.898 Q130.117 325.699 123.635 325.699 Q121.459 325.699 119.144 325.259 Q116.853 324.842 114.399 323.986 L114.399 319.472 Q116.343 320.606 118.658 321.185 Q120.973 321.764 123.496 321.764 Q127.894 321.764 130.186 320.028 Q132.501 318.292 132.501 314.981 Q132.501 311.926 130.348 310.213 Q128.218 308.477 124.399 308.477 L120.371 308.477 L120.371 304.634 L124.584 304.634 Q128.033 304.634 129.862 303.269 Q131.691 301.88 131.691 299.287 Q131.691 296.625 129.792 295.213 Q127.917 293.778 124.399 293.778 Q122.478 293.778 120.279 294.194 Q118.08 294.611 115.441 295.491 L115.441 291.324 Q118.103 290.583 120.418 290.213 Q122.755 289.843 124.816 289.843 Q130.14 289.843 133.242 292.273 Q136.343 294.681 136.343 298.801 Q136.343 301.671 134.7 303.662 Q133.056 305.63 130.024 306.393 Z" fill="#000000" fill-rule="nonzero" fill-opacity="1" /><path clip-path="url(#clip630)" d="M146.019 319.148 L150.903 319.148 L150.903 325.028 L146.019 325.028 L146.019 319.148 Z" fill="#000000" fill-rule="nonzero" fill-opacity="1" /><path clip-path="url(#clip630)" d="M171.089 293.546 Q167.477 293.546 165.649 297.111 Q163.843 300.653 163.843 307.782 Q163.843 314.889 165.649 318.454 Q167.477 321.995 171.089 321.995 Q174.723 321.995 176.528 318.454 Q178.357 314.889 178.357 307.782 Q178.357 300.653 176.528 297.111 Q174.723 293.546 171.089 293.546 M171.089 289.843 Q176.899 289.843 179.954 294.449 Q183.033 299.032 183.033 307.782 Q183.033 316.509 179.954 321.116 Q176.899 325.699 171.089 325.699 Q165.278 325.699 162.2 321.116 Q159.144 316.509 159.144 307.782 Q159.144 299.032 162.2 294.449 Q165.278 289.843 171.089 289.843 Z" fill="#000000" fill-rule="nonzero" fill-opacity="1" /><path clip-path="url(#clip630)" d="M219.422 299.565 L208.843 310.19 L219.422 320.768 L216.667 323.569 L206.042 312.944 L195.417 323.569 L192.686 320.768 L203.241 310.19 L192.686 299.565 L195.417 296.764 L206.042 307.389 L216.667 296.764 L219.422 299.565 Z" fill="#000000" fill-rule="nonzero" fill-opacity="1" /><path clip-path="url(#clip630)" d="M231.783 321.092 L239.422 321.092 L239.422 294.727 L231.111 296.394 L231.111 292.134 L239.375 290.468 L244.051 290.468 L244.051 321.092 L251.69 321.092 L251.69 325.028 L231.783 325.028 L231.783 321.092 Z" fill="#000000" fill-rule="nonzero" fill-opacity="1" /><path clip-path="url(#clip630)" d="M271.134 293.546 Q267.523 293.546 265.695 297.111 Q263.889 300.653 263.889 307.782 Q263.889 314.889 265.695 318.454 Q267.523 321.995 271.134 321.995 Q274.769 321.995 276.574 318.454 Q278.403 314.889 278.403 307.782 Q278.403 300.653 276.574 297.111 Q274.769 293.546 271.134 293.546 M271.134 289.843 Q276.944 289.843 280 294.449 Q283.079 299.032 283.079 307.782 Q283.079 316.509 280 321.116 Q276.944 325.699 271.134 325.699 Q265.324 325.699 262.245 321.116 Q259.19 316.509 259.19 307.782 Q259.19 299.032 262.245 294.449 Q265.324 289.843 271.134 289.843 Z" fill="#000000" fill-rule="nonzero" fill-opacity="1" /><path clip-path="url(#clip630)" d="M295.755 272.847 L286.163 287.837 L295.755 287.837 L295.755 272.847 M294.758 269.537 L299.535 269.537 L299.535 287.837 L303.542 287.837 L303.542 290.997 L299.535 290.997 L299.535 297.617 L295.755 297.617 L295.755 290.997 L283.079 290.997 L283.079 287.329 L294.758 269.537 Z" fill="#000000" fill-rule="nonzero" fill-opacity="1" /><path clip-path="url(#clip630)" d="M14.479 775.905 L14.479 770.048 L64.0042 770.048 L64.0042 775.905 L14.479 775.905 Z" fill="#000000" fill-rule="nonzero" fill-opacity="1" /><path clip-path="url(#clip630)" d="M29.4065 735.069 L34.9447 735.069 Q33.6716 737.551 33.035 740.225 Q32.3984 742.899 32.3984 745.763 Q32.3984 750.124 33.7352 752.32 Q35.072 754.484 37.7456 754.484 Q39.7826 754.484 40.9603 752.925 Q42.1061 751.365 43.1565 746.654 L43.6021 744.649 Q44.9389 738.411 47.3897 735.801 Q49.8086 733.159 54.1691 733.159 Q59.1344 733.159 62.0308 737.106 Q64.9272 741.021 64.9272 747.896 Q64.9272 750.76 64.3543 753.879 Q63.8132 756.967 62.6992 760.404 L56.6518 760.404 Q58.3387 757.158 59.198 754.007 Q60.0256 750.856 60.0256 747.768 Q60.0256 743.631 58.6251 741.403 Q57.1929 739.175 54.6147 739.175 Q52.2276 739.175 50.9545 740.798 Q49.6813 742.389 48.5037 747.832 L48.0262 749.869 Q46.8804 755.312 44.5251 757.731 Q42.138 760.15 38.0002 760.15 Q32.9713 760.15 30.2341 756.585 Q27.4968 753.02 27.4968 746.463 Q27.4968 743.217 27.9743 740.352 Q28.4517 737.488 29.4065 735.069 Z" fill="#000000" fill-rule="nonzero" fill-opacity="1" /><path clip-path="url(#clip630)" d="M46.212 720.332 Q52.6732 720.332 56.3653 717.69 Q60.0256 715.017 60.0256 710.37 Q60.0256 705.723 56.3653 703.049 Q52.6732 700.376 46.212 700.376 Q39.7508 700.376 36.0905 703.049 Q32.3984 705.723 32.3984 710.37 Q32.3984 715.017 36.0905 717.69 Q39.7508 720.332 46.212 720.332 M58.657 700.376 Q61.8398 702.222 63.3994 705.054 Q64.9272 707.855 64.9272 711.802 Q64.9272 718.263 59.771 722.337 Q54.6147 726.38 46.212 726.38 Q37.8093 726.38 32.6531 722.337 Q27.4968 718.263 27.4968 711.802 Q27.4968 707.855 29.0564 705.054 Q30.5842 702.222 33.7671 700.376 L28.3562 700.376 L28.3562 694.519 L77.5631 694.519 L77.5631 700.376 L58.657 700.376 Z" fill="#000000" fill-rule="nonzero" fill-opacity="1" /><polyline clip-path="url(#clip632)" style="stroke:#009af9; stroke-linecap:round; stroke-linejoin:round; stroke-width:4; stroke-opacity:1; fill:none" points="396.519,86.1857 399.611,93.129 402.702,100.054 405.793,106.96 408.885,113.847 437.468,176.65 466.052,237.86 494.635,297.479 523.219,355.506 557.574,423.144 591.929,488.482 620.976,541.93 650.022,593.734 681.575,648.146 713.128,700.618 742.217,747.274 771.306,792.281 802.493,838.703 833.679,883.229 869.812,932.448 905.944,979.123 938.055,1018.47 970.165,1055.8 998.323,1086.89 1026.48,1116.43 1057.18,1146.88 1087.88,1175.5 1118.76,1202.43 1149.64,1227.5 1183.79,1253.05 1217.93,1276.34 1250.42,1296.39 1282.91,1314.38 1316.69,1330.91 1350.47,1345.21 1378.9,1355.53 1407.34,1364.27 1442.05,1372.8 1476.77,1378.99 1508.57,1382.6 1540.37,1384.24 1569.74,1384 1599.11,1382.08 1628.87,1378.43 1658.62,1373.04 1691.96,1364.96 1725.31,1354.72 1755.52,1343.56 1785.74,1330.63 1820.33,1313.63 1854.93,1294.31 1886.96,1274.34 1918.99,1252.36 1950.57,1228.75 1982.15,1203.19 2012.81,1176.51 2043.47,1148 2074.9,1116.88 2106.33,1083.83 2140.77,1045.41 2175.2,1004.68 2200.22,973.643 2225.23,941.392 2250.24,907.922 2275.25,873.233 2280.38,865.966 2285.52,858.647 2290.65,851.278 2295.78,843.857 "/>
</svg>
