<?xml version="1.0" encoding="utf-8"?>
<svg xmlns="http://www.w3.org/2000/svg" xmlns:xlink="http://www.w3.org/1999/xlink" width="600" height="400" viewBox="0 0 2400 1600">
<defs>
  <clipPath id="clip720">
    <rect x="0" y="0" width="2400" height="1600"/>
  </clipPath>
</defs>
<path clip-path="url(#clip720)" d="M0 1600 L2400 1600 L2400 0 L0 0  Z" fill="#ffffff" fill-rule="evenodd" fill-opacity="1"/>
<defs>
  <clipPath id="clip721">
    <rect x="480" y="0" width="1681" height="1600"/>
  </clipPath>
</defs>
<path clip-path="url(#clip720)" d="M156.598 1486.45 L2352.76 1486.45 L2352.76 47.2441 L156.598 47.2441  Z" fill="#ffffff" fill-rule="evenodd" fill-opacity="1"/>
<defs>
  <clipPath id="clip722">
    <rect x="156" y="47" width="2197" height="1440"/>
  </clipPath>
</defs>
<polyline clip-path="url(#clip722)" style="stroke:#000000; stroke-linecap:round; stroke-linejoin:round; stroke-width:2; stroke-opacity:0.1; fill:none" points="425.938,1486.45 425.938,47.2441 "/>
<polyline clip-path="url(#clip722)" style="stroke:#000000; stroke-linecap:round; stroke-linejoin:round; stroke-width:2; stroke-opacity:0.1; fill:none" points="840.308,1486.45 840.308,47.2441 "/>
<polyline clip-path="url(#clip722)" style="stroke:#000000; stroke-linecap:round; stroke-linejoin:round; stroke-width:2; stroke-opacity:0.1; fill:none" points="1254.68,1486.45 1254.68,47.2441 "/>
<polyline clip-path="url(#clip722)" style="stroke:#000000; stroke-linecap:round; stroke-linejoin:round; stroke-width:2; stroke-opacity:0.1; fill:none" points="1669.05,1486.45 1669.05,47.2441 "/>
<polyline clip-path="url(#clip722)" style="stroke:#000000; stroke-linecap:round; stroke-linejoin:round; stroke-width:2; stroke-opacity:0.1; fill:none" points="2083.42,1486.45 2083.42,47.2441 "/>
<polyline clip-path="url(#clip722)" style="stroke:#000000; stroke-linecap:round; stroke-linejoin:round; stroke-width:2; stroke-opacity:0.1; fill:none" points="156.598,1445.72 2352.76,1445.72 "/>
<polyline clip-path="url(#clip722)" style="stroke:#000000; stroke-linecap:round; stroke-linejoin:round; stroke-width:2; stroke-opacity:0.1; fill:none" points="156.598,1105.3 2352.76,1105.3 "/>
<polyline clip-path="url(#clip722)" style="stroke:#000000; stroke-linecap:round; stroke-linejoin:round; stroke-width:2; stroke-opacity:0.1; fill:none" points="156.598,764.888 2352.76,764.888 "/>
<polyline clip-path="url(#clip722)" style="stroke:#000000; stroke-linecap:round; stroke-linejoin:round; stroke-width:2; stroke-opacity:0.1; fill:none" points="156.598,424.471 2352.76,424.471 "/>
<polyline clip-path="url(#clip722)" style="stroke:#000000; stroke-linecap:round; stroke-linejoin:round; stroke-width:2; stroke-opacity:0.1; fill:none" points="156.598,84.055 2352.76,84.055 "/>
<polyline clip-path="url(#clip720)" style="stroke:#000000; stroke-linecap:round; stroke-linejoin:round; stroke-width:4; stroke-opacity:1; fill:none" points="156.598,1486.45 2352.76,1486.45 "/>
<polyline clip-path="url(#clip720)" style="stroke:#000000; stroke-linecap:round; stroke-linejoin:round; stroke-width:4; stroke-opacity:1; fill:none" points="425.938,1486.45 425.938,1467.55 "/>
<polyline clip-path="url(#clip720)" style="stroke:#000000; stroke-linecap:round; stroke-linejoin:round; stroke-width:4; stroke-opacity:1; fill:none" points="840.308,1486.45 840.308,1467.55 "/>
<polyline clip-path="url(#clip720)" style="stroke:#000000; stroke-linecap:round; stroke-linejoin:round; stroke-width:4; stroke-opacity:1; fill:none" points="1254.68,1486.45 1254.68,1467.55 "/>
<polyline clip-path="url(#clip720)" style="stroke:#000000; stroke-linecap:round; stroke-linejoin:round; stroke-width:4; stroke-opacity:1; fill:none" points="1669.05,1486.45 1669.05,1467.55 "/>
<polyline clip-path="url(#clip720)" style="stroke:#000000; stroke-linecap:round; stroke-linejoin:round; stroke-width:4; stroke-opacity:1; fill:none" points="2083.42,1486.45 2083.42,1467.55 "/>
<path clip-path="url(#clip720)" d="M394.839 1532.02 L424.515 1532.02 L424.515 1535.95 L394.839 1535.95 L394.839 1532.02 Z" fill="#000000" fill-rule="nonzero" fill-opacity="1" /><path clip-path="url(#clip720)" d="M447.454 1518.36 L435.649 1536.81 L447.454 1536.81 L447.454 1518.36 M446.228 1514.29 L452.107 1514.29 L452.107 1536.81 L457.038 1536.81 L457.038 1540.7 L452.107 1540.7 L452.107 1548.85 L447.454 1548.85 L447.454 1540.7 L431.853 1540.7 L431.853 1536.19 L446.228 1514.29 Z" fill="#000000" fill-rule="nonzero" fill-opacity="1" /><path clip-path="url(#clip720)" d="M810.25 1532.02 L839.926 1532.02 L839.926 1535.95 L810.25 1535.95 L810.25 1532.02 Z" fill="#000000" fill-rule="nonzero" fill-opacity="1" /><path clip-path="url(#clip720)" d="M854.046 1544.91 L870.365 1544.91 L870.365 1548.85 L848.421 1548.85 L848.421 1544.91 Q851.083 1542.16 855.666 1537.53 Q860.273 1532.88 861.453 1531.53 Q863.699 1529.01 864.578 1527.27 Q865.481 1525.51 865.481 1523.82 Q865.481 1521.07 863.537 1519.33 Q861.615 1517.6 858.514 1517.6 Q856.315 1517.6 853.861 1518.36 Q851.43 1519.13 848.653 1520.68 L848.653 1515.95 Q851.477 1514.82 853.93 1514.24 Q856.384 1513.66 858.421 1513.66 Q863.791 1513.66 866.986 1516.35 Q870.18 1519.03 870.18 1523.52 Q870.18 1525.65 869.37 1527.57 Q868.583 1529.47 866.477 1532.07 Q865.898 1532.74 862.796 1535.95 Q859.694 1539.15 854.046 1544.91 Z" fill="#000000" fill-rule="nonzero" fill-opacity="1" /><path clip-path="url(#clip720)" d="M1254.68 1517.37 Q1251.07 1517.37 1249.24 1520.93 Q1247.43 1524.47 1247.43 1531.6 Q1247.43 1538.71 1249.24 1542.27 Q1251.07 1545.82 1254.68 1545.82 Q1258.31 1545.82 1260.12 1542.27 Q1261.95 1538.71 1261.95 1531.6 Q1261.95 1524.47 1260.12 1520.93 Q1258.31 1517.37 1254.68 1517.37 M1254.68 1513.66 Q1260.49 1513.66 1263.54 1518.27 Q1266.62 1522.85 1266.62 1531.6 Q1266.62 1540.33 1263.54 1544.94 Q1260.49 1549.52 1254.68 1549.52 Q1248.87 1549.52 1245.79 1544.94 Q1242.73 1540.33 1242.73 1531.6 Q1242.73 1522.85 1245.79 1518.27 Q1248.87 1513.66 1254.68 1513.66 Z" fill="#000000" fill-rule="nonzero" fill-opacity="1" /><path clip-path="url(#clip720)" d="M1663.7 1544.91 L1680.02 1544.91 L1680.02 1548.85 L1658.07 1548.85 L1658.07 1544.91 Q1660.74 1542.16 1665.32 1537.53 Q1669.93 1532.88 1671.11 1531.53 Q1673.35 1529.01 1674.23 1527.27 Q1675.13 1525.51 1675.13 1523.82 Q1675.13 1521.07 1673.19 1519.33 Q1671.27 1517.6 1668.17 1517.6 Q1665.97 1517.6 1663.51 1518.36 Q1661.08 1519.13 1658.31 1520.68 L1658.31 1515.95 Q1661.13 1514.82 1663.58 1514.24 Q1666.04 1513.66 1668.07 1513.66 Q1673.44 1513.66 1676.64 1516.35 Q1679.83 1519.03 1679.83 1523.52 Q1679.83 1525.65 1679.02 1527.57 Q1678.24 1529.47 1676.13 1532.07 Q1675.55 1532.74 1672.45 1535.95 Q1669.35 1539.15 1663.7 1544.91 Z" fill="#000000" fill-rule="nonzero" fill-opacity="1" /><path clip-path="url(#clip720)" d="M2086.43 1518.36 L2074.62 1536.81 L2086.43 1536.81 L2086.43 1518.36 M2085.2 1514.29 L2091.08 1514.29 L2091.08 1536.81 L2096.01 1536.81 L2096.01 1540.7 L2091.08 1540.7 L2091.08 1548.85 L2086.43 1548.85 L2086.43 1540.7 L2070.82 1540.7 L2070.82 1536.19 L2085.2 1514.29 Z" fill="#000000" fill-rule="nonzero" fill-opacity="1" /><polyline clip-path="url(#clip720)" style="stroke:#000000; stroke-linecap:round; stroke-linejoin:round; stroke-width:4; stroke-opacity:1; fill:none" points="156.598,1486.45 156.598,47.2441 "/>
<polyline clip-path="url(#clip720)" style="stroke:#000000; stroke-linecap:round; stroke-linejoin:round; stroke-width:4; stroke-opacity:1; fill:none" points="156.598,1445.72 175.496,1445.72 "/>
<polyline clip-path="url(#clip720)" style="stroke:#000000; stroke-linecap:round; stroke-linejoin:round; stroke-width:4; stroke-opacity:1; fill:none" points="156.598,1105.3 175.496,1105.3 "/>
<polyline clip-path="url(#clip720)" style="stroke:#000000; stroke-linecap:round; stroke-linejoin:round; stroke-width:4; stroke-opacity:1; fill:none" points="156.598,764.888 175.496,764.888 "/>
<polyline clip-path="url(#clip720)" style="stroke:#000000; stroke-linecap:round; stroke-linejoin:round; stroke-width:4; stroke-opacity:1; fill:none" points="156.598,424.471 175.496,424.471 "/>
<polyline clip-path="url(#clip720)" style="stroke:#000000; stroke-linecap:round; stroke-linejoin:round; stroke-width:4; stroke-opacity:1; fill:none" points="156.598,84.055 175.496,84.055 "/>
<path clip-path="url(#clip720)" d="M63.4226 1431.52 Q59.8115 1431.52 57.9828 1435.08 Q56.1773 1438.63 56.1773 1445.76 Q56.1773 1452.86 57.9828 1456.43 Q59.8115 1459.97 63.4226 1459.97 Q67.0569 1459.97 68.8624 1456.43 Q70.6911 1452.86 70.6911 1445.76 Q70.6911 1438.63 68.8624 1435.08 Q67.0569 1431.52 63.4226 1431.52 M63.4226 1427.82 Q69.2328 1427.82 72.2883 1432.42 Q75.367 1437.01 75.367 1445.76 Q75.367 1454.48 72.2883 1459.09 Q69.2328 1463.67 63.4226 1463.67 Q57.6125 1463.67 54.5338 1459.09 Q51.4782 1454.48 51.4782 1445.76 Q51.4782 1437.01 54.5338 1432.42 Q57.6125 1427.82 63.4226 1427.82 Z" fill="#000000" fill-rule="nonzero" fill-opacity="1" /><path clip-path="url(#clip720)" d="M83.5845 1457.12 L88.4688 1457.12 L88.4688 1463 L83.5845 1463 L83.5845 1457.12 Z" fill="#000000" fill-rule="nonzero" fill-opacity="1" /><path clip-path="url(#clip720)" d="M108.654 1431.52 Q105.043 1431.52 103.214 1435.08 Q101.409 1438.63 101.409 1445.76 Q101.409 1452.86 103.214 1456.43 Q105.043 1459.97 108.654 1459.97 Q112.288 1459.97 114.094 1456.43 Q115.922 1452.86 115.922 1445.76 Q115.922 1438.63 114.094 1435.08 Q112.288 1431.52 108.654 1431.52 M108.654 1427.82 Q114.464 1427.82 117.52 1432.42 Q120.598 1437.01 120.598 1445.76 Q120.598 1454.48 117.52 1459.09 Q114.464 1463.67 108.654 1463.67 Q102.844 1463.67 99.765 1459.09 Q96.7095 1454.48 96.7095 1445.76 Q96.7095 1437.01 99.765 1432.42 Q102.844 1427.82 108.654 1427.82 Z" fill="#000000" fill-rule="nonzero" fill-opacity="1" /><path clip-path="url(#clip720)" d="M64.6495 1091.1 Q61.0384 1091.1 59.2097 1094.67 Q57.4041 1098.21 57.4041 1105.34 Q57.4041 1112.45 59.2097 1116.01 Q61.0384 1119.55 64.6495 1119.55 Q68.2837 1119.55 70.0892 1116.01 Q71.9179 1112.45 71.9179 1105.34 Q71.9179 1098.21 70.0892 1094.67 Q68.2837 1091.1 64.6495 1091.1 M64.6495 1087.4 Q70.4596 1087.4 73.5152 1092.01 Q76.5938 1096.59 76.5938 1105.34 Q76.5938 1114.07 73.5152 1118.67 Q70.4596 1123.26 64.6495 1123.26 Q58.8393 1123.26 55.7606 1118.67 Q52.7051 1114.07 52.7051 1105.34 Q52.7051 1096.59 55.7606 1092.01 Q58.8393 1087.4 64.6495 1087.4 Z" fill="#000000" fill-rule="nonzero" fill-opacity="1" /><path clip-path="url(#clip720)" d="M84.8114 1116.7 L89.6956 1116.7 L89.6956 1122.58 L84.8114 1122.58 L84.8114 1116.7 Z" fill="#000000" fill-rule="nonzero" fill-opacity="1" /><path clip-path="url(#clip720)" d="M100.691 1118.65 L108.33 1118.65 L108.33 1092.28 L100.02 1093.95 L100.02 1089.69 L108.283 1088.02 L112.959 1088.02 L112.959 1118.65 L120.598 1118.65 L120.598 1122.58 L100.691 1122.58 L100.691 1118.65 Z" fill="#000000" fill-rule="nonzero" fill-opacity="1" /><path clip-path="url(#clip720)" d="M65.0198 750.687 Q61.4087 750.687 59.58 754.251 Q57.7745 757.793 57.7745 764.923 Q57.7745 772.029 59.58 775.594 Q61.4087 779.135 65.0198 779.135 Q68.6541 779.135 70.4596 775.594 Q72.2883 772.029 72.2883 764.923 Q72.2883 757.793 70.4596 754.251 Q68.6541 750.687 65.0198 750.687 M65.0198 746.983 Q70.83 746.983 73.8855 751.589 Q76.9642 756.173 76.9642 764.923 Q76.9642 773.649 73.8855 778.256 Q70.83 782.839 65.0198 782.839 Q59.2097 782.839 56.131 778.256 Q53.0754 773.649 53.0754 764.923 Q53.0754 756.173 56.131 751.589 Q59.2097 746.983 65.0198 746.983 Z" fill="#000000" fill-rule="nonzero" fill-opacity="1" /><path clip-path="url(#clip720)" d="M85.1818 776.288 L90.066 776.288 L90.066 782.168 L85.1818 782.168 L85.1818 776.288 Z" fill="#000000" fill-rule="nonzero" fill-opacity="1" /><path clip-path="url(#clip720)" d="M104.279 778.233 L120.598 778.233 L120.598 782.168 L98.6539 782.168 L98.6539 778.233 Q101.316 775.478 105.899 770.848 Q110.506 766.196 111.686 764.853 Q113.932 762.33 114.811 760.594 Q115.714 758.835 115.714 757.145 Q115.714 754.39 113.77 752.654 Q111.848 750.918 108.746 750.918 Q106.547 750.918 104.094 751.682 Q101.663 752.446 98.8854 753.997 L98.8854 749.275 Q101.709 748.14 104.163 747.562 Q106.617 746.983 108.654 746.983 Q114.024 746.983 117.219 749.668 Q120.413 752.353 120.413 756.844 Q120.413 758.974 119.603 760.895 Q118.816 762.793 116.709 765.386 Q116.131 766.057 113.029 769.274 Q109.927 772.469 104.279 778.233 Z" fill="#000000" fill-rule="nonzero" fill-opacity="1" /><path clip-path="url(#clip720)" d="M64.0708 410.27 Q60.4597 410.27 58.631 413.835 Q56.8254 417.377 56.8254 424.506 Q56.8254 431.613 58.631 435.177 Q60.4597 438.719 64.0708 438.719 Q67.705 438.719 69.5105 435.177 Q71.3392 431.613 71.3392 424.506 Q71.3392 417.377 69.5105 413.835 Q67.705 410.27 64.0708 410.27 M64.0708 406.566 Q69.8809 406.566 72.9365 411.173 Q76.0151 415.756 76.0151 424.506 Q76.0151 433.233 72.9365 437.839 Q69.8809 442.423 64.0708 442.423 Q58.2606 442.423 55.1819 437.839 Q52.1264 433.233 52.1264 424.506 Q52.1264 415.756 55.1819 411.173 Q58.2606 406.566 64.0708 406.566 Z" fill="#000000" fill-rule="nonzero" fill-opacity="1" /><path clip-path="url(#clip720)" d="M84.2327 435.872 L89.1169 435.872 L89.1169 441.751 L84.2327 441.751 L84.2327 435.872 Z" fill="#000000" fill-rule="nonzero" fill-opacity="1" /><path clip-path="url(#clip720)" d="M113.469 423.117 Q116.825 423.835 118.7 426.103 Q120.598 428.372 120.598 431.705 Q120.598 436.821 117.08 439.622 Q113.561 442.423 107.08 442.423 Q104.904 442.423 102.589 441.983 Q100.297 441.566 97.8437 440.71 L97.8437 436.196 Q99.7882 437.33 102.103 437.909 Q104.418 438.488 106.941 438.488 Q111.339 438.488 113.631 436.751 Q115.945 435.015 115.945 431.705 Q115.945 428.65 113.793 426.937 Q111.663 425.201 107.844 425.201 L103.816 425.201 L103.816 421.358 L108.029 421.358 Q111.478 421.358 113.307 419.992 Q115.135 418.603 115.135 416.011 Q115.135 413.349 113.237 411.937 Q111.362 410.502 107.844 410.502 Q105.922 410.502 103.723 410.918 Q101.524 411.335 98.8854 412.215 L98.8854 408.048 Q101.547 407.307 103.862 406.937 Q106.2 406.566 108.26 406.566 Q113.584 406.566 116.686 408.997 Q119.788 411.404 119.788 415.525 Q119.788 418.395 118.145 420.386 Q116.501 422.353 113.469 423.117 Z" fill="#000000" fill-rule="nonzero" fill-opacity="1" /><path clip-path="url(#clip720)" d="M62.9365 69.8537 Q59.3254 69.8537 57.4967 73.4185 Q55.6912 76.9601 55.6912 84.0897 Q55.6912 91.1962 57.4967 94.761 Q59.3254 98.3026 62.9365 98.3026 Q66.5707 98.3026 68.3763 94.761 Q70.205 91.1962 70.205 84.0897 Q70.205 76.9601 68.3763 73.4185 Q66.5707 69.8537 62.9365 69.8537 M62.9365 66.15 Q68.7467 66.15 71.8022 70.7565 Q74.8809 75.3398 74.8809 84.0897 Q74.8809 92.8165 71.8022 97.423 Q68.7467 102.006 62.9365 102.006 Q57.1264 102.006 54.0477 97.423 Q50.9921 92.8165 50.9921 84.0897 Q50.9921 75.3398 54.0477 70.7565 Q57.1264 66.15 62.9365 66.15 Z" fill="#000000" fill-rule="nonzero" fill-opacity="1" /><path clip-path="url(#clip720)" d="M83.0984 95.4554 L87.9827 95.4554 L87.9827 101.335 L83.0984 101.335 L83.0984 95.4554 Z" fill="#000000" fill-rule="nonzero" fill-opacity="1" /><path clip-path="url(#clip720)" d="M111.015 70.8491 L99.2095 89.298 L111.015 89.298 L111.015 70.8491 M109.788 66.775 L115.668 66.775 L115.668 89.298 L120.598 89.298 L120.598 93.1869 L115.668 93.1869 L115.668 101.335 L111.015 101.335 L111.015 93.1869 L95.4132 93.1869 L95.4132 88.673 L109.788 66.775 Z" fill="#000000" fill-rule="nonzero" fill-opacity="1" /><polyline clip-path="url(#clip722)" style="stroke:#009af9; stroke-linecap:round; stroke-linejoin:round; stroke-width:4; stroke-opacity:1; fill:none" points="218.754,1445.72 232.242,1445.71 356.966,1445.61 431.92,1445.21 495.293,1444.08 529.713,1442.74 564.133,1440.46 595.866,1437.07 627.598,1431.8 644.608,1427.93 661.618,1423.14 678.629,1417.26 695.639,1410.08 715.347,1399.86 735.055,1387.24 754.763,1371.81 774.471,1353.17 791.985,1333.54 809.499,1310.71 818.256,1298.01 827.013,1284.4 835.77,1269.85 844.528,1254.32 859.886,1224.68 875.244,1191.84 890.603,1155.73 905.961,1116.29 914.333,1093.39 922.706,1069.51 931.078,1044.68 939.45,1018.9 947.823,992.202 956.195,964.623 964.567,936.2 972.94,906.978 989.784,845.985 1006.63,782.486 1023.47,717.095 1040.32,650.53 1058.94,576.547 1077.56,503.326 1096.19,432.158 1114.81,364.389 1123.67,333.735 1132.53,304.301 1141.39,276.228 1150.25,249.655 1159.11,224.712 1167.97,201.526 1176.83,180.217 1185.69,160.894 1194.9,143.018 1204.11,127.503 1213.33,114.437 1222.54,103.897 1231.75,95.9452 1240.96,90.6277 1250.17,87.9763 1259.39,88.0065 1267.14,90.1112 1274.9,94.1074 1282.65,99.9784 1290.41,107.7 1298.16,117.239 1305.92,128.557 1313.67,141.607 1321.42,156.335 1330.89,176.504 1340.36,198.964 1349.83,223.581 1359.3,250.211 1368.76,278.7 1378.23,308.886 1387.7,340.602 1397.17,373.674 1414.51,437.199 1431.86,503.586 1449.2,571.75 1466.55,640.646 1482.57,704.074 1498.59,766.578 1514.61,827.522 1530.63,886.351 1546.86,943.31 1563.09,997.228 1579.31,1047.81 1595.54,1094.84 1604.64,1119.6 1613.73,1143.2 1622.82,1165.62 1631.92,1186.89 1641.01,1207 1650.1,1225.97 1659.2,1243.82 1668.29,1260.58 1684.77,1288.27 1701.25,1312.65 1717.73,1333.97 1734.21,1352.47 1753.08,1370.51 1771.95,1385.55 1790.82,1397.99 1809.69,1408.17 1827.16,1415.87 1844.63,1422.16 1862.1,1427.25 1879.57,1431.35 1914.02,1437.14 1948.47,1440.73 1981.92,1442.85 2015.36,1444.11 2083.94,1445.27 2159.07,1445.62 2268.21,1445.71 2290.6,1445.72 "/>
<polyline clip-path="url(#clip722)" style="stroke:#e26f46; stroke-linecap:round; stroke-linejoin:round; stroke-width:4; stroke-opacity:1; fill:none" points="218.754,1404.04 232.242,1402.98 356.966,1390.92 431.92,1381.11 495.293,1370.65 529.713,1363.9 564.133,1356.23 595.866,1348.2 627.598,1339.08 661.618,1327.86 695.639,1314.86 715.347,1306.38 735.055,1297.08 754.763,1286.89 774.471,1275.67 791.985,1264.74 809.499,1252.81 827.013,1239.75 844.528,1225.43 859.886,1211.73 875.244,1196.85 890.603,1180.65 905.961,1163.01 922.706,1141.97 939.45,1118.84 956.195,1093.39 972.94,1065.4 981.362,1050.29 989.784,1034.44 998.206,1017.83 1006.63,1000.42 1015.05,982.195 1023.47,963.124 1031.89,943.188 1040.32,922.371 1049.63,898.317 1058.94,873.17 1068.25,846.941 1077.56,819.658 1086.88,791.37 1096.19,762.152 1105.5,732.106 1114.81,701.369 1132.53,641.626 1150.25,581.654 1159.11,552.244 1167.97,523.64 1176.83,496.196 1185.69,470.291 1194.9,445.408 1204.11,423.052 1208.72,412.957 1213.33,403.652 1217.93,395.186 1222.54,387.603 1227.14,380.945 1231.75,375.25 1236.36,370.549 1240.96,366.869 1245.57,364.232 1250.17,362.653 1254.78,362.142 1259.39,362.701 1263.26,364 1267.14,366.049 1271.02,368.841 1274.9,372.364 1278.77,376.603 1282.65,381.542 1286.53,387.16 1290.41,393.435 1298.16,407.858 1305.92,424.594 1313.67,443.404 1321.42,464.031 1330.89,491.296 1340.36,520.4 1349.83,550.877 1359.3,582.294 1378.23,646.401 1397.17,710.085 1414.51,766.425 1431.86,819.857 1440.53,845.295 1449.2,869.82 1457.88,893.409 1466.55,916.051 1474.56,936.12 1482.57,955.389 1490.58,973.868 1498.59,991.575 1506.6,1008.53 1514.61,1024.75 1522.62,1040.27 1530.63,1055.1 1546.86,1083.17 1563.09,1108.77 1579.31,1132.11 1595.54,1153.4 1613.73,1175.05 1631.92,1194.62 1650.1,1212.32 1668.29,1228.37 1684.77,1241.63 1701.25,1253.8 1717.73,1264.98 1734.21,1275.27 1753.08,1286.06 1771.95,1295.92 1790.82,1304.93 1809.69,1313.19 1844.63,1326.75 1879.57,1338.4 1914.02,1348.34 1948.47,1357 1981.92,1364.38 2015.36,1370.89 2083.94,1382.06 2159.07,1391.69 2268.21,1402.26 2290.6,1404.04 "/>
<path clip-path="url(#clip720)" d="M1777.92 250.738 L2279.55 250.738 L2279.55 95.2176 L1777.92 95.2176  Z" fill="#ffffff" fill-rule="evenodd" fill-opacity="1"/>
<polyline clip-path="url(#clip720)" style="stroke:#000000; stroke-linecap:round; stroke-linejoin:round; stroke-width:4; stroke-opacity:1; fill:none" points="1777.92,250.738 2279.55,250.738 2279.55,95.2176 1777.92,95.2176 1777.92,250.738 "/>
<polyline clip-path="url(#clip720)" style="stroke:#009af9; stroke-linecap:round; stroke-linejoin:round; stroke-width:4; stroke-opacity:1; fill:none" points="1802.32,147.058 1948.73,147.058 "/>
<path clip-path="url(#clip720)" d="M1973.14 129.778 L1979.43 129.778 L1994.76 158.689 L1994.76 129.778 L1999.29 129.778 L1999.29 164.338 L1993 164.338 L1977.67 135.426 L1977.67 164.338 L1973.14 164.338 L1973.14 129.778 Z" fill="#000000" fill-rule="nonzero" fill-opacity="1" /><path clip-path="url(#clip720)" d="M2018.46 141.398 Q2015.03 141.398 2013.04 144.083 Q2011.05 146.745 2011.05 151.398 Q2011.05 156.051 2013.02 158.736 Q2015.01 161.398 2018.46 161.398 Q2021.86 161.398 2023.85 158.713 Q2025.84 156.027 2025.84 151.398 Q2025.84 146.791 2023.85 144.106 Q2021.86 141.398 2018.46 141.398 M2018.46 137.787 Q2024.02 137.787 2027.19 141.398 Q2030.36 145.009 2030.36 151.398 Q2030.36 157.764 2027.19 161.398 Q2024.02 165.009 2018.46 165.009 Q2012.88 165.009 2009.71 161.398 Q2006.56 157.764 2006.56 151.398 Q2006.56 145.009 2009.71 141.398 Q2012.88 137.787 2018.46 137.787 Z" fill="#000000" fill-rule="nonzero" fill-opacity="1" /><path clip-path="url(#clip720)" d="M2052.44 142.393 Q2051.72 141.977 2050.87 141.791 Q2050.03 141.583 2049.02 141.583 Q2045.4 141.583 2043.46 143.944 Q2041.54 146.282 2041.54 150.68 L2041.54 164.338 L2037.26 164.338 L2037.26 138.412 L2041.54 138.412 L2041.54 142.44 Q2042.88 140.078 2045.03 138.944 Q2047.19 137.787 2050.27 137.787 Q2050.71 137.787 2051.24 137.856 Q2051.77 137.903 2052.42 138.018 L2052.44 142.393 Z" fill="#000000" fill-rule="nonzero" fill-opacity="1" /><path clip-path="url(#clip720)" d="M2076.26 143.389 Q2077.86 140.518 2080.08 139.153 Q2082.3 137.787 2085.31 137.787 Q2089.36 137.787 2091.56 140.634 Q2093.76 143.458 2093.76 148.689 L2093.76 164.338 L2089.48 164.338 L2089.48 148.828 Q2089.48 145.102 2088.16 143.296 Q2086.84 141.49 2084.13 141.49 Q2080.82 141.49 2078.9 143.69 Q2076.98 145.889 2076.98 149.685 L2076.98 164.338 L2072.7 164.338 L2072.7 148.828 Q2072.7 145.078 2071.38 143.296 Q2070.06 141.49 2067.3 141.49 Q2064.04 141.49 2062.12 143.713 Q2060.2 145.912 2060.2 149.685 L2060.2 164.338 L2055.91 164.338 L2055.91 138.412 L2060.2 138.412 L2060.2 142.44 Q2061.65 140.055 2063.69 138.921 Q2065.73 137.787 2068.53 137.787 Q2071.35 137.787 2073.32 139.222 Q2075.31 140.657 2076.26 143.389 Z" fill="#000000" fill-rule="nonzero" fill-opacity="1" /><path clip-path="url(#clip720)" d="M2114.04 151.305 Q2108.88 151.305 2106.89 152.486 Q2104.9 153.666 2104.9 156.514 Q2104.9 158.782 2106.38 160.125 Q2107.88 161.444 2110.45 161.444 Q2113.99 161.444 2116.12 158.944 Q2118.27 156.421 2118.27 152.254 L2118.27 151.305 L2114.04 151.305 M2122.53 149.546 L2122.53 164.338 L2118.27 164.338 L2118.27 160.402 Q2116.82 162.763 2114.64 163.898 Q2112.46 165.009 2109.32 165.009 Q2105.33 165.009 2102.97 162.787 Q2100.64 160.541 2100.64 156.791 Q2100.64 152.416 2103.55 150.194 Q2106.49 147.972 2112.3 147.972 L2118.27 147.972 L2118.27 147.555 Q2118.27 144.615 2116.33 143.018 Q2114.41 141.398 2110.91 141.398 Q2108.69 141.398 2106.58 141.93 Q2104.48 142.463 2102.53 143.527 L2102.53 139.592 Q2104.87 138.69 2107.07 138.25 Q2109.27 137.787 2111.35 137.787 Q2116.98 137.787 2119.76 140.703 Q2122.53 143.62 2122.53 149.546 Z" fill="#000000" fill-rule="nonzero" fill-opacity="1" /><path clip-path="url(#clip720)" d="M2131.31 128.319 L2135.57 128.319 L2135.57 164.338 L2131.31 164.338 L2131.31 128.319 Z" fill="#000000" fill-rule="nonzero" fill-opacity="1" /><path clip-path="url(#clip720)" d="M2154.71 128.366 Q2151.61 133.69 2150.1 138.898 Q2148.6 144.106 2148.6 149.453 Q2148.6 154.801 2150.1 160.055 Q2151.63 165.287 2154.71 170.588 L2151.01 170.588 Q2147.53 165.148 2145.8 159.893 Q2144.08 154.639 2144.08 149.453 Q2144.08 144.291 2145.8 139.06 Q2147.51 133.828 2151.01 128.366 L2154.71 128.366 Z" fill="#000000" fill-rule="nonzero" fill-opacity="1" /><path clip-path="url(#clip720)" d="M2173.58 132.856 Q2169.96 132.856 2168.14 136.421 Q2166.33 139.963 2166.33 147.092 Q2166.33 154.199 2168.14 157.764 Q2169.96 161.305 2173.58 161.305 Q2177.21 161.305 2179.02 157.764 Q2180.84 154.199 2180.84 147.092 Q2180.84 139.963 2179.02 136.421 Q2177.21 132.856 2173.58 132.856 M2173.58 129.153 Q2179.39 129.153 2182.44 133.759 Q2185.52 138.342 2185.52 147.092 Q2185.52 155.819 2182.44 160.426 Q2179.39 165.009 2173.58 165.009 Q2167.77 165.009 2164.69 160.426 Q2161.63 155.819 2161.63 147.092 Q2161.63 138.342 2164.69 133.759 Q2167.77 129.153 2173.58 129.153 Z" fill="#000000" fill-rule="nonzero" fill-opacity="1" /><path clip-path="url(#clip720)" d="M2194.22 158.458 L2199.11 158.458 L2199.11 162.439 L2195.31 169.847 L2192.33 169.847 L2194.22 162.439 L2194.22 158.458 Z" fill="#000000" fill-rule="nonzero" fill-opacity="1" /><path clip-path="url(#clip720)" d="M2209.62 160.402 L2217.26 160.402 L2217.26 134.037 L2208.95 135.703 L2208.95 131.444 L2217.21 129.778 L2221.89 129.778 L2221.89 160.402 L2229.52 160.402 L2229.52 164.338 L2209.62 164.338 L2209.62 160.402 Z" fill="#000000" fill-rule="nonzero" fill-opacity="1" /><path clip-path="url(#clip720)" d="M2237.7 128.366 L2241.4 128.366 Q2244.87 133.828 2246.58 139.06 Q2248.32 144.291 2248.32 149.453 Q2248.32 154.639 2246.58 159.893 Q2244.87 165.148 2241.4 170.588 L2237.7 170.588 Q2240.77 165.287 2242.28 160.055 Q2243.81 154.801 2243.81 149.453 Q2243.81 144.106 2242.28 138.898 Q2240.77 133.69 2237.7 128.366 Z" fill="#000000" fill-rule="nonzero" fill-opacity="1" /><polyline clip-path="url(#clip720)" style="stroke:#e26f46; stroke-linecap:round; stroke-linejoin:round; stroke-width:4; stroke-opacity:1; fill:none" points="1802.32,198.898 1948.73,198.898 "/>
<path clip-path="url(#clip720)" d="M2001.01 184.28 L2001.01 189.21 Q1998.65 187.011 1995.96 185.923 Q1993.3 184.835 1990.29 184.835 Q1984.36 184.835 1981.22 188.469 Q1978.07 192.08 1978.07 198.932 Q1978.07 205.761 1981.22 209.395 Q1984.36 213.006 1990.29 213.006 Q1993.3 213.006 1995.96 211.918 Q1998.65 210.83 2001.01 208.631 L2001.01 213.516 Q1998.55 215.182 1995.8 216.016 Q1993.07 216.849 1990.01 216.849 Q1982.16 216.849 1977.65 212.057 Q1973.14 207.242 1973.14 198.932 Q1973.14 190.599 1977.65 185.807 Q1982.16 180.993 1990.01 180.993 Q1993.11 180.993 1995.84 181.826 Q1998.6 182.636 2001.01 184.28 Z" fill="#000000" fill-rule="nonzero" fill-opacity="1" /><path clip-path="url(#clip720)" d="M2019.83 203.145 Q2014.66 203.145 2012.67 204.326 Q2010.68 205.506 2010.68 208.354 Q2010.68 210.622 2012.16 211.965 Q2013.67 213.284 2016.24 213.284 Q2019.78 213.284 2021.91 210.784 Q2024.06 208.261 2024.06 204.094 L2024.06 203.145 L2019.83 203.145 M2028.32 201.386 L2028.32 216.178 L2024.06 216.178 L2024.06 212.242 Q2022.6 214.603 2020.43 215.738 Q2018.25 216.849 2015.1 216.849 Q2011.12 216.849 2008.76 214.627 Q2006.42 212.381 2006.42 208.631 Q2006.42 204.256 2009.34 202.034 Q2012.28 199.812 2018.09 199.812 L2024.06 199.812 L2024.06 199.395 Q2024.06 196.455 2022.12 194.858 Q2020.2 193.238 2016.7 193.238 Q2014.48 193.238 2012.37 193.77 Q2010.27 194.303 2008.32 195.367 L2008.32 191.432 Q2010.66 190.53 2012.86 190.09 Q2015.06 189.627 2017.14 189.627 Q2022.77 189.627 2025.54 192.543 Q2028.32 195.46 2028.32 201.386 Z" fill="#000000" fill-rule="nonzero" fill-opacity="1" /><path clip-path="url(#clip720)" d="M2036.65 205.946 L2036.65 190.252 L2040.91 190.252 L2040.91 205.784 Q2040.91 209.465 2042.35 211.316 Q2043.78 213.145 2046.65 213.145 Q2050.1 213.145 2052.09 210.946 Q2054.11 208.747 2054.11 204.951 L2054.11 190.252 L2058.37 190.252 L2058.37 216.178 L2054.11 216.178 L2054.11 212.196 Q2052.56 214.557 2050.5 215.715 Q2048.46 216.849 2045.75 216.849 Q2041.28 216.849 2038.97 214.071 Q2036.65 211.293 2036.65 205.946 M2047.37 189.627 L2047.37 189.627 Z" fill="#000000" fill-rule="nonzero" fill-opacity="1" /><path clip-path="url(#clip720)" d="M2085.8 191.247 L2085.8 195.229 Q2083.99 194.233 2082.16 193.747 Q2080.36 193.238 2078.51 193.238 Q2074.36 193.238 2072.07 195.877 Q2069.78 198.492 2069.78 203.238 Q2069.78 207.983 2072.07 210.622 Q2074.36 213.238 2078.51 213.238 Q2080.36 213.238 2082.16 212.752 Q2083.99 212.242 2085.8 211.247 L2085.8 215.182 Q2084.02 216.016 2082.09 216.432 Q2080.2 216.849 2078.04 216.849 Q2072.19 216.849 2068.74 213.168 Q2065.29 209.488 2065.29 203.238 Q2065.29 196.895 2068.76 193.261 Q2072.26 189.627 2078.32 189.627 Q2080.29 189.627 2082.16 190.043 Q2084.04 190.437 2085.8 191.247 Z" fill="#000000" fill-rule="nonzero" fill-opacity="1" /><path clip-path="url(#clip720)" d="M2114.76 200.529 L2114.76 216.178 L2110.5 216.178 L2110.5 200.668 Q2110.5 196.988 2109.06 195.159 Q2107.63 193.33 2104.76 193.33 Q2101.31 193.33 2099.32 195.53 Q2097.33 197.729 2097.33 201.525 L2097.33 216.178 L2093.04 216.178 L2093.04 180.159 L2097.33 180.159 L2097.33 194.28 Q2098.85 191.942 2100.91 190.784 Q2103 189.627 2105.71 189.627 Q2110.17 189.627 2112.46 192.405 Q2114.76 195.159 2114.76 200.529 Z" fill="#000000" fill-rule="nonzero" fill-opacity="1" /><path clip-path="url(#clip720)" d="M2134.04 218.585 Q2132.23 223.215 2130.52 224.627 Q2128.81 226.039 2125.94 226.039 L2122.53 226.039 L2122.53 222.474 L2125.03 222.474 Q2126.79 222.474 2127.77 221.64 Q2128.74 220.807 2129.92 217.705 L2130.68 215.761 L2120.2 190.252 L2124.71 190.252 L2132.81 210.529 L2140.91 190.252 L2145.43 190.252 L2134.04 218.585 Z" fill="#000000" fill-rule="nonzero" fill-opacity="1" /><path clip-path="url(#clip720)" d="M2161.54 180.206 Q2158.44 185.53 2156.93 190.738 Q2155.43 195.946 2155.43 201.293 Q2155.43 206.641 2156.93 211.895 Q2158.46 217.127 2161.54 222.428 L2157.83 222.428 Q2154.36 216.988 2152.63 211.733 Q2150.91 206.479 2150.91 201.293 Q2150.91 196.131 2152.63 190.9 Q2154.34 185.668 2157.83 180.206 L2161.54 180.206 Z" fill="#000000" fill-rule="nonzero" fill-opacity="1" /><path clip-path="url(#clip720)" d="M2180.4 184.696 Q2176.79 184.696 2174.96 188.261 Q2173.16 191.803 2173.16 198.932 Q2173.16 206.039 2174.96 209.604 Q2176.79 213.145 2180.4 213.145 Q2184.04 213.145 2185.84 209.604 Q2187.67 206.039 2187.67 198.932 Q2187.67 191.803 2185.84 188.261 Q2184.04 184.696 2180.4 184.696 M2180.4 180.993 Q2186.21 180.993 2189.27 185.599 Q2192.35 190.182 2192.35 198.932 Q2192.35 207.659 2189.27 212.266 Q2186.21 216.849 2180.4 216.849 Q2174.59 216.849 2171.52 212.266 Q2168.46 207.659 2168.46 198.932 Q2168.46 190.182 2171.52 185.599 Q2174.59 180.993 2180.4 180.993 Z" fill="#000000" fill-rule="nonzero" fill-opacity="1" /><path clip-path="url(#clip720)" d="M2201.05 210.298 L2205.94 210.298 L2205.94 214.279 L2202.14 221.687 L2199.15 221.687 L2201.05 214.279 L2201.05 210.298 Z" fill="#000000" fill-rule="nonzero" fill-opacity="1" /><path clip-path="url(#clip720)" d="M2216.45 212.242 L2224.08 212.242 L2224.08 185.877 L2215.77 187.543 L2215.77 183.284 L2224.04 181.618 L2228.71 181.618 L2228.71 212.242 L2236.35 212.242 L2236.35 216.178 L2216.45 216.178 L2216.45 212.242 Z" fill="#000000" fill-rule="nonzero" fill-opacity="1" /><path clip-path="url(#clip720)" d="M2244.52 180.206 L2248.23 180.206 Q2251.7 185.668 2253.41 190.9 Q2255.15 196.131 2255.15 201.293 Q2255.15 206.479 2253.41 211.733 Q2251.7 216.988 2248.23 222.428 L2244.52 222.428 Q2247.6 217.127 2249.11 211.895 Q2250.64 206.641 2250.64 201.293 Q2250.64 195.946 2249.11 190.738 Q2247.6 185.53 2244.52 180.206 Z" fill="#000000" fill-rule="nonzero" fill-opacity="1" /></svg>
