<?xml version="1.0" encoding="utf-8"?>
<svg xmlns="http://www.w3.org/2000/svg" xmlns:xlink="http://www.w3.org/1999/xlink" width="800" height="300" viewBox="0 0 3200 1200">
<defs>
  <clipPath id="clip590">
    <rect x="0" y="0" width="3200" height="1200"/>
  </clipPath>
</defs>
<path clip-path="url(#clip590)" d="M0 1200 L3200 1200 L3200 0 L0 0  Z" fill="#ffffff" fill-rule="evenodd" fill-opacity="1"/>
<defs>
  <clipPath id="clip591">
    <rect x="640" y="0" width="2241" height="1200"/>
  </clipPath>
</defs>
<path clip-path="url(#clip590)" d="M344.061 1105.57 L1538.92 1105.57 L1538.92 47.2441 L344.061 47.2441  Z" fill="#ffffff" fill-rule="evenodd" fill-opacity="1"/>
<defs>
  <clipPath id="clip592">
    <rect x="344" y="47" width="1196" height="1059"/>
  </clipPath>
</defs>
<polyline clip-path="url(#clip592)" style="stroke:#000000; stroke-linecap:round; stroke-linejoin:round; stroke-width:2; stroke-opacity:0.1; fill:none" points="344.061,1105.57 344.061,47.2441 "/>
<polyline clip-path="url(#clip592)" style="stroke:#000000; stroke-linecap:round; stroke-linejoin:round; stroke-width:2; stroke-opacity:0.1; fill:none" points="543.204,1105.57 543.204,47.2441 "/>
<polyline clip-path="url(#clip592)" style="stroke:#000000; stroke-linecap:round; stroke-linejoin:round; stroke-width:2; stroke-opacity:0.1; fill:none" points="742.347,1105.57 742.347,47.2441 "/>
<polyline clip-path="url(#clip592)" style="stroke:#000000; stroke-linecap:round; stroke-linejoin:round; stroke-width:2; stroke-opacity:0.1; fill:none" points="941.491,1105.57 941.491,47.2441 "/>
<polyline clip-path="url(#clip592)" style="stroke:#000000; stroke-linecap:round; stroke-linejoin:round; stroke-width:2; stroke-opacity:0.1; fill:none" points="1140.63,1105.57 1140.63,47.2441 "/>
<polyline clip-path="url(#clip592)" style="stroke:#000000; stroke-linecap:round; stroke-linejoin:round; stroke-width:2; stroke-opacity:0.1; fill:none" points="1339.78,1105.57 1339.78,47.2441 "/>
<polyline clip-path="url(#clip590)" style="stroke:#000000; stroke-linecap:round; stroke-linejoin:round; stroke-width:4; stroke-opacity:1; fill:none" points="344.061,1105.57 1538.92,1105.57 "/>
<polyline clip-path="url(#clip590)" style="stroke:#000000; stroke-linecap:round; stroke-linejoin:round; stroke-width:4; stroke-opacity:1; fill:none" points="344.061,1105.57 344.061,1086.67 "/>
<polyline clip-path="url(#clip590)" style="stroke:#000000; stroke-linecap:round; stroke-linejoin:round; stroke-width:4; stroke-opacity:1; fill:none" points="543.204,1105.57 543.204,1086.67 "/>
<polyline clip-path="url(#clip590)" style="stroke:#000000; stroke-linecap:round; stroke-linejoin:round; stroke-width:4; stroke-opacity:1; fill:none" points="742.347,1105.57 742.347,1086.67 "/>
<polyline clip-path="url(#clip590)" style="stroke:#000000; stroke-linecap:round; stroke-linejoin:round; stroke-width:4; stroke-opacity:1; fill:none" points="941.491,1105.57 941.491,1086.67 "/>
<polyline clip-path="url(#clip590)" style="stroke:#000000; stroke-linecap:round; stroke-linejoin:round; stroke-width:4; stroke-opacity:1; fill:none" points="1140.63,1105.57 1140.63,1086.67 "/>
<polyline clip-path="url(#clip590)" style="stroke:#000000; stroke-linecap:round; stroke-linejoin:round; stroke-width:4; stroke-opacity:1; fill:none" points="1339.78,1105.57 1339.78,1086.67 "/>
<path clip-path="url(#clip590)" d="M306.364 1142.89 Q302.753 1142.89 300.924 1146.45 Q299.119 1149.99 299.119 1157.12 Q299.119 1164.23 300.924 1167.79 Q302.753 1171.34 306.364 1171.34 Q309.998 1171.34 311.804 1167.79 Q313.632 1164.23 313.632 1157.12 Q313.632 1149.99 311.804 1146.45 Q309.998 1142.89 306.364 1142.89 M306.364 1139.18 Q312.174 1139.18 315.23 1143.79 Q318.308 1148.37 318.308 1157.12 Q318.308 1165.85 315.23 1170.46 Q312.174 1175.04 306.364 1175.04 Q300.554 1175.04 297.475 1170.46 Q294.42 1165.85 294.42 1157.12 Q294.42 1148.37 297.475 1143.79 Q300.554 1139.18 306.364 1139.18 Z" fill="#000000" fill-rule="nonzero" fill-opacity="1" /><path clip-path="url(#clip590)" d="M326.526 1168.49 L331.41 1168.49 L331.41 1174.37 L326.526 1174.37 L326.526 1168.49 Z" fill="#000000" fill-rule="nonzero" fill-opacity="1" /><path clip-path="url(#clip590)" d="M341.734 1173.65 L341.734 1169.39 Q343.493 1170.22 345.299 1170.66 Q347.104 1171.1 348.841 1171.1 Q353.47 1171.1 355.901 1168 Q358.354 1164.88 358.702 1158.53 Q357.359 1160.53 355.299 1161.59 Q353.239 1162.65 350.739 1162.65 Q345.554 1162.65 342.521 1159.53 Q339.512 1156.38 339.512 1150.94 Q339.512 1145.62 342.66 1142.4 Q345.808 1139.18 351.04 1139.18 Q357.035 1139.18 360.183 1143.79 Q363.354 1148.37 363.354 1157.12 Q363.354 1165.29 359.466 1170.18 Q355.6 1175.04 349.049 1175.04 Q347.29 1175.04 345.484 1174.69 Q343.679 1174.34 341.734 1173.65 M351.04 1159 Q354.188 1159 356.016 1156.84 Q357.868 1154.69 357.868 1150.94 Q357.868 1147.22 356.016 1145.06 Q354.188 1142.89 351.04 1142.89 Q347.892 1142.89 346.04 1145.06 Q344.211 1147.22 344.211 1150.94 Q344.211 1154.69 346.04 1156.84 Q347.892 1159 351.04 1159 Z" fill="#000000" fill-rule="nonzero" fill-opacity="1" /><path clip-path="url(#clip590)" d="M381.757 1142.89 Q378.146 1142.89 376.317 1146.45 Q374.512 1149.99 374.512 1157.12 Q374.512 1164.23 376.317 1167.79 Q378.146 1171.34 381.757 1171.34 Q385.391 1171.34 387.197 1167.79 Q389.026 1164.23 389.026 1157.12 Q389.026 1149.99 387.197 1146.45 Q385.391 1142.89 381.757 1142.89 M381.757 1139.18 Q387.567 1139.18 390.623 1143.79 Q393.701 1148.37 393.701 1157.12 Q393.701 1165.85 390.623 1170.46 Q387.567 1175.04 381.757 1175.04 Q375.947 1175.04 372.868 1170.46 Q369.813 1165.85 369.813 1157.12 Q369.813 1148.37 372.868 1143.79 Q375.947 1139.18 381.757 1139.18 Z" fill="#000000" fill-rule="nonzero" fill-opacity="1" /><path clip-path="url(#clip590)" d="M506.005 1142.89 Q502.394 1142.89 500.565 1146.45 Q498.76 1149.99 498.76 1157.12 Q498.76 1164.23 500.565 1167.79 Q502.394 1171.34 506.005 1171.34 Q509.639 1171.34 511.445 1167.79 Q513.273 1164.23 513.273 1157.12 Q513.273 1149.99 511.445 1146.45 Q509.639 1142.89 506.005 1142.89 M506.005 1139.18 Q511.815 1139.18 514.871 1143.79 Q517.949 1148.37 517.949 1157.12 Q517.949 1165.85 514.871 1170.46 Q511.815 1175.04 506.005 1175.04 Q500.195 1175.04 497.116 1170.46 Q494.061 1165.85 494.061 1157.12 Q494.061 1148.37 497.116 1143.79 Q500.195 1139.18 506.005 1139.18 Z" fill="#000000" fill-rule="nonzero" fill-opacity="1" /><path clip-path="url(#clip590)" d="M526.167 1168.49 L531.051 1168.49 L531.051 1174.37 L526.167 1174.37 L526.167 1168.49 Z" fill="#000000" fill-rule="nonzero" fill-opacity="1" /><path clip-path="url(#clip590)" d="M541.375 1173.65 L541.375 1169.39 Q543.134 1170.22 544.94 1170.66 Q546.746 1171.1 548.482 1171.1 Q553.111 1171.1 555.542 1168 Q557.995 1164.88 558.343 1158.53 Q557 1160.53 554.94 1161.59 Q552.88 1162.65 550.38 1162.65 Q545.195 1162.65 542.162 1159.53 Q539.153 1156.38 539.153 1150.94 Q539.153 1145.62 542.301 1142.4 Q545.449 1139.18 550.681 1139.18 Q556.676 1139.18 559.824 1143.79 Q562.995 1148.37 562.995 1157.12 Q562.995 1165.29 559.107 1170.18 Q555.241 1175.04 548.69 1175.04 Q546.931 1175.04 545.125 1174.69 Q543.32 1174.34 541.375 1173.65 M550.681 1159 Q553.829 1159 555.658 1156.84 Q557.509 1154.69 557.509 1150.94 Q557.509 1147.22 555.658 1145.06 Q553.829 1142.89 550.681 1142.89 Q547.533 1142.89 545.681 1145.06 Q543.852 1147.22 543.852 1150.94 Q543.852 1154.69 545.681 1156.84 Q547.533 1159 550.681 1159 Z" fill="#000000" fill-rule="nonzero" fill-opacity="1" /><path clip-path="url(#clip590)" d="M571.444 1139.81 L589.801 1139.81 L589.801 1143.74 L575.727 1143.74 L575.727 1152.22 Q576.745 1151.87 577.764 1151.71 Q578.782 1151.52 579.801 1151.52 Q585.588 1151.52 588.968 1154.69 Q592.347 1157.86 592.347 1163.28 Q592.347 1168.86 588.875 1171.96 Q585.403 1175.04 579.083 1175.04 Q576.907 1175.04 574.639 1174.67 Q572.394 1174.3 569.986 1173.56 L569.986 1168.86 Q572.069 1169.99 574.292 1170.55 Q576.514 1171.1 578.991 1171.1 Q582.995 1171.1 585.333 1169 Q587.671 1166.89 587.671 1163.28 Q587.671 1159.67 585.333 1157.56 Q582.995 1155.46 578.991 1155.46 Q577.116 1155.46 575.241 1155.87 Q573.389 1156.29 571.444 1157.17 L571.444 1139.81 Z" fill="#000000" fill-rule="nonzero" fill-opacity="1" /><path clip-path="url(#clip590)" d="M694.419 1170.43 L702.058 1170.43 L702.058 1144.07 L693.748 1145.73 L693.748 1141.47 L702.012 1139.81 L706.688 1139.81 L706.688 1170.43 L714.327 1170.43 L714.327 1174.37 L694.419 1174.37 L694.419 1170.43 Z" fill="#000000" fill-rule="nonzero" fill-opacity="1" /><path clip-path="url(#clip590)" d="M723.771 1168.49 L728.655 1168.49 L728.655 1174.37 L723.771 1174.37 L723.771 1168.49 Z" fill="#000000" fill-rule="nonzero" fill-opacity="1" /><path clip-path="url(#clip590)" d="M748.84 1142.89 Q745.229 1142.89 743.4 1146.45 Q741.595 1149.99 741.595 1157.12 Q741.595 1164.23 743.4 1167.79 Q745.229 1171.34 748.84 1171.34 Q752.474 1171.34 754.28 1167.79 Q756.109 1164.23 756.109 1157.12 Q756.109 1149.99 754.28 1146.45 Q752.474 1142.89 748.84 1142.89 M748.84 1139.18 Q754.65 1139.18 757.706 1143.79 Q760.785 1148.37 760.785 1157.12 Q760.785 1165.85 757.706 1170.46 Q754.65 1175.04 748.84 1175.04 Q743.03 1175.04 739.951 1170.46 Q736.896 1165.85 736.896 1157.12 Q736.896 1148.37 739.951 1143.79 Q743.03 1139.18 748.84 1139.18 Z" fill="#000000" fill-rule="nonzero" fill-opacity="1" /><path clip-path="url(#clip590)" d="M779.002 1142.89 Q775.391 1142.89 773.562 1146.45 Q771.757 1149.99 771.757 1157.12 Q771.757 1164.23 773.562 1167.79 Q775.391 1171.34 779.002 1171.34 Q782.636 1171.34 784.442 1167.79 Q786.271 1164.23 786.271 1157.12 Q786.271 1149.99 784.442 1146.45 Q782.636 1142.89 779.002 1142.89 M779.002 1139.18 Q784.812 1139.18 787.868 1143.79 Q790.947 1148.37 790.947 1157.12 Q790.947 1165.85 787.868 1170.46 Q784.812 1175.04 779.002 1175.04 Q773.192 1175.04 770.113 1170.46 Q767.058 1165.85 767.058 1157.12 Q767.058 1148.37 770.113 1143.79 Q773.192 1139.18 779.002 1139.18 Z" fill="#000000" fill-rule="nonzero" fill-opacity="1" /><path clip-path="url(#clip590)" d="M894.06 1170.43 L901.699 1170.43 L901.699 1144.07 L893.389 1145.73 L893.389 1141.47 L901.653 1139.81 L906.329 1139.81 L906.329 1170.43 L913.968 1170.43 L913.968 1174.37 L894.06 1174.37 L894.06 1170.43 Z" fill="#000000" fill-rule="nonzero" fill-opacity="1" /><path clip-path="url(#clip590)" d="M923.412 1168.49 L928.296 1168.49 L928.296 1174.37 L923.412 1174.37 L923.412 1168.49 Z" fill="#000000" fill-rule="nonzero" fill-opacity="1" /><path clip-path="url(#clip590)" d="M948.481 1142.89 Q944.87 1142.89 943.041 1146.45 Q941.236 1149.99 941.236 1157.12 Q941.236 1164.23 943.041 1167.79 Q944.87 1171.34 948.481 1171.34 Q952.116 1171.34 953.921 1167.79 Q955.75 1164.23 955.75 1157.12 Q955.75 1149.99 953.921 1146.45 Q952.116 1142.89 948.481 1142.89 M948.481 1139.18 Q954.291 1139.18 957.347 1143.79 Q960.426 1148.37 960.426 1157.12 Q960.426 1165.85 957.347 1170.46 Q954.291 1175.04 948.481 1175.04 Q942.671 1175.04 939.592 1170.46 Q936.537 1165.85 936.537 1157.12 Q936.537 1148.37 939.592 1143.79 Q942.671 1139.18 948.481 1139.18 Z" fill="#000000" fill-rule="nonzero" fill-opacity="1" /><path clip-path="url(#clip590)" d="M968.69 1139.81 L987.046 1139.81 L987.046 1143.74 L972.972 1143.74 L972.972 1152.22 Q973.99 1151.87 975.009 1151.71 Q976.027 1151.52 977.046 1151.52 Q982.833 1151.52 986.213 1154.69 Q989.592 1157.86 989.592 1163.28 Q989.592 1168.86 986.12 1171.96 Q982.648 1175.04 976.328 1175.04 Q974.152 1175.04 971.884 1174.67 Q969.639 1174.3 967.231 1173.56 L967.231 1168.86 Q969.314 1169.99 971.537 1170.55 Q973.759 1171.1 976.236 1171.1 Q980.24 1171.1 982.578 1169 Q984.916 1166.89 984.916 1163.28 Q984.916 1159.67 982.578 1157.56 Q980.24 1155.46 976.236 1155.46 Q974.361 1155.46 972.486 1155.87 Q970.634 1156.29 968.69 1157.17 L968.69 1139.81 Z" fill="#000000" fill-rule="nonzero" fill-opacity="1" /><path clip-path="url(#clip590)" d="M1092.71 1170.43 L1100.34 1170.43 L1100.34 1144.07 L1092.03 1145.73 L1092.03 1141.47 L1100.3 1139.81 L1104.97 1139.81 L1104.97 1170.43 L1112.61 1170.43 L1112.61 1174.37 L1092.71 1174.37 L1092.71 1170.43 Z" fill="#000000" fill-rule="nonzero" fill-opacity="1" /><path clip-path="url(#clip590)" d="M1122.06 1168.49 L1126.94 1168.49 L1126.94 1174.37 L1122.06 1174.37 L1122.06 1168.49 Z" fill="#000000" fill-rule="nonzero" fill-opacity="1" /><path clip-path="url(#clip590)" d="M1137.94 1170.43 L1145.58 1170.43 L1145.58 1144.07 L1137.27 1145.73 L1137.27 1141.47 L1145.53 1139.81 L1150.21 1139.81 L1150.21 1170.43 L1157.84 1170.43 L1157.84 1174.37 L1137.94 1174.37 L1137.94 1170.43 Z" fill="#000000" fill-rule="nonzero" fill-opacity="1" /><path clip-path="url(#clip590)" d="M1177.29 1142.89 Q1173.68 1142.89 1171.85 1146.45 Q1170.04 1149.99 1170.04 1157.12 Q1170.04 1164.23 1171.85 1167.79 Q1173.68 1171.34 1177.29 1171.34 Q1180.92 1171.34 1182.73 1167.79 Q1184.56 1164.23 1184.56 1157.12 Q1184.56 1149.99 1182.73 1146.45 Q1180.92 1142.89 1177.29 1142.89 M1177.29 1139.18 Q1183.1 1139.18 1186.15 1143.79 Q1189.23 1148.37 1189.23 1157.12 Q1189.23 1165.85 1186.15 1170.46 Q1183.1 1175.04 1177.29 1175.04 Q1171.48 1175.04 1168.4 1170.46 Q1165.34 1165.85 1165.34 1157.12 Q1165.34 1148.37 1168.4 1143.79 Q1171.48 1139.18 1177.29 1139.18 Z" fill="#000000" fill-rule="nonzero" fill-opacity="1" /><path clip-path="url(#clip590)" d="M1292.35 1170.43 L1299.99 1170.43 L1299.99 1144.07 L1291.68 1145.73 L1291.68 1141.47 L1299.94 1139.81 L1304.62 1139.81 L1304.62 1170.43 L1312.25 1170.43 L1312.25 1174.37 L1292.35 1174.37 L1292.35 1170.43 Z" fill="#000000" fill-rule="nonzero" fill-opacity="1" /><path clip-path="url(#clip590)" d="M1321.7 1168.49 L1326.58 1168.49 L1326.58 1174.37 L1321.7 1174.37 L1321.7 1168.49 Z" fill="#000000" fill-rule="nonzero" fill-opacity="1" /><path clip-path="url(#clip590)" d="M1337.58 1170.43 L1345.22 1170.43 L1345.22 1144.07 L1336.91 1145.73 L1336.91 1141.47 L1345.17 1139.81 L1349.85 1139.81 L1349.85 1170.43 L1357.49 1170.43 L1357.49 1174.37 L1337.58 1174.37 L1337.58 1170.43 Z" fill="#000000" fill-rule="nonzero" fill-opacity="1" /><path clip-path="url(#clip590)" d="M1366.98 1139.81 L1385.33 1139.81 L1385.33 1143.74 L1371.26 1143.74 L1371.26 1152.22 Q1372.28 1151.87 1373.3 1151.71 Q1374.31 1151.52 1375.33 1151.52 Q1381.12 1151.52 1384.5 1154.69 Q1387.88 1157.86 1387.88 1163.28 Q1387.88 1168.86 1384.41 1171.96 Q1380.93 1175.04 1374.62 1175.04 Q1372.44 1175.04 1370.17 1174.67 Q1367.93 1174.3 1365.52 1173.56 L1365.52 1168.86 Q1367.6 1169.99 1369.82 1170.55 Q1372.05 1171.1 1374.52 1171.1 Q1378.53 1171.1 1380.87 1169 Q1383.2 1166.89 1383.2 1163.28 Q1383.2 1159.67 1380.87 1157.56 Q1378.53 1155.46 1374.52 1155.46 Q1372.65 1155.46 1370.77 1155.87 Q1368.92 1156.29 1366.98 1157.17 L1366.98 1139.81 Z" fill="#000000" fill-rule="nonzero" fill-opacity="1" /><polyline clip-path="url(#clip592)" style="stroke:#000000; stroke-linecap:round; stroke-linejoin:round; stroke-width:2; stroke-opacity:0.1; fill:none" points="344.061,1075.62 1538.92,1075.62 "/>
<polyline clip-path="url(#clip592)" style="stroke:#000000; stroke-linecap:round; stroke-linejoin:round; stroke-width:2; stroke-opacity:0.1; fill:none" points="344.061,808.566 1538.92,808.566 "/>
<polyline clip-path="url(#clip592)" style="stroke:#000000; stroke-linecap:round; stroke-linejoin:round; stroke-width:2; stroke-opacity:0.1; fill:none" points="344.061,541.517 1538.92,541.517 "/>
<polyline clip-path="url(#clip592)" style="stroke:#000000; stroke-linecap:round; stroke-linejoin:round; stroke-width:2; stroke-opacity:0.1; fill:none" points="344.061,274.467 1538.92,274.467 "/>
<polyline clip-path="url(#clip590)" style="stroke:#000000; stroke-linecap:round; stroke-linejoin:round; stroke-width:4; stroke-opacity:1; fill:none" points="344.061,1105.57 344.061,47.2441 "/>
<polyline clip-path="url(#clip590)" style="stroke:#000000; stroke-linecap:round; stroke-linejoin:round; stroke-width:4; stroke-opacity:1; fill:none" points="344.061,1075.62 362.958,1075.62 "/>
<polyline clip-path="url(#clip590)" style="stroke:#000000; stroke-linecap:round; stroke-linejoin:round; stroke-width:4; stroke-opacity:1; fill:none" points="344.061,808.566 362.958,808.566 "/>
<polyline clip-path="url(#clip590)" style="stroke:#000000; stroke-linecap:round; stroke-linejoin:round; stroke-width:4; stroke-opacity:1; fill:none" points="344.061,541.517 362.958,541.517 "/>
<polyline clip-path="url(#clip590)" style="stroke:#000000; stroke-linecap:round; stroke-linejoin:round; stroke-width:4; stroke-opacity:1; fill:none" points="344.061,274.467 362.958,274.467 "/>
<path clip-path="url(#clip590)" d="M284.116 1061.41 Q280.505 1061.41 278.676 1064.98 Q276.871 1068.52 276.871 1075.65 Q276.871 1082.76 278.676 1086.32 Q280.505 1089.86 284.116 1089.86 Q287.75 1089.86 289.556 1086.32 Q291.385 1082.76 291.385 1075.65 Q291.385 1068.52 289.556 1064.98 Q287.75 1061.41 284.116 1061.41 M284.116 1057.71 Q289.926 1057.71 292.982 1062.32 Q296.061 1066.9 296.061 1075.65 Q296.061 1084.38 292.982 1088.98 Q289.926 1093.57 284.116 1093.57 Q278.306 1093.57 275.227 1088.98 Q272.172 1084.38 272.172 1075.65 Q272.172 1066.9 275.227 1062.32 Q278.306 1057.71 284.116 1057.71 Z" fill="#000000" fill-rule="nonzero" fill-opacity="1" /><path clip-path="url(#clip590)" d="M48.4505 797.734 L66.8068 797.734 L66.8068 801.669 L52.7328 801.669 L52.7328 810.141 Q53.7513 809.794 54.7699 809.632 Q55.7884 809.447 56.8069 809.447 Q62.5939 809.447 65.9735 812.618 Q69.3531 815.789 69.3531 821.206 Q69.3531 826.784 65.8809 829.886 Q62.4087 832.965 56.0893 832.965 Q53.9134 832.965 51.6449 832.595 Q49.3995 832.224 46.9921 831.484 L46.9921 826.784 Q49.0754 827.919 51.2977 828.474 Q53.5199 829.03 55.9967 829.03 Q60.0013 829.03 62.3393 826.923 Q64.6772 824.817 64.6772 821.206 Q64.6772 817.595 62.3393 815.488 Q60.0013 813.382 55.9967 813.382 Q54.1217 813.382 52.2467 813.798 Q50.3949 814.215 48.4505 815.095 L48.4505 797.734 Z" fill="#000000" fill-rule="nonzero" fill-opacity="1" /><path clip-path="url(#clip590)" d="M78.566 826.414 L83.4503 826.414 L83.4503 832.294 L78.566 832.294 L78.566 826.414 Z" fill="#000000" fill-rule="nonzero" fill-opacity="1" /><path clip-path="url(#clip590)" d="M103.635 800.812 Q100.024 800.812 98.1956 804.377 Q96.39 807.919 96.39 815.048 Q96.39 822.155 98.1956 825.72 Q100.024 829.261 103.635 829.261 Q107.27 829.261 109.075 825.72 Q110.904 822.155 110.904 815.048 Q110.904 807.919 109.075 804.377 Q107.27 800.812 103.635 800.812 M103.635 797.109 Q109.445 797.109 112.501 801.715 Q115.58 806.298 115.58 815.048 Q115.58 823.775 112.501 828.382 Q109.445 832.965 103.635 832.965 Q97.8252 832.965 94.7465 828.382 Q91.691 823.775 91.691 815.048 Q91.691 806.298 94.7465 801.715 Q97.8252 797.109 103.635 797.109 Z" fill="#000000" fill-rule="nonzero" fill-opacity="1" /><path clip-path="url(#clip590)" d="M133.797 800.812 Q130.186 800.812 128.357 804.377 Q126.552 807.919 126.552 815.048 Q126.552 822.155 128.357 825.72 Q130.186 829.261 133.797 829.261 Q137.431 829.261 139.237 825.72 Q141.066 822.155 141.066 815.048 Q141.066 807.919 139.237 804.377 Q137.431 800.812 133.797 800.812 M133.797 797.109 Q139.607 797.109 142.663 801.715 Q145.742 806.298 145.742 815.048 Q145.742 823.775 142.663 828.382 Q139.607 832.965 133.797 832.965 Q127.987 832.965 124.908 828.382 Q121.853 823.775 121.853 815.048 Q121.853 806.298 124.908 801.715 Q127.987 797.109 133.797 797.109 Z" fill="#000000" fill-rule="nonzero" fill-opacity="1" /><path clip-path="url(#clip590)" d="M182.13 806.831 L171.552 817.456 L182.13 828.034 L179.376 830.835 L168.751 820.21 L158.126 830.835 L155.394 828.034 L165.95 817.456 L155.394 806.831 L158.126 804.03 L168.751 814.655 L179.376 804.03 L182.13 806.831 Z" fill="#000000" fill-rule="nonzero" fill-opacity="1" /><path clip-path="url(#clip590)" d="M194.491 828.359 L202.13 828.359 L202.13 801.993 L193.82 803.66 L193.82 799.4 L202.084 797.734 L206.76 797.734 L206.76 828.359 L214.399 828.359 L214.399 832.294 L194.491 832.294 L194.491 828.359 Z" fill="#000000" fill-rule="nonzero" fill-opacity="1" /><path clip-path="url(#clip590)" d="M233.843 800.812 Q230.232 800.812 228.403 804.377 Q226.598 807.919 226.598 815.048 Q226.598 822.155 228.403 825.72 Q230.232 829.261 233.843 829.261 Q237.477 829.261 239.283 825.72 Q241.111 822.155 241.111 815.048 Q241.111 807.919 239.283 804.377 Q237.477 800.812 233.843 800.812 M233.843 797.109 Q239.653 797.109 242.709 801.715 Q245.787 806.298 245.787 815.048 Q245.787 823.775 242.709 828.382 Q239.653 832.965 233.843 832.965 Q228.033 832.965 224.954 828.382 Q221.899 823.775 221.899 815.048 Q221.899 806.298 224.954 801.715 Q228.033 797.109 233.843 797.109 Z" fill="#000000" fill-rule="nonzero" fill-opacity="1" /><path clip-path="url(#clip590)" d="M245.787 791.21 L269.899 791.21 L269.899 794.407 L245.787 794.407 L245.787 791.21 Z" fill="#000000" fill-rule="nonzero" fill-opacity="1" /><path clip-path="url(#clip590)" d="M286.694 789.329 Q284.136 789.329 282.632 791.078 Q281.146 792.828 281.146 795.874 Q281.146 798.902 282.632 800.67 Q284.136 802.419 286.694 802.419 Q289.252 802.419 290.738 800.67 Q292.243 798.902 292.243 795.874 Q292.243 792.828 290.738 791.078 Q289.252 789.329 286.694 789.329 M294.236 777.424 L294.236 780.885 Q292.807 780.208 291.34 779.85 Q289.892 779.493 288.462 779.493 Q284.701 779.493 282.707 782.032 Q280.732 784.571 280.45 789.705 Q281.56 788.069 283.234 787.204 Q284.908 786.32 286.92 786.32 Q291.152 786.32 293.597 788.897 Q296.061 791.455 296.061 795.874 Q296.061 800.2 293.503 802.814 Q290.945 805.429 286.694 805.429 Q281.823 805.429 279.246 801.705 Q276.67 797.962 276.67 790.872 Q276.67 784.214 279.829 780.264 Q282.989 776.295 288.312 776.295 Q289.741 776.295 291.189 776.578 Q292.656 776.86 294.236 777.424 Z" fill="#000000" fill-rule="nonzero" fill-opacity="1" /><path clip-path="url(#clip590)" d="M50.1547 561.309 L57.7936 561.309 L57.7936 534.944 L49.4834 536.61 L49.4834 532.351 L57.7473 530.684 L62.4232 530.684 L62.4232 561.309 L70.062 561.309 L70.062 565.244 L50.1547 565.244 L50.1547 561.309 Z" fill="#000000" fill-rule="nonzero" fill-opacity="1" /><path clip-path="url(#clip590)" d="M79.5064 559.365 L84.3907 559.365 L84.3907 565.244 L79.5064 565.244 L79.5064 559.365 Z" fill="#000000" fill-rule="nonzero" fill-opacity="1" /><path clip-path="url(#clip590)" d="M104.576 533.763 Q100.965 533.763 99.1359 537.328 Q97.3304 540.869 97.3304 547.999 Q97.3304 555.105 99.1359 558.67 Q100.965 562.212 104.576 562.212 Q108.21 562.212 110.016 558.67 Q111.844 555.105 111.844 547.999 Q111.844 540.869 110.016 537.328 Q108.21 533.763 104.576 533.763 M104.576 530.059 Q110.386 530.059 113.441 534.666 Q116.52 539.249 116.52 547.999 Q116.52 556.726 113.441 561.332 Q110.386 565.916 104.576 565.916 Q98.7656 565.916 95.6869 561.332 Q92.6313 556.726 92.6313 547.999 Q92.6313 539.249 95.6869 534.666 Q98.7656 530.059 104.576 530.059 Z" fill="#000000" fill-rule="nonzero" fill-opacity="1" /><path clip-path="url(#clip590)" d="M134.738 533.763 Q131.127 533.763 129.298 537.328 Q127.492 540.869 127.492 547.999 Q127.492 555.105 129.298 558.67 Q131.127 562.212 134.738 562.212 Q138.372 562.212 140.177 558.67 Q142.006 555.105 142.006 547.999 Q142.006 540.869 140.177 537.328 Q138.372 533.763 134.738 533.763 M134.738 530.059 Q140.548 530.059 143.603 534.666 Q146.682 539.249 146.682 547.999 Q146.682 556.726 143.603 561.332 Q140.548 565.916 134.738 565.916 Q128.927 565.916 125.849 561.332 Q122.793 556.726 122.793 547.999 Q122.793 539.249 125.849 534.666 Q128.927 530.059 134.738 530.059 Z" fill="#000000" fill-rule="nonzero" fill-opacity="1" /><path clip-path="url(#clip590)" d="M183.071 539.782 L172.492 550.406 L183.071 560.985 L180.316 563.786 L169.691 553.161 L159.066 563.786 L156.335 560.985 L166.89 550.406 L156.335 539.782 L159.066 536.981 L169.691 547.606 L180.316 536.981 L183.071 539.782 Z" fill="#000000" fill-rule="nonzero" fill-opacity="1" /><path clip-path="url(#clip590)" d="M195.432 561.309 L203.071 561.309 L203.071 534.944 L194.76 536.61 L194.76 532.351 L203.024 530.684 L207.7 530.684 L207.7 561.309 L215.339 561.309 L215.339 565.244 L195.432 565.244 L195.432 561.309 Z" fill="#000000" fill-rule="nonzero" fill-opacity="1" /><path clip-path="url(#clip590)" d="M234.783 533.763 Q231.172 533.763 229.344 537.328 Q227.538 540.869 227.538 547.999 Q227.538 555.105 229.344 558.67 Q231.172 562.212 234.783 562.212 Q238.418 562.212 240.223 558.67 Q242.052 555.105 242.052 547.999 Q242.052 540.869 240.223 537.328 Q238.418 533.763 234.783 533.763 M234.783 530.059 Q240.594 530.059 243.649 534.666 Q246.728 539.249 246.728 547.999 Q246.728 556.726 243.649 561.332 Q240.594 565.916 234.783 565.916 Q228.973 565.916 225.895 561.332 Q222.839 556.726 222.839 547.999 Q222.839 539.249 225.895 534.666 Q228.973 530.059 234.783 530.059 Z" fill="#000000" fill-rule="nonzero" fill-opacity="1" /><path clip-path="url(#clip590)" d="M246.728 524.161 L270.839 524.161 L270.839 527.358 L246.728 527.358 L246.728 524.161 Z" fill="#000000" fill-rule="nonzero" fill-opacity="1" /><path clip-path="url(#clip590)" d="M279.077 509.754 L293.992 509.754 L293.992 512.951 L282.557 512.951 L282.557 519.835 Q283.384 519.553 284.212 519.421 Q285.039 519.271 285.867 519.271 Q290.569 519.271 293.315 521.847 Q296.061 524.424 296.061 528.825 Q296.061 533.358 293.239 535.878 Q290.418 538.379 285.284 538.379 Q283.516 538.379 281.673 538.078 Q279.848 537.778 277.892 537.176 L277.892 533.358 Q279.585 534.279 281.39 534.731 Q283.196 535.182 285.208 535.182 Q288.462 535.182 290.362 533.471 Q292.261 531.759 292.261 528.825 Q292.261 525.891 290.362 524.179 Q288.462 522.468 285.208 522.468 Q283.685 522.468 282.162 522.807 Q280.657 523.145 279.077 523.86 L279.077 509.754 Z" fill="#000000" fill-rule="nonzero" fill-opacity="1" /><path clip-path="url(#clip590)" d="M50.1547 294.26 L57.7936 294.26 L57.7936 267.894 L49.4834 269.561 L49.4834 265.302 L57.7473 263.635 L62.4232 263.635 L62.4232 294.26 L70.062 294.26 L70.062 298.195 L50.1547 298.195 L50.1547 294.26 Z" fill="#000000" fill-rule="nonzero" fill-opacity="1" /><path clip-path="url(#clip590)" d="M79.5064 292.315 L84.3907 292.315 L84.3907 298.195 L79.5064 298.195 L79.5064 292.315 Z" fill="#000000" fill-rule="nonzero" fill-opacity="1" /><path clip-path="url(#clip590)" d="M94.6221 263.635 L112.978 263.635 L112.978 267.57 L98.9045 267.57 L98.9045 276.042 Q99.923 275.695 100.941 275.533 Q101.96 275.348 102.979 275.348 Q108.766 275.348 112.145 278.519 Q115.525 281.69 115.525 287.107 Q115.525 292.686 112.053 295.788 Q108.58 298.866 102.261 298.866 Q100.085 298.866 97.8165 298.496 Q95.5711 298.126 93.1638 297.385 L93.1638 292.686 Q95.2471 293.82 97.4693 294.376 Q99.6915 294.931 102.168 294.931 Q106.173 294.931 108.511 292.825 Q110.849 290.718 110.849 287.107 Q110.849 283.496 108.511 281.389 Q106.173 279.283 102.168 279.283 Q100.293 279.283 98.4184 279.7 Q96.5665 280.116 94.6221 280.996 L94.6221 263.635 Z" fill="#000000" fill-rule="nonzero" fill-opacity="1" /><path clip-path="url(#clip590)" d="M134.738 266.714 Q131.127 266.714 129.298 270.278 Q127.492 273.82 127.492 280.95 Q127.492 288.056 129.298 291.621 Q131.127 295.163 134.738 295.163 Q138.372 295.163 140.177 291.621 Q142.006 288.056 142.006 280.95 Q142.006 273.82 140.177 270.278 Q138.372 266.714 134.738 266.714 M134.738 263.01 Q140.548 263.01 143.603 267.616 Q146.682 272.2 146.682 280.95 Q146.682 289.676 143.603 294.283 Q140.548 298.866 134.738 298.866 Q128.927 298.866 125.849 294.283 Q122.793 289.676 122.793 280.95 Q122.793 272.2 125.849 267.616 Q128.927 263.01 134.738 263.01 Z" fill="#000000" fill-rule="nonzero" fill-opacity="1" /><path clip-path="url(#clip590)" d="M183.071 272.732 L172.492 283.357 L183.071 293.936 L180.316 296.737 L169.691 286.112 L159.066 296.737 L156.335 293.936 L166.89 283.357 L156.335 272.732 L159.066 269.931 L169.691 280.556 L180.316 269.931 L183.071 272.732 Z" fill="#000000" fill-rule="nonzero" fill-opacity="1" /><path clip-path="url(#clip590)" d="M195.432 294.26 L203.071 294.26 L203.071 267.894 L194.76 269.561 L194.76 265.302 L203.024 263.635 L207.7 263.635 L207.7 294.26 L215.339 294.26 L215.339 298.195 L195.432 298.195 L195.432 294.26 Z" fill="#000000" fill-rule="nonzero" fill-opacity="1" /><path clip-path="url(#clip590)" d="M234.783 266.714 Q231.172 266.714 229.344 270.278 Q227.538 273.82 227.538 280.95 Q227.538 288.056 229.344 291.621 Q231.172 295.163 234.783 295.163 Q238.418 295.163 240.223 291.621 Q242.052 288.056 242.052 280.95 Q242.052 273.82 240.223 270.278 Q238.418 266.714 234.783 266.714 M234.783 263.01 Q240.594 263.01 243.649 267.616 Q246.728 272.2 246.728 280.95 Q246.728 289.676 243.649 294.283 Q240.594 298.866 234.783 298.866 Q228.973 298.866 225.895 294.283 Q222.839 289.676 222.839 280.95 Q222.839 272.2 225.895 267.616 Q228.973 263.01 234.783 263.01 Z" fill="#000000" fill-rule="nonzero" fill-opacity="1" /><path clip-path="url(#clip590)" d="M246.728 257.111 L270.839 257.111 L270.839 260.309 L246.728 260.309 L246.728 257.111 Z" fill="#000000" fill-rule="nonzero" fill-opacity="1" /><path clip-path="url(#clip590)" d="M279.077 242.705 L293.992 242.705 L293.992 245.902 L282.557 245.902 L282.557 252.786 Q283.384 252.503 284.212 252.372 Q285.039 252.221 285.867 252.221 Q290.569 252.221 293.315 254.798 Q296.061 257.375 296.061 261.776 Q296.061 266.308 293.239 268.829 Q290.418 271.33 285.284 271.33 Q283.516 271.33 281.673 271.029 Q279.848 270.728 277.892 270.126 L277.892 266.308 Q279.585 267.23 281.39 267.681 Q283.196 268.133 285.208 268.133 Q288.462 268.133 290.362 266.421 Q292.261 264.71 292.261 261.776 Q292.261 258.842 290.362 257.13 Q288.462 255.419 285.208 255.419 Q283.685 255.419 282.162 255.757 Q280.657 256.096 279.077 256.81 L279.077 242.705 Z" fill="#000000" fill-rule="nonzero" fill-opacity="1" /><polyline clip-path="url(#clip592)" style="stroke:#009af9; stroke-linecap:round; stroke-linejoin:round; stroke-width:4; stroke-opacity:1; fill:none" points="344.061,1075.62 351.84,1075.62 423.77,1075.61 466.996,1075.59 503.544,1075.52 543.245,1075.27 579.846,1074.59 599.466,1073.82 619.086,1072.54 641.818,1070.08 664.55,1065.94 674.65,1063.34 684.751,1060.15 694.852,1056.24 704.952,1051.5 713.81,1046.54 722.667,1040.73 731.524,1033.97 740.382,1026.13 750.038,1016.22 759.695,1004.74 769.352,991.51 779.009,976.385 788.723,959.099 798.438,939.592 803.295,928.965 808.152,917.735 813.009,905.892 817.866,893.424 823.236,878.902 828.607,863.598 833.977,847.507 839.347,830.629 844.717,812.966 850.087,794.528 855.458,775.327 860.828,755.382 871.047,715.458 881.266,673.143 891.485,628.728 901.704,582.579 922.956,483.063 944.207,382.914 953.151,341.958 962.096,302.383 971.04,264.663 979.985,229.266 985.445,208.995 990.905,189.861 996.365,171.957 1001.83,155.376 1007.29,140.202 1012.75,126.516 1018.21,114.388 1023.67,103.884 1028.67,95.7345 1033.67,89.0316 1038.67,83.8059 1043.67,80.0813 1048.67,77.8748 1053.68,77.1967 1058.68,78.0499 1063.68,80.4306 1068.3,83.9768 1072.92,88.8029 1077.54,94.8899 1082.16,102.214 1086.78,110.748 1091.4,120.457 1096.02,131.306 1100.64,143.252 1105.32,156.427 1110,170.632 1114.67,185.813 1119.35,201.914 1124.03,218.875 1128.71,236.634 1133.39,255.127 1138.07,274.29 1148.56,319.331 1159.05,366.64 1169.54,415.46 1180.03,465.051 1189.53,510.069 1199.04,554.662 1208.54,598.39 1218.04,640.864 1223.49,664.481 1228.93,687.521 1234.37,709.934 1239.81,731.677 1245.25,752.715 1250.69,773.016 1256.13,792.555 1261.57,811.313 1266.61,827.972 1271.65,843.941 1276.69,859.219 1281.72,873.803 1286.76,887.697 1291.8,900.906 1296.84,913.44 1301.88,925.309 1311.81,946.815 1321.74,965.91 1331.68,982.738 1341.61,997.46 1351.25,1009.9 1360.9,1020.67 1370.54,1029.94 1380.19,1037.86 1390.07,1044.74 1399.96,1050.52 1409.85,1055.34 1419.74,1059.33 1441.4,1065.75 1463.06,1069.81 1494.54,1073.06 1526.01,1074.56 1532.46,1074.74 1538.92,1074.89 "/>
<polyline clip-path="url(#clip592)" style="stroke:#e26f46; stroke-linecap:round; stroke-linejoin:round; stroke-width:4; stroke-opacity:1; fill:none" points="344.061,1075.62 351.84,1075.62 423.77,1075.61 466.996,1075.59 503.544,1075.51 543.245,1075.22 579.846,1074.37 599.466,1073.39 619.086,1071.76 641.818,1068.55 664.55,1063.12 674.65,1059.69 684.751,1055.46 694.852,1050.29 704.952,1044 713.81,1037.44 722.667,1029.75 731.524,1020.81 740.382,1010.47 750.038,997.439 759.695,982.39 769.352,965.144 779.009,945.53 783.866,934.721 788.723,923.257 793.58,911.123 798.438,898.306 803.295,884.795 808.152,870.583 813.009,855.662 817.866,840.032 823.236,821.927 828.607,802.963 833.977,783.152 839.347,762.513 844.717,741.071 850.087,718.856 855.458,695.908 860.828,672.272 871.047,625.584 881.266,577.026 891.485,527.117 901.704,476.459 912.33,423.72 922.956,371.734 933.581,321.385 944.207,273.583 948.679,254.445 953.151,235.987 957.624,218.275 962.096,201.373 966.568,185.343 971.04,170.244 975.513,156.134 979.985,143.067 985.445,128.6 990.905,115.845 996.365,104.878 1001.83,95.7636 1007.29,88.556 1012.75,83.2982 1018.21,80.0221 1023.67,78.7473 1028.67,79.3426 1033.67,81.6211 1038.67,85.571 1043.67,91.1724 1048.67,98.3971 1053.68,107.209 1058.68,117.564 1063.68,129.41 1068.3,141.626 1072.92,155.014 1077.54,169.519 1082.16,185.082 1086.78,201.64 1091.4,219.127 1096.02,237.475 1100.64,256.612 1110,297.505 1119.35,340.723 1128.71,385.64 1138.07,431.639 1148.56,483.737 1159.05,535.654 1169.54,586.668 1180.03,636.145 1184.78,657.907 1189.53,679.197 1194.28,699.976 1199.04,720.209 1208.54,758.92 1218.04,795.133 1223.49,814.687 1228.93,833.363 1234.37,851.152 1239.81,868.051 1245.25,884.062 1250.69,899.191 1256.13,913.451 1261.57,926.856 1266.61,938.523 1271.65,949.491 1276.69,959.781 1281.72,969.414 1291.8,986.802 1301.88,1001.85 1311.81,1014.6 1321.74,1025.48 1331.68,1034.7 1341.61,1042.44 1351.25,1048.73 1360.9,1053.96 1370.54,1058.28 1380.19,1061.83 1399.96,1067.16 1419.74,1070.57 1441.4,1072.83 1463.06,1074.13 1494.54,1075.05 1526.01,1075.41 1532.46,1075.45 1538.92,1075.49 "/>
<path clip-path="url(#clip590)" d="M383.889 238.042 L812.031 238.042 L812.031 82.5216 L383.889 82.5216  Z" fill="#ffffff" fill-rule="evenodd" fill-opacity="1"/>
<polyline clip-path="url(#clip590)" style="stroke:#000000; stroke-linecap:round; stroke-linejoin:round; stroke-width:4; stroke-opacity:1; fill:none" points="383.889,238.042 812.031,238.042 812.031,82.5216 383.889,82.5216 383.889,238.042 "/>
<polyline clip-path="url(#clip590)" style="stroke:#009af9; stroke-linecap:round; stroke-linejoin:round; stroke-width:4; stroke-opacity:1; fill:none" points="397.165,134.362 476.823,134.362 "/>
<path clip-path="url(#clip590)" d="M490.099 115.623 L494.358 115.623 L494.358 151.642 L490.099 151.642 L490.099 115.623 Z" fill="#000000" fill-rule="nonzero" fill-opacity="1" /><path clip-path="url(#clip590)" d="M519.798 126.48 L519.798 130.507 Q517.992 129.581 516.048 129.119 Q514.103 128.656 512.02 128.656 Q508.849 128.656 507.252 129.628 Q505.678 130.6 505.678 132.544 Q505.678 134.026 506.812 134.882 Q507.946 135.716 511.372 136.48 L512.83 136.804 Q517.367 137.776 519.265 139.558 Q521.187 141.318 521.187 144.489 Q521.187 148.1 518.316 150.206 Q515.469 152.313 510.469 152.313 Q508.386 152.313 506.117 151.896 Q503.872 151.503 501.372 150.692 L501.372 146.294 Q503.733 147.521 506.025 148.146 Q508.316 148.748 510.562 148.748 Q513.571 148.748 515.191 147.73 Q516.812 146.688 516.812 144.813 Q516.812 143.077 515.631 142.151 Q514.474 141.225 510.516 140.368 L509.034 140.021 Q505.076 139.188 503.317 137.475 Q501.557 135.739 501.557 132.73 Q501.557 129.072 504.15 127.082 Q506.742 125.091 511.511 125.091 Q513.872 125.091 515.955 125.438 Q518.039 125.785 519.798 126.48 Z" fill="#000000" fill-rule="nonzero" fill-opacity="1" /><path clip-path="url(#clip590)" d="M530.515 138.702 Q530.515 143.401 532.437 146.086 Q534.381 148.748 537.761 148.748 Q541.14 148.748 543.085 146.086 Q545.029 143.401 545.029 138.702 Q545.029 134.003 543.085 131.341 Q541.14 128.656 537.761 128.656 Q534.381 128.656 532.437 131.341 Q530.515 134.003 530.515 138.702 M545.029 147.753 Q543.687 150.067 541.626 151.202 Q539.589 152.313 536.719 152.313 Q532.02 152.313 529.057 148.563 Q526.117 144.813 526.117 138.702 Q526.117 132.591 529.057 128.841 Q532.02 125.091 536.719 125.091 Q539.589 125.091 541.626 126.225 Q543.687 127.336 545.029 129.651 L545.029 125.716 L549.288 125.716 L549.288 161.503 L545.029 161.503 L545.029 147.753 Z" fill="#000000" fill-rule="nonzero" fill-opacity="1" /><path clip-path="url(#clip590)" d="M577.761 159.512 L577.761 162.822 L553.131 162.822 L553.131 159.512 L577.761 159.512 Z" fill="#000000" fill-rule="nonzero" fill-opacity="1" /><path clip-path="url(#clip590)" d="M581.765 115.623 L586.024 115.623 L586.024 151.642 L581.765 151.642 L581.765 115.623 Z" fill="#000000" fill-rule="nonzero" fill-opacity="1" /><path clip-path="url(#clip590)" d="M594.936 125.716 L599.196 125.716 L599.196 151.642 L594.936 151.642 L594.936 125.716 M594.936 115.623 L599.196 115.623 L599.196 121.017 L594.936 121.017 L594.936 115.623 Z" fill="#000000" fill-rule="nonzero" fill-opacity="1" /><path clip-path="url(#clip590)" d="M607.946 115.623 L612.228 115.623 L612.228 136.896 L624.936 125.716 L630.376 125.716 L616.626 137.845 L630.955 151.642 L625.399 151.642 L612.228 138.98 L612.228 151.642 L607.946 151.642 L607.946 115.623 Z" fill="#000000" fill-rule="nonzero" fill-opacity="1" /><path clip-path="url(#clip590)" d="M656.047 137.614 L656.047 139.697 L636.464 139.697 Q636.742 144.095 639.103 146.41 Q641.487 148.702 645.723 148.702 Q648.177 148.702 650.468 148.1 Q652.783 147.498 655.052 146.294 L655.052 150.322 Q652.76 151.294 650.353 151.804 Q647.945 152.313 645.469 152.313 Q639.265 152.313 635.631 148.702 Q632.02 145.091 632.02 138.933 Q632.02 132.568 635.445 128.841 Q638.894 125.091 644.728 125.091 Q649.959 125.091 652.992 128.47 Q656.047 131.827 656.047 137.614 M651.788 136.364 Q651.742 132.869 649.82 130.785 Q647.922 128.702 644.774 128.702 Q641.209 128.702 639.057 130.716 Q636.927 132.73 636.603 136.387 L651.788 136.364 Z" fill="#000000" fill-rule="nonzero" fill-opacity="1" /><path clip-path="url(#clip590)" d="M663.038 115.623 L667.297 115.623 L667.297 151.642 L663.038 151.642 L663.038 115.623 Z" fill="#000000" fill-rule="nonzero" fill-opacity="1" /><path clip-path="url(#clip590)" d="M676.209 125.716 L680.468 125.716 L680.468 151.642 L676.209 151.642 L676.209 125.716 M676.209 115.623 L680.468 115.623 L680.468 121.017 L676.209 121.017 L676.209 115.623 Z" fill="#000000" fill-rule="nonzero" fill-opacity="1" /><path clip-path="url(#clip590)" d="M710.931 135.993 L710.931 151.642 L706.672 151.642 L706.672 136.132 Q706.672 132.452 705.237 130.623 Q703.802 128.794 700.931 128.794 Q697.482 128.794 695.491 130.994 Q693.501 133.193 693.501 136.989 L693.501 151.642 L689.218 151.642 L689.218 115.623 L693.501 115.623 L693.501 129.744 Q695.028 127.406 697.089 126.248 Q699.172 125.091 701.88 125.091 Q706.348 125.091 708.639 127.869 Q710.931 130.623 710.931 135.993 Z" fill="#000000" fill-rule="nonzero" fill-opacity="1" /><path clip-path="url(#clip590)" d="M729.473 128.702 Q726.047 128.702 724.056 131.387 Q722.065 134.049 722.065 138.702 Q722.065 143.355 724.033 146.04 Q726.024 148.702 729.473 148.702 Q732.875 148.702 734.866 146.017 Q736.857 143.331 736.857 138.702 Q736.857 134.095 734.866 131.41 Q732.875 128.702 729.473 128.702 M729.473 125.091 Q735.028 125.091 738.2 128.702 Q741.371 132.313 741.371 138.702 Q741.371 145.068 738.2 148.702 Q735.028 152.313 729.473 152.313 Q723.894 152.313 720.723 148.702 Q717.575 145.068 717.575 138.702 Q717.575 132.313 720.723 128.702 Q723.894 125.091 729.473 125.091 Z" fill="#000000" fill-rule="nonzero" fill-opacity="1" /><path clip-path="url(#clip590)" d="M758.477 128.702 Q755.051 128.702 753.061 131.387 Q751.07 134.049 751.07 138.702 Q751.07 143.355 753.037 146.04 Q755.028 148.702 758.477 148.702 Q761.88 148.702 763.871 146.017 Q765.861 143.331 765.861 138.702 Q765.861 134.095 763.871 131.41 Q761.88 128.702 758.477 128.702 M758.477 125.091 Q764.033 125.091 767.204 128.702 Q770.375 132.313 770.375 138.702 Q770.375 145.068 767.204 148.702 Q764.033 152.313 758.477 152.313 Q752.898 152.313 749.727 148.702 Q746.579 145.068 746.579 138.702 Q746.579 132.313 749.727 128.702 Q752.898 125.091 758.477 125.091 Z" fill="#000000" fill-rule="nonzero" fill-opacity="1" /><path clip-path="url(#clip590)" d="M794.495 129.651 L794.495 115.623 L798.755 115.623 L798.755 151.642 L794.495 151.642 L794.495 147.753 Q793.153 150.067 791.093 151.202 Q789.056 152.313 786.185 152.313 Q781.486 152.313 778.523 148.563 Q775.584 144.813 775.584 138.702 Q775.584 132.591 778.523 128.841 Q781.486 125.091 786.185 125.091 Q789.056 125.091 791.093 126.225 Q793.153 127.336 794.495 129.651 M779.982 138.702 Q779.982 143.401 781.903 146.086 Q783.847 148.748 787.227 148.748 Q790.607 148.748 792.551 146.086 Q794.495 143.401 794.495 138.702 Q794.495 134.003 792.551 131.341 Q790.607 128.656 787.227 128.656 Q783.847 128.656 781.903 131.341 Q779.982 134.003 779.982 138.702 Z" fill="#000000" fill-rule="nonzero" fill-opacity="1" /><polyline clip-path="url(#clip590)" style="stroke:#e26f46; stroke-linecap:round; stroke-linejoin:round; stroke-width:4; stroke-opacity:1; fill:none" points="397.165,186.202 476.823,186.202 "/>
<path clip-path="url(#clip590)" d="M494.381 199.593 L494.381 213.343 L490.099 213.343 L490.099 177.556 L494.381 177.556 L494.381 181.491 Q495.724 179.176 497.761 178.065 Q499.821 176.931 502.668 176.931 Q507.391 176.931 510.33 180.681 Q513.293 184.431 513.293 190.542 Q513.293 196.653 510.33 200.403 Q507.391 204.153 502.668 204.153 Q499.821 204.153 497.761 203.042 Q495.724 201.907 494.381 199.593 M508.872 190.542 Q508.872 185.843 506.928 183.181 Q505.006 180.496 501.627 180.496 Q498.247 180.496 496.303 183.181 Q494.381 185.843 494.381 190.542 Q494.381 195.241 496.303 197.926 Q498.247 200.588 501.627 200.588 Q505.006 200.588 506.928 197.926 Q508.872 195.241 508.872 190.542 Z" fill="#000000" fill-rule="nonzero" fill-opacity="1" /><path clip-path="url(#clip590)" d="M530.4 180.542 Q526.974 180.542 524.983 183.227 Q522.992 185.889 522.992 190.542 Q522.992 195.195 524.96 197.88 Q526.951 200.542 530.4 200.542 Q533.802 200.542 535.793 197.857 Q537.784 195.171 537.784 190.542 Q537.784 185.935 535.793 183.25 Q533.802 180.542 530.4 180.542 M530.4 176.931 Q535.955 176.931 539.126 180.542 Q542.298 184.153 542.298 190.542 Q542.298 196.908 539.126 200.542 Q535.955 204.153 530.4 204.153 Q524.821 204.153 521.65 200.542 Q518.502 196.908 518.502 190.542 Q518.502 184.153 521.65 180.542 Q524.821 176.931 530.4 176.931 Z" fill="#000000" fill-rule="nonzero" fill-opacity="1" /><path clip-path="url(#clip590)" d="M565.886 178.32 L565.886 182.347 Q564.08 181.421 562.136 180.959 Q560.191 180.496 558.108 180.496 Q554.937 180.496 553.339 181.468 Q551.765 182.44 551.765 184.384 Q551.765 185.866 552.9 186.722 Q554.034 187.556 557.46 188.32 L558.918 188.644 Q563.455 189.616 565.353 191.398 Q567.274 193.158 567.274 196.329 Q567.274 199.94 564.404 202.046 Q561.557 204.153 556.557 204.153 Q554.474 204.153 552.205 203.736 Q549.96 203.343 547.46 202.532 L547.46 198.134 Q549.821 199.361 552.113 199.986 Q554.404 200.588 556.65 200.588 Q559.659 200.588 561.279 199.57 Q562.9 198.528 562.9 196.653 Q562.9 194.917 561.719 193.991 Q560.562 193.065 556.603 192.208 L555.122 191.861 Q551.163 191.028 549.404 189.315 Q547.645 187.579 547.645 184.57 Q547.645 180.912 550.238 178.922 Q552.83 176.931 557.599 176.931 Q559.96 176.931 562.043 177.278 Q564.126 177.625 565.886 178.32 Z" fill="#000000" fill-rule="nonzero" fill-opacity="1" /><path clip-path="url(#clip590)" d="M578.27 170.195 L578.27 177.556 L587.043 177.556 L587.043 180.866 L578.27 180.866 L578.27 194.94 Q578.27 198.111 579.126 199.014 Q580.006 199.917 582.668 199.917 L587.043 199.917 L587.043 203.482 L582.668 203.482 Q577.737 203.482 575.862 201.653 Q573.987 199.801 573.987 194.94 L573.987 180.866 L570.862 180.866 L570.862 177.556 L573.987 177.556 L573.987 170.195 L578.27 170.195 Z" fill="#000000" fill-rule="nonzero" fill-opacity="1" /><path clip-path="url(#clip590)" d="M614.821 189.454 L614.821 191.537 L595.237 191.537 Q595.515 195.935 597.876 198.25 Q600.26 200.542 604.497 200.542 Q606.95 200.542 609.242 199.94 Q611.557 199.338 613.825 198.134 L613.825 202.162 Q611.534 203.134 609.126 203.644 Q606.719 204.153 604.242 204.153 Q598.038 204.153 594.404 200.542 Q590.793 196.931 590.793 190.773 Q590.793 184.408 594.219 180.681 Q597.668 176.931 603.501 176.931 Q608.733 176.931 611.765 180.31 Q614.821 183.667 614.821 189.454 M610.561 188.204 Q610.515 184.709 608.594 182.625 Q606.696 180.542 603.547 180.542 Q599.983 180.542 597.83 182.556 Q595.7 184.57 595.376 188.227 L610.561 188.204 Z" fill="#000000" fill-rule="nonzero" fill-opacity="1" /><path clip-path="url(#clip590)" d="M636.834 181.537 Q636.117 181.121 635.26 180.935 Q634.427 180.727 633.408 180.727 Q629.797 180.727 627.853 183.088 Q625.932 185.426 625.932 189.824 L625.932 203.482 L621.649 203.482 L621.649 177.556 L625.932 177.556 L625.932 181.584 Q627.274 179.222 629.427 178.088 Q631.58 176.931 634.658 176.931 Q635.098 176.931 635.631 177 Q636.163 177.047 636.811 177.162 L636.834 181.537 Z" fill="#000000" fill-rule="nonzero" fill-opacity="1" /><path clip-path="url(#clip590)" d="M641.302 177.556 L645.561 177.556 L645.561 203.482 L641.302 203.482 L641.302 177.556 M641.302 167.463 L645.561 167.463 L645.561 172.857 L641.302 172.857 L641.302 167.463 Z" fill="#000000" fill-rule="nonzero" fill-opacity="1" /><path clip-path="url(#clip590)" d="M664.519 180.542 Q661.093 180.542 659.103 183.227 Q657.112 185.889 657.112 190.542 Q657.112 195.195 659.08 197.88 Q661.07 200.542 664.519 200.542 Q667.922 200.542 669.913 197.857 Q671.904 195.171 671.904 190.542 Q671.904 185.935 669.913 183.25 Q667.922 180.542 664.519 180.542 M664.519 176.931 Q670.075 176.931 673.246 180.542 Q676.417 184.153 676.417 190.542 Q676.417 196.908 673.246 200.542 Q670.075 204.153 664.519 204.153 Q658.941 204.153 655.769 200.542 Q652.621 196.908 652.621 190.542 Q652.621 184.153 655.769 180.542 Q658.941 176.931 664.519 176.931 Z" fill="#000000" fill-rule="nonzero" fill-opacity="1" /><path clip-path="url(#clip590)" d="M698.501 181.537 Q697.783 181.121 696.927 180.935 Q696.093 180.727 695.075 180.727 Q691.464 180.727 689.519 183.088 Q687.598 185.426 687.598 189.824 L687.598 203.482 L683.316 203.482 L683.316 177.556 L687.598 177.556 L687.598 181.584 Q688.941 179.222 691.093 178.088 Q693.246 176.931 696.325 176.931 Q696.765 176.931 697.297 177 Q697.829 177.047 698.477 177.162 L698.501 181.537 Z" fill="#000000" fill-rule="nonzero" fill-opacity="1" /><path clip-path="url(#clip590)" d="M1957.9 1105.57 L3152.76 1105.57 L3152.76 47.2441 L1957.9 47.2441  Z" fill="#ffffff" fill-rule="evenodd" fill-opacity="1"/>
<defs>
  <clipPath id="clip593">
    <rect x="1957" y="47" width="1196" height="1059"/>
  </clipPath>
</defs>
<polyline clip-path="url(#clip593)" style="stroke:#000000; stroke-linecap:round; stroke-linejoin:round; stroke-width:2; stroke-opacity:0.1; fill:none" points="1957.9,1105.57 1957.9,47.2441 "/>
<polyline clip-path="url(#clip593)" style="stroke:#000000; stroke-linecap:round; stroke-linejoin:round; stroke-width:2; stroke-opacity:0.1; fill:none" points="2256.61,1105.57 2256.61,47.2441 "/>
<polyline clip-path="url(#clip593)" style="stroke:#000000; stroke-linecap:round; stroke-linejoin:round; stroke-width:2; stroke-opacity:0.1; fill:none" points="2555.33,1105.57 2555.33,47.2441 "/>
<polyline clip-path="url(#clip593)" style="stroke:#000000; stroke-linecap:round; stroke-linejoin:round; stroke-width:2; stroke-opacity:0.1; fill:none" points="2854.04,1105.57 2854.04,47.2441 "/>
<polyline clip-path="url(#clip593)" style="stroke:#000000; stroke-linecap:round; stroke-linejoin:round; stroke-width:2; stroke-opacity:0.1; fill:none" points="3152.76,1105.57 3152.76,47.2441 "/>
<polyline clip-path="url(#clip590)" style="stroke:#000000; stroke-linecap:round; stroke-linejoin:round; stroke-width:4; stroke-opacity:1; fill:none" points="1957.9,1105.57 3152.76,1105.57 "/>
<polyline clip-path="url(#clip590)" style="stroke:#000000; stroke-linecap:round; stroke-linejoin:round; stroke-width:4; stroke-opacity:1; fill:none" points="1957.9,1105.57 1957.9,1086.67 "/>
<polyline clip-path="url(#clip590)" style="stroke:#000000; stroke-linecap:round; stroke-linejoin:round; stroke-width:4; stroke-opacity:1; fill:none" points="2256.61,1105.57 2256.61,1086.67 "/>
<polyline clip-path="url(#clip590)" style="stroke:#000000; stroke-linecap:round; stroke-linejoin:round; stroke-width:4; stroke-opacity:1; fill:none" points="2555.33,1105.57 2555.33,1086.67 "/>
<polyline clip-path="url(#clip590)" style="stroke:#000000; stroke-linecap:round; stroke-linejoin:round; stroke-width:4; stroke-opacity:1; fill:none" points="2854.04,1105.57 2854.04,1086.67 "/>
<polyline clip-path="url(#clip590)" style="stroke:#000000; stroke-linecap:round; stroke-linejoin:round; stroke-width:4; stroke-opacity:1; fill:none" points="3152.76,1105.57 3152.76,1086.67 "/>
<path clip-path="url(#clip590)" d="M1895.38 1170.43 L1903.02 1170.43 L1903.02 1144.07 L1894.71 1145.73 L1894.71 1141.47 L1902.98 1139.81 L1907.65 1139.81 L1907.65 1170.43 L1915.29 1170.43 L1915.29 1174.37 L1895.38 1174.37 L1895.38 1170.43 Z" fill="#000000" fill-rule="nonzero" fill-opacity="1" /><path clip-path="url(#clip590)" d="M1924.74 1168.49 L1929.62 1168.49 L1929.62 1174.37 L1924.74 1174.37 L1924.74 1168.49 Z" fill="#000000" fill-rule="nonzero" fill-opacity="1" /><path clip-path="url(#clip590)" d="M1949.81 1142.89 Q1946.19 1142.89 1944.37 1146.45 Q1942.56 1149.99 1942.56 1157.12 Q1942.56 1164.23 1944.37 1167.79 Q1946.19 1171.34 1949.81 1171.34 Q1953.44 1171.34 1955.25 1167.79 Q1957.07 1164.23 1957.07 1157.12 Q1957.07 1149.99 1955.25 1146.45 Q1953.44 1142.89 1949.81 1142.89 M1949.81 1139.18 Q1955.62 1139.18 1958.67 1143.79 Q1961.75 1148.37 1961.75 1157.12 Q1961.75 1165.85 1958.67 1170.46 Q1955.62 1175.04 1949.81 1175.04 Q1944 1175.04 1940.92 1170.46 Q1937.86 1165.85 1937.86 1157.12 Q1937.86 1148.37 1940.92 1143.79 Q1944 1139.18 1949.81 1139.18 Z" fill="#000000" fill-rule="nonzero" fill-opacity="1" /><path clip-path="url(#clip590)" d="M1980.55 1155.22 Q1977.4 1155.22 1975.55 1157.38 Q1973.72 1159.53 1973.72 1163.28 Q1973.72 1167.01 1975.55 1169.18 Q1977.4 1171.34 1980.55 1171.34 Q1983.69 1171.34 1985.52 1169.18 Q1987.37 1167.01 1987.37 1163.28 Q1987.37 1159.53 1985.52 1157.38 Q1983.69 1155.22 1980.55 1155.22 M1989.83 1140.57 L1989.83 1144.83 Q1988.07 1144 1986.26 1143.56 Q1984.48 1143.12 1982.72 1143.12 Q1978.09 1143.12 1975.64 1146.24 Q1973.21 1149.37 1972.86 1155.69 Q1974.23 1153.67 1976.29 1152.61 Q1978.35 1151.52 1980.82 1151.52 Q1986.03 1151.52 1989.04 1154.69 Q1992.07 1157.84 1992.07 1163.28 Q1992.07 1168.6 1988.93 1171.82 Q1985.78 1175.04 1980.55 1175.04 Q1974.55 1175.04 1971.38 1170.46 Q1968.21 1165.85 1968.21 1157.12 Q1968.21 1148.93 1972.1 1144.07 Q1975.99 1139.18 1982.54 1139.18 Q1984.3 1139.18 1986.08 1139.53 Q1987.88 1139.88 1989.83 1140.57 Z" fill="#000000" fill-rule="nonzero" fill-opacity="1" /><path clip-path="url(#clip590)" d="M2000.18 1139.81 L2018.53 1139.81 L2018.53 1143.74 L2004.46 1143.74 L2004.46 1152.22 Q2005.48 1151.87 2006.5 1151.71 Q2007.51 1151.52 2008.53 1151.52 Q2014.32 1151.52 2017.7 1154.69 Q2021.08 1157.86 2021.08 1163.28 Q2021.08 1168.86 2017.61 1171.96 Q2014.13 1175.04 2007.81 1175.04 Q2005.64 1175.04 2003.37 1174.67 Q2001.12 1174.3 1998.72 1173.56 L1998.72 1168.86 Q2000.8 1169.99 2003.02 1170.55 Q2005.25 1171.1 2007.72 1171.1 Q2011.73 1171.1 2014.06 1169 Q2016.4 1166.89 2016.4 1163.28 Q2016.4 1159.67 2014.06 1157.56 Q2011.73 1155.46 2007.72 1155.46 Q2005.85 1155.46 2003.97 1155.87 Q2002.12 1156.29 2000.18 1157.17 L2000.18 1139.81 Z" fill="#000000" fill-rule="nonzero" fill-opacity="1" /><path clip-path="url(#clip590)" d="M2193.6 1170.43 L2201.24 1170.43 L2201.24 1144.07 L2192.93 1145.73 L2192.93 1141.47 L2201.19 1139.81 L2205.87 1139.81 L2205.87 1170.43 L2213.51 1170.43 L2213.51 1174.37 L2193.6 1174.37 L2193.6 1170.43 Z" fill="#000000" fill-rule="nonzero" fill-opacity="1" /><path clip-path="url(#clip590)" d="M2222.95 1168.49 L2227.84 1168.49 L2227.84 1174.37 L2222.95 1174.37 L2222.95 1168.49 Z" fill="#000000" fill-rule="nonzero" fill-opacity="1" /><path clip-path="url(#clip590)" d="M2248.02 1142.89 Q2244.41 1142.89 2242.58 1146.45 Q2240.78 1149.99 2240.78 1157.12 Q2240.78 1164.23 2242.58 1167.79 Q2244.41 1171.34 2248.02 1171.34 Q2251.66 1171.34 2253.46 1167.79 Q2255.29 1164.23 2255.29 1157.12 Q2255.29 1149.99 2253.46 1146.45 Q2251.66 1142.89 2248.02 1142.89 M2248.02 1139.18 Q2253.83 1139.18 2256.89 1143.79 Q2259.97 1148.37 2259.97 1157.12 Q2259.97 1165.85 2256.89 1170.46 Q2253.83 1175.04 2248.02 1175.04 Q2242.21 1175.04 2239.13 1170.46 Q2236.08 1165.85 2236.08 1157.12 Q2236.08 1148.37 2239.13 1143.79 Q2242.21 1139.18 2248.02 1139.18 Z" fill="#000000" fill-rule="nonzero" fill-opacity="1" /><path clip-path="url(#clip590)" d="M2267 1139.81 L2289.23 1139.81 L2289.23 1141.8 L2276.68 1174.37 L2271.8 1174.37 L2283.6 1143.74 L2267 1143.74 L2267 1139.81 Z" fill="#000000" fill-rule="nonzero" fill-opacity="1" /><path clip-path="url(#clip590)" d="M2308.35 1142.89 Q2304.74 1142.89 2302.91 1146.45 Q2301.1 1149.99 2301.1 1157.12 Q2301.1 1164.23 2302.91 1167.79 Q2304.74 1171.34 2308.35 1171.34 Q2311.98 1171.34 2313.79 1167.79 Q2315.62 1164.23 2315.62 1157.12 Q2315.62 1149.99 2313.79 1146.45 Q2311.98 1142.89 2308.35 1142.89 M2308.35 1139.18 Q2314.16 1139.18 2317.21 1143.79 Q2320.29 1148.37 2320.29 1157.12 Q2320.29 1165.85 2317.21 1170.46 Q2314.16 1175.04 2308.35 1175.04 Q2302.54 1175.04 2299.46 1170.46 Q2296.4 1165.85 2296.4 1157.12 Q2296.4 1148.37 2299.46 1143.79 Q2302.54 1139.18 2308.35 1139.18 Z" fill="#000000" fill-rule="nonzero" fill-opacity="1" /><path clip-path="url(#clip590)" d="M2492.81 1170.43 L2500.45 1170.43 L2500.45 1144.07 L2492.14 1145.73 L2492.14 1141.47 L2500.41 1139.81 L2505.08 1139.81 L2505.08 1170.43 L2512.72 1170.43 L2512.72 1174.37 L2492.81 1174.37 L2492.81 1170.43 Z" fill="#000000" fill-rule="nonzero" fill-opacity="1" /><path clip-path="url(#clip590)" d="M2522.17 1168.49 L2527.05 1168.49 L2527.05 1174.37 L2522.17 1174.37 L2522.17 1168.49 Z" fill="#000000" fill-rule="nonzero" fill-opacity="1" /><path clip-path="url(#clip590)" d="M2547.24 1142.89 Q2543.62 1142.89 2541.8 1146.45 Q2539.99 1149.99 2539.99 1157.12 Q2539.99 1164.23 2541.8 1167.79 Q2543.62 1171.34 2547.24 1171.34 Q2550.87 1171.34 2552.68 1167.79 Q2554.5 1164.23 2554.5 1157.12 Q2554.5 1149.99 2552.68 1146.45 Q2550.87 1142.89 2547.24 1142.89 M2547.24 1139.18 Q2553.05 1139.18 2556.1 1143.79 Q2559.18 1148.37 2559.18 1157.12 Q2559.18 1165.85 2556.1 1170.46 Q2553.05 1175.04 2547.24 1175.04 Q2541.43 1175.04 2538.35 1170.46 Q2535.29 1165.85 2535.29 1157.12 Q2535.29 1148.37 2538.35 1143.79 Q2541.43 1139.18 2547.24 1139.18 Z" fill="#000000" fill-rule="nonzero" fill-opacity="1" /><path clip-path="url(#clip590)" d="M2566.22 1139.81 L2588.44 1139.81 L2588.44 1141.8 L2575.89 1174.37 L2571.01 1174.37 L2582.81 1143.74 L2566.22 1143.74 L2566.22 1139.81 Z" fill="#000000" fill-rule="nonzero" fill-opacity="1" /><path clip-path="url(#clip590)" d="M2597.61 1139.81 L2615.96 1139.81 L2615.96 1143.74 L2601.89 1143.74 L2601.89 1152.22 Q2602.91 1151.87 2603.93 1151.71 Q2604.94 1151.52 2605.96 1151.52 Q2611.75 1151.52 2615.13 1154.69 Q2618.51 1157.86 2618.51 1163.28 Q2618.51 1168.86 2615.04 1171.96 Q2611.56 1175.04 2605.24 1175.04 Q2603.07 1175.04 2600.8 1174.67 Q2598.55 1174.3 2596.15 1173.56 L2596.15 1168.86 Q2598.23 1169.99 2600.45 1170.55 Q2602.68 1171.1 2605.15 1171.1 Q2609.16 1171.1 2611.49 1169 Q2613.83 1166.89 2613.83 1163.28 Q2613.83 1159.67 2611.49 1157.56 Q2609.16 1155.46 2605.15 1155.46 Q2603.28 1155.46 2601.4 1155.87 Q2599.55 1156.29 2597.61 1157.17 L2597.61 1139.81 Z" fill="#000000" fill-rule="nonzero" fill-opacity="1" /><path clip-path="url(#clip590)" d="M2791.03 1170.43 L2798.67 1170.43 L2798.67 1144.07 L2790.36 1145.73 L2790.36 1141.47 L2798.62 1139.81 L2803.3 1139.81 L2803.3 1170.43 L2810.94 1170.43 L2810.94 1174.37 L2791.03 1174.37 L2791.03 1170.43 Z" fill="#000000" fill-rule="nonzero" fill-opacity="1" /><path clip-path="url(#clip590)" d="M2820.38 1168.49 L2825.27 1168.49 L2825.27 1174.37 L2820.38 1174.37 L2820.38 1168.49 Z" fill="#000000" fill-rule="nonzero" fill-opacity="1" /><path clip-path="url(#clip590)" d="M2845.45 1142.89 Q2841.84 1142.89 2840.01 1146.45 Q2838.21 1149.99 2838.21 1157.12 Q2838.21 1164.23 2840.01 1167.79 Q2841.84 1171.34 2845.45 1171.34 Q2849.09 1171.34 2850.89 1167.79 Q2852.72 1164.23 2852.72 1157.12 Q2852.72 1149.99 2850.89 1146.45 Q2849.09 1142.89 2845.45 1142.89 M2845.45 1139.18 Q2851.26 1139.18 2854.32 1143.79 Q2857.4 1148.37 2857.4 1157.12 Q2857.4 1165.85 2854.32 1170.46 Q2851.26 1175.04 2845.45 1175.04 Q2839.64 1175.04 2836.56 1170.46 Q2833.51 1165.85 2833.51 1157.12 Q2833.51 1148.37 2836.56 1143.79 Q2839.64 1139.18 2845.45 1139.18 Z" fill="#000000" fill-rule="nonzero" fill-opacity="1" /><path clip-path="url(#clip590)" d="M2875.61 1157.96 Q2872.28 1157.96 2870.36 1159.74 Q2868.46 1161.52 2868.46 1164.65 Q2868.46 1167.77 2870.36 1169.55 Q2872.28 1171.34 2875.61 1171.34 Q2878.95 1171.34 2880.87 1169.55 Q2882.79 1167.75 2882.79 1164.65 Q2882.79 1161.52 2880.87 1159.74 Q2878.97 1157.96 2875.61 1157.96 M2870.94 1155.97 Q2867.93 1155.22 2866.24 1153.16 Q2864.57 1151.1 2864.57 1148.14 Q2864.57 1144 2867.51 1141.59 Q2870.48 1139.18 2875.61 1139.18 Q2880.78 1139.18 2883.72 1141.59 Q2886.66 1144 2886.66 1148.14 Q2886.66 1151.1 2884.97 1153.16 Q2883.3 1155.22 2880.31 1155.97 Q2883.69 1156.75 2885.57 1159.04 Q2887.47 1161.34 2887.47 1164.65 Q2887.47 1169.67 2884.39 1172.35 Q2881.33 1175.04 2875.61 1175.04 Q2869.9 1175.04 2866.82 1172.35 Q2863.76 1169.67 2863.76 1164.65 Q2863.76 1161.34 2865.66 1159.04 Q2867.56 1156.75 2870.94 1155.97 M2869.23 1148.58 Q2869.23 1151.27 2870.89 1152.77 Q2872.58 1154.28 2875.61 1154.28 Q2878.62 1154.28 2880.31 1152.77 Q2882.03 1151.27 2882.03 1148.58 Q2882.03 1145.9 2880.31 1144.39 Q2878.62 1142.89 2875.61 1142.89 Q2872.58 1142.89 2870.89 1144.39 Q2869.23 1145.9 2869.23 1148.58 Z" fill="#000000" fill-rule="nonzero" fill-opacity="1" /><path clip-path="url(#clip590)" d="M2905.78 1142.89 Q2902.17 1142.89 2900.34 1146.45 Q2898.53 1149.99 2898.53 1157.12 Q2898.53 1164.23 2900.34 1167.79 Q2902.17 1171.34 2905.78 1171.34 Q2909.41 1171.34 2911.22 1167.79 Q2913.05 1164.23 2913.05 1157.12 Q2913.05 1149.99 2911.22 1146.45 Q2909.41 1142.89 2905.78 1142.89 M2905.78 1139.18 Q2911.59 1139.18 2914.64 1143.79 Q2917.72 1148.37 2917.72 1157.12 Q2917.72 1165.85 2914.64 1170.46 Q2911.59 1175.04 2905.78 1175.04 Q2899.97 1175.04 2896.89 1170.46 Q2893.83 1165.85 2893.83 1157.12 Q2893.83 1148.37 2896.89 1143.79 Q2899.97 1139.18 2905.78 1139.18 Z" fill="#000000" fill-rule="nonzero" fill-opacity="1" /><path clip-path="url(#clip590)" d="M3090.24 1170.43 L3097.88 1170.43 L3097.88 1144.07 L3089.57 1145.73 L3089.57 1141.47 L3097.84 1139.81 L3102.51 1139.81 L3102.51 1170.43 L3110.15 1170.43 L3110.15 1174.37 L3090.24 1174.37 L3090.24 1170.43 Z" fill="#000000" fill-rule="nonzero" fill-opacity="1" /><path clip-path="url(#clip590)" d="M3119.6 1168.49 L3124.48 1168.49 L3124.48 1174.37 L3119.6 1174.37 L3119.6 1168.49 Z" fill="#000000" fill-rule="nonzero" fill-opacity="1" /><path clip-path="url(#clip590)" d="M3144.67 1142.89 Q3141.05 1142.89 3139.23 1146.45 Q3137.42 1149.99 3137.42 1157.12 Q3137.42 1164.23 3139.23 1167.79 Q3141.05 1171.34 3144.67 1171.34 Q3148.3 1171.34 3150.11 1167.79 Q3151.93 1164.23 3151.93 1157.12 Q3151.93 1149.99 3150.11 1146.45 Q3148.3 1142.89 3144.67 1142.89 M3144.67 1139.18 Q3150.48 1139.18 3153.53 1143.79 Q3156.61 1148.37 3156.61 1157.12 Q3156.61 1165.85 3153.53 1170.46 Q3150.48 1175.04 3144.67 1175.04 Q3138.86 1175.04 3135.78 1170.46 Q3132.72 1165.85 3132.72 1157.12 Q3132.72 1148.37 3135.78 1143.79 Q3138.86 1139.18 3144.67 1139.18 Z" fill="#000000" fill-rule="nonzero" fill-opacity="1" /><path clip-path="url(#clip590)" d="M3174.83 1157.96 Q3171.49 1157.96 3169.57 1159.74 Q3167.67 1161.52 3167.67 1164.65 Q3167.67 1167.77 3169.57 1169.55 Q3171.49 1171.34 3174.83 1171.34 Q3178.16 1171.34 3180.08 1169.55 Q3182 1167.75 3182 1164.65 Q3182 1161.52 3180.08 1159.74 Q3178.18 1157.96 3174.83 1157.96 M3170.15 1155.97 Q3167.14 1155.22 3165.45 1153.16 Q3163.79 1151.1 3163.79 1148.14 Q3163.79 1144 3166.73 1141.59 Q3169.69 1139.18 3174.83 1139.18 Q3179.99 1139.18 3182.93 1141.59 Q3185.87 1144 3185.87 1148.14 Q3185.87 1151.1 3184.18 1153.16 Q3182.51 1155.22 3179.53 1155.97 Q3182.91 1156.75 3184.78 1159.04 Q3186.68 1161.34 3186.68 1164.65 Q3186.68 1169.67 3183.6 1172.35 Q3180.55 1175.04 3174.83 1175.04 Q3169.11 1175.04 3166.03 1172.35 Q3162.98 1169.67 3162.98 1164.65 Q3162.98 1161.34 3164.87 1159.04 Q3166.77 1156.75 3170.15 1155.97 M3168.44 1148.58 Q3168.44 1151.27 3170.11 1152.77 Q3171.8 1154.28 3174.83 1154.28 Q3177.84 1154.28 3179.53 1152.77 Q3181.24 1151.27 3181.24 1148.58 Q3181.24 1145.9 3179.53 1144.39 Q3177.84 1142.89 3174.83 1142.89 Q3171.8 1142.89 3170.11 1144.39 Q3168.44 1145.9 3168.44 1148.58 Z" fill="#000000" fill-rule="nonzero" fill-opacity="1" /><path clip-path="url(#clip590)" d="M3195.04 1139.81 L3213.39 1139.81 L3213.39 1143.74 L3199.32 1143.74 L3199.32 1152.22 Q3200.34 1151.87 3201.36 1151.71 Q3202.37 1151.52 3203.39 1151.52 Q3209.18 1151.52 3212.56 1154.69 Q3215.94 1157.86 3215.94 1163.28 Q3215.94 1168.86 3212.47 1171.96 Q3208.99 1175.04 3202.67 1175.04 Q3200.5 1175.04 3198.23 1174.67 Q3195.98 1174.3 3193.58 1173.56 L3193.58 1168.86 Q3195.66 1169.99 3197.88 1170.55 Q3200.11 1171.1 3202.58 1171.1 Q3206.59 1171.1 3208.92 1169 Q3211.26 1166.89 3211.26 1163.28 Q3211.26 1159.67 3208.92 1157.56 Q3206.59 1155.46 3202.58 1155.46 Q3200.71 1155.46 3198.83 1155.87 Q3196.98 1156.29 3195.04 1157.17 L3195.04 1139.81 Z" fill="#000000" fill-rule="nonzero" fill-opacity="1" /><polyline clip-path="url(#clip593)" style="stroke:#000000; stroke-linecap:round; stroke-linejoin:round; stroke-width:2; stroke-opacity:0.1; fill:none" points="1957.9,949.611 3152.76,949.611 "/>
<polyline clip-path="url(#clip593)" style="stroke:#000000; stroke-linecap:round; stroke-linejoin:round; stroke-width:2; stroke-opacity:0.1; fill:none" points="1957.9,692.025 3152.76,692.025 "/>
<polyline clip-path="url(#clip593)" style="stroke:#000000; stroke-linecap:round; stroke-linejoin:round; stroke-width:2; stroke-opacity:0.1; fill:none" points="1957.9,434.44 3152.76,434.44 "/>
<polyline clip-path="url(#clip593)" style="stroke:#000000; stroke-linecap:round; stroke-linejoin:round; stroke-width:2; stroke-opacity:0.1; fill:none" points="1957.9,176.854 3152.76,176.854 "/>
<polyline clip-path="url(#clip590)" style="stroke:#000000; stroke-linecap:round; stroke-linejoin:round; stroke-width:4; stroke-opacity:1; fill:none" points="1957.9,1105.57 1957.9,47.2441 "/>
<polyline clip-path="url(#clip590)" style="stroke:#000000; stroke-linecap:round; stroke-linejoin:round; stroke-width:4; stroke-opacity:1; fill:none" points="1957.9,949.611 1976.79,949.611 "/>
<polyline clip-path="url(#clip590)" style="stroke:#000000; stroke-linecap:round; stroke-linejoin:round; stroke-width:4; stroke-opacity:1; fill:none" points="1957.9,692.025 1976.79,692.025 "/>
<polyline clip-path="url(#clip590)" style="stroke:#000000; stroke-linecap:round; stroke-linejoin:round; stroke-width:4; stroke-opacity:1; fill:none" points="1957.9,434.44 1976.79,434.44 "/>
<polyline clip-path="url(#clip590)" style="stroke:#000000; stroke-linecap:round; stroke-linejoin:round; stroke-width:4; stroke-opacity:1; fill:none" points="1957.9,176.854 1976.79,176.854 "/>
<path clip-path="url(#clip590)" d="M1633.83 969.403 L1641.47 969.403 L1641.47 943.038 L1633.16 944.704 L1633.16 940.445 L1641.42 938.778 L1646.1 938.778 L1646.1 969.403 L1653.74 969.403 L1653.74 973.338 L1633.83 973.338 L1633.83 969.403 Z" fill="#000000" fill-rule="nonzero" fill-opacity="1" /><path clip-path="url(#clip590)" d="M1663.18 967.459 L1668.06 967.459 L1668.06 973.338 L1663.18 973.338 L1663.18 967.459 Z" fill="#000000" fill-rule="nonzero" fill-opacity="1" /><path clip-path="url(#clip590)" d="M1677.07 938.778 L1699.29 938.778 L1699.29 940.769 L1686.74 973.338 L1681.86 973.338 L1693.67 942.714 L1677.07 942.714 L1677.07 938.778 Z" fill="#000000" fill-rule="nonzero" fill-opacity="1" /><path clip-path="url(#clip590)" d="M1718.41 941.857 Q1714.8 941.857 1712.97 945.422 Q1711.17 948.964 1711.17 956.093 Q1711.17 963.2 1712.97 966.764 Q1714.8 970.306 1718.41 970.306 Q1722.05 970.306 1723.85 966.764 Q1725.68 963.2 1725.68 956.093 Q1725.68 948.964 1723.85 945.422 Q1722.05 941.857 1718.41 941.857 M1718.41 938.153 Q1724.22 938.153 1727.28 942.76 Q1730.36 947.343 1730.36 956.093 Q1730.36 964.82 1727.28 969.426 Q1724.22 974.01 1718.41 974.01 Q1712.6 974.01 1709.52 969.426 Q1706.47 964.82 1706.47 956.093 Q1706.47 947.343 1709.52 942.76 Q1712.6 938.153 1718.41 938.153 Z" fill="#000000" fill-rule="nonzero" fill-opacity="1" /><path clip-path="url(#clip590)" d="M1748.57 941.857 Q1744.96 941.857 1743.13 945.422 Q1741.33 948.964 1741.33 956.093 Q1741.33 963.2 1743.13 966.764 Q1744.96 970.306 1748.57 970.306 Q1752.21 970.306 1754.01 966.764 Q1755.84 963.2 1755.84 956.093 Q1755.84 948.964 1754.01 945.422 Q1752.21 941.857 1748.57 941.857 M1748.57 938.153 Q1754.38 938.153 1757.44 942.76 Q1760.52 947.343 1760.52 956.093 Q1760.52 964.82 1757.44 969.426 Q1754.38 974.01 1748.57 974.01 Q1742.76 974.01 1739.68 969.426 Q1736.63 964.82 1736.63 956.093 Q1736.63 947.343 1739.68 942.76 Q1742.76 938.153 1748.57 938.153 Z" fill="#000000" fill-rule="nonzero" fill-opacity="1" /><path clip-path="url(#clip590)" d="M1796.91 947.876 L1786.33 958.501 L1796.91 969.079 L1794.15 971.88 L1783.53 961.255 L1772.9 971.88 L1770.17 969.079 L1780.73 958.501 L1770.17 947.876 L1772.9 945.075 L1783.53 955.7 L1794.15 945.075 L1796.91 947.876 Z" fill="#000000" fill-rule="nonzero" fill-opacity="1" /><path clip-path="url(#clip590)" d="M1809.27 969.403 L1816.91 969.403 L1816.91 943.038 L1808.6 944.704 L1808.6 940.445 L1816.86 938.778 L1821.54 938.778 L1821.54 969.403 L1829.17 969.403 L1829.17 973.338 L1809.27 973.338 L1809.27 969.403 Z" fill="#000000" fill-rule="nonzero" fill-opacity="1" /><path clip-path="url(#clip590)" d="M1848.62 941.857 Q1845.01 941.857 1843.18 945.422 Q1841.37 948.964 1841.37 956.093 Q1841.37 963.2 1843.18 966.764 Q1845.01 970.306 1848.62 970.306 Q1852.25 970.306 1854.06 966.764 Q1855.89 963.2 1855.89 956.093 Q1855.89 948.964 1854.06 945.422 Q1852.25 941.857 1848.62 941.857 M1848.62 938.153 Q1854.43 938.153 1857.48 942.76 Q1860.56 947.343 1860.56 956.093 Q1860.56 964.82 1857.48 969.426 Q1854.43 974.01 1848.62 974.01 Q1842.81 974.01 1839.73 969.426 Q1836.67 964.82 1836.67 956.093 Q1836.67 947.343 1839.73 942.76 Q1842.81 938.153 1848.62 938.153 Z" fill="#000000" fill-rule="nonzero" fill-opacity="1" /><path clip-path="url(#clip590)" d="M1860.56 932.255 L1884.67 932.255 L1884.67 935.452 L1860.56 935.452 L1860.56 932.255 Z" fill="#000000" fill-rule="nonzero" fill-opacity="1" /><path clip-path="url(#clip590)" d="M1892.91 917.848 L1907.83 917.848 L1907.83 921.045 L1896.39 921.045 L1896.39 927.929 Q1897.22 927.647 1898.05 927.515 Q1898.87 927.365 1899.7 927.365 Q1904.4 927.365 1907.15 929.941 Q1909.9 932.518 1909.9 936.919 Q1909.9 941.452 1907.07 943.972 Q1904.25 946.473 1899.12 946.473 Q1897.35 946.473 1895.51 946.173 Q1893.68 945.872 1891.73 945.27 L1891.73 941.452 Q1893.42 942.373 1895.23 942.825 Q1897.03 943.276 1899.04 943.276 Q1902.3 943.276 1904.2 941.565 Q1906.1 939.853 1906.1 936.919 Q1906.1 933.985 1904.2 932.274 Q1902.3 930.562 1899.04 930.562 Q1897.52 930.562 1896 930.901 Q1894.49 931.239 1892.91 931.954 L1892.91 917.848 Z" fill="#000000" fill-rule="nonzero" fill-opacity="1" /><path clip-path="url(#clip590)" d="M1633.83 711.818 L1641.47 711.818 L1641.47 685.452 L1633.16 687.119 L1633.16 682.859 L1641.42 681.193 L1646.1 681.193 L1646.1 711.818 L1653.74 711.818 L1653.74 715.753 L1633.83 715.753 L1633.83 711.818 Z" fill="#000000" fill-rule="nonzero" fill-opacity="1" /><path clip-path="url(#clip590)" d="M1663.18 709.873 L1668.06 709.873 L1668.06 715.753 L1663.18 715.753 L1663.18 709.873 Z" fill="#000000" fill-rule="nonzero" fill-opacity="1" /><path clip-path="url(#clip590)" d="M1677.07 681.193 L1699.29 681.193 L1699.29 683.184 L1686.74 715.753 L1681.86 715.753 L1693.67 685.128 L1677.07 685.128 L1677.07 681.193 Z" fill="#000000" fill-rule="nonzero" fill-opacity="1" /><path clip-path="url(#clip590)" d="M1708.46 681.193 L1726.81 681.193 L1726.81 685.128 L1712.74 685.128 L1712.74 693.6 Q1713.76 693.253 1714.78 693.091 Q1715.8 692.906 1716.81 692.906 Q1722.6 692.906 1725.98 696.077 Q1729.36 699.248 1729.36 704.665 Q1729.36 710.244 1725.89 713.345 Q1722.42 716.424 1716.1 716.424 Q1713.92 716.424 1711.65 716.054 Q1709.41 715.683 1707 714.943 L1707 710.244 Q1709.08 711.378 1711.3 711.933 Q1713.53 712.489 1716 712.489 Q1720.01 712.489 1722.35 710.382 Q1724.68 708.276 1724.68 704.665 Q1724.68 701.054 1722.35 698.947 Q1720.01 696.841 1716 696.841 Q1714.13 696.841 1712.25 697.258 Q1710.4 697.674 1708.46 698.554 L1708.46 681.193 Z" fill="#000000" fill-rule="nonzero" fill-opacity="1" /><path clip-path="url(#clip590)" d="M1748.57 684.271 Q1744.96 684.271 1743.13 687.836 Q1741.33 691.378 1741.33 698.508 Q1741.33 705.614 1743.13 709.179 Q1744.96 712.72 1748.57 712.72 Q1752.21 712.72 1754.01 709.179 Q1755.84 705.614 1755.84 698.508 Q1755.84 691.378 1754.01 687.836 Q1752.21 684.271 1748.57 684.271 M1748.57 680.568 Q1754.38 680.568 1757.44 685.174 Q1760.52 689.758 1760.52 698.508 Q1760.52 707.234 1757.44 711.841 Q1754.38 716.424 1748.57 716.424 Q1742.76 716.424 1739.68 711.841 Q1736.63 707.234 1736.63 698.508 Q1736.63 689.758 1739.68 685.174 Q1742.76 680.568 1748.57 680.568 Z" fill="#000000" fill-rule="nonzero" fill-opacity="1" /><path clip-path="url(#clip590)" d="M1796.91 690.29 L1786.33 700.915 L1796.91 711.494 L1794.15 714.294 L1783.53 703.67 L1772.9 714.294 L1770.17 711.494 L1780.73 700.915 L1770.17 690.29 L1772.9 687.489 L1783.53 698.114 L1794.15 687.489 L1796.91 690.29 Z" fill="#000000" fill-rule="nonzero" fill-opacity="1" /><path clip-path="url(#clip590)" d="M1809.27 711.818 L1816.91 711.818 L1816.91 685.452 L1808.6 687.119 L1808.6 682.859 L1816.86 681.193 L1821.54 681.193 L1821.54 711.818 L1829.17 711.818 L1829.17 715.753 L1809.27 715.753 L1809.27 711.818 Z" fill="#000000" fill-rule="nonzero" fill-opacity="1" /><path clip-path="url(#clip590)" d="M1848.62 684.271 Q1845.01 684.271 1843.18 687.836 Q1841.37 691.378 1841.37 698.508 Q1841.37 705.614 1843.18 709.179 Q1845.01 712.72 1848.62 712.72 Q1852.25 712.72 1854.06 709.179 Q1855.89 705.614 1855.89 698.508 Q1855.89 691.378 1854.06 687.836 Q1852.25 684.271 1848.62 684.271 M1848.62 680.568 Q1854.43 680.568 1857.48 685.174 Q1860.56 689.758 1860.56 698.508 Q1860.56 707.234 1857.48 711.841 Q1854.43 716.424 1848.62 716.424 Q1842.81 716.424 1839.73 711.841 Q1836.67 707.234 1836.67 698.508 Q1836.67 689.758 1839.73 685.174 Q1842.81 680.568 1848.62 680.568 Z" fill="#000000" fill-rule="nonzero" fill-opacity="1" /><path clip-path="url(#clip590)" d="M1860.56 674.669 L1884.67 674.669 L1884.67 677.866 L1860.56 677.866 L1860.56 674.669 Z" fill="#000000" fill-rule="nonzero" fill-opacity="1" /><path clip-path="url(#clip590)" d="M1892.91 660.262 L1907.83 660.262 L1907.83 663.46 L1896.39 663.46 L1896.39 670.343 Q1897.22 670.061 1898.05 669.93 Q1898.87 669.779 1899.7 669.779 Q1904.4 669.779 1907.15 672.356 Q1909.9 674.932 1909.9 679.333 Q1909.9 683.866 1907.07 686.386 Q1904.25 688.888 1899.12 688.888 Q1897.35 688.888 1895.51 688.587 Q1893.68 688.286 1891.73 687.684 L1891.73 683.866 Q1893.42 684.788 1895.23 685.239 Q1897.03 685.691 1899.04 685.691 Q1902.3 685.691 1904.2 683.979 Q1906.1 682.267 1906.1 679.333 Q1906.1 676.399 1904.2 674.688 Q1902.3 672.976 1899.04 672.976 Q1897.52 672.976 1896 673.315 Q1894.49 673.654 1892.91 674.368 L1892.91 660.262 Z" fill="#000000" fill-rule="nonzero" fill-opacity="1" /><path clip-path="url(#clip590)" d="M1633.83 454.232 L1641.47 454.232 L1641.47 427.866 L1633.16 429.533 L1633.16 425.274 L1641.42 423.607 L1646.1 423.607 L1646.1 454.232 L1653.74 454.232 L1653.74 458.167 L1633.83 458.167 L1633.83 454.232 Z" fill="#000000" fill-rule="nonzero" fill-opacity="1" /><path clip-path="url(#clip590)" d="M1663.18 452.288 L1668.06 452.288 L1668.06 458.167 L1663.18 458.167 L1663.18 452.288 Z" fill="#000000" fill-rule="nonzero" fill-opacity="1" /><path clip-path="url(#clip590)" d="M1688.25 441.755 Q1684.92 441.755 1682.99 443.538 Q1681.1 445.32 1681.1 448.445 Q1681.1 451.57 1682.99 453.352 Q1684.92 455.135 1688.25 455.135 Q1691.58 455.135 1693.5 453.352 Q1695.43 451.547 1695.43 448.445 Q1695.43 445.32 1693.5 443.538 Q1691.61 441.755 1688.25 441.755 M1683.57 439.764 Q1680.56 439.024 1678.87 436.964 Q1677.21 434.903 1677.21 431.94 Q1677.21 427.797 1680.15 425.39 Q1683.11 422.982 1688.25 422.982 Q1693.41 422.982 1696.35 425.39 Q1699.29 427.797 1699.29 431.94 Q1699.29 434.903 1697.6 436.964 Q1695.93 439.024 1692.95 439.764 Q1696.33 440.552 1698.2 442.843 Q1700.1 445.135 1700.1 448.445 Q1700.1 453.468 1697.02 456.153 Q1693.97 458.838 1688.25 458.838 Q1682.53 458.838 1679.45 456.153 Q1676.4 453.468 1676.4 448.445 Q1676.4 445.135 1678.3 442.843 Q1680.19 440.552 1683.57 439.764 M1681.86 432.38 Q1681.86 435.065 1683.53 436.57 Q1685.22 438.075 1688.25 438.075 Q1691.26 438.075 1692.95 436.57 Q1694.66 435.065 1694.66 432.38 Q1694.66 429.695 1692.95 428.19 Q1691.26 426.686 1688.25 426.686 Q1685.22 426.686 1683.53 428.19 Q1681.86 429.695 1681.86 432.38 Z" fill="#000000" fill-rule="nonzero" fill-opacity="1" /><path clip-path="url(#clip590)" d="M1718.41 426.686 Q1714.8 426.686 1712.97 430.251 Q1711.17 433.792 1711.17 440.922 Q1711.17 448.028 1712.97 451.593 Q1714.8 455.135 1718.41 455.135 Q1722.05 455.135 1723.85 451.593 Q1725.68 448.028 1725.68 440.922 Q1725.68 433.792 1723.85 430.251 Q1722.05 426.686 1718.41 426.686 M1718.41 422.982 Q1724.22 422.982 1727.28 427.589 Q1730.36 432.172 1730.36 440.922 Q1730.36 449.649 1727.28 454.255 Q1724.22 458.838 1718.41 458.838 Q1712.6 458.838 1709.52 454.255 Q1706.47 449.649 1706.47 440.922 Q1706.47 432.172 1709.52 427.589 Q1712.6 422.982 1718.41 422.982 Z" fill="#000000" fill-rule="nonzero" fill-opacity="1" /><path clip-path="url(#clip590)" d="M1748.57 426.686 Q1744.96 426.686 1743.13 430.251 Q1741.33 433.792 1741.33 440.922 Q1741.33 448.028 1743.13 451.593 Q1744.96 455.135 1748.57 455.135 Q1752.21 455.135 1754.01 451.593 Q1755.84 448.028 1755.84 440.922 Q1755.84 433.792 1754.01 430.251 Q1752.21 426.686 1748.57 426.686 M1748.57 422.982 Q1754.38 422.982 1757.44 427.589 Q1760.52 432.172 1760.52 440.922 Q1760.52 449.649 1757.44 454.255 Q1754.38 458.838 1748.57 458.838 Q1742.76 458.838 1739.68 454.255 Q1736.63 449.649 1736.63 440.922 Q1736.63 432.172 1739.68 427.589 Q1742.76 422.982 1748.57 422.982 Z" fill="#000000" fill-rule="nonzero" fill-opacity="1" /><path clip-path="url(#clip590)" d="M1796.91 432.704 L1786.33 443.329 L1796.91 453.908 L1794.15 456.709 L1783.53 446.084 L1772.9 456.709 L1770.17 453.908 L1780.73 443.329 L1770.17 432.704 L1772.9 429.903 L1783.53 440.528 L1794.15 429.903 L1796.91 432.704 Z" fill="#000000" fill-rule="nonzero" fill-opacity="1" /><path clip-path="url(#clip590)" d="M1809.27 454.232 L1816.91 454.232 L1816.91 427.866 L1808.6 429.533 L1808.6 425.274 L1816.86 423.607 L1821.54 423.607 L1821.54 454.232 L1829.17 454.232 L1829.17 458.167 L1809.27 458.167 L1809.27 454.232 Z" fill="#000000" fill-rule="nonzero" fill-opacity="1" /><path clip-path="url(#clip590)" d="M1848.62 426.686 Q1845.01 426.686 1843.18 430.251 Q1841.37 433.792 1841.37 440.922 Q1841.37 448.028 1843.18 451.593 Q1845.01 455.135 1848.62 455.135 Q1852.25 455.135 1854.06 451.593 Q1855.89 448.028 1855.89 440.922 Q1855.89 433.792 1854.06 430.251 Q1852.25 426.686 1848.62 426.686 M1848.62 422.982 Q1854.43 422.982 1857.48 427.589 Q1860.56 432.172 1860.56 440.922 Q1860.56 449.649 1857.48 454.255 Q1854.43 458.838 1848.62 458.838 Q1842.81 458.838 1839.73 454.255 Q1836.67 449.649 1836.67 440.922 Q1836.67 432.172 1839.73 427.589 Q1842.81 422.982 1848.62 422.982 Z" fill="#000000" fill-rule="nonzero" fill-opacity="1" /><path clip-path="url(#clip590)" d="M1860.56 417.084 L1884.67 417.084 L1884.67 420.281 L1860.56 420.281 L1860.56 417.084 Z" fill="#000000" fill-rule="nonzero" fill-opacity="1" /><path clip-path="url(#clip590)" d="M1892.91 402.677 L1907.83 402.677 L1907.83 405.874 L1896.39 405.874 L1896.39 412.758 Q1897.22 412.476 1898.05 412.344 Q1898.87 412.194 1899.7 412.194 Q1904.4 412.194 1907.15 414.77 Q1909.9 417.347 1909.9 421.748 Q1909.9 426.281 1907.07 428.801 Q1904.25 431.302 1899.12 431.302 Q1897.35 431.302 1895.51 431.001 Q1893.68 430.7 1891.73 430.099 L1891.73 426.281 Q1893.42 427.202 1895.23 427.653 Q1897.03 428.105 1899.04 428.105 Q1902.3 428.105 1904.2 426.393 Q1906.1 424.682 1906.1 421.748 Q1906.1 418.814 1904.2 417.102 Q1902.3 415.391 1899.04 415.391 Q1897.52 415.391 1896 415.729 Q1894.49 416.068 1892.91 416.783 L1892.91 402.677 Z" fill="#000000" fill-rule="nonzero" fill-opacity="1" /><path clip-path="url(#clip590)" d="M1633.83 196.646 L1641.47 196.646 L1641.47 170.281 L1633.16 171.947 L1633.16 167.688 L1641.42 166.022 L1646.1 166.022 L1646.1 196.646 L1653.74 196.646 L1653.74 200.582 L1633.83 200.582 L1633.83 196.646 Z" fill="#000000" fill-rule="nonzero" fill-opacity="1" /><path clip-path="url(#clip590)" d="M1663.18 194.702 L1668.06 194.702 L1668.06 200.582 L1663.18 200.582 L1663.18 194.702 Z" fill="#000000" fill-rule="nonzero" fill-opacity="1" /><path clip-path="url(#clip590)" d="M1688.25 184.17 Q1684.92 184.17 1682.99 185.952 Q1681.1 187.734 1681.1 190.859 Q1681.1 193.984 1682.99 195.767 Q1684.92 197.549 1688.25 197.549 Q1691.58 197.549 1693.5 195.767 Q1695.43 193.961 1695.43 190.859 Q1695.43 187.734 1693.5 185.952 Q1691.61 184.17 1688.25 184.17 M1683.57 182.179 Q1680.56 181.438 1678.87 179.378 Q1677.21 177.318 1677.21 174.355 Q1677.21 170.211 1680.15 167.804 Q1683.11 165.397 1688.25 165.397 Q1693.41 165.397 1696.35 167.804 Q1699.29 170.211 1699.29 174.355 Q1699.29 177.318 1697.6 179.378 Q1695.93 181.438 1692.95 182.179 Q1696.33 182.966 1698.2 185.258 Q1700.1 187.549 1700.1 190.859 Q1700.1 195.882 1697.02 198.568 Q1693.97 201.253 1688.25 201.253 Q1682.53 201.253 1679.45 198.568 Q1676.4 195.882 1676.4 190.859 Q1676.4 187.549 1678.3 185.258 Q1680.19 182.966 1683.57 182.179 M1681.86 174.795 Q1681.86 177.48 1683.53 178.984 Q1685.22 180.489 1688.25 180.489 Q1691.26 180.489 1692.95 178.984 Q1694.66 177.48 1694.66 174.795 Q1694.66 172.109 1692.95 170.605 Q1691.26 169.1 1688.25 169.1 Q1685.22 169.1 1683.53 170.605 Q1681.86 172.109 1681.86 174.795 Z" fill="#000000" fill-rule="nonzero" fill-opacity="1" /><path clip-path="url(#clip590)" d="M1708.46 166.022 L1726.81 166.022 L1726.81 169.957 L1712.74 169.957 L1712.74 178.429 Q1713.76 178.082 1714.78 177.92 Q1715.8 177.734 1716.81 177.734 Q1722.6 177.734 1725.98 180.906 Q1729.36 184.077 1729.36 189.494 Q1729.36 195.072 1725.89 198.174 Q1722.42 201.253 1716.1 201.253 Q1713.92 201.253 1711.65 200.882 Q1709.41 200.512 1707 199.771 L1707 195.072 Q1709.08 196.207 1711.3 196.762 Q1713.53 197.318 1716 197.318 Q1720.01 197.318 1722.35 195.211 Q1724.68 193.105 1724.68 189.494 Q1724.68 185.883 1722.35 183.776 Q1720.01 181.67 1716 181.67 Q1714.13 181.67 1712.25 182.086 Q1710.4 182.503 1708.46 183.383 L1708.46 166.022 Z" fill="#000000" fill-rule="nonzero" fill-opacity="1" /><path clip-path="url(#clip590)" d="M1748.57 169.1 Q1744.96 169.1 1743.13 172.665 Q1741.33 176.207 1741.33 183.336 Q1741.33 190.443 1743.13 194.008 Q1744.96 197.549 1748.57 197.549 Q1752.21 197.549 1754.01 194.008 Q1755.84 190.443 1755.84 183.336 Q1755.84 176.207 1754.01 172.665 Q1752.21 169.1 1748.57 169.1 M1748.57 165.397 Q1754.38 165.397 1757.44 170.003 Q1760.52 174.586 1760.52 183.336 Q1760.52 192.063 1757.44 196.67 Q1754.38 201.253 1748.57 201.253 Q1742.76 201.253 1739.68 196.67 Q1736.63 192.063 1736.63 183.336 Q1736.63 174.586 1739.68 170.003 Q1742.76 165.397 1748.57 165.397 Z" fill="#000000" fill-rule="nonzero" fill-opacity="1" /><path clip-path="url(#clip590)" d="M1796.91 175.119 L1786.33 185.744 L1796.91 196.322 L1794.15 199.123 L1783.53 188.498 L1772.9 199.123 L1770.17 196.322 L1780.73 185.744 L1770.17 175.119 L1772.9 172.318 L1783.53 182.943 L1794.15 172.318 L1796.91 175.119 Z" fill="#000000" fill-rule="nonzero" fill-opacity="1" /><path clip-path="url(#clip590)" d="M1809.27 196.646 L1816.91 196.646 L1816.91 170.281 L1808.6 171.947 L1808.6 167.688 L1816.86 166.022 L1821.54 166.022 L1821.54 196.646 L1829.17 196.646 L1829.17 200.582 L1809.27 200.582 L1809.27 196.646 Z" fill="#000000" fill-rule="nonzero" fill-opacity="1" /><path clip-path="url(#clip590)" d="M1848.62 169.1 Q1845.01 169.1 1843.18 172.665 Q1841.37 176.207 1841.37 183.336 Q1841.37 190.443 1843.18 194.008 Q1845.01 197.549 1848.62 197.549 Q1852.25 197.549 1854.06 194.008 Q1855.89 190.443 1855.89 183.336 Q1855.89 176.207 1854.06 172.665 Q1852.25 169.1 1848.62 169.1 M1848.62 165.397 Q1854.43 165.397 1857.48 170.003 Q1860.56 174.586 1860.56 183.336 Q1860.56 192.063 1857.48 196.67 Q1854.43 201.253 1848.62 201.253 Q1842.81 201.253 1839.73 196.67 Q1836.67 192.063 1836.67 183.336 Q1836.67 174.586 1839.73 170.003 Q1842.81 165.397 1848.62 165.397 Z" fill="#000000" fill-rule="nonzero" fill-opacity="1" /><path clip-path="url(#clip590)" d="M1860.56 159.498 L1884.67 159.498 L1884.67 162.695 L1860.56 162.695 L1860.56 159.498 Z" fill="#000000" fill-rule="nonzero" fill-opacity="1" /><path clip-path="url(#clip590)" d="M1892.91 145.091 L1907.83 145.091 L1907.83 148.288 L1896.39 148.288 L1896.39 155.172 Q1897.22 154.89 1898.05 154.758 Q1898.87 154.608 1899.7 154.608 Q1904.4 154.608 1907.15 157.185 Q1909.9 159.761 1909.9 164.162 Q1909.9 168.695 1907.07 171.215 Q1904.25 173.717 1899.12 173.717 Q1897.35 173.717 1895.51 173.416 Q1893.68 173.115 1891.73 172.513 L1891.73 168.695 Q1893.42 169.616 1895.23 170.068 Q1897.03 170.519 1899.04 170.519 Q1902.3 170.519 1904.2 168.808 Q1906.1 167.096 1906.1 164.162 Q1906.1 161.228 1904.2 159.517 Q1902.3 157.805 1899.04 157.805 Q1897.52 157.805 1896 158.144 Q1894.49 158.482 1892.91 159.197 L1892.91 145.091 Z" fill="#000000" fill-rule="nonzero" fill-opacity="1" /><polyline clip-path="url(#clip593)" style="stroke:#009af9; stroke-linecap:round; stroke-linejoin:round; stroke-width:4; stroke-opacity:1; fill:none" points="1957.9,847.93 1959.84,844.26 1961.79,840.596 1963.73,836.941 1965.68,833.293 1983.66,799.928 2001.64,767.225 2019.62,735.193 2037.6,703.84 2059.22,667.065 2080.83,631.297 2099.11,601.849 2117.38,573.137 2137.23,542.791 2157.08,513.332 2175.38,486.966 2193.68,461.37 2213.3,434.788 2232.92,409.107 2255.65,380.487 2278.38,353.097 2298.59,329.797 2318.79,307.484 2336.5,288.737 2354.22,270.759 2373.53,252.042 2392.84,234.25 2412.27,217.293 2431.7,201.283 2453.18,184.692 2474.66,169.271 2495.1,155.691 2515.54,143.181 2536.79,131.312 2558.04,120.609 2575.93,112.506 2593.82,105.234 2615.66,97.4838 2637.5,90.9783 2657.51,86.113 2677.52,82.2955 2695.99,79.7016 2714.47,78.0034 2733.19,77.1967 2751.91,77.3097 2772.88,78.5292 2793.86,80.9034 2812.87,84.0513 2831.88,88.1458 2853.64,93.9942 2875.41,101.08 2895.56,108.74 2915.71,117.457 2935.58,127.081 2955.44,137.724 2974.73,149.031 2994.02,161.293 3013.8,174.851 3033.57,189.403 3055.24,206.484 3076.9,224.748 3108.37,253.372 3139.84,284.454 3146.3,291.132 3152.76,297.912 "/>
<polyline clip-path="url(#clip593)" style="stroke:#e26f46; stroke-linecap:round; stroke-linejoin:round; stroke-width:4; stroke-opacity:1; fill:none" points="1957.9,264.891 1959.84,262.978 1961.79,261.075 1963.73,259.183 1965.68,257.301 1983.66,240.39 2001.64,224.371 2019.62,209.248 2037.6,195.026 2059.22,179.13 2080.83,164.547 2099.11,153.247 2117.38,142.894 2137.23,132.724 2157.08,123.678 2175.38,116.338 2193.68,109.958 2213.3,104.188 2232.92,99.5257 2255.65,95.5124 2278.38,92.9911 2298.59,92.0035 2318.79,92.1953 2336.5,93.3342 2354.22,95.3798 2373.53,98.6424 2392.84,102.981 2412.27,108.429 2431.7,114.963 2453.18,123.448 2474.66,133.254 2495.1,143.806 2515.54,155.545 2536.79,169.007 2558.04,183.743 2575.93,197.13 2593.82,211.413 2615.66,230.057 2637.5,250.021 2657.51,269.46 2677.52,289.992 2695.99,309.92 2714.47,330.769 2733.19,352.819 2751.91,375.801 2772.88,402.654 2793.86,430.658 2812.87,457.018 2831.88,484.304 2853.64,516.673 2875.41,550.232 2895.56,582.354 2915.71,615.473 2935.58,649.09 2955.44,683.652 2974.73,718.105 2994.02,753.427 3013.8,790.528 3033.57,828.519 3055.24,871.149 3076.9,914.815 3108.37,980.057 3139.84,1047.39 3146.3,1061.46 3152.76,1075.62 "/>
</svg>
