<?xml version="1.0" encoding="utf-8"?>
<svg xmlns="http://www.w3.org/2000/svg" xmlns:xlink="http://www.w3.org/1999/xlink" width="600" height="400" viewBox="0 0 2400 1600">
<defs>
  <clipPath id="clip800">
    <rect x="0" y="0" width="2400" height="1600"/>
  </clipPath>
</defs>
<path clip-path="url(#clip800)" d="M0 1600 L2400 1600 L2400 0 L0 0  Z" fill="#ffffff" fill-rule="evenodd" fill-opacity="1"/>
<defs>
  <clipPath id="clip801">
    <rect x="480" y="0" width="1681" height="1600"/>
  </clipPath>
</defs>
<path clip-path="url(#clip800)" d="M262.551 1423.18 L2352.76 1423.18 L2352.76 47.2441 L262.551 47.2441  Z" fill="#ffffff" fill-rule="evenodd" fill-opacity="1"/>
<defs>
  <clipPath id="clip802">
    <rect x="262" y="47" width="2091" height="1377"/>
  </clipPath>
</defs>
<polyline clip-path="url(#clip802)" style="stroke:#000000; stroke-linecap:round; stroke-linejoin:round; stroke-width:2; stroke-opacity:0.1; fill:none" points="262.551,1423.18 262.551,47.2441 "/>
<polyline clip-path="url(#clip802)" style="stroke:#000000; stroke-linecap:round; stroke-linejoin:round; stroke-width:2; stroke-opacity:0.1; fill:none" points="785.102,1423.18 785.102,47.2441 "/>
<polyline clip-path="url(#clip802)" style="stroke:#000000; stroke-linecap:round; stroke-linejoin:round; stroke-width:2; stroke-opacity:0.1; fill:none" points="1307.65,1423.18 1307.65,47.2441 "/>
<polyline clip-path="url(#clip802)" style="stroke:#000000; stroke-linecap:round; stroke-linejoin:round; stroke-width:2; stroke-opacity:0.1; fill:none" points="1830.2,1423.18 1830.2,47.2441 "/>
<polyline clip-path="url(#clip802)" style="stroke:#000000; stroke-linecap:round; stroke-linejoin:round; stroke-width:2; stroke-opacity:0.1; fill:none" points="2352.76,1423.18 2352.76,47.2441 "/>
<polyline clip-path="url(#clip802)" style="stroke:#000000; stroke-linecap:round; stroke-linejoin:round; stroke-width:2; stroke-opacity:0.1; fill:none" points="262.551,1398.92 2352.76,1398.92 "/>
<polyline clip-path="url(#clip802)" style="stroke:#000000; stroke-linecap:round; stroke-linejoin:round; stroke-width:2; stroke-opacity:0.1; fill:none" points="262.551,1111.9 2352.76,1111.9 "/>
<polyline clip-path="url(#clip802)" style="stroke:#000000; stroke-linecap:round; stroke-linejoin:round; stroke-width:2; stroke-opacity:0.1; fill:none" points="262.551,824.891 2352.76,824.891 "/>
<polyline clip-path="url(#clip802)" style="stroke:#000000; stroke-linecap:round; stroke-linejoin:round; stroke-width:2; stroke-opacity:0.1; fill:none" points="262.551,537.877 2352.76,537.877 "/>
<polyline clip-path="url(#clip802)" style="stroke:#000000; stroke-linecap:round; stroke-linejoin:round; stroke-width:2; stroke-opacity:0.1; fill:none" points="262.551,250.864 2352.76,250.864 "/>
<polyline clip-path="url(#clip800)" style="stroke:#000000; stroke-linecap:round; stroke-linejoin:round; stroke-width:4; stroke-opacity:1; fill:none" points="262.551,1423.18 2352.76,1423.18 "/>
<polyline clip-path="url(#clip800)" style="stroke:#000000; stroke-linecap:round; stroke-linejoin:round; stroke-width:4; stroke-opacity:1; fill:none" points="262.551,1423.18 262.551,1404.28 "/>
<polyline clip-path="url(#clip800)" style="stroke:#000000; stroke-linecap:round; stroke-linejoin:round; stroke-width:4; stroke-opacity:1; fill:none" points="785.102,1423.18 785.102,1404.28 "/>
<polyline clip-path="url(#clip800)" style="stroke:#000000; stroke-linecap:round; stroke-linejoin:round; stroke-width:4; stroke-opacity:1; fill:none" points="1307.65,1423.18 1307.65,1404.28 "/>
<polyline clip-path="url(#clip800)" style="stroke:#000000; stroke-linecap:round; stroke-linejoin:round; stroke-width:4; stroke-opacity:1; fill:none" points="1830.2,1423.18 1830.2,1404.28 "/>
<polyline clip-path="url(#clip800)" style="stroke:#000000; stroke-linecap:round; stroke-linejoin:round; stroke-width:4; stroke-opacity:1; fill:none" points="2352.76,1423.18 2352.76,1404.28 "/>
<path clip-path="url(#clip800)" d="M239.936 1454.1 Q236.325 1454.1 234.496 1457.66 Q232.69 1461.2 232.69 1468.33 Q232.69 1475.44 234.496 1479.01 Q236.325 1482.55 239.936 1482.55 Q243.57 1482.55 245.375 1479.01 Q247.204 1475.44 247.204 1468.33 Q247.204 1461.2 245.375 1457.66 Q243.57 1454.1 239.936 1454.1 M239.936 1450.39 Q245.746 1450.39 248.801 1455 Q251.88 1459.58 251.88 1468.33 Q251.88 1477.06 248.801 1481.67 Q245.746 1486.25 239.936 1486.25 Q234.125 1486.25 231.047 1481.67 Q227.991 1477.06 227.991 1468.33 Q227.991 1459.58 231.047 1455 Q234.125 1450.39 239.936 1450.39 Z" fill="#000000" fill-rule="nonzero" fill-opacity="1" /><path clip-path="url(#clip800)" d="M260.098 1479.7 L264.982 1479.7 L264.982 1485.58 L260.098 1485.58 L260.098 1479.7 Z" fill="#000000" fill-rule="nonzero" fill-opacity="1" /><path clip-path="url(#clip800)" d="M285.167 1454.1 Q281.556 1454.1 279.727 1457.66 Q277.922 1461.2 277.922 1468.33 Q277.922 1475.44 279.727 1479.01 Q281.556 1482.55 285.167 1482.55 Q288.801 1482.55 290.607 1479.01 Q292.435 1475.44 292.435 1468.33 Q292.435 1461.2 290.607 1457.66 Q288.801 1454.1 285.167 1454.1 M285.167 1450.39 Q290.977 1450.39 294.033 1455 Q297.111 1459.58 297.111 1468.33 Q297.111 1477.06 294.033 1481.67 Q290.977 1486.25 285.167 1486.25 Q279.357 1486.25 276.278 1481.67 Q273.222 1477.06 273.222 1468.33 Q273.222 1459.58 276.278 1455 Q279.357 1450.39 285.167 1450.39 Z" fill="#000000" fill-rule="nonzero" fill-opacity="1" /><path clip-path="url(#clip800)" d="M762.984 1454.1 Q759.373 1454.1 757.545 1457.66 Q755.739 1461.2 755.739 1468.33 Q755.739 1475.44 757.545 1479.01 Q759.373 1482.55 762.984 1482.55 Q766.619 1482.55 768.424 1479.01 Q770.253 1475.44 770.253 1468.33 Q770.253 1461.2 768.424 1457.66 Q766.619 1454.1 762.984 1454.1 M762.984 1450.39 Q768.795 1450.39 771.85 1455 Q774.929 1459.58 774.929 1468.33 Q774.929 1477.06 771.85 1481.67 Q768.795 1486.25 762.984 1486.25 Q757.174 1486.25 754.096 1481.67 Q751.04 1477.06 751.04 1468.33 Q751.04 1459.58 754.096 1455 Q757.174 1450.39 762.984 1450.39 Z" fill="#000000" fill-rule="nonzero" fill-opacity="1" /><path clip-path="url(#clip800)" d="M783.146 1479.7 L788.031 1479.7 L788.031 1485.58 L783.146 1485.58 L783.146 1479.7 Z" fill="#000000" fill-rule="nonzero" fill-opacity="1" /><path clip-path="url(#clip800)" d="M798.262 1451.02 L816.618 1451.02 L816.618 1454.96 L802.544 1454.96 L802.544 1463.43 Q803.563 1463.08 804.581 1462.92 Q805.6 1462.73 806.618 1462.73 Q812.405 1462.73 815.785 1465.9 Q819.165 1469.08 819.165 1474.49 Q819.165 1480.07 815.693 1483.17 Q812.22 1486.25 805.901 1486.25 Q803.725 1486.25 801.456 1485.88 Q799.211 1485.51 796.804 1484.77 L796.804 1480.07 Q798.887 1481.2 801.109 1481.76 Q803.331 1482.32 805.808 1482.32 Q809.813 1482.32 812.151 1480.21 Q814.489 1478.1 814.489 1474.49 Q814.489 1470.88 812.151 1468.77 Q809.813 1466.67 805.808 1466.67 Q803.933 1466.67 802.058 1467.08 Q800.206 1467.5 798.262 1468.38 L798.262 1451.02 Z" fill="#000000" fill-rule="nonzero" fill-opacity="1" /><path clip-path="url(#clip800)" d="M1274.81 1481.64 L1282.45 1481.64 L1282.45 1455.28 L1274.14 1456.95 L1274.14 1452.69 L1282.4 1451.02 L1287.07 1451.02 L1287.07 1481.64 L1294.71 1481.64 L1294.71 1485.58 L1274.81 1485.58 L1274.81 1481.64 Z" fill="#000000" fill-rule="nonzero" fill-opacity="1" /><path clip-path="url(#clip800)" d="M1304.16 1479.7 L1309.04 1479.7 L1309.04 1485.58 L1304.16 1485.58 L1304.16 1479.7 Z" fill="#000000" fill-rule="nonzero" fill-opacity="1" /><path clip-path="url(#clip800)" d="M1329.23 1454.1 Q1325.62 1454.1 1323.79 1457.66 Q1321.98 1461.2 1321.98 1468.33 Q1321.98 1475.44 1323.79 1479.01 Q1325.62 1482.55 1329.23 1482.55 Q1332.86 1482.55 1334.67 1479.01 Q1336.5 1475.44 1336.5 1468.33 Q1336.5 1461.2 1334.67 1457.66 Q1332.86 1454.1 1329.23 1454.1 M1329.23 1450.39 Q1335.04 1450.39 1338.09 1455 Q1341.17 1459.58 1341.17 1468.33 Q1341.17 1477.06 1338.09 1481.67 Q1335.04 1486.25 1329.23 1486.25 Q1323.42 1486.25 1320.34 1481.67 Q1317.28 1477.06 1317.28 1468.33 Q1317.28 1459.58 1320.34 1455 Q1323.42 1450.39 1329.23 1450.39 Z" fill="#000000" fill-rule="nonzero" fill-opacity="1" /><path clip-path="url(#clip800)" d="M1797.86 1481.64 L1805.49 1481.64 L1805.49 1455.28 L1797.18 1456.95 L1797.18 1452.69 L1805.45 1451.02 L1810.12 1451.02 L1810.12 1481.64 L1817.76 1481.64 L1817.76 1485.58 L1797.86 1485.58 L1797.86 1481.64 Z" fill="#000000" fill-rule="nonzero" fill-opacity="1" /><path clip-path="url(#clip800)" d="M1827.21 1479.7 L1832.09 1479.7 L1832.09 1485.58 L1827.21 1485.58 L1827.21 1479.7 Z" fill="#000000" fill-rule="nonzero" fill-opacity="1" /><path clip-path="url(#clip800)" d="M1842.32 1451.02 L1860.68 1451.02 L1860.68 1454.96 L1846.61 1454.96 L1846.61 1463.43 Q1847.62 1463.08 1848.64 1462.92 Q1849.66 1462.73 1850.68 1462.73 Q1856.47 1462.73 1859.85 1465.9 Q1863.23 1469.08 1863.23 1474.49 Q1863.23 1480.07 1859.75 1483.17 Q1856.28 1486.25 1849.96 1486.25 Q1847.79 1486.25 1845.52 1485.88 Q1843.27 1485.51 1840.86 1484.77 L1840.86 1480.07 Q1842.95 1481.2 1845.17 1481.76 Q1847.39 1482.32 1849.87 1482.32 Q1853.87 1482.32 1856.21 1480.21 Q1858.55 1478.1 1858.55 1474.49 Q1858.55 1470.88 1856.21 1468.77 Q1853.87 1466.67 1849.87 1466.67 Q1847.99 1466.67 1846.12 1467.08 Q1844.27 1467.5 1842.32 1468.38 L1842.32 1451.02 Z" fill="#000000" fill-rule="nonzero" fill-opacity="1" /><path clip-path="url(#clip800)" d="M2323.99 1481.64 L2340.31 1481.64 L2340.31 1485.58 L2318.37 1485.58 L2318.37 1481.64 Q2321.03 1478.89 2325.61 1474.26 Q2330.22 1469.61 2331.4 1468.27 Q2333.65 1465.74 2334.53 1464.01 Q2335.43 1462.25 2335.43 1460.56 Q2335.43 1457.8 2333.49 1456.07 Q2331.56 1454.33 2328.46 1454.33 Q2326.26 1454.33 2323.81 1455.09 Q2321.38 1455.86 2318.6 1457.41 L2318.6 1452.69 Q2321.43 1451.55 2323.88 1450.97 Q2326.33 1450.39 2328.37 1450.39 Q2333.74 1450.39 2336.93 1453.08 Q2340.13 1455.77 2340.13 1460.26 Q2340.13 1462.39 2339.32 1464.31 Q2338.53 1466.2 2336.42 1468.8 Q2335.85 1469.47 2332.74 1472.69 Q2329.64 1475.88 2323.99 1481.64 Z" fill="#000000" fill-rule="nonzero" fill-opacity="1" /><path clip-path="url(#clip800)" d="M2350.13 1479.7 L2355.01 1479.7 L2355.01 1485.58 L2350.13 1485.58 L2350.13 1479.7 Z" fill="#000000" fill-rule="nonzero" fill-opacity="1" /><path clip-path="url(#clip800)" d="M2375.2 1454.1 Q2371.59 1454.1 2369.76 1457.66 Q2367.95 1461.2 2367.95 1468.33 Q2367.95 1475.44 2369.76 1479.01 Q2371.59 1482.55 2375.2 1482.55 Q2378.83 1482.55 2380.64 1479.01 Q2382.47 1475.44 2382.47 1468.33 Q2382.47 1461.2 2380.64 1457.66 Q2378.83 1454.1 2375.2 1454.1 M2375.2 1450.39 Q2381.01 1450.39 2384.06 1455 Q2387.14 1459.58 2387.14 1468.33 Q2387.14 1477.06 2384.06 1481.67 Q2381.01 1486.25 2375.2 1486.25 Q2369.39 1486.25 2366.31 1481.67 Q2363.25 1477.06 2363.25 1468.33 Q2363.25 1459.58 2366.31 1455 Q2369.39 1450.39 2375.2 1450.39 Z" fill="#000000" fill-rule="nonzero" fill-opacity="1" /><path clip-path="url(#clip800)" d="M1308.54 1524.09 L1325 1568.04 L1318.79 1568.04 L1308.8 1541.69 L1296.51 1568.04 L1290.31 1568.04 L1305.93 1533.86 L1303.58 1527.56 Q1302.08 1523.55 1298.68 1523.55 L1295.62 1523.55 L1295.62 1518.52 L1299.35 1518.58 Q1306.54 1518.68 1308.54 1524.09 Z" fill="#000000" fill-rule="nonzero" fill-opacity="1" /><polyline clip-path="url(#clip800)" style="stroke:#000000; stroke-linecap:round; stroke-linejoin:round; stroke-width:4; stroke-opacity:1; fill:none" points="262.551,1423.18 262.551,47.2441 "/>
<polyline clip-path="url(#clip800)" style="stroke:#000000; stroke-linecap:round; stroke-linejoin:round; stroke-width:4; stroke-opacity:1; fill:none" points="262.551,1398.92 281.449,1398.92 "/>
<polyline clip-path="url(#clip800)" style="stroke:#000000; stroke-linecap:round; stroke-linejoin:round; stroke-width:4; stroke-opacity:1; fill:none" points="262.551,1111.9 281.449,1111.9 "/>
<polyline clip-path="url(#clip800)" style="stroke:#000000; stroke-linecap:round; stroke-linejoin:round; stroke-width:4; stroke-opacity:1; fill:none" points="262.551,824.891 281.449,824.891 "/>
<polyline clip-path="url(#clip800)" style="stroke:#000000; stroke-linecap:round; stroke-linejoin:round; stroke-width:4; stroke-opacity:1; fill:none" points="262.551,537.877 281.449,537.877 "/>
<polyline clip-path="url(#clip800)" style="stroke:#000000; stroke-linecap:round; stroke-linejoin:round; stroke-width:4; stroke-opacity:1; fill:none" points="262.551,250.864 281.449,250.864 "/>
<path clip-path="url(#clip800)" d="M214.607 1384.72 Q210.996 1384.72 209.167 1388.28 Q207.362 1391.82 207.362 1398.95 Q207.362 1406.06 209.167 1409.62 Q210.996 1413.17 214.607 1413.17 Q218.241 1413.17 220.047 1409.62 Q221.875 1406.06 221.875 1398.95 Q221.875 1391.82 220.047 1388.28 Q218.241 1384.72 214.607 1384.72 M214.607 1381.01 Q220.417 1381.01 223.473 1385.62 Q226.551 1390.2 226.551 1398.95 Q226.551 1407.68 223.473 1412.29 Q220.417 1416.87 214.607 1416.87 Q208.797 1416.87 205.718 1412.29 Q202.662 1407.68 202.662 1398.95 Q202.662 1390.2 205.718 1385.62 Q208.797 1381.01 214.607 1381.01 Z" fill="#000000" fill-rule="nonzero" fill-opacity="1" /><path clip-path="url(#clip800)" d="M148.311 1125.25 L164.63 1125.25 L164.63 1129.18 L142.686 1129.18 L142.686 1125.25 Q145.348 1122.49 149.931 1117.87 Q154.538 1113.21 155.718 1111.87 Q157.964 1109.35 158.843 1107.61 Q159.746 1105.85 159.746 1104.16 Q159.746 1101.41 157.802 1099.67 Q155.88 1097.93 152.778 1097.93 Q150.579 1097.93 148.126 1098.7 Q145.695 1099.46 142.917 1101.01 L142.917 1096.29 Q145.741 1095.16 148.195 1094.58 Q150.649 1094 152.686 1094 Q158.056 1094 161.251 1096.68 Q164.445 1099.37 164.445 1103.86 Q164.445 1105.99 163.635 1107.91 Q162.848 1109.81 160.741 1112.4 Q160.163 1113.07 157.061 1116.29 Q153.959 1119.49 148.311 1125.25 Z" fill="#000000" fill-rule="nonzero" fill-opacity="1" /><path clip-path="url(#clip800)" d="M174.491 1094.62 L192.848 1094.62 L192.848 1098.56 L178.774 1098.56 L178.774 1107.03 Q179.792 1106.68 180.811 1106.52 Q181.829 1106.34 182.848 1106.34 Q188.635 1106.34 192.014 1109.51 Q195.394 1112.68 195.394 1118.1 Q195.394 1123.68 191.922 1126.78 Q188.45 1129.86 182.13 1129.86 Q179.954 1129.86 177.686 1129.49 Q175.44 1129.12 173.033 1128.37 L173.033 1123.68 Q175.116 1124.81 177.339 1125.37 Q179.561 1125.92 182.038 1125.92 Q186.042 1125.92 188.38 1123.81 Q190.718 1121.71 190.718 1118.1 Q190.718 1114.49 188.38 1112.38 Q186.042 1110.27 182.038 1110.27 Q180.163 1110.27 178.288 1110.69 Q176.436 1111.11 174.491 1111.99 L174.491 1094.62 Z" fill="#000000" fill-rule="nonzero" fill-opacity="1" /><path clip-path="url(#clip800)" d="M214.607 1097.7 Q210.996 1097.7 209.167 1101.27 Q207.362 1104.81 207.362 1111.94 Q207.362 1119.05 209.167 1122.61 Q210.996 1126.15 214.607 1126.15 Q218.241 1126.15 220.047 1122.61 Q221.875 1119.05 221.875 1111.94 Q221.875 1104.81 220.047 1101.27 Q218.241 1097.7 214.607 1097.7 M214.607 1094 Q220.417 1094 223.473 1098.61 Q226.551 1103.19 226.551 1111.94 Q226.551 1120.67 223.473 1125.27 Q220.417 1129.86 214.607 1129.86 Q208.797 1129.86 205.718 1125.27 Q202.662 1120.67 202.662 1111.94 Q202.662 1103.19 205.718 1098.61 Q208.797 1094 214.607 1094 Z" fill="#000000" fill-rule="nonzero" fill-opacity="1" /><path clip-path="url(#clip800)" d="M144.329 807.611 L162.686 807.611 L162.686 811.546 L148.612 811.546 L148.612 820.018 Q149.63 819.671 150.649 819.509 Q151.667 819.324 152.686 819.324 Q158.473 819.324 161.852 822.495 Q165.232 825.666 165.232 831.083 Q165.232 836.662 161.76 839.764 Q158.288 842.842 151.968 842.842 Q149.792 842.842 147.524 842.472 Q145.279 842.102 142.871 841.361 L142.871 836.662 Q144.954 837.796 147.177 838.352 Q149.399 838.907 151.876 838.907 Q155.88 838.907 158.218 836.801 Q160.556 834.694 160.556 831.083 Q160.556 827.472 158.218 825.366 Q155.88 823.259 151.876 823.259 Q150.001 823.259 148.126 823.676 Q146.274 824.092 144.329 824.972 L144.329 807.611 Z" fill="#000000" fill-rule="nonzero" fill-opacity="1" /><path clip-path="url(#clip800)" d="M184.445 810.69 Q180.834 810.69 179.005 814.254 Q177.2 817.796 177.2 824.926 Q177.2 832.032 179.005 835.597 Q180.834 839.139 184.445 839.139 Q188.079 839.139 189.885 835.597 Q191.713 832.032 191.713 824.926 Q191.713 817.796 189.885 814.254 Q188.079 810.69 184.445 810.69 M184.445 806.986 Q190.255 806.986 193.311 811.592 Q196.389 816.176 196.389 824.926 Q196.389 833.653 193.311 838.259 Q190.255 842.842 184.445 842.842 Q178.635 842.842 175.556 838.259 Q172.501 833.653 172.501 824.926 Q172.501 816.176 175.556 811.592 Q178.635 806.986 184.445 806.986 Z" fill="#000000" fill-rule="nonzero" fill-opacity="1" /><path clip-path="url(#clip800)" d="M214.607 810.69 Q210.996 810.69 209.167 814.254 Q207.362 817.796 207.362 824.926 Q207.362 832.032 209.167 835.597 Q210.996 839.139 214.607 839.139 Q218.241 839.139 220.047 835.597 Q221.875 832.032 221.875 824.926 Q221.875 817.796 220.047 814.254 Q218.241 810.69 214.607 810.69 M214.607 806.986 Q220.417 806.986 223.473 811.592 Q226.551 816.176 226.551 824.926 Q226.551 833.653 223.473 838.259 Q220.417 842.842 214.607 842.842 Q208.797 842.842 205.718 838.259 Q202.662 833.653 202.662 824.926 Q202.662 816.176 205.718 811.592 Q208.797 806.986 214.607 806.986 Z" fill="#000000" fill-rule="nonzero" fill-opacity="1" /><path clip-path="url(#clip800)" d="M143.103 520.597 L165.325 520.597 L165.325 522.588 L152.778 555.157 L147.894 555.157 L159.7 524.532 L143.103 524.532 L143.103 520.597 Z" fill="#000000" fill-rule="nonzero" fill-opacity="1" /><path clip-path="url(#clip800)" d="M174.491 520.597 L192.848 520.597 L192.848 524.532 L178.774 524.532 L178.774 533.005 Q179.792 532.657 180.811 532.495 Q181.829 532.31 182.848 532.31 Q188.635 532.31 192.014 535.482 Q195.394 538.653 195.394 544.069 Q195.394 549.648 191.922 552.75 Q188.45 555.829 182.13 555.829 Q179.954 555.829 177.686 555.458 Q175.44 555.088 173.033 554.347 L173.033 549.648 Q175.116 550.782 177.339 551.338 Q179.561 551.893 182.038 551.893 Q186.042 551.893 188.38 549.787 Q190.718 547.681 190.718 544.069 Q190.718 540.458 188.38 538.352 Q186.042 536.245 182.038 536.245 Q180.163 536.245 178.288 536.662 Q176.436 537.079 174.491 537.958 L174.491 520.597 Z" fill="#000000" fill-rule="nonzero" fill-opacity="1" /><path clip-path="url(#clip800)" d="M214.607 523.676 Q210.996 523.676 209.167 527.241 Q207.362 530.782 207.362 537.912 Q207.362 545.018 209.167 548.583 Q210.996 552.125 214.607 552.125 Q218.241 552.125 220.047 548.583 Q221.875 545.018 221.875 537.912 Q221.875 530.782 220.047 527.241 Q218.241 523.676 214.607 523.676 M214.607 519.972 Q220.417 519.972 223.473 524.579 Q226.551 529.162 226.551 537.912 Q226.551 546.639 223.473 551.245 Q220.417 555.829 214.607 555.829 Q208.797 555.829 205.718 551.245 Q202.662 546.639 202.662 537.912 Q202.662 529.162 205.718 524.579 Q208.797 519.972 214.607 519.972 Z" fill="#000000" fill-rule="nonzero" fill-opacity="1" /><path clip-path="url(#clip800)" d="M114.931 264.208 L122.57 264.208 L122.57 237.843 L114.26 239.51 L114.26 235.25 L122.524 233.584 L127.2 233.584 L127.2 264.208 L134.839 264.208 L134.839 268.144 L114.931 268.144 L114.931 264.208 Z" fill="#000000" fill-rule="nonzero" fill-opacity="1" /><path clip-path="url(#clip800)" d="M154.283 236.662 Q150.672 236.662 148.843 240.227 Q147.038 243.769 147.038 250.898 Q147.038 258.005 148.843 261.57 Q150.672 265.111 154.283 265.111 Q157.917 265.111 159.723 261.57 Q161.552 258.005 161.552 250.898 Q161.552 243.769 159.723 240.227 Q157.917 236.662 154.283 236.662 M154.283 232.959 Q160.093 232.959 163.149 237.565 Q166.227 242.148 166.227 250.898 Q166.227 259.625 163.149 264.232 Q160.093 268.815 154.283 268.815 Q148.473 268.815 145.394 264.232 Q142.339 259.625 142.339 250.898 Q142.339 242.148 145.394 237.565 Q148.473 232.959 154.283 232.959 Z" fill="#000000" fill-rule="nonzero" fill-opacity="1" /><path clip-path="url(#clip800)" d="M184.445 236.662 Q180.834 236.662 179.005 240.227 Q177.2 243.769 177.2 250.898 Q177.2 258.005 179.005 261.57 Q180.834 265.111 184.445 265.111 Q188.079 265.111 189.885 261.57 Q191.713 258.005 191.713 250.898 Q191.713 243.769 189.885 240.227 Q188.079 236.662 184.445 236.662 M184.445 232.959 Q190.255 232.959 193.311 237.565 Q196.389 242.148 196.389 250.898 Q196.389 259.625 193.311 264.232 Q190.255 268.815 184.445 268.815 Q178.635 268.815 175.556 264.232 Q172.501 259.625 172.501 250.898 Q172.501 242.148 175.556 237.565 Q178.635 232.959 184.445 232.959 Z" fill="#000000" fill-rule="nonzero" fill-opacity="1" /><path clip-path="url(#clip800)" d="M214.607 236.662 Q210.996 236.662 209.167 240.227 Q207.362 243.769 207.362 250.898 Q207.362 258.005 209.167 261.57 Q210.996 265.111 214.607 265.111 Q218.241 265.111 220.047 261.57 Q221.875 258.005 221.875 250.898 Q221.875 243.769 220.047 240.227 Q218.241 236.662 214.607 236.662 M214.607 232.959 Q220.417 232.959 223.473 237.565 Q226.551 242.148 226.551 250.898 Q226.551 259.625 223.473 264.232 Q220.417 268.815 214.607 268.815 Q208.797 268.815 205.718 264.232 Q202.662 259.625 202.662 250.898 Q202.662 242.148 205.718 237.565 Q208.797 232.959 214.607 232.959 Z" fill="#000000" fill-rule="nonzero" fill-opacity="1" /><path clip-path="url(#clip800)" d="M14.479 775.905 L14.479 770.048 L64.0042 770.048 L64.0042 775.905 L14.479 775.905 Z" fill="#000000" fill-rule="nonzero" fill-opacity="1" /><path clip-path="url(#clip800)" d="M29.4065 735.069 L34.9447 735.069 Q33.6716 737.551 33.035 740.225 Q32.3984 742.899 32.3984 745.763 Q32.3984 750.124 33.7352 752.32 Q35.072 754.484 37.7456 754.484 Q39.7826 754.484 40.9603 752.925 Q42.1061 751.365 43.1565 746.654 L43.6021 744.649 Q44.9389 738.411 47.3897 735.801 Q49.8086 733.159 54.1691 733.159 Q59.1344 733.159 62.0308 737.106 Q64.9272 741.021 64.9272 747.896 Q64.9272 750.76 64.3543 753.879 Q63.8132 756.967 62.6992 760.404 L56.6518 760.404 Q58.3387 757.158 59.198 754.007 Q60.0256 750.856 60.0256 747.768 Q60.0256 743.631 58.6251 741.403 Q57.1929 739.175 54.6147 739.175 Q52.2276 739.175 50.9545 740.798 Q49.6813 742.389 48.5037 747.832 L48.0262 749.869 Q46.8804 755.312 44.5251 757.731 Q42.138 760.15 38.0002 760.15 Q32.9713 760.15 30.2341 756.585 Q27.4968 753.02 27.4968 746.463 Q27.4968 743.217 27.9743 740.352 Q28.4517 737.488 29.4065 735.069 Z" fill="#000000" fill-rule="nonzero" fill-opacity="1" /><path clip-path="url(#clip800)" d="M46.212 720.332 Q52.6732 720.332 56.3653 717.69 Q60.0256 715.017 60.0256 710.37 Q60.0256 705.723 56.3653 703.049 Q52.6732 700.376 46.212 700.376 Q39.7508 700.376 36.0905 703.049 Q32.3984 705.723 32.3984 710.37 Q32.3984 715.017 36.0905 717.69 Q39.7508 720.332 46.212 720.332 M58.657 700.376 Q61.8398 702.222 63.3994 705.054 Q64.9272 707.855 64.9272 711.802 Q64.9272 718.263 59.771 722.337 Q54.6147 726.38 46.212 726.38 Q37.8093 726.38 32.6531 722.337 Q27.4968 718.263 27.4968 711.802 Q27.4968 707.855 29.0564 705.054 Q30.5842 702.222 33.7671 700.376 L28.3562 700.376 L28.3562 694.519 L77.5631 694.519 L77.5631 700.376 L58.657 700.376 Z" fill="#000000" fill-rule="nonzero" fill-opacity="1" /><polyline clip-path="url(#clip802)" style="stroke:#009af9; stroke-linecap:round; stroke-linejoin:round; stroke-width:4; stroke-opacity:1; fill:none" points="262.551,86.1857 265.953,94.0139 269.355,101.819 272.758,109.599 276.16,117.357 307.617,187.962 339.074,256.544 370.531,323.102 401.989,387.635 439.798,462.521 477.607,534.484 509.574,593.046 541.541,649.517 576.266,708.493 610.991,765.003 643.005,814.915 675.018,862.731 709.34,911.666 743.662,958.192 783.427,1009.08 823.192,1056.74 858.531,1096.38 893.87,1133.46 924.859,1163.88 955.848,1192.33 989.634,1221.12 1023.42,1247.57 1057.41,1271.82 1091.39,1293.71 1128.97,1315.16 1166.55,1333.72 1202.3,1348.7 1238.05,1361.06 1275.23,1371.15 1312.41,1378.4 1343.7,1382.32 1374.99,1384.24 1413.2,1383.86 1451.4,1380.5 1486.4,1374.8 1521.4,1366.59 1553.73,1356.79 1586.05,1344.85 1618.8,1330.57 1651.54,1314.1 1688.24,1293.04 1724.93,1269.23 1758.19,1245.27 1791.44,1219.04 1829.51,1186.24 1867.58,1150.48 1902.83,1114.72 1938.09,1076.42 1972.84,1036.18 2007.59,993.462 2041.34,949.623 2075.08,903.456 2109.67,853.712 2144.26,801.52 2182.16,741.529 2220.06,678.6 2247.59,631.05 2275.11,581.951 2302.64,531.302 2330.17,479.104 2335.81,468.203 2341.46,457.238 2347.11,446.207 2352.76,435.111 "/>
<polyline clip-path="url(#clip802)" style="stroke:#e26f46; stroke-linecap:round; stroke-linejoin:round; stroke-width:4; stroke-opacity:1; fill:none" points="262.551,1016.02 265.953,1018.63 269.355,1021.23 272.758,1023.82 276.16,1026.4 307.617,1049.81 339.074,1072.43 370.531,1094.24 401.989,1115.26 439.798,1139.45 477.607,1162.49 509.574,1181.07 541.541,1198.82 576.266,1217.16 610.991,1234.53 643.005,1249.68 675.018,1264 709.34,1278.43 743.662,1291.9 783.427,1306.32 823.192,1319.46 858.531,1330.07 893.87,1339.66 924.859,1347.24 955.848,1354.04 989.634,1360.58 1023.42,1366.18 1057.41,1370.89 1091.39,1374.67 1128.97,1377.75 1166.55,1379.69 1202.3,1380.48 1238.05,1380.23 1275.23,1378.88 1312.41,1376.41 1343.7,1373.46 1374.99,1369.71 1413.2,1364.07 1451.4,1357.25 1486.4,1349.96 1521.4,1341.68 1553.73,1333.15 1586.05,1323.78 1618.8,1313.42 1651.54,1302.2 1688.24,1288.59 1724.93,1273.89 1758.19,1259.62 1791.44,1244.47 1829.51,1226.01 1867.58,1206.39 1902.83,1187.17 1938.09,1166.94 1972.84,1146.02 2007.59,1124.12 2041.34,1101.92 2075.08,1078.8 2109.67,1054.14 2144.26,1028.52 2182.16,999.328 2220.06,968.977 2247.59,946.203 2275.11,922.816 2302.64,898.816 2330.17,874.203 2335.81,869.077 2341.46,863.926 2347.11,858.749 2352.76,853.546 "/>
<path clip-path="url(#clip800)" d="M1778.23 248.629 L2283.08 248.629 L2283.08 93.1086 L1778.23 93.1086  Z" fill="#ffffff" fill-rule="evenodd" fill-opacity="1"/>
<polyline clip-path="url(#clip800)" style="stroke:#000000; stroke-linecap:round; stroke-linejoin:round; stroke-width:4; stroke-opacity:1; fill:none" points="1778.23,248.629 2283.08,248.629 2283.08,93.1086 1778.23,93.1086 1778.23,248.629 "/>
<polyline clip-path="url(#clip800)" style="stroke:#009af9; stroke-linecap:round; stroke-linejoin:round; stroke-width:4; stroke-opacity:1; fill:none" points="1801.45,144.949 1940.8,144.949 "/>
<path clip-path="url(#clip800)" d="M1964.03 136.303 L1968.29 136.303 L1973.61 156.534 L1978.91 136.303 L1983.93 136.303 L1989.26 156.534 L1994.56 136.303 L1998.82 136.303 L1992.04 162.229 L1987.01 162.229 L1981.43 140.979 L1975.83 162.229 L1970.81 162.229 L1964.03 136.303 Z" fill="#000000" fill-rule="nonzero" fill-opacity="1" /><path clip-path="url(#clip800)" d="M2027.45 148.201 L2027.45 150.284 L2007.87 150.284 Q2008.15 154.682 2010.51 156.997 Q2012.89 159.289 2017.13 159.289 Q2019.58 159.289 2021.87 158.687 Q2024.19 158.085 2026.46 156.881 L2026.46 160.909 Q2024.16 161.881 2021.76 162.391 Q2019.35 162.9 2016.87 162.9 Q2010.67 162.9 2007.04 159.289 Q2003.42 155.678 2003.42 149.52 Q2003.42 143.155 2006.85 139.428 Q2010.3 135.678 2016.13 135.678 Q2021.36 135.678 2024.4 139.057 Q2027.45 142.414 2027.45 148.201 M2023.19 146.951 Q2023.15 143.456 2021.22 141.372 Q2019.33 139.289 2016.18 139.289 Q2012.61 139.289 2010.46 141.303 Q2008.33 143.317 2008.01 146.974 L2023.19 146.951 Z" fill="#000000" fill-rule="nonzero" fill-opacity="1" /><path clip-path="url(#clip800)" d="M2034.44 136.303 L2038.7 136.303 L2038.7 162.229 L2034.44 162.229 L2034.44 136.303 M2034.44 126.21 L2038.7 126.21 L2038.7 131.604 L2034.44 131.604 L2034.44 126.21 Z" fill="#000000" fill-rule="nonzero" fill-opacity="1" /><path clip-path="url(#clip800)" d="M2064.67 148.965 Q2064.67 144.335 2062.75 141.789 Q2060.85 139.243 2057.41 139.243 Q2053.98 139.243 2052.06 141.789 Q2050.16 144.335 2050.16 148.965 Q2050.16 153.571 2052.06 156.118 Q2053.98 158.664 2057.41 158.664 Q2060.85 158.664 2062.75 156.118 Q2064.67 153.571 2064.67 148.965 M2068.93 159.011 Q2068.93 165.631 2065.99 168.849 Q2063.05 172.09 2056.99 172.09 Q2054.74 172.09 2052.75 171.742 Q2050.76 171.418 2048.89 170.724 L2048.89 166.58 Q2050.76 167.599 2052.59 168.085 Q2054.42 168.571 2056.32 168.571 Q2060.51 168.571 2062.59 166.372 Q2064.67 164.196 2064.67 159.775 L2064.67 157.668 Q2063.35 159.96 2061.29 161.094 Q2059.23 162.229 2056.36 162.229 Q2051.6 162.229 2048.68 158.594 Q2045.76 154.96 2045.76 148.965 Q2045.76 142.946 2048.68 139.312 Q2051.6 135.678 2056.36 135.678 Q2059.23 135.678 2061.29 136.812 Q2063.35 137.946 2064.67 140.238 L2064.67 136.303 L2068.93 136.303 L2068.93 159.011 Z" fill="#000000" fill-rule="nonzero" fill-opacity="1" /><path clip-path="url(#clip800)" d="M2099.26 146.581 L2099.26 162.229 L2095 162.229 L2095 146.719 Q2095 143.039 2093.56 141.21 Q2092.13 139.382 2089.26 139.382 Q2085.81 139.382 2083.82 141.581 Q2081.83 143.78 2081.83 147.576 L2081.83 162.229 L2077.54 162.229 L2077.54 126.21 L2081.83 126.21 L2081.83 140.331 Q2083.35 137.993 2085.41 136.835 Q2087.5 135.678 2090.21 135.678 Q2094.67 135.678 2096.97 138.456 Q2099.26 141.21 2099.26 146.581 Z" fill="#000000" fill-rule="nonzero" fill-opacity="1" /><path clip-path="url(#clip800)" d="M2111.97 128.942 L2111.97 136.303 L2120.74 136.303 L2120.74 139.613 L2111.97 139.613 L2111.97 153.687 Q2111.97 156.858 2112.82 157.761 Q2113.7 158.664 2116.36 158.664 L2120.74 158.664 L2120.74 162.229 L2116.36 162.229 Q2111.43 162.229 2109.56 160.4 Q2107.68 158.548 2107.68 153.687 L2107.68 139.613 L2104.56 139.613 L2104.56 136.303 L2107.68 136.303 L2107.68 128.942 L2111.97 128.942 Z" fill="#000000" fill-rule="nonzero" fill-opacity="1" /><path clip-path="url(#clip800)" d="M2148.52 148.201 L2148.52 150.284 L2128.93 150.284 Q2129.21 154.682 2131.57 156.997 Q2133.96 159.289 2138.19 159.289 Q2140.65 159.289 2142.94 158.687 Q2145.25 158.085 2147.52 156.881 L2147.52 160.909 Q2145.23 161.881 2142.82 162.391 Q2140.41 162.9 2137.94 162.9 Q2131.73 162.9 2128.1 159.289 Q2124.49 155.678 2124.49 149.52 Q2124.49 143.155 2127.91 139.428 Q2131.36 135.678 2137.2 135.678 Q2142.43 135.678 2145.46 139.057 Q2148.52 142.414 2148.52 148.201 M2144.26 146.951 Q2144.21 143.456 2142.29 141.372 Q2140.39 139.289 2137.24 139.289 Q2133.68 139.289 2131.53 141.303 Q2129.4 143.317 2129.07 146.974 L2144.26 146.951 Z" fill="#000000" fill-rule="nonzero" fill-opacity="1" /><path clip-path="url(#clip800)" d="M2172.57 140.238 L2172.57 126.21 L2176.83 126.21 L2176.83 162.229 L2172.57 162.229 L2172.57 158.34 Q2171.22 160.655 2169.16 161.789 Q2167.13 162.9 2164.26 162.9 Q2159.56 162.9 2156.59 159.15 Q2153.65 155.4 2153.65 149.289 Q2153.65 143.178 2156.59 139.428 Q2159.56 135.678 2164.26 135.678 Q2167.13 135.678 2169.16 136.812 Q2171.22 137.923 2172.57 140.238 M2158.05 149.289 Q2158.05 153.988 2159.97 156.673 Q2161.92 159.335 2165.3 159.335 Q2168.68 159.335 2170.62 156.673 Q2172.57 153.988 2172.57 149.289 Q2172.57 144.59 2170.62 141.928 Q2168.68 139.243 2165.3 139.243 Q2161.92 139.243 2159.97 141.928 Q2158.05 144.59 2158.05 149.289 Z" fill="#000000" fill-rule="nonzero" fill-opacity="1" /><path clip-path="url(#clip800)" d="M2200.67 126.21 L2204.93 126.21 L2204.93 162.229 L2200.67 162.229 L2200.67 126.21 Z" fill="#000000" fill-rule="nonzero" fill-opacity="1" /><path clip-path="url(#clip800)" d="M2230.37 137.067 L2230.37 141.094 Q2228.56 140.169 2226.62 139.706 Q2224.67 139.243 2222.59 139.243 Q2219.42 139.243 2217.82 140.215 Q2216.25 141.187 2216.25 143.131 Q2216.25 144.613 2217.38 145.469 Q2218.52 146.303 2221.94 147.067 L2223.4 147.391 Q2227.94 148.363 2229.83 150.145 Q2231.76 151.905 2231.76 155.076 Q2231.76 158.687 2228.89 160.793 Q2226.04 162.9 2221.04 162.9 Q2218.96 162.9 2216.69 162.483 Q2214.44 162.09 2211.94 161.28 L2211.94 156.881 Q2214.3 158.108 2216.59 158.733 Q2218.89 159.335 2221.13 159.335 Q2224.14 159.335 2225.76 158.317 Q2227.38 157.275 2227.38 155.4 Q2227.38 153.664 2226.2 152.738 Q2225.04 151.812 2221.08 150.956 L2219.6 150.608 Q2215.65 149.775 2213.89 148.062 Q2212.13 146.326 2212.13 143.317 Q2212.13 139.659 2214.72 137.669 Q2217.31 135.678 2222.08 135.678 Q2224.44 135.678 2226.52 136.025 Q2228.61 136.372 2230.37 137.067 Z" fill="#000000" fill-rule="nonzero" fill-opacity="1" /><path clip-path="url(#clip800)" d="M2241.08 149.289 Q2241.08 153.988 2243.01 156.673 Q2244.95 159.335 2248.33 159.335 Q2251.71 159.335 2253.65 156.673 Q2255.6 153.988 2255.6 149.289 Q2255.6 144.59 2253.65 141.928 Q2251.71 139.243 2248.33 139.243 Q2244.95 139.243 2243.01 141.928 Q2241.08 144.59 2241.08 149.289 M2255.6 158.34 Q2254.26 160.655 2252.2 161.789 Q2250.16 162.9 2247.29 162.9 Q2242.59 162.9 2239.63 159.15 Q2236.69 155.4 2236.69 149.289 Q2236.69 143.178 2239.63 139.428 Q2242.59 135.678 2247.29 135.678 Q2250.16 135.678 2252.2 136.812 Q2254.26 137.923 2255.6 140.238 L2255.6 136.303 L2259.86 136.303 L2259.86 172.09 L2255.6 172.09 L2255.6 158.34 Z" fill="#000000" fill-rule="nonzero" fill-opacity="1" /><polyline clip-path="url(#clip800)" style="stroke:#e26f46; stroke-linecap:round; stroke-linejoin:round; stroke-width:4; stroke-opacity:1; fill:none" points="1801.45,196.789 1940.8,196.789 "/>
<path clip-path="url(#clip800)" d="M1982.45 188.907 L1982.45 192.934 Q1980.65 192.009 1978.7 191.546 Q1976.76 191.083 1974.67 191.083 Q1971.5 191.083 1969.91 192.055 Q1968.33 193.027 1968.33 194.971 Q1968.33 196.453 1969.47 197.309 Q1970.6 198.143 1974.03 198.907 L1975.48 199.231 Q1980.02 200.203 1981.92 201.985 Q1983.84 203.745 1983.84 206.916 Q1983.84 210.527 1980.97 212.633 Q1978.12 214.74 1973.12 214.74 Q1971.04 214.74 1968.77 214.323 Q1966.53 213.93 1964.03 213.12 L1964.03 208.721 Q1966.39 209.948 1968.68 210.573 Q1970.97 211.175 1973.22 211.175 Q1976.23 211.175 1977.85 210.157 Q1979.47 209.115 1979.47 207.24 Q1979.47 205.504 1978.29 204.578 Q1977.13 203.652 1973.17 202.796 L1971.69 202.448 Q1967.73 201.615 1965.97 199.902 Q1964.21 198.166 1964.21 195.157 Q1964.21 191.499 1966.8 189.509 Q1969.4 187.518 1974.17 187.518 Q1976.53 187.518 1978.61 187.865 Q1980.69 188.212 1982.45 188.907 Z" fill="#000000" fill-rule="nonzero" fill-opacity="1" /><path clip-path="url(#clip800)" d="M1994.84 180.782 L1994.84 188.143 L2003.61 188.143 L2003.61 191.453 L1994.84 191.453 L1994.84 205.527 Q1994.84 208.698 1995.69 209.601 Q1996.57 210.504 1999.23 210.504 L2003.61 210.504 L2003.61 214.069 L1999.23 214.069 Q1994.3 214.069 1992.43 212.24 Q1990.55 210.388 1990.55 205.527 L1990.55 191.453 L1987.43 191.453 L1987.43 188.143 L1990.55 188.143 L1990.55 180.782 L1994.84 180.782 Z" fill="#000000" fill-rule="nonzero" fill-opacity="1" /><path clip-path="url(#clip800)" d="M2020.99 201.036 Q2015.83 201.036 2013.84 202.217 Q2011.85 203.397 2011.85 206.245 Q2011.85 208.513 2013.33 209.856 Q2014.84 211.175 2017.41 211.175 Q2020.95 211.175 2023.08 208.675 Q2025.23 206.152 2025.23 201.985 L2025.23 201.036 L2020.99 201.036 M2029.49 199.277 L2029.49 214.069 L2025.23 214.069 L2025.23 210.133 Q2023.77 212.495 2021.6 213.629 Q2019.42 214.74 2016.27 214.74 Q2012.29 214.74 2009.93 212.518 Q2007.59 210.272 2007.59 206.522 Q2007.59 202.147 2010.51 199.925 Q2013.45 197.703 2019.26 197.703 L2025.23 197.703 L2025.23 197.286 Q2025.23 194.347 2023.29 192.749 Q2021.36 191.129 2017.87 191.129 Q2015.65 191.129 2013.54 191.661 Q2011.43 192.194 2009.49 193.259 L2009.49 189.323 Q2011.83 188.421 2014.03 187.981 Q2016.22 187.518 2018.31 187.518 Q2023.93 187.518 2026.71 190.434 Q2029.49 193.351 2029.49 199.277 Z" fill="#000000" fill-rule="nonzero" fill-opacity="1" /><path clip-path="url(#clip800)" d="M2059.81 198.421 L2059.81 214.069 L2055.55 214.069 L2055.55 198.559 Q2055.55 194.879 2054.12 193.05 Q2052.68 191.222 2049.81 191.222 Q2046.36 191.222 2044.37 193.421 Q2042.38 195.62 2042.38 199.416 L2042.38 214.069 L2038.1 214.069 L2038.1 188.143 L2042.38 188.143 L2042.38 192.171 Q2043.91 189.833 2045.97 188.675 Q2048.05 187.518 2050.76 187.518 Q2055.23 187.518 2057.52 190.296 Q2059.81 193.05 2059.81 198.421 Z" fill="#000000" fill-rule="nonzero" fill-opacity="1" /><path clip-path="url(#clip800)" d="M2085.37 192.078 L2085.37 178.05 L2089.63 178.05 L2089.63 214.069 L2085.37 214.069 L2085.37 210.18 Q2084.03 212.495 2081.97 213.629 Q2079.93 214.74 2077.06 214.74 Q2072.36 214.74 2069.4 210.99 Q2066.46 207.24 2066.46 201.129 Q2066.46 195.018 2069.4 191.268 Q2072.36 187.518 2077.06 187.518 Q2079.93 187.518 2081.97 188.652 Q2084.03 189.763 2085.37 192.078 M2070.85 201.129 Q2070.85 205.828 2072.78 208.513 Q2074.72 211.175 2078.1 211.175 Q2081.48 211.175 2083.42 208.513 Q2085.37 205.828 2085.37 201.129 Q2085.37 196.43 2083.42 193.768 Q2081.48 191.083 2078.1 191.083 Q2074.72 191.083 2072.78 193.768 Q2070.85 196.43 2070.85 201.129 Z" fill="#000000" fill-rule="nonzero" fill-opacity="1" /><path clip-path="url(#clip800)" d="M2110.18 201.036 Q2105.02 201.036 2103.03 202.217 Q2101.04 203.397 2101.04 206.245 Q2101.04 208.513 2102.52 209.856 Q2104.03 211.175 2106.59 211.175 Q2110.14 211.175 2112.27 208.675 Q2114.42 206.152 2114.42 201.985 L2114.42 201.036 L2110.18 201.036 M2118.68 199.277 L2118.68 214.069 L2114.42 214.069 L2114.42 210.133 Q2112.96 212.495 2110.78 213.629 Q2108.61 214.74 2105.46 214.74 Q2101.48 214.74 2099.12 212.518 Q2096.78 210.272 2096.78 206.522 Q2096.78 202.147 2099.7 199.925 Q2102.64 197.703 2108.45 197.703 L2114.42 197.703 L2114.42 197.286 Q2114.42 194.347 2112.47 192.749 Q2110.55 191.129 2107.06 191.129 Q2104.84 191.129 2102.73 191.661 Q2100.62 192.194 2098.68 193.259 L2098.68 189.323 Q2101.02 188.421 2103.22 187.981 Q2105.41 187.518 2107.5 187.518 Q2113.12 187.518 2115.9 190.434 Q2118.68 193.351 2118.68 199.277 Z" fill="#000000" fill-rule="nonzero" fill-opacity="1" /><path clip-path="url(#clip800)" d="M2142.47 192.124 Q2141.76 191.708 2140.9 191.522 Q2140.07 191.314 2139.05 191.314 Q2135.44 191.314 2133.49 193.675 Q2131.57 196.013 2131.57 200.411 L2131.57 214.069 L2127.29 214.069 L2127.29 188.143 L2131.57 188.143 L2131.57 192.171 Q2132.91 189.809 2135.07 188.675 Q2137.22 187.518 2140.3 187.518 Q2140.74 187.518 2141.27 187.587 Q2141.8 187.634 2142.45 187.749 L2142.47 192.124 Z" fill="#000000" fill-rule="nonzero" fill-opacity="1" /><path clip-path="url(#clip800)" d="M2163.17 192.078 L2163.17 178.05 L2167.43 178.05 L2167.43 214.069 L2163.17 214.069 L2163.17 210.18 Q2161.83 212.495 2159.77 213.629 Q2157.73 214.74 2154.86 214.74 Q2150.16 214.74 2147.2 210.99 Q2144.26 207.24 2144.26 201.129 Q2144.26 195.018 2147.2 191.268 Q2150.16 187.518 2154.86 187.518 Q2157.73 187.518 2159.77 188.652 Q2161.83 189.763 2163.17 192.078 M2148.65 201.129 Q2148.65 205.828 2150.58 208.513 Q2152.52 211.175 2155.9 211.175 Q2159.28 211.175 2161.22 208.513 Q2163.17 205.828 2163.17 201.129 Q2163.17 196.43 2161.22 193.768 Q2159.28 191.083 2155.9 191.083 Q2152.52 191.083 2150.58 193.768 Q2148.65 196.43 2148.65 201.129 Z" fill="#000000" fill-rule="nonzero" fill-opacity="1" /><path clip-path="url(#clip800)" d="M2191.27 178.05 L2195.53 178.05 L2195.53 214.069 L2191.27 214.069 L2191.27 178.05 Z" fill="#000000" fill-rule="nonzero" fill-opacity="1" /><path clip-path="url(#clip800)" d="M2220.97 188.907 L2220.97 192.934 Q2219.16 192.009 2217.22 191.546 Q2215.27 191.083 2213.19 191.083 Q2210.02 191.083 2208.42 192.055 Q2206.85 193.027 2206.85 194.971 Q2206.85 196.453 2207.98 197.309 Q2209.12 198.143 2212.54 198.907 L2214 199.231 Q2218.54 200.203 2220.44 201.985 Q2222.36 203.745 2222.36 206.916 Q2222.36 210.527 2219.49 212.633 Q2216.64 214.74 2211.64 214.74 Q2209.56 214.74 2207.29 214.323 Q2205.04 213.93 2202.54 213.12 L2202.54 208.721 Q2204.9 209.948 2207.2 210.573 Q2209.49 211.175 2211.73 211.175 Q2214.74 211.175 2216.36 210.157 Q2217.98 209.115 2217.98 207.24 Q2217.98 205.504 2216.8 204.578 Q2215.65 203.652 2211.69 202.796 L2210.21 202.448 Q2206.25 201.615 2204.49 199.902 Q2202.73 198.166 2202.73 195.157 Q2202.73 191.499 2205.32 189.509 Q2207.91 187.518 2212.68 187.518 Q2215.04 187.518 2217.13 187.865 Q2219.21 188.212 2220.97 188.907 Z" fill="#000000" fill-rule="nonzero" fill-opacity="1" /><path clip-path="url(#clip800)" d="M2231.69 201.129 Q2231.69 205.828 2233.61 208.513 Q2235.55 211.175 2238.93 211.175 Q2242.31 211.175 2244.26 208.513 Q2246.2 205.828 2246.2 201.129 Q2246.2 196.43 2244.26 193.768 Q2242.31 191.083 2238.93 191.083 Q2235.55 191.083 2233.61 193.768 Q2231.69 196.43 2231.69 201.129 M2246.2 210.18 Q2244.86 212.495 2242.8 213.629 Q2240.76 214.74 2237.89 214.74 Q2233.19 214.74 2230.23 210.99 Q2227.29 207.24 2227.29 201.129 Q2227.29 195.018 2230.23 191.268 Q2233.19 187.518 2237.89 187.518 Q2240.76 187.518 2242.8 188.652 Q2244.86 189.763 2246.2 192.078 L2246.2 188.143 L2250.46 188.143 L2250.46 223.93 L2246.2 223.93 L2246.2 210.18 Z" fill="#000000" fill-rule="nonzero" fill-opacity="1" /></svg>
