<?xml version="1.0" encoding="utf-8"?>
<svg xmlns="http://www.w3.org/2000/svg" xmlns:xlink="http://www.w3.org/1999/xlink" width="600" height="400" viewBox="0 0 2400 1600">
<defs>
  <clipPath id="clip750">
    <rect x="0" y="0" width="2400" height="1600"/>
  </clipPath>
</defs>
<path clip-path="url(#clip750)" d="M0 1600 L2400 1600 L2400 0 L0 0  Z" fill="#ffffff" fill-rule="evenodd" fill-opacity="1"/>
<defs>
  <clipPath id="clip751">
    <rect x="480" y="0" width="1681" height="1600"/>
  </clipPath>
</defs>
<path clip-path="url(#clip750)" d="M314.445 1486.45 L2352.76 1486.45 L2352.76 47.2441 L314.445 47.2441  Z" fill="#ffffff" fill-rule="evenodd" fill-opacity="1"/>
<defs>
  <clipPath id="clip752">
    <rect x="314" y="47" width="2039" height="1440"/>
  </clipPath>
</defs>
<polyline clip-path="url(#clip752)" style="stroke:#000000; stroke-linecap:round; stroke-linejoin:round; stroke-width:2; stroke-opacity:0.1; fill:none" points="564.426,1486.45 564.426,47.2441 "/>
<polyline clip-path="url(#clip752)" style="stroke:#000000; stroke-linecap:round; stroke-linejoin:round; stroke-width:2; stroke-opacity:0.1; fill:none" points="949.013,1486.45 949.013,47.2441 "/>
<polyline clip-path="url(#clip752)" style="stroke:#000000; stroke-linecap:round; stroke-linejoin:round; stroke-width:2; stroke-opacity:0.1; fill:none" points="1333.6,1486.45 1333.6,47.2441 "/>
<polyline clip-path="url(#clip752)" style="stroke:#000000; stroke-linecap:round; stroke-linejoin:round; stroke-width:2; stroke-opacity:0.1; fill:none" points="1718.19,1486.45 1718.19,47.2441 "/>
<polyline clip-path="url(#clip752)" style="stroke:#000000; stroke-linecap:round; stroke-linejoin:round; stroke-width:2; stroke-opacity:0.1; fill:none" points="2102.77,1486.45 2102.77,47.2441 "/>
<polyline clip-path="url(#clip750)" style="stroke:#000000; stroke-linecap:round; stroke-linejoin:round; stroke-width:4; stroke-opacity:1; fill:none" points="314.445,1486.45 2352.76,1486.45 "/>
<polyline clip-path="url(#clip750)" style="stroke:#000000; stroke-linecap:round; stroke-linejoin:round; stroke-width:4; stroke-opacity:1; fill:none" points="564.426,1486.45 564.426,1467.55 "/>
<polyline clip-path="url(#clip750)" style="stroke:#000000; stroke-linecap:round; stroke-linejoin:round; stroke-width:4; stroke-opacity:1; fill:none" points="949.013,1486.45 949.013,1467.55 "/>
<polyline clip-path="url(#clip750)" style="stroke:#000000; stroke-linecap:round; stroke-linejoin:round; stroke-width:4; stroke-opacity:1; fill:none" points="1333.6,1486.45 1333.6,1467.55 "/>
<polyline clip-path="url(#clip750)" style="stroke:#000000; stroke-linecap:round; stroke-linejoin:round; stroke-width:4; stroke-opacity:1; fill:none" points="1718.19,1486.45 1718.19,1467.55 "/>
<polyline clip-path="url(#clip750)" style="stroke:#000000; stroke-linecap:round; stroke-linejoin:round; stroke-width:4; stroke-opacity:1; fill:none" points="2102.77,1486.45 2102.77,1467.55 "/>
<path clip-path="url(#clip750)" d="M533.327 1532.02 L563.003 1532.02 L563.003 1535.95 L533.327 1535.95 L533.327 1532.02 Z" fill="#000000" fill-rule="nonzero" fill-opacity="1" /><path clip-path="url(#clip750)" d="M585.942 1518.36 L574.137 1536.81 L585.942 1536.81 L585.942 1518.36 M584.715 1514.29 L590.595 1514.29 L590.595 1536.81 L595.526 1536.81 L595.526 1540.7 L590.595 1540.7 L590.595 1548.85 L585.942 1548.85 L585.942 1540.7 L570.341 1540.7 L570.341 1536.19 L584.715 1514.29 Z" fill="#000000" fill-rule="nonzero" fill-opacity="1" /><path clip-path="url(#clip750)" d="M918.956 1532.02 L948.631 1532.02 L948.631 1535.95 L918.956 1535.95 L918.956 1532.02 Z" fill="#000000" fill-rule="nonzero" fill-opacity="1" /><path clip-path="url(#clip750)" d="M962.752 1544.91 L979.071 1544.91 L979.071 1548.85 L957.127 1548.85 L957.127 1544.91 Q959.789 1542.16 964.372 1537.53 Q968.978 1532.88 970.159 1531.53 Q972.404 1529.01 973.284 1527.27 Q974.187 1525.51 974.187 1523.82 Q974.187 1521.07 972.242 1519.33 Q970.321 1517.6 967.219 1517.6 Q965.02 1517.6 962.566 1518.36 Q960.136 1519.13 957.358 1520.68 L957.358 1515.95 Q960.182 1514.82 962.636 1514.24 Q965.09 1513.66 967.127 1513.66 Q972.497 1513.66 975.691 1516.35 Q978.886 1519.03 978.886 1523.52 Q978.886 1525.65 978.076 1527.57 Q977.289 1529.47 975.182 1532.07 Q974.603 1532.74 971.502 1535.95 Q968.4 1539.15 962.752 1544.91 Z" fill="#000000" fill-rule="nonzero" fill-opacity="1" /><path clip-path="url(#clip750)" d="M1333.6 1517.37 Q1329.99 1517.37 1328.16 1520.93 Q1326.35 1524.47 1326.35 1531.6 Q1326.35 1538.71 1328.16 1542.27 Q1329.99 1545.82 1333.6 1545.82 Q1337.23 1545.82 1339.04 1542.27 Q1340.87 1538.71 1340.87 1531.6 Q1340.87 1524.47 1339.04 1520.93 Q1337.23 1517.37 1333.6 1517.37 M1333.6 1513.66 Q1339.41 1513.66 1342.47 1518.27 Q1345.54 1522.85 1345.54 1531.6 Q1345.54 1540.33 1342.47 1544.94 Q1339.41 1549.52 1333.6 1549.52 Q1327.79 1549.52 1324.71 1544.94 Q1321.66 1540.33 1321.66 1531.6 Q1321.66 1522.85 1324.71 1518.27 Q1327.79 1513.66 1333.6 1513.66 Z" fill="#000000" fill-rule="nonzero" fill-opacity="1" /><path clip-path="url(#clip750)" d="M1712.84 1544.91 L1729.16 1544.91 L1729.16 1548.85 L1707.22 1548.85 L1707.22 1544.91 Q1709.88 1542.16 1714.46 1537.53 Q1719.07 1532.88 1720.25 1531.53 Q1722.49 1529.01 1723.37 1527.27 Q1724.28 1525.51 1724.28 1523.82 Q1724.28 1521.07 1722.33 1519.33 Q1720.41 1517.6 1717.31 1517.6 Q1715.11 1517.6 1712.65 1518.36 Q1710.22 1519.13 1707.45 1520.68 L1707.45 1515.95 Q1710.27 1514.82 1712.72 1514.24 Q1715.18 1513.66 1717.22 1513.66 Q1722.59 1513.66 1725.78 1516.35 Q1728.97 1519.03 1728.97 1523.52 Q1728.97 1525.65 1728.16 1527.57 Q1727.38 1529.47 1725.27 1532.07 Q1724.69 1532.74 1721.59 1535.95 Q1718.49 1539.15 1712.84 1544.91 Z" fill="#000000" fill-rule="nonzero" fill-opacity="1" /><path clip-path="url(#clip750)" d="M2105.78 1518.36 L2093.98 1536.81 L2105.78 1536.81 L2105.78 1518.36 M2104.56 1514.29 L2110.44 1514.29 L2110.44 1536.81 L2115.37 1536.81 L2115.37 1540.7 L2110.44 1540.7 L2110.44 1548.85 L2105.78 1548.85 L2105.78 1540.7 L2090.18 1540.7 L2090.18 1536.19 L2104.56 1514.29 Z" fill="#000000" fill-rule="nonzero" fill-opacity="1" /><polyline clip-path="url(#clip752)" style="stroke:#000000; stroke-linecap:round; stroke-linejoin:round; stroke-width:2; stroke-opacity:0.1; fill:none" points="314.445,1333.26 2352.76,1333.26 "/>
<polyline clip-path="url(#clip752)" style="stroke:#000000; stroke-linecap:round; stroke-linejoin:round; stroke-width:2; stroke-opacity:0.1; fill:none" points="314.445,1144.46 2352.76,1144.46 "/>
<polyline clip-path="url(#clip752)" style="stroke:#000000; stroke-linecap:round; stroke-linejoin:round; stroke-width:2; stroke-opacity:0.1; fill:none" points="314.445,955.651 2352.76,955.651 "/>
<polyline clip-path="url(#clip752)" style="stroke:#000000; stroke-linecap:round; stroke-linejoin:round; stroke-width:2; stroke-opacity:0.1; fill:none" points="314.445,766.846 2352.76,766.846 "/>
<polyline clip-path="url(#clip752)" style="stroke:#000000; stroke-linecap:round; stroke-linejoin:round; stroke-width:2; stroke-opacity:0.1; fill:none" points="314.445,578.041 2352.76,578.041 "/>
<polyline clip-path="url(#clip752)" style="stroke:#000000; stroke-linecap:round; stroke-linejoin:round; stroke-width:2; stroke-opacity:0.1; fill:none" points="314.445,389.236 2352.76,389.236 "/>
<polyline clip-path="url(#clip752)" style="stroke:#000000; stroke-linecap:round; stroke-linejoin:round; stroke-width:2; stroke-opacity:0.1; fill:none" points="314.445,200.43 2352.76,200.43 "/>
<polyline clip-path="url(#clip750)" style="stroke:#000000; stroke-linecap:round; stroke-linejoin:round; stroke-width:4; stroke-opacity:1; fill:none" points="314.445,1486.45 314.445,47.2441 "/>
<polyline clip-path="url(#clip750)" style="stroke:#000000; stroke-linecap:round; stroke-linejoin:round; stroke-width:4; stroke-opacity:1; fill:none" points="314.445,1333.26 333.342,1333.26 "/>
<polyline clip-path="url(#clip750)" style="stroke:#000000; stroke-linecap:round; stroke-linejoin:round; stroke-width:4; stroke-opacity:1; fill:none" points="314.445,1144.46 333.342,1144.46 "/>
<polyline clip-path="url(#clip750)" style="stroke:#000000; stroke-linecap:round; stroke-linejoin:round; stroke-width:4; stroke-opacity:1; fill:none" points="314.445,955.651 333.342,955.651 "/>
<polyline clip-path="url(#clip750)" style="stroke:#000000; stroke-linecap:round; stroke-linejoin:round; stroke-width:4; stroke-opacity:1; fill:none" points="314.445,766.846 333.342,766.846 "/>
<polyline clip-path="url(#clip750)" style="stroke:#000000; stroke-linecap:round; stroke-linejoin:round; stroke-width:4; stroke-opacity:1; fill:none" points="314.445,578.041 333.342,578.041 "/>
<polyline clip-path="url(#clip750)" style="stroke:#000000; stroke-linecap:round; stroke-linejoin:round; stroke-width:4; stroke-opacity:1; fill:none" points="314.445,389.236 333.342,389.236 "/>
<polyline clip-path="url(#clip750)" style="stroke:#000000; stroke-linecap:round; stroke-linejoin:round; stroke-width:4; stroke-opacity:1; fill:none" points="314.445,200.43 333.342,200.43 "/>
<path clip-path="url(#clip750)" d="M50.9921 1340.16 L80.6679 1340.16 L80.6679 1344.1 L50.9921 1344.1 L50.9921 1340.16 Z" fill="#000000" fill-rule="nonzero" fill-opacity="1" /><path clip-path="url(#clip750)" d="M104.927 1338.36 Q108.283 1339.07 110.158 1341.34 Q112.057 1343.61 112.057 1346.94 Q112.057 1352.06 108.538 1354.86 Q105.02 1357.66 98.5382 1357.66 Q96.3623 1357.66 94.0475 1357.22 Q91.7558 1356.8 89.3021 1355.95 L89.3021 1351.43 Q91.2465 1352.57 93.5613 1353.15 Q95.8761 1353.73 98.3993 1353.73 Q102.797 1353.73 105.089 1351.99 Q107.404 1350.25 107.404 1346.94 Q107.404 1343.89 105.251 1342.17 Q103.121 1340.44 99.3021 1340.44 L95.2743 1340.44 L95.2743 1336.6 L99.4872 1336.6 Q102.936 1336.6 104.765 1335.23 Q106.594 1333.84 106.594 1331.25 Q106.594 1328.59 104.696 1327.17 Q102.821 1325.74 99.3021 1325.74 Q97.3808 1325.74 95.1817 1326.16 Q92.9826 1326.57 90.3438 1327.45 L90.3438 1323.29 Q93.0058 1322.54 95.3206 1322.17 Q97.6585 1321.8 99.7187 1321.8 Q105.043 1321.8 108.145 1324.23 Q111.246 1326.64 111.246 1330.76 Q111.246 1333.63 109.603 1335.62 Q107.959 1337.59 104.927 1338.36 Z" fill="#000000" fill-rule="nonzero" fill-opacity="1" /><path clip-path="url(#clip750)" d="M120.922 1351.11 L125.807 1351.11 L125.807 1356.99 L120.922 1356.99 L120.922 1351.11 Z" fill="#000000" fill-rule="nonzero" fill-opacity="1" /><path clip-path="url(#clip750)" d="M145.992 1325.51 Q142.381 1325.51 140.552 1329.07 Q138.746 1332.61 138.746 1339.74 Q138.746 1346.85 140.552 1350.42 Q142.381 1353.96 145.992 1353.96 Q149.626 1353.96 151.431 1350.42 Q153.26 1346.85 153.26 1339.74 Q153.26 1332.61 151.431 1329.07 Q149.626 1325.51 145.992 1325.51 M145.992 1321.8 Q151.802 1321.8 154.857 1326.41 Q157.936 1330.99 157.936 1339.74 Q157.936 1348.47 154.857 1353.08 Q151.802 1357.66 145.992 1357.66 Q140.181 1357.66 137.103 1353.08 Q134.047 1348.47 134.047 1339.74 Q134.047 1330.99 137.103 1326.41 Q140.181 1321.8 145.992 1321.8 Z" fill="#000000" fill-rule="nonzero" fill-opacity="1" /><path clip-path="url(#clip750)" d="M194.325 1331.53 L183.746 1342.15 L194.325 1352.73 L191.57 1355.53 L180.945 1344.91 L170.32 1355.53 L167.589 1352.73 L178.144 1342.15 L167.589 1331.53 L170.32 1328.73 L180.945 1339.35 L191.57 1328.73 L194.325 1331.53 Z" fill="#000000" fill-rule="nonzero" fill-opacity="1" /><path clip-path="url(#clip750)" d="M206.686 1353.05 L214.325 1353.05 L214.325 1326.69 L206.014 1328.36 L206.014 1324.1 L214.278 1322.43 L218.954 1322.43 L218.954 1353.05 L226.593 1353.05 L226.593 1356.99 L206.686 1356.99 L206.686 1353.05 Z" fill="#000000" fill-rule="nonzero" fill-opacity="1" /><path clip-path="url(#clip750)" d="M246.037 1325.51 Q242.426 1325.51 240.598 1329.07 Q238.792 1332.61 238.792 1339.74 Q238.792 1346.85 240.598 1350.42 Q242.426 1353.96 246.037 1353.96 Q249.672 1353.96 251.477 1350.42 Q253.306 1346.85 253.306 1339.74 Q253.306 1332.61 251.477 1329.07 Q249.672 1325.51 246.037 1325.51 M246.037 1321.8 Q251.848 1321.8 254.903 1326.41 Q257.982 1330.99 257.982 1339.74 Q257.982 1348.47 254.903 1353.08 Q251.848 1357.66 246.037 1357.66 Q240.227 1357.66 237.149 1353.08 Q234.093 1348.47 234.093 1339.74 Q234.093 1330.99 237.149 1326.41 Q240.227 1321.8 246.037 1321.8 Z" fill="#000000" fill-rule="nonzero" fill-opacity="1" /><path clip-path="url(#clip750)" d="M270.658 1304.81 L261.066 1319.8 L270.658 1319.8 L270.658 1304.81 M269.661 1301.5 L274.439 1301.5 L274.439 1319.8 L278.445 1319.8 L278.445 1322.96 L274.439 1322.96 L274.439 1329.58 L270.658 1329.58 L270.658 1322.96 L257.982 1322.96 L257.982 1319.29 L269.661 1301.5 Z" fill="#000000" fill-rule="nonzero" fill-opacity="1" /><path clip-path="url(#clip750)" d="M50.9921 1151.36 L80.6679 1151.36 L80.6679 1155.29 L50.9921 1155.29 L50.9921 1151.36 Z" fill="#000000" fill-rule="nonzero" fill-opacity="1" /><path clip-path="url(#clip750)" d="M94.7882 1164.25 L111.108 1164.25 L111.108 1168.18 L89.1632 1168.18 L89.1632 1164.25 Q91.8252 1161.49 96.4085 1156.86 Q101.015 1152.21 102.196 1150.87 Q104.441 1148.35 105.321 1146.61 Q106.223 1144.85 106.223 1143.16 Q106.223 1140.41 104.279 1138.67 Q102.358 1136.93 99.2558 1136.93 Q97.0567 1136.93 94.603 1137.7 Q92.1725 1138.46 89.3947 1140.01 L89.3947 1135.29 Q92.2188 1134.16 94.6724 1133.58 Q97.1261 1133 99.1632 1133 Q104.534 1133 107.728 1135.68 Q110.922 1138.37 110.922 1142.86 Q110.922 1144.99 110.112 1146.91 Q109.325 1148.81 107.219 1151.4 Q106.64 1152.07 103.538 1155.29 Q100.436 1158.48 94.7882 1164.25 Z" fill="#000000" fill-rule="nonzero" fill-opacity="1" /><path clip-path="url(#clip750)" d="M120.922 1162.3 L125.807 1162.3 L125.807 1168.18 L120.922 1168.18 L120.922 1162.3 Z" fill="#000000" fill-rule="nonzero" fill-opacity="1" /><path clip-path="url(#clip750)" d="M145.992 1136.7 Q142.381 1136.7 140.552 1140.27 Q138.746 1143.81 138.746 1150.94 Q138.746 1158.05 140.552 1161.61 Q142.381 1165.15 145.992 1165.15 Q149.626 1165.15 151.431 1161.61 Q153.26 1158.05 153.26 1150.94 Q153.26 1143.81 151.431 1140.27 Q149.626 1136.7 145.992 1136.7 M145.992 1133 Q151.802 1133 154.857 1137.61 Q157.936 1142.19 157.936 1150.94 Q157.936 1159.67 154.857 1164.27 Q151.802 1168.86 145.992 1168.86 Q140.181 1168.86 137.103 1164.27 Q134.047 1159.67 134.047 1150.94 Q134.047 1142.19 137.103 1137.61 Q140.181 1133 145.992 1133 Z" fill="#000000" fill-rule="nonzero" fill-opacity="1" /><path clip-path="url(#clip750)" d="M194.325 1142.72 L183.746 1153.35 L194.325 1163.92 L191.57 1166.73 L180.945 1156.1 L170.32 1166.73 L167.589 1163.92 L178.144 1153.35 L167.589 1142.72 L170.32 1139.92 L180.945 1150.55 L191.57 1139.92 L194.325 1142.72 Z" fill="#000000" fill-rule="nonzero" fill-opacity="1" /><path clip-path="url(#clip750)" d="M206.686 1164.25 L214.325 1164.25 L214.325 1137.88 L206.014 1139.55 L206.014 1135.29 L214.278 1133.62 L218.954 1133.62 L218.954 1164.25 L226.593 1164.25 L226.593 1168.18 L206.686 1168.18 L206.686 1164.25 Z" fill="#000000" fill-rule="nonzero" fill-opacity="1" /><path clip-path="url(#clip750)" d="M246.037 1136.7 Q242.426 1136.7 240.598 1140.27 Q238.792 1143.81 238.792 1150.94 Q238.792 1158.05 240.598 1161.61 Q242.426 1165.15 246.037 1165.15 Q249.672 1165.15 251.477 1161.61 Q253.306 1158.05 253.306 1150.94 Q253.306 1143.81 251.477 1140.27 Q249.672 1136.7 246.037 1136.7 M246.037 1133 Q251.848 1133 254.903 1137.61 Q257.982 1142.19 257.982 1150.94 Q257.982 1159.67 254.903 1164.27 Q251.848 1168.86 246.037 1168.86 Q240.227 1168.86 237.149 1164.27 Q234.093 1159.67 234.093 1150.94 Q234.093 1142.19 237.149 1137.61 Q240.227 1133 246.037 1133 Z" fill="#000000" fill-rule="nonzero" fill-opacity="1" /><path clip-path="url(#clip750)" d="M270.658 1116 L261.066 1130.99 L270.658 1130.99 L270.658 1116 M269.661 1112.69 L274.439 1112.69 L274.439 1130.99 L278.445 1130.99 L278.445 1134.15 L274.439 1134.15 L274.439 1140.77 L270.658 1140.77 L270.658 1134.15 L257.982 1134.15 L257.982 1130.49 L269.661 1112.69 Z" fill="#000000" fill-rule="nonzero" fill-opacity="1" /><path clip-path="url(#clip750)" d="M50.9921 962.55 L80.6679 962.55 L80.6679 966.485 L50.9921 966.485 L50.9921 962.55 Z" fill="#000000" fill-rule="nonzero" fill-opacity="1" /><path clip-path="url(#clip750)" d="M91.5706 975.444 L99.2095 975.444 L99.2095 949.078 L90.8993 950.745 L90.8993 946.485 L99.1632 944.819 L103.839 944.819 L103.839 975.444 L111.478 975.444 L111.478 979.379 L91.5706 979.379 L91.5706 975.444 Z" fill="#000000" fill-rule="nonzero" fill-opacity="1" /><path clip-path="url(#clip750)" d="M120.922 973.499 L125.807 973.499 L125.807 979.379 L120.922 979.379 L120.922 973.499 Z" fill="#000000" fill-rule="nonzero" fill-opacity="1" /><path clip-path="url(#clip750)" d="M145.992 947.897 Q142.381 947.897 140.552 951.462 Q138.746 955.004 138.746 962.134 Q138.746 969.24 140.552 972.805 Q142.381 976.346 145.992 976.346 Q149.626 976.346 151.431 972.805 Q153.26 969.24 153.26 962.134 Q153.26 955.004 151.431 951.462 Q149.626 947.897 145.992 947.897 M145.992 944.194 Q151.802 944.194 154.857 948.8 Q157.936 953.384 157.936 962.134 Q157.936 970.86 154.857 975.467 Q151.802 980.05 145.992 980.05 Q140.181 980.05 137.103 975.467 Q134.047 970.86 134.047 962.134 Q134.047 953.384 137.103 948.8 Q140.181 944.194 145.992 944.194 Z" fill="#000000" fill-rule="nonzero" fill-opacity="1" /><path clip-path="url(#clip750)" d="M194.325 953.916 L183.746 964.541 L194.325 975.12 L191.57 977.92 L180.945 967.296 L170.32 977.92 L167.589 975.12 L178.144 964.541 L167.589 953.916 L170.32 951.115 L180.945 961.74 L191.57 951.115 L194.325 953.916 Z" fill="#000000" fill-rule="nonzero" fill-opacity="1" /><path clip-path="url(#clip750)" d="M206.686 975.444 L214.325 975.444 L214.325 949.078 L206.014 950.745 L206.014 946.485 L214.278 944.819 L218.954 944.819 L218.954 975.444 L226.593 975.444 L226.593 979.379 L206.686 979.379 L206.686 975.444 Z" fill="#000000" fill-rule="nonzero" fill-opacity="1" /><path clip-path="url(#clip750)" d="M246.037 947.897 Q242.426 947.897 240.598 951.462 Q238.792 955.004 238.792 962.134 Q238.792 969.24 240.598 972.805 Q242.426 976.346 246.037 976.346 Q249.672 976.346 251.477 972.805 Q253.306 969.24 253.306 962.134 Q253.306 955.004 251.477 951.462 Q249.672 947.897 246.037 947.897 M246.037 944.194 Q251.848 944.194 254.903 948.8 Q257.982 953.384 257.982 962.134 Q257.982 970.86 254.903 975.467 Q251.848 980.05 246.037 980.05 Q240.227 980.05 237.149 975.467 Q234.093 970.86 234.093 962.134 Q234.093 953.384 237.149 948.8 Q240.227 944.194 246.037 944.194 Z" fill="#000000" fill-rule="nonzero" fill-opacity="1" /><path clip-path="url(#clip750)" d="M270.658 927.199 L261.066 942.188 L270.658 942.188 L270.658 927.199 M269.661 923.888 L274.439 923.888 L274.439 942.188 L278.445 942.188 L278.445 945.348 L274.439 945.348 L274.439 951.968 L270.658 951.968 L270.658 945.348 L257.982 945.348 L257.982 941.681 L269.661 923.888 Z" fill="#000000" fill-rule="nonzero" fill-opacity="1" /><path clip-path="url(#clip750)" d="M266.5 752.645 Q262.889 752.645 261.06 756.209 Q259.255 759.751 259.255 766.881 Q259.255 773.987 261.06 777.552 Q262.889 781.094 266.5 781.094 Q270.134 781.094 271.94 777.552 Q273.769 773.987 273.769 766.881 Q273.769 759.751 271.94 756.209 Q270.134 752.645 266.5 752.645 M266.5 748.941 Q272.31 748.941 275.366 753.547 Q278.445 758.131 278.445 766.881 Q278.445 775.608 275.366 780.214 Q272.31 784.797 266.5 784.797 Q260.69 784.797 257.611 780.214 Q254.556 775.608 254.556 766.881 Q254.556 758.131 257.611 753.547 Q260.69 748.941 266.5 748.941 Z" fill="#000000" fill-rule="nonzero" fill-opacity="1" /><path clip-path="url(#clip750)" d="M91.5706 597.833 L99.2095 597.833 L99.2095 571.468 L90.8993 573.134 L90.8993 568.875 L99.1632 567.208 L103.839 567.208 L103.839 597.833 L111.478 597.833 L111.478 601.768 L91.5706 601.768 L91.5706 597.833 Z" fill="#000000" fill-rule="nonzero" fill-opacity="1" /><path clip-path="url(#clip750)" d="M120.922 595.889 L125.807 595.889 L125.807 601.768 L120.922 601.768 L120.922 595.889 Z" fill="#000000" fill-rule="nonzero" fill-opacity="1" /><path clip-path="url(#clip750)" d="M145.992 570.287 Q142.381 570.287 140.552 573.852 Q138.746 577.393 138.746 584.523 Q138.746 591.63 140.552 595.194 Q142.381 598.736 145.992 598.736 Q149.626 598.736 151.431 595.194 Q153.26 591.63 153.26 584.523 Q153.26 577.393 151.431 573.852 Q149.626 570.287 145.992 570.287 M145.992 566.583 Q151.802 566.583 154.857 571.19 Q157.936 575.773 157.936 584.523 Q157.936 593.25 154.857 597.856 Q151.802 602.44 145.992 602.44 Q140.181 602.44 137.103 597.856 Q134.047 593.25 134.047 584.523 Q134.047 575.773 137.103 571.19 Q140.181 566.583 145.992 566.583 Z" fill="#000000" fill-rule="nonzero" fill-opacity="1" /><path clip-path="url(#clip750)" d="M194.325 576.306 L183.746 586.93 L194.325 597.509 L191.57 600.31 L180.945 589.685 L170.32 600.31 L167.589 597.509 L178.144 586.93 L167.589 576.306 L170.32 573.505 L180.945 584.13 L191.57 573.505 L194.325 576.306 Z" fill="#000000" fill-rule="nonzero" fill-opacity="1" /><path clip-path="url(#clip750)" d="M206.686 597.833 L214.325 597.833 L214.325 571.468 L206.014 573.134 L206.014 568.875 L214.278 567.208 L218.954 567.208 L218.954 597.833 L226.593 597.833 L226.593 601.768 L206.686 601.768 L206.686 597.833 Z" fill="#000000" fill-rule="nonzero" fill-opacity="1" /><path clip-path="url(#clip750)" d="M246.037 570.287 Q242.426 570.287 240.598 573.852 Q238.792 577.393 238.792 584.523 Q238.792 591.63 240.598 595.194 Q242.426 598.736 246.037 598.736 Q249.672 598.736 251.477 595.194 Q253.306 591.63 253.306 584.523 Q253.306 577.393 251.477 573.852 Q249.672 570.287 246.037 570.287 M246.037 566.583 Q251.848 566.583 254.903 571.19 Q257.982 575.773 257.982 584.523 Q257.982 593.25 254.903 597.856 Q251.848 602.44 246.037 602.44 Q240.227 602.44 237.149 597.856 Q234.093 593.25 234.093 584.523 Q234.093 575.773 237.149 571.19 Q240.227 566.583 246.037 566.583 Z" fill="#000000" fill-rule="nonzero" fill-opacity="1" /><path clip-path="url(#clip750)" d="M270.658 549.588 L261.066 564.578 L270.658 564.578 L270.658 549.588 M269.661 546.278 L274.439 546.278 L274.439 564.578 L278.445 564.578 L278.445 567.738 L274.439 567.738 L274.439 574.358 L270.658 574.358 L270.658 567.738 L257.982 567.738 L257.982 564.07 L269.661 546.278 Z" fill="#000000" fill-rule="nonzero" fill-opacity="1" /><path clip-path="url(#clip750)" d="M94.7882 409.028 L111.108 409.028 L111.108 412.963 L89.1632 412.963 L89.1632 409.028 Q91.8252 406.273 96.4085 401.644 Q101.015 396.991 102.196 395.648 Q104.441 393.125 105.321 391.389 Q106.223 389.63 106.223 387.94 Q106.223 385.186 104.279 383.449 Q102.358 381.713 99.2558 381.713 Q97.0567 381.713 94.603 382.477 Q92.1725 383.241 89.3947 384.792 L89.3947 380.07 Q92.2188 378.936 94.6724 378.357 Q97.1261 377.778 99.1632 377.778 Q104.534 377.778 107.728 380.463 Q110.922 383.148 110.922 387.639 Q110.922 389.769 110.112 391.69 Q109.325 393.588 107.219 396.181 Q106.64 396.852 103.538 400.07 Q100.436 403.264 94.7882 409.028 Z" fill="#000000" fill-rule="nonzero" fill-opacity="1" /><path clip-path="url(#clip750)" d="M120.922 407.084 L125.807 407.084 L125.807 412.963 L120.922 412.963 L120.922 407.084 Z" fill="#000000" fill-rule="nonzero" fill-opacity="1" /><path clip-path="url(#clip750)" d="M145.992 381.482 Q142.381 381.482 140.552 385.047 Q138.746 388.588 138.746 395.718 Q138.746 402.824 140.552 406.389 Q142.381 409.931 145.992 409.931 Q149.626 409.931 151.431 406.389 Q153.26 402.824 153.26 395.718 Q153.26 388.588 151.431 385.047 Q149.626 381.482 145.992 381.482 M145.992 377.778 Q151.802 377.778 154.857 382.385 Q157.936 386.968 157.936 395.718 Q157.936 404.445 154.857 409.051 Q151.802 413.634 145.992 413.634 Q140.181 413.634 137.103 409.051 Q134.047 404.445 134.047 395.718 Q134.047 386.968 137.103 382.385 Q140.181 377.778 145.992 377.778 Z" fill="#000000" fill-rule="nonzero" fill-opacity="1" /><path clip-path="url(#clip750)" d="M194.325 387.5 L183.746 398.125 L194.325 408.704 L191.57 411.505 L180.945 400.88 L170.32 411.505 L167.589 408.704 L178.144 398.125 L167.589 387.5 L170.32 384.699 L180.945 395.324 L191.57 384.699 L194.325 387.5 Z" fill="#000000" fill-rule="nonzero" fill-opacity="1" /><path clip-path="url(#clip750)" d="M206.686 409.028 L214.325 409.028 L214.325 382.662 L206.014 384.329 L206.014 380.07 L214.278 378.403 L218.954 378.403 L218.954 409.028 L226.593 409.028 L226.593 412.963 L206.686 412.963 L206.686 409.028 Z" fill="#000000" fill-rule="nonzero" fill-opacity="1" /><path clip-path="url(#clip750)" d="M246.037 381.482 Q242.426 381.482 240.598 385.047 Q238.792 388.588 238.792 395.718 Q238.792 402.824 240.598 406.389 Q242.426 409.931 246.037 409.931 Q249.672 409.931 251.477 406.389 Q253.306 402.824 253.306 395.718 Q253.306 388.588 251.477 385.047 Q249.672 381.482 246.037 381.482 M246.037 377.778 Q251.848 377.778 254.903 382.385 Q257.982 386.968 257.982 395.718 Q257.982 404.445 254.903 409.051 Q251.848 413.634 246.037 413.634 Q240.227 413.634 237.149 409.051 Q234.093 404.445 234.093 395.718 Q234.093 386.968 237.149 382.385 Q240.227 377.778 246.037 377.778 Z" fill="#000000" fill-rule="nonzero" fill-opacity="1" /><path clip-path="url(#clip750)" d="M270.658 360.783 L261.066 375.773 L270.658 375.773 L270.658 360.783 M269.661 357.473 L274.439 357.473 L274.439 375.773 L278.445 375.773 L278.445 378.932 L274.439 378.932 L274.439 385.553 L270.658 385.553 L270.658 378.932 L257.982 378.932 L257.982 375.265 L269.661 357.473 Z" fill="#000000" fill-rule="nonzero" fill-opacity="1" /><path clip-path="url(#clip750)" d="M104.927 205.524 Q108.283 206.241 110.158 208.51 Q112.057 210.778 112.057 214.112 Q112.057 219.227 108.538 222.028 Q105.02 224.829 98.5382 224.829 Q96.3623 224.829 94.0475 224.389 Q91.7558 223.973 89.3021 223.116 L89.3021 218.602 Q91.2465 219.737 93.5613 220.315 Q95.8761 220.894 98.3993 220.894 Q102.797 220.894 105.089 219.158 Q107.404 217.422 107.404 214.112 Q107.404 211.056 105.251 209.343 Q103.121 207.607 99.3021 207.607 L95.2743 207.607 L95.2743 203.765 L99.4872 203.765 Q102.936 203.765 104.765 202.399 Q106.594 201.01 106.594 198.417 Q106.594 195.755 104.696 194.343 Q102.821 192.908 99.3021 192.908 Q97.3808 192.908 95.1817 193.325 Q92.9826 193.741 90.3438 194.621 L90.3438 190.454 Q93.0058 189.714 95.3206 189.343 Q97.6585 188.973 99.7187 188.973 Q105.043 188.973 108.145 191.403 Q111.246 193.811 111.246 197.931 Q111.246 200.802 109.603 202.792 Q107.959 204.76 104.927 205.524 Z" fill="#000000" fill-rule="nonzero" fill-opacity="1" /><path clip-path="url(#clip750)" d="M120.922 218.278 L125.807 218.278 L125.807 224.158 L120.922 224.158 L120.922 218.278 Z" fill="#000000" fill-rule="nonzero" fill-opacity="1" /><path clip-path="url(#clip750)" d="M145.992 192.677 Q142.381 192.677 140.552 196.241 Q138.746 199.783 138.746 206.913 Q138.746 214.019 140.552 217.584 Q142.381 221.126 145.992 221.126 Q149.626 221.126 151.431 217.584 Q153.26 214.019 153.26 206.913 Q153.26 199.783 151.431 196.241 Q149.626 192.677 145.992 192.677 M145.992 188.973 Q151.802 188.973 154.857 193.579 Q157.936 198.163 157.936 206.913 Q157.936 215.639 154.857 220.246 Q151.802 224.829 145.992 224.829 Q140.181 224.829 137.103 220.246 Q134.047 215.639 134.047 206.913 Q134.047 198.163 137.103 193.579 Q140.181 188.973 145.992 188.973 Z" fill="#000000" fill-rule="nonzero" fill-opacity="1" /><path clip-path="url(#clip750)" d="M194.325 198.695 L183.746 209.32 L194.325 219.899 L191.57 222.7 L180.945 212.075 L170.32 222.7 L167.589 219.899 L178.144 209.32 L167.589 198.695 L170.32 195.894 L180.945 206.519 L191.57 195.894 L194.325 198.695 Z" fill="#000000" fill-rule="nonzero" fill-opacity="1" /><path clip-path="url(#clip750)" d="M206.686 220.223 L214.325 220.223 L214.325 193.857 L206.014 195.524 L206.014 191.265 L214.278 189.598 L218.954 189.598 L218.954 220.223 L226.593 220.223 L226.593 224.158 L206.686 224.158 L206.686 220.223 Z" fill="#000000" fill-rule="nonzero" fill-opacity="1" /><path clip-path="url(#clip750)" d="M246.037 192.677 Q242.426 192.677 240.598 196.241 Q238.792 199.783 238.792 206.913 Q238.792 214.019 240.598 217.584 Q242.426 221.126 246.037 221.126 Q249.672 221.126 251.477 217.584 Q253.306 214.019 253.306 206.913 Q253.306 199.783 251.477 196.241 Q249.672 192.677 246.037 192.677 M246.037 188.973 Q251.848 188.973 254.903 193.579 Q257.982 198.163 257.982 206.913 Q257.982 215.639 254.903 220.246 Q251.848 224.829 246.037 224.829 Q240.227 224.829 237.149 220.246 Q234.093 215.639 234.093 206.913 Q234.093 198.163 237.149 193.579 Q240.227 188.973 246.037 188.973 Z" fill="#000000" fill-rule="nonzero" fill-opacity="1" /><path clip-path="url(#clip750)" d="M270.658 171.978 L261.066 186.967 L270.658 186.967 L270.658 171.978 M269.661 168.668 L274.439 168.668 L274.439 186.967 L278.445 186.967 L278.445 190.127 L274.439 190.127 L274.439 196.748 L270.658 196.748 L270.658 190.127 L257.982 190.127 L257.982 186.46 L269.661 168.668 Z" fill="#000000" fill-rule="nonzero" fill-opacity="1" /><polyline clip-path="url(#clip752)" style="stroke:#009af9; stroke-linecap:round; stroke-linejoin:round; stroke-width:4; stroke-opacity:1; fill:none" points="372.133,87.9763 375.263,91.606 378.392,95.226 381.522,98.8362 384.652,102.437 413.592,135.268 442.532,167.266 471.472,198.433 500.412,228.767 535.195,264.126 569.978,298.282 599.387,326.223 628.796,353.304 660.742,381.749 692.688,409.179 722.14,433.569 751.592,457.098 783.167,481.365 814.742,504.642 851.325,530.372 887.908,554.772 920.419,575.34 952.93,594.858 981.439,611.109 1009.95,626.553 1041.03,642.47 1072.11,657.428 1103.38,671.506 1134.65,684.613 1169.22,697.974 1203.79,710.147 1236.68,720.627 1269.57,730.032 1303.77,738.671 1337.97,746.148 1366.76,751.541 1395.55,756.111 1430.7,760.574 1465.85,763.809 1498.05,765.695 1530.24,766.551 1559.98,766.427 1589.72,765.424 1619.84,763.513 1649.97,760.7 1683.73,756.475 1717.49,751.119 1748.08,745.287 1778.67,738.525 1813.7,729.641 1848.72,719.539 1881.15,709.098 1913.58,697.612 1945.55,685.266 1977.53,671.904 2008.57,657.958 2039.61,643.055 2071.44,626.784 2103.26,609.507 2138.12,589.422 2172.99,568.13 2198.31,551.907 2223.64,535.047 2248.96,517.55 2274.29,499.416 2279.48,495.617 2284.68,491.791 2289.87,487.939 2295.07,484.059 "/>
<polyline clip-path="url(#clip752)" style="stroke:#e26f46; stroke-linecap:round; stroke-linejoin:round; stroke-width:4; stroke-opacity:1; fill:none" points="372.133,1445.72 375.263,1442.09 378.392,1438.47 381.522,1434.86 384.652,1431.26 413.592,1398.42 442.532,1366.43 471.472,1335.26 500.412,1304.92 535.195,1269.57 569.978,1235.41 599.387,1207.47 628.796,1180.39 660.742,1151.94 692.688,1124.51 722.14,1100.12 751.592,1076.59 783.167,1052.33 814.742,1029.05 851.325,1003.32 887.908,978.92 920.419,958.352 952.93,938.834 981.439,922.583 1009.95,907.139 1041.03,891.221 1072.11,876.264 1103.38,862.186 1134.65,849.079 1169.22,835.718 1203.79,823.545 1236.68,813.065 1269.57,803.66 1303.77,795.021 1337.97,787.544 1366.76,782.151 1395.55,777.581 1430.7,773.118 1465.85,769.883 1498.05,767.997 1530.24,767.141 1559.98,767.265 1589.72,768.267 1619.84,770.179 1649.97,772.992 1683.73,777.217 1717.49,782.573 1748.08,788.405 1778.67,795.167 1813.7,804.051 1848.72,814.153 1881.15,824.594 1913.58,836.08 1945.55,848.426 1977.53,861.788 2008.57,875.734 2039.61,890.637 2071.44,906.908 2103.26,924.185 2138.12,944.27 2172.99,965.562 2198.31,981.785 2223.64,998.645 2248.96,1016.14 2274.29,1034.28 2279.48,1038.07 2284.68,1041.9 2289.87,1045.75 2295.07,1049.63 "/>
<path clip-path="url(#clip750)" d="M1772.33 250.738 L2284.81 250.738 L2284.81 95.2176 L1772.33 95.2176  Z" fill="#ffffff" fill-rule="evenodd" fill-opacity="1"/>
<polyline clip-path="url(#clip750)" style="stroke:#000000; stroke-linecap:round; stroke-linejoin:round; stroke-width:4; stroke-opacity:1; fill:none" points="1772.33,250.738 2284.81,250.738 2284.81,95.2176 1772.33,95.2176 1772.33,250.738 "/>
<polyline clip-path="url(#clip750)" style="stroke:#009af9; stroke-linecap:round; stroke-linejoin:round; stroke-width:4; stroke-opacity:1; fill:none" points="1794.97,147.058 1930.86,147.058 "/>
<path clip-path="url(#clip750)" d="M1953.51 128.319 L1957.77 128.319 L1957.77 164.338 L1953.51 164.338 L1953.51 128.319 Z" fill="#000000" fill-rule="nonzero" fill-opacity="1" /><path clip-path="url(#clip750)" d="M1983.21 139.176 L1983.21 143.203 Q1981.4 142.277 1979.46 141.815 Q1977.51 141.352 1975.43 141.352 Q1972.26 141.352 1970.66 142.324 Q1969.09 143.296 1969.09 145.24 Q1969.09 146.722 1970.22 147.578 Q1971.36 148.412 1974.78 149.176 L1976.24 149.5 Q1980.78 150.472 1982.68 152.254 Q1984.6 154.014 1984.6 157.185 Q1984.6 160.796 1981.73 162.902 Q1978.88 165.009 1973.88 165.009 Q1971.8 165.009 1969.53 164.592 Q1967.28 164.199 1964.78 163.388 L1964.78 158.99 Q1967.14 160.217 1969.43 160.842 Q1971.73 161.444 1973.97 161.444 Q1976.98 161.444 1978.6 160.426 Q1980.22 159.384 1980.22 157.509 Q1980.22 155.773 1979.04 154.847 Q1977.88 153.921 1973.93 153.064 L1972.44 152.717 Q1968.49 151.884 1966.73 150.171 Q1964.97 148.435 1964.97 145.426 Q1964.97 141.768 1967.56 139.778 Q1970.15 137.787 1974.92 137.787 Q1977.28 137.787 1979.36 138.134 Q1981.45 138.481 1983.21 139.176 Z" fill="#000000" fill-rule="nonzero" fill-opacity="1" /><path clip-path="url(#clip750)" d="M1993.92 151.398 Q1993.92 156.097 1995.85 158.782 Q1997.79 161.444 2001.17 161.444 Q2004.55 161.444 2006.49 158.782 Q2008.44 156.097 2008.44 151.398 Q2008.44 146.699 2006.49 144.037 Q2004.55 141.352 2001.17 141.352 Q1997.79 141.352 1995.85 144.037 Q1993.92 146.699 1993.92 151.398 M2008.44 160.449 Q2007.1 162.763 2005.04 163.898 Q2003 165.009 2000.13 165.009 Q1995.43 165.009 1992.47 161.259 Q1989.53 157.509 1989.53 151.398 Q1989.53 145.287 1992.47 141.537 Q1995.43 137.787 2000.13 137.787 Q2003 137.787 2005.04 138.921 Q2007.1 140.032 2008.44 142.347 L2008.44 138.412 L2012.7 138.412 L2012.7 174.199 L2008.44 174.199 L2008.44 160.449 Z" fill="#000000" fill-rule="nonzero" fill-opacity="1" /><polyline clip-path="url(#clip750)" style="stroke:#e26f46; stroke-linecap:round; stroke-linejoin:round; stroke-width:4; stroke-opacity:1; fill:none" points="1794.97,198.898 1930.86,198.898 "/>
<path clip-path="url(#clip750)" d="M1953.51 180.159 L1957.77 180.159 L1957.77 216.178 L1953.51 216.178 L1953.51 180.159 Z" fill="#000000" fill-rule="nonzero" fill-opacity="1" /><path clip-path="url(#clip750)" d="M1983.21 191.016 L1983.21 195.043 Q1981.4 194.117 1979.46 193.655 Q1977.51 193.192 1975.43 193.192 Q1972.26 193.192 1970.66 194.164 Q1969.09 195.136 1969.09 197.08 Q1969.09 198.562 1970.22 199.418 Q1971.36 200.252 1974.78 201.016 L1976.24 201.34 Q1980.78 202.312 1982.68 204.094 Q1984.6 205.854 1984.6 209.025 Q1984.6 212.636 1981.73 214.742 Q1978.88 216.849 1973.88 216.849 Q1971.8 216.849 1969.53 216.432 Q1967.28 216.039 1964.78 215.228 L1964.78 210.83 Q1967.14 212.057 1969.43 212.682 Q1971.73 213.284 1973.97 213.284 Q1976.98 213.284 1978.6 212.266 Q1980.22 211.224 1980.22 209.349 Q1980.22 207.613 1979.04 206.687 Q1977.88 205.761 1973.93 204.904 L1972.44 204.557 Q1968.49 203.724 1966.73 202.011 Q1964.97 200.275 1964.97 197.266 Q1964.97 193.608 1967.56 191.618 Q1970.15 189.627 1974.92 189.627 Q1977.28 189.627 1979.36 189.974 Q1981.45 190.321 1983.21 191.016 Z" fill="#000000" fill-rule="nonzero" fill-opacity="1" /><path clip-path="url(#clip750)" d="M1993.92 203.238 Q1993.92 207.937 1995.85 210.622 Q1997.79 213.284 2001.17 213.284 Q2004.55 213.284 2006.49 210.622 Q2008.44 207.937 2008.44 203.238 Q2008.44 198.539 2006.49 195.877 Q2004.55 193.192 2001.17 193.192 Q1997.79 193.192 1995.85 195.877 Q1993.92 198.539 1993.92 203.238 M2008.44 212.289 Q2007.1 214.603 2005.04 215.738 Q2003 216.849 2000.13 216.849 Q1995.43 216.849 1992.47 213.099 Q1989.53 209.349 1989.53 203.238 Q1989.53 197.127 1992.47 193.377 Q1995.43 189.627 2000.13 189.627 Q2003 189.627 2005.04 190.761 Q2007.1 191.872 2008.44 194.187 L2008.44 190.252 L2012.7 190.252 L2012.7 226.039 L2008.44 226.039 L2008.44 212.289 Z" fill="#000000" fill-rule="nonzero" fill-opacity="1" /><path clip-path="url(#clip750)" d="M2041.17 224.048 L2041.17 227.358 L2016.54 227.358 L2016.54 224.048 L2041.17 224.048 Z" fill="#000000" fill-rule="nonzero" fill-opacity="1" /><path clip-path="url(#clip750)" d="M2045.17 180.159 L2049.43 180.159 L2049.43 216.178 L2045.17 216.178 L2045.17 180.159 Z" fill="#000000" fill-rule="nonzero" fill-opacity="1" /><path clip-path="url(#clip750)" d="M2058.35 190.252 L2062.61 190.252 L2062.61 216.178 L2058.35 216.178 L2058.35 190.252 M2058.35 180.159 L2062.61 180.159 L2062.61 185.553 L2058.35 185.553 L2058.35 180.159 Z" fill="#000000" fill-rule="nonzero" fill-opacity="1" /><path clip-path="url(#clip750)" d="M2071.36 180.159 L2075.64 180.159 L2075.64 201.432 L2088.35 190.252 L2093.79 190.252 L2080.04 202.381 L2094.36 216.178 L2088.81 216.178 L2075.64 203.516 L2075.64 216.178 L2071.36 216.178 L2071.36 180.159 Z" fill="#000000" fill-rule="nonzero" fill-opacity="1" /><path clip-path="url(#clip750)" d="M2119.46 202.15 L2119.46 204.233 L2099.87 204.233 Q2100.15 208.631 2102.51 210.946 Q2104.9 213.238 2109.13 213.238 Q2111.59 213.238 2113.88 212.636 Q2116.19 212.034 2118.46 210.83 L2118.46 214.858 Q2116.17 215.83 2113.76 216.34 Q2111.35 216.849 2108.88 216.849 Q2102.67 216.849 2099.04 213.238 Q2095.43 209.627 2095.43 203.469 Q2095.43 197.104 2098.85 193.377 Q2102.3 189.627 2108.14 189.627 Q2113.37 189.627 2116.4 193.006 Q2119.46 196.363 2119.46 202.15 M2115.2 200.9 Q2115.15 197.405 2113.23 195.321 Q2111.33 193.238 2108.18 193.238 Q2104.62 193.238 2102.47 195.252 Q2100.34 197.266 2100.01 200.923 L2115.2 200.9 Z" fill="#000000" fill-rule="nonzero" fill-opacity="1" /><path clip-path="url(#clip750)" d="M2126.45 180.159 L2130.71 180.159 L2130.71 216.178 L2126.45 216.178 L2126.45 180.159 Z" fill="#000000" fill-rule="nonzero" fill-opacity="1" /><path clip-path="url(#clip750)" d="M2139.62 190.252 L2143.88 190.252 L2143.88 216.178 L2139.62 216.178 L2139.62 190.252 M2139.62 180.159 L2143.88 180.159 L2143.88 185.553 L2139.62 185.553 L2139.62 180.159 Z" fill="#000000" fill-rule="nonzero" fill-opacity="1" /><path clip-path="url(#clip750)" d="M2174.34 200.529 L2174.34 216.178 L2170.08 216.178 L2170.08 200.668 Q2170.08 196.988 2168.65 195.159 Q2167.21 193.33 2164.34 193.33 Q2160.89 193.33 2158.9 195.53 Q2156.91 197.729 2156.91 201.525 L2156.91 216.178 L2152.63 216.178 L2152.63 180.159 L2156.91 180.159 L2156.91 194.28 Q2158.44 191.942 2160.5 190.784 Q2162.58 189.627 2165.29 189.627 Q2169.76 189.627 2172.05 192.405 Q2174.34 195.159 2174.34 200.529 Z" fill="#000000" fill-rule="nonzero" fill-opacity="1" /><path clip-path="url(#clip750)" d="M2192.88 193.238 Q2189.46 193.238 2187.47 195.923 Q2185.47 198.585 2185.47 203.238 Q2185.47 207.891 2187.44 210.576 Q2189.43 213.238 2192.88 213.238 Q2196.29 213.238 2198.28 210.553 Q2200.27 207.867 2200.27 203.238 Q2200.27 198.631 2198.28 195.946 Q2196.29 193.238 2192.88 193.238 M2192.88 189.627 Q2198.44 189.627 2201.61 193.238 Q2204.78 196.849 2204.78 203.238 Q2204.78 209.604 2201.61 213.238 Q2198.44 216.849 2192.88 216.849 Q2187.3 216.849 2184.13 213.238 Q2180.98 209.604 2180.98 203.238 Q2180.98 196.849 2184.13 193.238 Q2187.3 189.627 2192.88 189.627 Z" fill="#000000" fill-rule="nonzero" fill-opacity="1" /><path clip-path="url(#clip750)" d="M2221.89 193.238 Q2218.46 193.238 2216.47 195.923 Q2214.48 198.585 2214.48 203.238 Q2214.48 207.891 2216.45 210.576 Q2218.44 213.238 2221.89 213.238 Q2225.29 213.238 2227.28 210.553 Q2229.27 207.867 2229.27 203.238 Q2229.27 198.631 2227.28 195.946 Q2225.29 193.238 2221.89 193.238 M2221.89 189.627 Q2227.44 189.627 2230.61 193.238 Q2233.78 196.849 2233.78 203.238 Q2233.78 209.604 2230.61 213.238 Q2227.44 216.849 2221.89 216.849 Q2216.31 216.849 2213.14 213.238 Q2209.99 209.604 2209.99 203.238 Q2209.99 196.849 2213.14 193.238 Q2216.31 189.627 2221.89 189.627 Z" fill="#000000" fill-rule="nonzero" fill-opacity="1" /><path clip-path="url(#clip750)" d="M2257.91 194.187 L2257.91 180.159 L2262.16 180.159 L2262.16 216.178 L2257.91 216.178 L2257.91 212.289 Q2256.56 214.603 2254.5 215.738 Q2252.47 216.849 2249.59 216.849 Q2244.9 216.849 2241.93 213.099 Q2238.99 209.349 2238.99 203.238 Q2238.99 197.127 2241.93 193.377 Q2244.9 189.627 2249.59 189.627 Q2252.47 189.627 2254.5 190.761 Q2256.56 191.872 2257.91 194.187 M2243.39 203.238 Q2243.39 207.937 2245.31 210.622 Q2247.26 213.284 2250.64 213.284 Q2254.02 213.284 2255.96 210.622 Q2257.91 207.937 2257.91 203.238 Q2257.91 198.539 2255.96 195.877 Q2254.02 193.192 2250.64 193.192 Q2247.26 193.192 2245.31 195.877 Q2243.39 198.539 2243.39 203.238 Z" fill="#000000" fill-rule="nonzero" fill-opacity="1" /></svg>
