<?xml version="1.0" encoding="utf-8"?>
<svg xmlns="http://www.w3.org/2000/svg" xmlns:xlink="http://www.w3.org/1999/xlink" width="800" height="300" viewBox="0 0 3200 1200">
<defs>
  <clipPath id="clip680">
    <rect x="0" y="0" width="3200" height="1200"/>
  </clipPath>
</defs>
<path clip-path="url(#clip680)" d="M0 1200 L3200 1200 L3200 0 L0 0  Z" fill="#ffffff" fill-rule="evenodd" fill-opacity="1"/>
<defs>
  <clipPath id="clip681">
    <rect x="640" y="0" width="2241" height="1200"/>
  </clipPath>
</defs>
<path clip-path="url(#clip680)" d="M232.098 1105.57 L1522.59 1105.57 L1522.59 47.2441 L232.098 47.2441  Z" fill="#ffffff" fill-rule="evenodd" fill-opacity="1"/>
<defs>
  <clipPath id="clip682">
    <rect x="232" y="47" width="1291" height="1059"/>
  </clipPath>
</defs>
<polyline clip-path="url(#clip682)" style="stroke:#000000; stroke-linecap:round; stroke-linejoin:round; stroke-width:2; stroke-opacity:0.1; fill:none" points="232.098,1105.57 232.098,47.2441 "/>
<polyline clip-path="url(#clip682)" style="stroke:#000000; stroke-linecap:round; stroke-linejoin:round; stroke-width:2; stroke-opacity:0.1; fill:none" points="447.181,1105.57 447.181,47.2441 "/>
<polyline clip-path="url(#clip682)" style="stroke:#000000; stroke-linecap:round; stroke-linejoin:round; stroke-width:2; stroke-opacity:0.1; fill:none" points="662.263,1105.57 662.263,47.2441 "/>
<polyline clip-path="url(#clip682)" style="stroke:#000000; stroke-linecap:round; stroke-linejoin:round; stroke-width:2; stroke-opacity:0.1; fill:none" points="877.346,1105.57 877.346,47.2441 "/>
<polyline clip-path="url(#clip682)" style="stroke:#000000; stroke-linecap:round; stroke-linejoin:round; stroke-width:2; stroke-opacity:0.1; fill:none" points="1092.43,1105.57 1092.43,47.2441 "/>
<polyline clip-path="url(#clip682)" style="stroke:#000000; stroke-linecap:round; stroke-linejoin:round; stroke-width:2; stroke-opacity:0.1; fill:none" points="1307.51,1105.57 1307.51,47.2441 "/>
<polyline clip-path="url(#clip682)" style="stroke:#000000; stroke-linecap:round; stroke-linejoin:round; stroke-width:2; stroke-opacity:0.1; fill:none" points="232.098,977.252 1522.59,977.252 "/>
<polyline clip-path="url(#clip682)" style="stroke:#000000; stroke-linecap:round; stroke-linejoin:round; stroke-width:2; stroke-opacity:0.1; fill:none" points="232.098,817.794 1522.59,817.794 "/>
<polyline clip-path="url(#clip682)" style="stroke:#000000; stroke-linecap:round; stroke-linejoin:round; stroke-width:2; stroke-opacity:0.1; fill:none" points="232.098,658.335 1522.59,658.335 "/>
<polyline clip-path="url(#clip682)" style="stroke:#000000; stroke-linecap:round; stroke-linejoin:round; stroke-width:2; stroke-opacity:0.1; fill:none" points="232.098,498.876 1522.59,498.876 "/>
<polyline clip-path="url(#clip682)" style="stroke:#000000; stroke-linecap:round; stroke-linejoin:round; stroke-width:2; stroke-opacity:0.1; fill:none" points="232.098,339.418 1522.59,339.418 "/>
<polyline clip-path="url(#clip682)" style="stroke:#000000; stroke-linecap:round; stroke-linejoin:round; stroke-width:2; stroke-opacity:0.1; fill:none" points="232.098,179.959 1522.59,179.959 "/>
<polyline clip-path="url(#clip680)" style="stroke:#000000; stroke-linecap:round; stroke-linejoin:round; stroke-width:4; stroke-opacity:1; fill:none" points="232.098,1105.57 1522.59,1105.57 "/>
<polyline clip-path="url(#clip680)" style="stroke:#000000; stroke-linecap:round; stroke-linejoin:round; stroke-width:4; stroke-opacity:1; fill:none" points="232.098,1105.57 232.098,1086.67 "/>
<polyline clip-path="url(#clip680)" style="stroke:#000000; stroke-linecap:round; stroke-linejoin:round; stroke-width:4; stroke-opacity:1; fill:none" points="447.181,1105.57 447.181,1086.67 "/>
<polyline clip-path="url(#clip680)" style="stroke:#000000; stroke-linecap:round; stroke-linejoin:round; stroke-width:4; stroke-opacity:1; fill:none" points="662.263,1105.57 662.263,1086.67 "/>
<polyline clip-path="url(#clip680)" style="stroke:#000000; stroke-linecap:round; stroke-linejoin:round; stroke-width:4; stroke-opacity:1; fill:none" points="877.346,1105.57 877.346,1086.67 "/>
<polyline clip-path="url(#clip680)" style="stroke:#000000; stroke-linecap:round; stroke-linejoin:round; stroke-width:4; stroke-opacity:1; fill:none" points="1092.43,1105.57 1092.43,1086.67 "/>
<polyline clip-path="url(#clip680)" style="stroke:#000000; stroke-linecap:round; stroke-linejoin:round; stroke-width:4; stroke-opacity:1; fill:none" points="1307.51,1105.57 1307.51,1086.67 "/>
<path clip-path="url(#clip680)" d="M194.401 1142.89 Q190.79 1142.89 188.962 1146.45 Q187.156 1149.99 187.156 1157.12 Q187.156 1164.23 188.962 1167.79 Q190.79 1171.34 194.401 1171.34 Q198.036 1171.34 199.841 1167.79 Q201.67 1164.23 201.67 1157.12 Q201.67 1149.99 199.841 1146.45 Q198.036 1142.89 194.401 1142.89 M194.401 1139.18 Q200.211 1139.18 203.267 1143.79 Q206.346 1148.37 206.346 1157.12 Q206.346 1165.85 203.267 1170.46 Q200.211 1175.04 194.401 1175.04 Q188.591 1175.04 185.512 1170.46 Q182.457 1165.85 182.457 1157.12 Q182.457 1148.37 185.512 1143.79 Q188.591 1139.18 194.401 1139.18 Z" fill="#000000" fill-rule="nonzero" fill-opacity="1" /><path clip-path="url(#clip680)" d="M214.563 1168.49 L219.447 1168.49 L219.447 1174.37 L214.563 1174.37 L214.563 1168.49 Z" fill="#000000" fill-rule="nonzero" fill-opacity="1" /><path clip-path="url(#clip680)" d="M229.771 1173.65 L229.771 1169.39 Q231.531 1170.22 233.336 1170.66 Q235.142 1171.1 236.878 1171.1 Q241.508 1171.1 243.938 1168 Q246.392 1164.88 246.739 1158.53 Q245.396 1160.53 243.336 1161.59 Q241.276 1162.65 238.776 1162.65 Q233.591 1162.65 230.559 1159.53 Q227.549 1156.38 227.549 1150.94 Q227.549 1145.62 230.697 1142.4 Q233.846 1139.18 239.077 1139.18 Q245.072 1139.18 248.22 1143.79 Q251.392 1148.37 251.392 1157.12 Q251.392 1165.29 247.503 1170.18 Q243.637 1175.04 237.086 1175.04 Q235.327 1175.04 233.521 1174.69 Q231.716 1174.34 229.771 1173.65 M239.077 1159 Q242.225 1159 244.054 1156.84 Q245.906 1154.69 245.906 1150.94 Q245.906 1147.22 244.054 1145.06 Q242.225 1142.89 239.077 1142.89 Q235.929 1142.89 234.077 1145.06 Q232.248 1147.22 232.248 1150.94 Q232.248 1154.69 234.077 1156.84 Q235.929 1159 239.077 1159 Z" fill="#000000" fill-rule="nonzero" fill-opacity="1" /><path clip-path="url(#clip680)" d="M269.794 1142.89 Q266.183 1142.89 264.355 1146.45 Q262.549 1149.99 262.549 1157.12 Q262.549 1164.23 264.355 1167.79 Q266.183 1171.34 269.794 1171.34 Q273.429 1171.34 275.234 1167.79 Q277.063 1164.23 277.063 1157.12 Q277.063 1149.99 275.234 1146.45 Q273.429 1142.89 269.794 1142.89 M269.794 1139.18 Q275.605 1139.18 278.66 1143.79 Q281.739 1148.37 281.739 1157.12 Q281.739 1165.85 278.66 1170.46 Q275.605 1175.04 269.794 1175.04 Q263.984 1175.04 260.906 1170.46 Q257.85 1165.85 257.85 1157.12 Q257.85 1148.37 260.906 1143.79 Q263.984 1139.18 269.794 1139.18 Z" fill="#000000" fill-rule="nonzero" fill-opacity="1" /><path clip-path="url(#clip680)" d="M409.982 1142.89 Q406.371 1142.89 404.542 1146.45 Q402.736 1149.99 402.736 1157.12 Q402.736 1164.23 404.542 1167.79 Q406.371 1171.34 409.982 1171.34 Q413.616 1171.34 415.421 1167.79 Q417.25 1164.23 417.25 1157.12 Q417.25 1149.99 415.421 1146.45 Q413.616 1142.89 409.982 1142.89 M409.982 1139.18 Q415.792 1139.18 418.847 1143.79 Q421.926 1148.37 421.926 1157.12 Q421.926 1165.85 418.847 1170.46 Q415.792 1175.04 409.982 1175.04 Q404.172 1175.04 401.093 1170.46 Q398.037 1165.85 398.037 1157.12 Q398.037 1148.37 401.093 1143.79 Q404.172 1139.18 409.982 1139.18 Z" fill="#000000" fill-rule="nonzero" fill-opacity="1" /><path clip-path="url(#clip680)" d="M430.144 1168.49 L435.028 1168.49 L435.028 1174.37 L430.144 1174.37 L430.144 1168.49 Z" fill="#000000" fill-rule="nonzero" fill-opacity="1" /><path clip-path="url(#clip680)" d="M445.352 1173.65 L445.352 1169.39 Q447.111 1170.22 448.917 1170.66 Q450.722 1171.1 452.458 1171.1 Q457.088 1171.1 459.518 1168 Q461.972 1164.88 462.319 1158.53 Q460.977 1160.53 458.917 1161.59 Q456.856 1162.65 454.356 1162.65 Q449.171 1162.65 446.139 1159.53 Q443.13 1156.38 443.13 1150.94 Q443.13 1145.62 446.278 1142.4 Q449.426 1139.18 454.657 1139.18 Q460.653 1139.18 463.801 1143.79 Q466.972 1148.37 466.972 1157.12 Q466.972 1165.29 463.083 1170.18 Q459.218 1175.04 452.667 1175.04 Q450.907 1175.04 449.102 1174.69 Q447.296 1174.34 445.352 1173.65 M454.657 1159 Q457.806 1159 459.634 1156.84 Q461.486 1154.69 461.486 1150.94 Q461.486 1147.22 459.634 1145.06 Q457.806 1142.89 454.657 1142.89 Q451.509 1142.89 449.657 1145.06 Q447.829 1147.22 447.829 1150.94 Q447.829 1154.69 449.657 1156.84 Q451.509 1159 454.657 1159 Z" fill="#000000" fill-rule="nonzero" fill-opacity="1" /><path clip-path="url(#clip680)" d="M475.421 1139.81 L493.778 1139.81 L493.778 1143.74 L479.704 1143.74 L479.704 1152.22 Q480.722 1151.87 481.741 1151.71 Q482.759 1151.52 483.778 1151.52 Q489.565 1151.52 492.944 1154.69 Q496.324 1157.86 496.324 1163.28 Q496.324 1168.86 492.852 1171.96 Q489.379 1175.04 483.06 1175.04 Q480.884 1175.04 478.616 1174.67 Q476.37 1174.3 473.963 1173.56 L473.963 1168.86 Q476.046 1169.99 478.268 1170.55 Q480.491 1171.1 482.967 1171.1 Q486.972 1171.1 489.31 1169 Q491.648 1166.89 491.648 1163.28 Q491.648 1159.67 489.31 1157.56 Q486.972 1155.46 482.967 1155.46 Q481.092 1155.46 479.217 1155.87 Q477.366 1156.29 475.421 1157.17 L475.421 1139.81 Z" fill="#000000" fill-rule="nonzero" fill-opacity="1" /><path clip-path="url(#clip680)" d="M614.335 1170.43 L621.974 1170.43 L621.974 1144.07 L613.664 1145.73 L613.664 1141.47 L621.928 1139.81 L626.604 1139.81 L626.604 1170.43 L634.243 1170.43 L634.243 1174.37 L614.335 1174.37 L614.335 1170.43 Z" fill="#000000" fill-rule="nonzero" fill-opacity="1" /><path clip-path="url(#clip680)" d="M643.687 1168.49 L648.571 1168.49 L648.571 1174.37 L643.687 1174.37 L643.687 1168.49 Z" fill="#000000" fill-rule="nonzero" fill-opacity="1" /><path clip-path="url(#clip680)" d="M668.756 1142.89 Q665.145 1142.89 663.316 1146.45 Q661.511 1149.99 661.511 1157.12 Q661.511 1164.23 663.316 1167.79 Q665.145 1171.34 668.756 1171.34 Q672.391 1171.34 674.196 1167.79 Q676.025 1164.23 676.025 1157.12 Q676.025 1149.99 674.196 1146.45 Q672.391 1142.89 668.756 1142.89 M668.756 1139.18 Q674.566 1139.18 677.622 1143.79 Q680.701 1148.37 680.701 1157.12 Q680.701 1165.85 677.622 1170.46 Q674.566 1175.04 668.756 1175.04 Q662.946 1175.04 659.867 1170.46 Q656.812 1165.85 656.812 1157.12 Q656.812 1148.37 659.867 1143.79 Q662.946 1139.18 668.756 1139.18 Z" fill="#000000" fill-rule="nonzero" fill-opacity="1" /><path clip-path="url(#clip680)" d="M698.918 1142.89 Q695.307 1142.89 693.478 1146.45 Q691.673 1149.99 691.673 1157.12 Q691.673 1164.23 693.478 1167.79 Q695.307 1171.34 698.918 1171.34 Q702.552 1171.34 704.358 1167.79 Q706.187 1164.23 706.187 1157.12 Q706.187 1149.99 704.358 1146.45 Q702.552 1142.89 698.918 1142.89 M698.918 1139.18 Q704.728 1139.18 707.784 1143.79 Q710.863 1148.37 710.863 1157.12 Q710.863 1165.85 707.784 1170.46 Q704.728 1175.04 698.918 1175.04 Q693.108 1175.04 690.029 1170.46 Q686.974 1165.85 686.974 1157.12 Q686.974 1148.37 690.029 1143.79 Q693.108 1139.18 698.918 1139.18 Z" fill="#000000" fill-rule="nonzero" fill-opacity="1" /><path clip-path="url(#clip680)" d="M829.916 1170.43 L837.554 1170.43 L837.554 1144.07 L829.244 1145.73 L829.244 1141.47 L837.508 1139.81 L842.184 1139.81 L842.184 1170.43 L849.823 1170.43 L849.823 1174.37 L829.916 1174.37 L829.916 1170.43 Z" fill="#000000" fill-rule="nonzero" fill-opacity="1" /><path clip-path="url(#clip680)" d="M859.267 1168.49 L864.152 1168.49 L864.152 1174.37 L859.267 1174.37 L859.267 1168.49 Z" fill="#000000" fill-rule="nonzero" fill-opacity="1" /><path clip-path="url(#clip680)" d="M884.337 1142.89 Q880.726 1142.89 878.897 1146.45 Q877.091 1149.99 877.091 1157.12 Q877.091 1164.23 878.897 1167.79 Q880.726 1171.34 884.337 1171.34 Q887.971 1171.34 889.776 1167.79 Q891.605 1164.23 891.605 1157.12 Q891.605 1149.99 889.776 1146.45 Q887.971 1142.89 884.337 1142.89 M884.337 1139.18 Q890.147 1139.18 893.202 1143.79 Q896.281 1148.37 896.281 1157.12 Q896.281 1165.85 893.202 1170.46 Q890.147 1175.04 884.337 1175.04 Q878.527 1175.04 875.448 1170.46 Q872.392 1165.85 872.392 1157.12 Q872.392 1148.37 875.448 1143.79 Q878.527 1139.18 884.337 1139.18 Z" fill="#000000" fill-rule="nonzero" fill-opacity="1" /><path clip-path="url(#clip680)" d="M904.545 1139.81 L922.901 1139.81 L922.901 1143.74 L908.827 1143.74 L908.827 1152.22 Q909.846 1151.87 910.864 1151.71 Q911.883 1151.52 912.901 1151.52 Q918.688 1151.52 922.068 1154.69 Q925.448 1157.86 925.448 1163.28 Q925.448 1168.86 921.975 1171.96 Q918.503 1175.04 912.184 1175.04 Q910.008 1175.04 907.739 1174.67 Q905.494 1174.3 903.087 1173.56 L903.087 1168.86 Q905.17 1169.99 907.392 1170.55 Q909.614 1171.1 912.091 1171.1 Q916.096 1171.1 918.434 1169 Q920.772 1166.89 920.772 1163.28 Q920.772 1159.67 918.434 1157.56 Q916.096 1155.46 912.091 1155.46 Q910.216 1155.46 908.341 1155.87 Q906.489 1156.29 904.545 1157.17 L904.545 1139.81 Z" fill="#000000" fill-rule="nonzero" fill-opacity="1" /><path clip-path="url(#clip680)" d="M1044.5 1170.43 L1052.14 1170.43 L1052.14 1144.07 L1043.83 1145.73 L1043.83 1141.47 L1052.09 1139.81 L1056.77 1139.81 L1056.77 1170.43 L1064.41 1170.43 L1064.41 1174.37 L1044.5 1174.37 L1044.5 1170.43 Z" fill="#000000" fill-rule="nonzero" fill-opacity="1" /><path clip-path="url(#clip680)" d="M1073.85 1168.49 L1078.74 1168.49 L1078.74 1174.37 L1073.85 1174.37 L1073.85 1168.49 Z" fill="#000000" fill-rule="nonzero" fill-opacity="1" /><path clip-path="url(#clip680)" d="M1089.73 1170.43 L1097.37 1170.43 L1097.37 1144.07 L1089.06 1145.73 L1089.06 1141.47 L1097.32 1139.81 L1102 1139.81 L1102 1170.43 L1109.64 1170.43 L1109.64 1174.37 L1089.73 1174.37 L1089.73 1170.43 Z" fill="#000000" fill-rule="nonzero" fill-opacity="1" /><path clip-path="url(#clip680)" d="M1129.08 1142.89 Q1125.47 1142.89 1123.64 1146.45 Q1121.84 1149.99 1121.84 1157.12 Q1121.84 1164.23 1123.64 1167.79 Q1125.47 1171.34 1129.08 1171.34 Q1132.72 1171.34 1134.52 1167.79 Q1136.35 1164.23 1136.35 1157.12 Q1136.35 1149.99 1134.52 1146.45 Q1132.72 1142.89 1129.08 1142.89 M1129.08 1139.18 Q1134.89 1139.18 1137.95 1143.79 Q1141.03 1148.37 1141.03 1157.12 Q1141.03 1165.85 1137.95 1170.46 Q1134.89 1175.04 1129.08 1175.04 Q1123.27 1175.04 1120.19 1170.46 Q1117.14 1165.85 1117.14 1157.12 Q1117.14 1148.37 1120.19 1143.79 Q1123.27 1139.18 1129.08 1139.18 Z" fill="#000000" fill-rule="nonzero" fill-opacity="1" /><path clip-path="url(#clip680)" d="M1260.08 1170.43 L1267.72 1170.43 L1267.72 1144.07 L1259.41 1145.73 L1259.41 1141.47 L1267.67 1139.81 L1272.35 1139.81 L1272.35 1170.43 L1279.99 1170.43 L1279.99 1174.37 L1260.08 1174.37 L1260.08 1170.43 Z" fill="#000000" fill-rule="nonzero" fill-opacity="1" /><path clip-path="url(#clip680)" d="M1289.43 1168.49 L1294.32 1168.49 L1294.32 1174.37 L1289.43 1174.37 L1289.43 1168.49 Z" fill="#000000" fill-rule="nonzero" fill-opacity="1" /><path clip-path="url(#clip680)" d="M1305.31 1170.43 L1312.95 1170.43 L1312.95 1144.07 L1304.64 1145.73 L1304.64 1141.47 L1312.9 1139.81 L1317.58 1139.81 L1317.58 1170.43 L1325.22 1170.43 L1325.22 1174.37 L1305.31 1174.37 L1305.31 1170.43 Z" fill="#000000" fill-rule="nonzero" fill-opacity="1" /><path clip-path="url(#clip680)" d="M1334.71 1139.81 L1353.07 1139.81 L1353.07 1143.74 L1338.99 1143.74 L1338.99 1152.22 Q1340.01 1151.87 1341.03 1151.71 Q1342.05 1151.52 1343.07 1151.52 Q1348.85 1151.52 1352.23 1154.69 Q1355.61 1157.86 1355.61 1163.28 Q1355.61 1168.86 1352.14 1171.96 Q1348.67 1175.04 1342.35 1175.04 Q1340.17 1175.04 1337.9 1174.67 Q1335.66 1174.3 1333.25 1173.56 L1333.25 1168.86 Q1335.34 1169.99 1337.56 1170.55 Q1339.78 1171.1 1342.26 1171.1 Q1346.26 1171.1 1348.6 1169 Q1350.94 1166.89 1350.94 1163.28 Q1350.94 1159.67 1348.6 1157.56 Q1346.26 1155.46 1342.26 1155.46 Q1340.38 1155.46 1338.51 1155.87 Q1336.65 1156.29 1334.71 1157.17 L1334.71 1139.81 Z" fill="#000000" fill-rule="nonzero" fill-opacity="1" /><polyline clip-path="url(#clip680)" style="stroke:#000000; stroke-linecap:round; stroke-linejoin:round; stroke-width:4; stroke-opacity:1; fill:none" points="232.098,1105.57 232.098,47.2441 "/>
<polyline clip-path="url(#clip680)" style="stroke:#000000; stroke-linecap:round; stroke-linejoin:round; stroke-width:4; stroke-opacity:1; fill:none" points="232.098,977.252 250.996,977.252 "/>
<polyline clip-path="url(#clip680)" style="stroke:#000000; stroke-linecap:round; stroke-linejoin:round; stroke-width:4; stroke-opacity:1; fill:none" points="232.098,817.794 250.996,817.794 "/>
<polyline clip-path="url(#clip680)" style="stroke:#000000; stroke-linecap:round; stroke-linejoin:round; stroke-width:4; stroke-opacity:1; fill:none" points="232.098,658.335 250.996,658.335 "/>
<polyline clip-path="url(#clip680)" style="stroke:#000000; stroke-linecap:round; stroke-linejoin:round; stroke-width:4; stroke-opacity:1; fill:none" points="232.098,498.876 250.996,498.876 "/>
<polyline clip-path="url(#clip680)" style="stroke:#000000; stroke-linecap:round; stroke-linejoin:round; stroke-width:4; stroke-opacity:1; fill:none" points="232.098,339.418 250.996,339.418 "/>
<polyline clip-path="url(#clip680)" style="stroke:#000000; stroke-linecap:round; stroke-linejoin:round; stroke-width:4; stroke-opacity:1; fill:none" points="232.098,179.959 250.996,179.959 "/>
<path clip-path="url(#clip680)" d="M46.9921 977.704 L76.6679 977.704 L76.6679 981.639 L46.9921 981.639 L46.9921 977.704 Z" fill="#000000" fill-rule="nonzero" fill-opacity="1" /><path clip-path="url(#clip680)" d="M90.7882 990.597 L107.108 990.597 L107.108 994.532 L85.1632 994.532 L85.1632 990.597 Q87.8252 987.843 92.4085 983.213 Q97.015 978.56 98.1956 977.218 Q100.441 974.694 101.321 972.958 Q102.223 971.199 102.223 969.509 Q102.223 966.755 100.279 965.019 Q98.3576 963.282 95.2558 963.282 Q93.0567 963.282 90.603 964.046 Q88.1725 964.81 85.3947 966.361 L85.3947 961.639 Q88.2188 960.505 90.6724 959.926 Q93.1261 959.347 95.1632 959.347 Q100.534 959.347 103.728 962.032 Q106.922 964.718 106.922 969.208 Q106.922 971.338 106.112 973.259 Q105.325 975.157 103.219 977.75 Q102.64 978.421 99.5381 981.639 Q96.4363 984.833 90.7882 990.597 Z" fill="#000000" fill-rule="nonzero" fill-opacity="1" /><path clip-path="url(#clip680)" d="M116.969 959.972 L135.325 959.972 L135.325 963.907 L121.251 963.907 L121.251 972.38 Q122.27 972.032 123.288 971.87 Q124.307 971.685 125.325 971.685 Q131.112 971.685 134.492 974.856 Q137.871 978.028 137.871 983.444 Q137.871 989.023 134.399 992.125 Q130.927 995.204 124.607 995.204 Q122.432 995.204 120.163 994.833 Q117.918 994.463 115.51 993.722 L115.51 989.023 Q117.594 990.157 119.816 990.713 Q122.038 991.268 124.515 991.268 Q128.519 991.268 130.857 989.162 Q133.195 987.055 133.195 983.444 Q133.195 979.833 130.857 977.727 Q128.519 975.62 124.515 975.62 Q122.64 975.62 120.765 976.037 Q118.913 976.454 116.969 977.333 L116.969 959.972 Z" fill="#000000" fill-rule="nonzero" fill-opacity="1" /><path clip-path="url(#clip680)" d="M147.084 988.653 L151.968 988.653 L151.968 994.532 L147.084 994.532 L147.084 988.653 Z" fill="#000000" fill-rule="nonzero" fill-opacity="1" /><path clip-path="url(#clip680)" d="M172.153 963.051 Q168.542 963.051 166.714 966.616 Q164.908 970.157 164.908 977.287 Q164.908 984.393 166.714 987.958 Q168.542 991.5 172.153 991.5 Q175.788 991.5 177.593 987.958 Q179.422 984.393 179.422 977.287 Q179.422 970.157 177.593 966.616 Q175.788 963.051 172.153 963.051 M172.153 959.347 Q177.964 959.347 181.019 963.954 Q184.098 968.537 184.098 977.287 Q184.098 986.014 181.019 990.62 Q177.964 995.204 172.153 995.204 Q166.343 995.204 163.265 990.62 Q160.209 986.014 160.209 977.287 Q160.209 968.537 163.265 963.954 Q166.343 959.347 172.153 959.347 Z" fill="#000000" fill-rule="nonzero" fill-opacity="1" /><path clip-path="url(#clip680)" d="M47.9875 818.245 L77.6633 818.245 L77.6633 822.18 L47.9875 822.18 L47.9875 818.245 Z" fill="#000000" fill-rule="nonzero" fill-opacity="1" /><path clip-path="url(#clip680)" d="M91.7836 831.138 L108.103 831.138 L108.103 835.074 L86.1586 835.074 L86.1586 831.138 Q88.8206 828.384 93.4039 823.754 Q98.0104 819.101 99.1909 817.759 Q101.436 815.236 102.316 813.5 Q103.219 811.74 103.219 810.051 Q103.219 807.296 101.274 805.56 Q99.353 803.824 96.2511 803.824 Q94.0521 803.824 91.5984 804.588 Q89.1678 805.352 86.3901 806.902 L86.3901 802.18 Q89.2141 801.046 91.6678 800.467 Q94.1215 799.889 96.1585 799.889 Q101.529 799.889 104.723 802.574 Q107.918 805.259 107.918 809.75 Q107.918 811.879 107.108 813.801 Q106.321 815.699 104.214 818.291 Q103.635 818.963 100.534 822.18 Q97.4317 825.375 91.7836 831.138 Z" fill="#000000" fill-rule="nonzero" fill-opacity="1" /><path clip-path="url(#clip680)" d="M121.945 831.138 L138.265 831.138 L138.265 835.074 L116.32 835.074 L116.32 831.138 Q118.982 828.384 123.566 823.754 Q128.172 819.101 129.353 817.759 Q131.598 815.236 132.478 813.5 Q133.381 811.74 133.381 810.051 Q133.381 807.296 131.436 805.56 Q129.515 803.824 126.413 803.824 Q124.214 803.824 121.76 804.588 Q119.33 805.352 116.552 806.902 L116.552 802.18 Q119.376 801.046 121.83 800.467 Q124.283 799.889 126.32 799.889 Q131.691 799.889 134.885 802.574 Q138.08 805.259 138.08 809.75 Q138.08 811.879 137.269 813.801 Q136.482 815.699 134.376 818.291 Q133.797 818.963 130.695 822.18 Q127.594 825.375 121.945 831.138 Z" fill="#000000" fill-rule="nonzero" fill-opacity="1" /><path clip-path="url(#clip680)" d="M148.08 829.194 L152.964 829.194 L152.964 835.074 L148.08 835.074 L148.08 829.194 Z" fill="#000000" fill-rule="nonzero" fill-opacity="1" /><path clip-path="url(#clip680)" d="M163.195 800.514 L181.552 800.514 L181.552 804.449 L167.478 804.449 L167.478 812.921 Q168.496 812.574 169.515 812.412 Q170.533 812.227 171.552 812.227 Q177.339 812.227 180.718 815.398 Q184.098 818.569 184.098 823.986 Q184.098 829.564 180.626 832.666 Q177.153 835.745 170.834 835.745 Q168.658 835.745 166.39 835.375 Q164.144 835.004 161.737 834.263 L161.737 829.564 Q163.82 830.699 166.042 831.254 Q168.265 831.81 170.741 831.81 Q174.746 831.81 177.084 829.703 Q179.422 827.597 179.422 823.986 Q179.422 820.375 177.084 818.268 Q174.746 816.162 170.741 816.162 Q168.866 816.162 166.991 816.578 Q165.14 816.995 163.195 817.875 L163.195 800.514 Z" fill="#000000" fill-rule="nonzero" fill-opacity="1" /><path clip-path="url(#clip680)" d="M46.9921 658.786 L76.6679 658.786 L76.6679 662.722 L46.9921 662.722 L46.9921 658.786 Z" fill="#000000" fill-rule="nonzero" fill-opacity="1" /><path clip-path="url(#clip680)" d="M90.7882 671.68 L107.108 671.68 L107.108 675.615 L85.1632 675.615 L85.1632 671.68 Q87.8252 668.925 92.4085 664.296 Q97.015 659.643 98.1956 658.3 Q100.441 655.777 101.321 654.041 Q102.223 652.282 102.223 650.592 Q102.223 647.837 100.279 646.101 Q98.3576 644.365 95.2558 644.365 Q93.0567 644.365 90.603 645.129 Q88.1725 645.893 85.3947 647.444 L85.3947 642.722 Q88.2188 641.587 90.6724 641.009 Q93.1261 640.43 95.1632 640.43 Q100.534 640.43 103.728 643.115 Q106.922 645.8 106.922 650.291 Q106.922 652.421 106.112 654.342 Q105.325 656.24 103.219 658.833 Q102.64 659.504 99.5381 662.722 Q96.4363 665.916 90.7882 671.68 Z" fill="#000000" fill-rule="nonzero" fill-opacity="1" /><path clip-path="url(#clip680)" d="M126.922 644.134 Q123.311 644.134 121.482 647.698 Q119.677 651.24 119.677 658.37 Q119.677 665.476 121.482 669.041 Q123.311 672.583 126.922 672.583 Q130.556 672.583 132.362 669.041 Q134.191 665.476 134.191 658.37 Q134.191 651.24 132.362 647.698 Q130.556 644.134 126.922 644.134 M126.922 640.43 Q132.732 640.43 135.788 645.036 Q138.867 649.62 138.867 658.37 Q138.867 667.096 135.788 671.703 Q132.732 676.286 126.922 676.286 Q121.112 676.286 118.033 671.703 Q114.978 667.096 114.978 658.37 Q114.978 649.62 118.033 645.036 Q121.112 640.43 126.922 640.43 Z" fill="#000000" fill-rule="nonzero" fill-opacity="1" /><path clip-path="url(#clip680)" d="M147.084 669.735 L151.968 669.735 L151.968 675.615 L147.084 675.615 L147.084 669.735 Z" fill="#000000" fill-rule="nonzero" fill-opacity="1" /><path clip-path="url(#clip680)" d="M172.153 644.134 Q168.542 644.134 166.714 647.698 Q164.908 651.24 164.908 658.37 Q164.908 665.476 166.714 669.041 Q168.542 672.583 172.153 672.583 Q175.788 672.583 177.593 669.041 Q179.422 665.476 179.422 658.37 Q179.422 651.24 177.593 647.698 Q175.788 644.134 172.153 644.134 M172.153 640.43 Q177.964 640.43 181.019 645.036 Q184.098 649.62 184.098 658.37 Q184.098 667.096 181.019 671.703 Q177.964 676.286 172.153 676.286 Q166.343 676.286 163.265 671.703 Q160.209 667.096 160.209 658.37 Q160.209 649.62 163.265 645.036 Q166.343 640.43 172.153 640.43 Z" fill="#000000" fill-rule="nonzero" fill-opacity="1" /><path clip-path="url(#clip680)" d="M47.9875 499.328 L77.6633 499.328 L77.6633 503.263 L47.9875 503.263 L47.9875 499.328 Z" fill="#000000" fill-rule="nonzero" fill-opacity="1" /><path clip-path="url(#clip680)" d="M88.566 512.221 L96.2048 512.221 L96.2048 485.856 L87.8947 487.522 L87.8947 483.263 L96.1585 481.596 L100.834 481.596 L100.834 512.221 L108.473 512.221 L108.473 516.156 L88.566 516.156 L88.566 512.221 Z" fill="#000000" fill-rule="nonzero" fill-opacity="1" /><path clip-path="url(#clip680)" d="M116.737 481.596 L138.959 481.596 L138.959 483.587 L126.413 516.156 L121.529 516.156 L133.334 485.531 L116.737 485.531 L116.737 481.596 Z" fill="#000000" fill-rule="nonzero" fill-opacity="1" /><path clip-path="url(#clip680)" d="M148.08 510.277 L152.964 510.277 L152.964 516.156 L148.08 516.156 L148.08 510.277 Z" fill="#000000" fill-rule="nonzero" fill-opacity="1" /><path clip-path="url(#clip680)" d="M163.195 481.596 L181.552 481.596 L181.552 485.531 L167.478 485.531 L167.478 494.004 Q168.496 493.656 169.515 493.494 Q170.533 493.309 171.552 493.309 Q177.339 493.309 180.718 496.48 Q184.098 499.652 184.098 505.068 Q184.098 510.647 180.626 513.749 Q177.153 516.828 170.834 516.828 Q168.658 516.828 166.39 516.457 Q164.144 516.087 161.737 515.346 L161.737 510.647 Q163.82 511.781 166.042 512.337 Q168.265 512.892 170.741 512.892 Q174.746 512.892 177.084 510.786 Q179.422 508.679 179.422 505.068 Q179.422 501.457 177.084 499.351 Q174.746 497.244 170.741 497.244 Q168.866 497.244 166.991 497.661 Q165.14 498.078 163.195 498.957 L163.195 481.596 Z" fill="#000000" fill-rule="nonzero" fill-opacity="1" /><path clip-path="url(#clip680)" d="M46.9921 339.869 L76.6679 339.869 L76.6679 343.804 L46.9921 343.804 L46.9921 339.869 Z" fill="#000000" fill-rule="nonzero" fill-opacity="1" /><path clip-path="url(#clip680)" d="M87.5706 352.762 L95.2095 352.762 L95.2095 326.397 L86.8993 328.064 L86.8993 323.804 L95.1632 322.138 L99.8391 322.138 L99.8391 352.762 L107.478 352.762 L107.478 356.698 L87.5706 356.698 L87.5706 352.762 Z" fill="#000000" fill-rule="nonzero" fill-opacity="1" /><path clip-path="url(#clip680)" d="M116.969 322.138 L135.325 322.138 L135.325 326.073 L121.251 326.073 L121.251 334.545 Q122.27 334.198 123.288 334.036 Q124.307 333.851 125.325 333.851 Q131.112 333.851 134.492 337.022 Q137.871 340.193 137.871 345.61 Q137.871 351.188 134.399 354.29 Q130.927 357.369 124.607 357.369 Q122.432 357.369 120.163 356.999 Q117.918 356.628 115.51 355.887 L115.51 351.188 Q117.594 352.323 119.816 352.878 Q122.038 353.434 124.515 353.434 Q128.519 353.434 130.857 351.327 Q133.195 349.221 133.195 345.61 Q133.195 341.999 130.857 339.892 Q128.519 337.786 124.515 337.786 Q122.64 337.786 120.765 338.202 Q118.913 338.619 116.969 339.499 L116.969 322.138 Z" fill="#000000" fill-rule="nonzero" fill-opacity="1" /><path clip-path="url(#clip680)" d="M147.084 350.818 L151.968 350.818 L151.968 356.698 L147.084 356.698 L147.084 350.818 Z" fill="#000000" fill-rule="nonzero" fill-opacity="1" /><path clip-path="url(#clip680)" d="M172.153 325.216 Q168.542 325.216 166.714 328.781 Q164.908 332.323 164.908 339.452 Q164.908 346.559 166.714 350.124 Q168.542 353.665 172.153 353.665 Q175.788 353.665 177.593 350.124 Q179.422 346.559 179.422 339.452 Q179.422 332.323 177.593 328.781 Q175.788 325.216 172.153 325.216 M172.153 321.513 Q177.964 321.513 181.019 326.119 Q184.098 330.702 184.098 339.452 Q184.098 348.179 181.019 352.786 Q177.964 357.369 172.153 357.369 Q166.343 357.369 163.265 352.786 Q160.209 348.179 160.209 339.452 Q160.209 330.702 163.265 326.119 Q166.343 321.513 172.153 321.513 Z" fill="#000000" fill-rule="nonzero" fill-opacity="1" /><path clip-path="url(#clip680)" d="M47.9875 180.41 L77.6633 180.41 L77.6633 184.346 L47.9875 184.346 L47.9875 180.41 Z" fill="#000000" fill-rule="nonzero" fill-opacity="1" /><path clip-path="url(#clip680)" d="M88.566 193.304 L96.2048 193.304 L96.2048 166.938 L87.8947 168.605 L87.8947 164.346 L96.1585 162.679 L100.834 162.679 L100.834 193.304 L108.473 193.304 L108.473 197.239 L88.566 197.239 L88.566 193.304 Z" fill="#000000" fill-rule="nonzero" fill-opacity="1" /><path clip-path="url(#clip680)" d="M121.945 193.304 L138.265 193.304 L138.265 197.239 L116.32 197.239 L116.32 193.304 Q118.982 190.549 123.566 185.92 Q128.172 181.267 129.353 179.924 Q131.598 177.401 132.478 175.665 Q133.381 173.906 133.381 172.216 Q133.381 169.461 131.436 167.725 Q129.515 165.989 126.413 165.989 Q124.214 165.989 121.76 166.753 Q119.33 167.517 116.552 169.068 L116.552 164.346 Q119.376 163.211 121.83 162.633 Q124.283 162.054 126.32 162.054 Q131.691 162.054 134.885 164.739 Q138.08 167.424 138.08 171.915 Q138.08 174.045 137.269 175.966 Q136.482 177.864 134.376 180.457 Q133.797 181.128 130.695 184.346 Q127.594 187.54 121.945 193.304 Z" fill="#000000" fill-rule="nonzero" fill-opacity="1" /><path clip-path="url(#clip680)" d="M148.08 191.359 L152.964 191.359 L152.964 197.239 L148.08 197.239 L148.08 191.359 Z" fill="#000000" fill-rule="nonzero" fill-opacity="1" /><path clip-path="url(#clip680)" d="M163.195 162.679 L181.552 162.679 L181.552 166.614 L167.478 166.614 L167.478 175.086 Q168.496 174.739 169.515 174.577 Q170.533 174.392 171.552 174.392 Q177.339 174.392 180.718 177.563 Q184.098 180.734 184.098 186.151 Q184.098 191.73 180.626 194.832 Q177.153 197.91 170.834 197.91 Q168.658 197.91 166.39 197.54 Q164.144 197.17 161.737 196.429 L161.737 191.73 Q163.82 192.864 166.042 193.42 Q168.265 193.975 170.741 193.975 Q174.746 193.975 177.084 191.869 Q179.422 189.762 179.422 186.151 Q179.422 182.54 177.084 180.434 Q174.746 178.327 170.741 178.327 Q168.866 178.327 166.991 178.744 Q165.14 179.16 163.195 180.04 L163.195 162.679 Z" fill="#000000" fill-rule="nonzero" fill-opacity="1" /><polyline clip-path="url(#clip682)" style="stroke:#009af9; stroke-linecap:round; stroke-linejoin:round; stroke-width:4; stroke-opacity:1; fill:none" points="232.098,1061.5 234.198,1056.11 236.299,1050.73 238.399,1045.37 240.5,1040.03 259.921,991.308 279.343,943.853 298.765,897.663 318.187,852.738 341.53,800.416 364.874,749.921 384.61,708.655 404.347,668.694 425.786,626.766 447.225,586.38 466.99,550.512 486.756,515.955 507.946,480.362 529.136,446.274 553.688,408.664 578.239,373.075 600.057,343.144 621.875,314.809 641.008,291.276 660.14,268.97 681,246.05 701.86,224.59 722.843,204.474 743.827,185.834 767.027,166.945 790.227,149.861 812.301,135.281 834.375,122.336 857.328,110.609 880.28,100.649 899.6,93.6338 918.921,87.8707 942.51,82.532 966.098,79.0592 987.707,77.5157 1009.32,77.5381 1029.27,78.9497 1049.23,81.6971 1069.45,85.842 1089.66,91.3575 1112.32,99.1676 1134.97,108.699 1155.51,118.823 1176.04,130.361 1199.54,145.306 1223.05,162.104 1244.81,179.31 1266.58,198.105 1288.03,218.189 1309.49,239.817 1330.32,262.294 1351.16,286.227 1372.51,312.271 1393.87,339.845 1417.27,371.812 1440.67,405.615 1457.66,431.318 1474.66,457.99 1491.65,485.631 1508.65,514.24 1512.13,520.229 1515.62,526.259 1519.11,532.329 1522.59,538.441 "/>
<polyline clip-path="url(#clip682)" style="stroke:#e26f46; stroke-linecap:round; stroke-linejoin:round; stroke-width:4; stroke-opacity:1; fill:none" points="232.098,1075.62 234.198,1069.92 236.299,1064.23 238.399,1058.56 240.5,1052.91 259.921,1001.43 279.343,951.351 298.765,902.663 318.187,855.369 341.53,800.373 364.874,747.391 384.61,704.168 404.347,662.386 425.786,618.631 447.225,576.576 466.99,539.311 486.756,503.491 507.946,466.693 529.136,431.556 553.688,392.922 578.239,356.518 600.057,326.037 621.875,297.317 641.008,273.581 660.14,251.198 681,228.338 701.86,207.087 722.843,187.333 743.827,169.208 767.027,151.063 790.227,134.91 812.301,121.388 834.375,109.669 857.328,99.3939 880.28,91.0676 899.6,85.5689 918.921,81.4508 942.51,78.2948 966.098,77.1967 987.707,77.9967 1009.32,80.5235 1029.27,84.3913 1049.23,89.7321 1069.45,96.6439 1089.66,105.067 1112.32,116.304 1134.97,129.438 1155.51,142.98 1176.04,158.081 1199.54,177.284 1223.05,198.531 1244.81,220.026 1266.58,243.272 1288.03,267.906 1309.49,294.242 1330.32,321.441 1351.16,350.246 1372.51,381.44 1393.87,414.321 1417.27,452.283 1440.67,492.27 1457.66,522.583 1474.66,553.964 1491.65,586.414 1508.65,619.931 1512.13,626.94 1515.62,633.993 1519.11,641.091 1522.59,648.234 "/>
<path clip-path="url(#clip680)" d="M275.114 238.042 L717.125 238.042 L717.125 82.5216 L275.114 82.5216  Z" fill="#ffffff" fill-rule="evenodd" fill-opacity="1"/>
<polyline clip-path="url(#clip680)" style="stroke:#000000; stroke-linecap:round; stroke-linejoin:round; stroke-width:4; stroke-opacity:1; fill:none" points="275.114,238.042 717.125,238.042 717.125,82.5216 275.114,82.5216 275.114,238.042 "/>
<polyline clip-path="url(#clip680)" style="stroke:#009af9; stroke-linecap:round; stroke-linejoin:round; stroke-width:4; stroke-opacity:1; fill:none" points="289.453,134.362 375.486,134.362 "/>
<path clip-path="url(#clip680)" d="M389.825 115.623 L394.084 115.623 L394.084 151.642 L389.825 151.642 L389.825 115.623 Z" fill="#000000" fill-rule="nonzero" fill-opacity="1" /><path clip-path="url(#clip680)" d="M413.043 128.702 Q409.617 128.702 407.626 131.387 Q405.635 134.049 405.635 138.702 Q405.635 143.355 407.603 146.04 Q409.594 148.702 413.043 148.702 Q416.445 148.702 418.436 146.017 Q420.427 143.331 420.427 138.702 Q420.427 134.095 418.436 131.41 Q416.445 128.702 413.043 128.702 M413.043 125.091 Q418.598 125.091 421.769 128.702 Q424.941 132.313 424.941 138.702 Q424.941 145.068 421.769 148.702 Q418.598 152.313 413.043 152.313 Q407.464 152.313 404.293 148.702 Q401.145 145.068 401.145 138.702 Q401.145 132.313 404.293 128.702 Q407.464 125.091 413.043 125.091 Z" fill="#000000" fill-rule="nonzero" fill-opacity="1" /><path clip-path="url(#clip680)" d="M449.061 138.378 Q449.061 133.748 447.14 131.202 Q445.242 128.656 441.792 128.656 Q438.367 128.656 436.445 131.202 Q434.547 133.748 434.547 138.378 Q434.547 142.984 436.445 145.53 Q438.367 148.077 441.792 148.077 Q445.242 148.077 447.14 145.53 Q449.061 142.984 449.061 138.378 M453.32 148.424 Q453.32 155.044 450.38 158.262 Q447.441 161.503 441.376 161.503 Q439.13 161.503 437.14 161.155 Q435.149 160.831 433.274 160.137 L433.274 155.993 Q435.149 157.012 436.978 157.498 Q438.806 157.984 440.705 157.984 Q444.894 157.984 446.978 155.785 Q449.061 153.609 449.061 149.188 L449.061 147.081 Q447.742 149.373 445.681 150.507 Q443.621 151.642 440.751 151.642 Q435.982 151.642 433.066 148.007 Q430.149 144.373 430.149 138.378 Q430.149 132.359 433.066 128.725 Q435.982 125.091 440.751 125.091 Q443.621 125.091 445.681 126.225 Q447.742 127.359 449.061 129.651 L449.061 125.716 L453.32 125.716 L453.32 148.424 Z" fill="#000000" fill-rule="nonzero" fill-opacity="1" /><path clip-path="url(#clip680)" d="M481.792 159.512 L481.792 162.822 L457.163 162.822 L457.163 159.512 L481.792 159.512 Z" fill="#000000" fill-rule="nonzero" fill-opacity="1" /><path clip-path="url(#clip680)" d="M485.797 115.623 L490.056 115.623 L490.056 151.642 L485.797 151.642 L485.797 115.623 Z" fill="#000000" fill-rule="nonzero" fill-opacity="1" /><path clip-path="url(#clip680)" d="M498.968 125.716 L503.227 125.716 L503.227 151.642 L498.968 151.642 L498.968 125.716 M498.968 115.623 L503.227 115.623 L503.227 121.017 L498.968 121.017 L498.968 115.623 Z" fill="#000000" fill-rule="nonzero" fill-opacity="1" /><path clip-path="url(#clip680)" d="M511.977 115.623 L516.26 115.623 L516.26 136.896 L528.968 125.716 L534.408 125.716 L520.658 137.845 L534.986 151.642 L529.431 151.642 L516.26 138.98 L516.26 151.642 L511.977 151.642 L511.977 115.623 Z" fill="#000000" fill-rule="nonzero" fill-opacity="1" /><path clip-path="url(#clip680)" d="M560.079 137.614 L560.079 139.697 L540.496 139.697 Q540.773 144.095 543.135 146.41 Q545.519 148.702 549.755 148.702 Q552.209 148.702 554.5 148.1 Q556.815 147.498 559.084 146.294 L559.084 150.322 Q556.792 151.294 554.384 151.804 Q551.977 152.313 549.5 152.313 Q543.297 152.313 539.662 148.702 Q536.051 145.091 536.051 138.933 Q536.051 132.568 539.477 128.841 Q542.926 125.091 548.76 125.091 Q553.991 125.091 557.023 128.47 Q560.079 131.827 560.079 137.614 M555.82 136.364 Q555.773 132.869 553.852 130.785 Q551.954 128.702 548.806 128.702 Q545.241 128.702 543.088 130.716 Q540.959 132.73 540.635 136.387 L555.82 136.364 Z" fill="#000000" fill-rule="nonzero" fill-opacity="1" /><path clip-path="url(#clip680)" d="M567.07 115.623 L571.329 115.623 L571.329 151.642 L567.07 151.642 L567.07 115.623 Z" fill="#000000" fill-rule="nonzero" fill-opacity="1" /><path clip-path="url(#clip680)" d="M580.241 125.716 L584.5 125.716 L584.5 151.642 L580.241 151.642 L580.241 125.716 M580.241 115.623 L584.5 115.623 L584.5 121.017 L580.241 121.017 L580.241 115.623 Z" fill="#000000" fill-rule="nonzero" fill-opacity="1" /><path clip-path="url(#clip680)" d="M614.963 135.993 L614.963 151.642 L610.704 151.642 L610.704 136.132 Q610.704 132.452 609.268 130.623 Q607.833 128.794 604.963 128.794 Q601.514 128.794 599.523 130.994 Q597.532 133.193 597.532 136.989 L597.532 151.642 L593.25 151.642 L593.25 115.623 L597.532 115.623 L597.532 129.744 Q599.06 127.406 601.12 126.248 Q603.204 125.091 605.912 125.091 Q610.38 125.091 612.671 127.869 Q614.963 130.623 614.963 135.993 Z" fill="#000000" fill-rule="nonzero" fill-opacity="1" /><path clip-path="url(#clip680)" d="M633.504 128.702 Q630.079 128.702 628.088 131.387 Q626.097 134.049 626.097 138.702 Q626.097 143.355 628.065 146.04 Q630.055 148.702 633.504 148.702 Q636.907 148.702 638.898 146.017 Q640.889 143.331 640.889 138.702 Q640.889 134.095 638.898 131.41 Q636.907 128.702 633.504 128.702 M633.504 125.091 Q639.06 125.091 642.231 128.702 Q645.403 132.313 645.403 138.702 Q645.403 145.068 642.231 148.702 Q639.06 152.313 633.504 152.313 Q627.926 152.313 624.754 148.702 Q621.606 145.068 621.606 138.702 Q621.606 132.313 624.754 128.702 Q627.926 125.091 633.504 125.091 Z" fill="#000000" fill-rule="nonzero" fill-opacity="1" /><path clip-path="url(#clip680)" d="M662.509 128.702 Q659.083 128.702 657.092 131.387 Q655.102 134.049 655.102 138.702 Q655.102 143.355 657.069 146.04 Q659.06 148.702 662.509 148.702 Q665.912 148.702 667.902 146.017 Q669.893 143.331 669.893 138.702 Q669.893 134.095 667.902 131.41 Q665.912 128.702 662.509 128.702 M662.509 125.091 Q668.064 125.091 671.236 128.702 Q674.407 132.313 674.407 138.702 Q674.407 145.068 671.236 148.702 Q668.064 152.313 662.509 152.313 Q656.93 152.313 653.759 148.702 Q650.611 145.068 650.611 138.702 Q650.611 132.313 653.759 128.702 Q656.93 125.091 662.509 125.091 Z" fill="#000000" fill-rule="nonzero" fill-opacity="1" /><path clip-path="url(#clip680)" d="M698.527 129.651 L698.527 115.623 L702.786 115.623 L702.786 151.642 L698.527 151.642 L698.527 147.753 Q697.185 150.067 695.124 151.202 Q693.087 152.313 690.217 152.313 Q685.518 152.313 682.555 148.563 Q679.615 144.813 679.615 138.702 Q679.615 132.591 682.555 128.841 Q685.518 125.091 690.217 125.091 Q693.087 125.091 695.124 126.225 Q697.185 127.336 698.527 129.651 M684.013 138.702 Q684.013 143.401 685.935 146.086 Q687.879 148.748 691.259 148.748 Q694.638 148.748 696.583 146.086 Q698.527 143.401 698.527 138.702 Q698.527 134.003 696.583 131.341 Q694.638 128.656 691.259 128.656 Q687.879 128.656 685.935 131.341 Q684.013 134.003 684.013 138.702 Z" fill="#000000" fill-rule="nonzero" fill-opacity="1" /><polyline clip-path="url(#clip680)" style="stroke:#e26f46; stroke-linecap:round; stroke-linejoin:round; stroke-width:4; stroke-opacity:1; fill:none" points="289.453,186.202 375.486,186.202 "/>
<path clip-path="url(#clip680)" d="M389.825 167.463 L394.084 167.463 L394.084 203.482 L389.825 203.482 L389.825 167.463 Z" fill="#000000" fill-rule="nonzero" fill-opacity="1" /><path clip-path="url(#clip680)" d="M413.043 180.542 Q409.617 180.542 407.626 183.227 Q405.635 185.889 405.635 190.542 Q405.635 195.195 407.603 197.88 Q409.594 200.542 413.043 200.542 Q416.445 200.542 418.436 197.857 Q420.427 195.171 420.427 190.542 Q420.427 185.935 418.436 183.25 Q416.445 180.542 413.043 180.542 M413.043 176.931 Q418.598 176.931 421.769 180.542 Q424.941 184.153 424.941 190.542 Q424.941 196.908 421.769 200.542 Q418.598 204.153 413.043 204.153 Q407.464 204.153 404.293 200.542 Q401.145 196.908 401.145 190.542 Q401.145 184.153 404.293 180.542 Q407.464 176.931 413.043 176.931 Z" fill="#000000" fill-rule="nonzero" fill-opacity="1" /><path clip-path="url(#clip680)" d="M449.061 190.218 Q449.061 185.588 447.14 183.042 Q445.242 180.496 441.792 180.496 Q438.367 180.496 436.445 183.042 Q434.547 185.588 434.547 190.218 Q434.547 194.824 436.445 197.37 Q438.367 199.917 441.792 199.917 Q445.242 199.917 447.14 197.37 Q449.061 194.824 449.061 190.218 M453.32 200.264 Q453.32 206.884 450.38 210.102 Q447.441 213.343 441.376 213.343 Q439.13 213.343 437.14 212.995 Q435.149 212.671 433.274 211.977 L433.274 207.833 Q435.149 208.852 436.978 209.338 Q438.806 209.824 440.705 209.824 Q444.894 209.824 446.978 207.625 Q449.061 205.449 449.061 201.028 L449.061 198.921 Q447.742 201.213 445.681 202.347 Q443.621 203.482 440.751 203.482 Q435.982 203.482 433.066 199.847 Q430.149 196.213 430.149 190.218 Q430.149 184.199 433.066 180.565 Q435.982 176.931 440.751 176.931 Q443.621 176.931 445.681 178.065 Q447.742 179.199 449.061 181.491 L449.061 177.556 L453.32 177.556 L453.32 200.264 Z" fill="#000000" fill-rule="nonzero" fill-opacity="1" /><path clip-path="url(#clip680)" d="M481.792 211.352 L481.792 214.662 L457.163 214.662 L457.163 211.352 L481.792 211.352 Z" fill="#000000" fill-rule="nonzero" fill-opacity="1" /><path clip-path="url(#clip680)" d="M489.917 199.593 L489.917 213.343 L485.635 213.343 L485.635 177.556 L489.917 177.556 L489.917 181.491 Q491.26 179.176 493.297 178.065 Q495.357 176.931 498.204 176.931 Q502.926 176.931 505.866 180.681 Q508.829 184.431 508.829 190.542 Q508.829 196.653 505.866 200.403 Q502.926 204.153 498.204 204.153 Q495.357 204.153 493.297 203.042 Q491.26 201.907 489.917 199.593 M504.408 190.542 Q504.408 185.843 502.463 183.181 Q500.542 180.496 497.163 180.496 Q493.783 180.496 491.839 183.181 Q489.917 185.843 489.917 190.542 Q489.917 195.241 491.839 197.926 Q493.783 200.588 497.163 200.588 Q500.542 200.588 502.463 197.926 Q504.408 195.241 504.408 190.542 Z" fill="#000000" fill-rule="nonzero" fill-opacity="1" /><path clip-path="url(#clip680)" d="M525.936 180.542 Q522.51 180.542 520.519 183.227 Q518.528 185.889 518.528 190.542 Q518.528 195.195 520.496 197.88 Q522.487 200.542 525.936 200.542 Q529.338 200.542 531.329 197.857 Q533.32 195.171 533.32 190.542 Q533.32 185.935 531.329 183.25 Q529.338 180.542 525.936 180.542 M525.936 176.931 Q531.491 176.931 534.662 180.542 Q537.834 184.153 537.834 190.542 Q537.834 196.908 534.662 200.542 Q531.491 204.153 525.936 204.153 Q520.357 204.153 517.186 200.542 Q514.037 196.908 514.037 190.542 Q514.037 184.153 517.186 180.542 Q520.357 176.931 525.936 176.931 Z" fill="#000000" fill-rule="nonzero" fill-opacity="1" /><path clip-path="url(#clip680)" d="M561.421 178.32 L561.421 182.347 Q559.616 181.421 557.672 180.959 Q555.727 180.496 553.644 180.496 Q550.472 180.496 548.875 181.468 Q547.301 182.44 547.301 184.384 Q547.301 185.866 548.435 186.722 Q549.57 187.556 552.996 188.32 L554.454 188.644 Q558.991 189.616 560.889 191.398 Q562.81 193.158 562.81 196.329 Q562.81 199.94 559.94 202.046 Q557.093 204.153 552.093 204.153 Q550.01 204.153 547.741 203.736 Q545.496 203.343 542.996 202.532 L542.996 198.134 Q545.357 199.361 547.648 199.986 Q549.94 200.588 552.185 200.588 Q555.195 200.588 556.815 199.57 Q558.435 198.528 558.435 196.653 Q558.435 194.917 557.255 193.991 Q556.097 193.065 552.139 192.208 L550.658 191.861 Q546.699 191.028 544.94 189.315 Q543.181 187.579 543.181 184.57 Q543.181 180.912 545.773 178.922 Q548.366 176.931 553.134 176.931 Q555.496 176.931 557.579 177.278 Q559.662 177.625 561.421 178.32 Z" fill="#000000" fill-rule="nonzero" fill-opacity="1" /><path clip-path="url(#clip680)" d="M573.806 170.195 L573.806 177.556 L582.579 177.556 L582.579 180.866 L573.806 180.866 L573.806 194.94 Q573.806 198.111 574.662 199.014 Q575.542 199.917 578.204 199.917 L582.579 199.917 L582.579 203.482 L578.204 203.482 Q573.273 203.482 571.398 201.653 Q569.523 199.801 569.523 194.94 L569.523 180.866 L566.398 180.866 L566.398 177.556 L569.523 177.556 L569.523 170.195 L573.806 170.195 Z" fill="#000000" fill-rule="nonzero" fill-opacity="1" /><path clip-path="url(#clip680)" d="M610.356 189.454 L610.356 191.537 L590.773 191.537 Q591.051 195.935 593.412 198.25 Q595.796 200.542 600.032 200.542 Q602.486 200.542 604.778 199.94 Q607.093 199.338 609.361 198.134 L609.361 202.162 Q607.069 203.134 604.662 203.644 Q602.255 204.153 599.778 204.153 Q593.574 204.153 589.94 200.542 Q586.329 196.931 586.329 190.773 Q586.329 184.408 589.755 180.681 Q593.204 176.931 599.037 176.931 Q604.268 176.931 607.301 180.31 Q610.356 183.667 610.356 189.454 M606.097 188.204 Q606.051 184.709 604.13 182.625 Q602.231 180.542 599.083 180.542 Q595.519 180.542 593.366 182.556 Q591.236 184.57 590.912 188.227 L606.097 188.204 Z" fill="#000000" fill-rule="nonzero" fill-opacity="1" /><path clip-path="url(#clip680)" d="M632.37 181.537 Q631.653 181.121 630.796 180.935 Q629.963 180.727 628.944 180.727 Q625.333 180.727 623.389 183.088 Q621.467 185.426 621.467 189.824 L621.467 203.482 L617.185 203.482 L617.185 177.556 L621.467 177.556 L621.467 181.584 Q622.81 179.222 624.963 178.088 Q627.116 176.931 630.194 176.931 Q630.634 176.931 631.166 177 Q631.699 177.047 632.347 177.162 L632.37 181.537 Z" fill="#000000" fill-rule="nonzero" fill-opacity="1" /><path clip-path="url(#clip680)" d="M636.838 177.556 L641.097 177.556 L641.097 203.482 L636.838 203.482 L636.838 177.556 M636.838 167.463 L641.097 167.463 L641.097 172.857 L636.838 172.857 L636.838 167.463 Z" fill="#000000" fill-rule="nonzero" fill-opacity="1" /><path clip-path="url(#clip680)" d="M660.055 180.542 Q656.629 180.542 654.639 183.227 Q652.648 185.889 652.648 190.542 Q652.648 195.195 654.615 197.88 Q656.606 200.542 660.055 200.542 Q663.458 200.542 665.449 197.857 Q667.439 195.171 667.439 190.542 Q667.439 185.935 665.449 183.25 Q663.458 180.542 660.055 180.542 M660.055 176.931 Q665.611 176.931 668.782 180.542 Q671.953 184.153 671.953 190.542 Q671.953 196.908 668.782 200.542 Q665.611 204.153 660.055 204.153 Q654.477 204.153 651.305 200.542 Q648.157 196.908 648.157 190.542 Q648.157 184.153 651.305 180.542 Q654.477 176.931 660.055 176.931 Z" fill="#000000" fill-rule="nonzero" fill-opacity="1" /><path clip-path="url(#clip680)" d="M694.037 181.537 Q693.319 181.121 692.462 180.935 Q691.629 180.727 690.611 180.727 Q687 180.727 685.055 183.088 Q683.134 185.426 683.134 189.824 L683.134 203.482 L678.851 203.482 L678.851 177.556 L683.134 177.556 L683.134 181.584 Q684.476 179.222 686.629 178.088 Q688.782 176.931 691.861 176.931 Q692.3 176.931 692.833 177 Q693.365 177.047 694.013 177.162 L694.037 181.537 Z" fill="#000000" fill-rule="nonzero" fill-opacity="1" /><path clip-path="url(#clip680)" d="M1862.26 1105.57 L3152.76 1105.57 L3152.76 47.2441 L1862.26 47.2441  Z" fill="#ffffff" fill-rule="evenodd" fill-opacity="1"/>
<defs>
  <clipPath id="clip683">
    <rect x="1862" y="47" width="1291" height="1059"/>
  </clipPath>
</defs>
<polyline clip-path="url(#clip683)" style="stroke:#000000; stroke-linecap:round; stroke-linejoin:round; stroke-width:2; stroke-opacity:0.1; fill:none" points="1862.26,1105.57 1862.26,47.2441 "/>
<polyline clip-path="url(#clip683)" style="stroke:#000000; stroke-linecap:round; stroke-linejoin:round; stroke-width:2; stroke-opacity:0.1; fill:none" points="2184.88,1105.57 2184.88,47.2441 "/>
<polyline clip-path="url(#clip683)" style="stroke:#000000; stroke-linecap:round; stroke-linejoin:round; stroke-width:2; stroke-opacity:0.1; fill:none" points="2507.51,1105.57 2507.51,47.2441 "/>
<polyline clip-path="url(#clip683)" style="stroke:#000000; stroke-linecap:round; stroke-linejoin:round; stroke-width:2; stroke-opacity:0.1; fill:none" points="2830.13,1105.57 2830.13,47.2441 "/>
<polyline clip-path="url(#clip683)" style="stroke:#000000; stroke-linecap:round; stroke-linejoin:round; stroke-width:2; stroke-opacity:0.1; fill:none" points="3152.76,1105.57 3152.76,47.2441 "/>
<polyline clip-path="url(#clip683)" style="stroke:#000000; stroke-linecap:round; stroke-linejoin:round; stroke-width:2; stroke-opacity:0.1; fill:none" points="1862.26,1105.32 3152.76,1105.32 "/>
<polyline clip-path="url(#clip683)" style="stroke:#000000; stroke-linecap:round; stroke-linejoin:round; stroke-width:2; stroke-opacity:0.1; fill:none" points="1862.26,874.02 3152.76,874.02 "/>
<polyline clip-path="url(#clip683)" style="stroke:#000000; stroke-linecap:round; stroke-linejoin:round; stroke-width:2; stroke-opacity:0.1; fill:none" points="1862.26,642.718 3152.76,642.718 "/>
<polyline clip-path="url(#clip683)" style="stroke:#000000; stroke-linecap:round; stroke-linejoin:round; stroke-width:2; stroke-opacity:0.1; fill:none" points="1862.26,411.416 3152.76,411.416 "/>
<polyline clip-path="url(#clip683)" style="stroke:#000000; stroke-linecap:round; stroke-linejoin:round; stroke-width:2; stroke-opacity:0.1; fill:none" points="1862.26,180.114 3152.76,180.114 "/>
<polyline clip-path="url(#clip680)" style="stroke:#000000; stroke-linecap:round; stroke-linejoin:round; stroke-width:4; stroke-opacity:1; fill:none" points="1862.26,1105.57 3152.76,1105.57 "/>
<polyline clip-path="url(#clip680)" style="stroke:#000000; stroke-linecap:round; stroke-linejoin:round; stroke-width:4; stroke-opacity:1; fill:none" points="1862.26,1105.57 1862.26,1086.67 "/>
<polyline clip-path="url(#clip680)" style="stroke:#000000; stroke-linecap:round; stroke-linejoin:round; stroke-width:4; stroke-opacity:1; fill:none" points="2184.88,1105.57 2184.88,1086.67 "/>
<polyline clip-path="url(#clip680)" style="stroke:#000000; stroke-linecap:round; stroke-linejoin:round; stroke-width:4; stroke-opacity:1; fill:none" points="2507.51,1105.57 2507.51,1086.67 "/>
<polyline clip-path="url(#clip680)" style="stroke:#000000; stroke-linecap:round; stroke-linejoin:round; stroke-width:4; stroke-opacity:1; fill:none" points="2830.13,1105.57 2830.13,1086.67 "/>
<polyline clip-path="url(#clip680)" style="stroke:#000000; stroke-linecap:round; stroke-linejoin:round; stroke-width:4; stroke-opacity:1; fill:none" points="3152.76,1105.57 3152.76,1086.67 "/>
<path clip-path="url(#clip680)" d="M1799.75 1170.43 L1807.39 1170.43 L1807.39 1144.07 L1799.08 1145.73 L1799.08 1141.47 L1807.34 1139.81 L1812.02 1139.81 L1812.02 1170.43 L1819.66 1170.43 L1819.66 1174.37 L1799.75 1174.37 L1799.75 1170.43 Z" fill="#000000" fill-rule="nonzero" fill-opacity="1" /><path clip-path="url(#clip680)" d="M1829.1 1168.49 L1833.98 1168.49 L1833.98 1174.37 L1829.1 1174.37 L1829.1 1168.49 Z" fill="#000000" fill-rule="nonzero" fill-opacity="1" /><path clip-path="url(#clip680)" d="M1854.17 1142.89 Q1850.56 1142.89 1848.73 1146.45 Q1846.92 1149.99 1846.92 1157.12 Q1846.92 1164.23 1848.73 1167.79 Q1850.56 1171.34 1854.17 1171.34 Q1857.8 1171.34 1859.61 1167.79 Q1861.44 1164.23 1861.44 1157.12 Q1861.44 1149.99 1859.61 1146.45 Q1857.8 1142.89 1854.17 1142.89 M1854.17 1139.18 Q1859.98 1139.18 1863.04 1143.79 Q1866.11 1148.37 1866.11 1157.12 Q1866.11 1165.85 1863.04 1170.46 Q1859.98 1175.04 1854.17 1175.04 Q1848.36 1175.04 1845.28 1170.46 Q1842.23 1165.85 1842.23 1157.12 Q1842.23 1148.37 1845.28 1143.79 Q1848.36 1139.18 1854.17 1139.18 Z" fill="#000000" fill-rule="nonzero" fill-opacity="1" /><path clip-path="url(#clip680)" d="M1884.91 1155.22 Q1881.76 1155.22 1879.91 1157.38 Q1878.08 1159.53 1878.08 1163.28 Q1878.08 1167.01 1879.91 1169.18 Q1881.76 1171.34 1884.91 1171.34 Q1888.06 1171.34 1889.89 1169.18 Q1891.74 1167.01 1891.74 1163.28 Q1891.74 1159.53 1889.89 1157.38 Q1888.06 1155.22 1884.91 1155.22 M1894.19 1140.57 L1894.19 1144.83 Q1892.43 1144 1890.63 1143.56 Q1888.85 1143.12 1887.09 1143.12 Q1882.46 1143.12 1880 1146.24 Q1877.57 1149.37 1877.22 1155.69 Q1878.59 1153.67 1880.65 1152.61 Q1882.71 1151.52 1885.19 1151.52 Q1890.4 1151.52 1893.41 1154.69 Q1896.44 1157.84 1896.44 1163.28 Q1896.44 1168.6 1893.29 1171.82 Q1890.14 1175.04 1884.91 1175.04 Q1878.91 1175.04 1875.74 1170.46 Q1872.57 1165.85 1872.57 1157.12 Q1872.57 1148.93 1876.46 1144.07 Q1880.35 1139.18 1886.9 1139.18 Q1888.66 1139.18 1890.44 1139.53 Q1892.25 1139.88 1894.19 1140.57 Z" fill="#000000" fill-rule="nonzero" fill-opacity="1" /><path clip-path="url(#clip680)" d="M1904.54 1139.81 L1922.9 1139.81 L1922.9 1143.74 L1908.82 1143.74 L1908.82 1152.22 Q1909.84 1151.87 1910.86 1151.71 Q1911.88 1151.52 1912.9 1151.52 Q1918.68 1151.52 1922.06 1154.69 Q1925.44 1157.86 1925.44 1163.28 Q1925.44 1168.86 1921.97 1171.96 Q1918.5 1175.04 1912.18 1175.04 Q1910 1175.04 1907.73 1174.67 Q1905.49 1174.3 1903.08 1173.56 L1903.08 1168.86 Q1905.16 1169.99 1907.39 1170.55 Q1909.61 1171.1 1912.09 1171.1 Q1916.09 1171.1 1918.43 1169 Q1920.77 1166.89 1920.77 1163.28 Q1920.77 1159.67 1918.43 1157.56 Q1916.09 1155.46 1912.09 1155.46 Q1910.21 1155.46 1908.34 1155.87 Q1906.48 1156.29 1904.54 1157.17 L1904.54 1139.81 Z" fill="#000000" fill-rule="nonzero" fill-opacity="1" /><path clip-path="url(#clip680)" d="M2121.87 1170.43 L2129.51 1170.43 L2129.51 1144.07 L2121.2 1145.73 L2121.2 1141.47 L2129.47 1139.81 L2134.14 1139.81 L2134.14 1170.43 L2141.78 1170.43 L2141.78 1174.37 L2121.87 1174.37 L2121.87 1170.43 Z" fill="#000000" fill-rule="nonzero" fill-opacity="1" /><path clip-path="url(#clip680)" d="M2151.23 1168.49 L2156.11 1168.49 L2156.11 1174.37 L2151.23 1174.37 L2151.23 1168.49 Z" fill="#000000" fill-rule="nonzero" fill-opacity="1" /><path clip-path="url(#clip680)" d="M2176.3 1142.89 Q2172.68 1142.89 2170.86 1146.45 Q2169.05 1149.99 2169.05 1157.12 Q2169.05 1164.23 2170.86 1167.79 Q2172.68 1171.34 2176.3 1171.34 Q2179.93 1171.34 2181.74 1167.79 Q2183.56 1164.23 2183.56 1157.12 Q2183.56 1149.99 2181.74 1146.45 Q2179.93 1142.89 2176.3 1142.89 M2176.3 1139.18 Q2182.11 1139.18 2185.16 1143.79 Q2188.24 1148.37 2188.24 1157.12 Q2188.24 1165.85 2185.16 1170.46 Q2182.11 1175.04 2176.3 1175.04 Q2170.49 1175.04 2167.41 1170.46 Q2164.35 1165.85 2164.35 1157.12 Q2164.35 1148.37 2167.41 1143.79 Q2170.49 1139.18 2176.3 1139.18 Z" fill="#000000" fill-rule="nonzero" fill-opacity="1" /><path clip-path="url(#clip680)" d="M2195.28 1139.81 L2217.5 1139.81 L2217.5 1141.8 L2204.95 1174.37 L2200.07 1174.37 L2211.87 1143.74 L2195.28 1143.74 L2195.28 1139.81 Z" fill="#000000" fill-rule="nonzero" fill-opacity="1" /><path clip-path="url(#clip680)" d="M2236.62 1142.89 Q2233.01 1142.89 2231.18 1146.45 Q2229.37 1149.99 2229.37 1157.12 Q2229.37 1164.23 2231.18 1167.79 Q2233.01 1171.34 2236.62 1171.34 Q2240.25 1171.34 2242.06 1167.79 Q2243.89 1164.23 2243.89 1157.12 Q2243.89 1149.99 2242.06 1146.45 Q2240.25 1142.89 2236.62 1142.89 M2236.62 1139.18 Q2242.43 1139.18 2245.49 1143.79 Q2248.56 1148.37 2248.56 1157.12 Q2248.56 1165.85 2245.49 1170.46 Q2242.43 1175.04 2236.62 1175.04 Q2230.81 1175.04 2227.73 1170.46 Q2224.68 1165.85 2224.68 1157.12 Q2224.68 1148.37 2227.73 1143.79 Q2230.81 1139.18 2236.62 1139.18 Z" fill="#000000" fill-rule="nonzero" fill-opacity="1" /><path clip-path="url(#clip680)" d="M2445 1170.43 L2452.64 1170.43 L2452.64 1144.07 L2444.33 1145.73 L2444.33 1141.47 L2452.59 1139.81 L2457.27 1139.81 L2457.27 1170.43 L2464.9 1170.43 L2464.9 1174.37 L2445 1174.37 L2445 1170.43 Z" fill="#000000" fill-rule="nonzero" fill-opacity="1" /><path clip-path="url(#clip680)" d="M2474.35 1168.49 L2479.23 1168.49 L2479.23 1174.37 L2474.35 1174.37 L2474.35 1168.49 Z" fill="#000000" fill-rule="nonzero" fill-opacity="1" /><path clip-path="url(#clip680)" d="M2499.42 1142.89 Q2495.81 1142.89 2493.98 1146.45 Q2492.17 1149.99 2492.17 1157.12 Q2492.17 1164.23 2493.98 1167.79 Q2495.81 1171.34 2499.42 1171.34 Q2503.05 1171.34 2504.86 1167.79 Q2506.69 1164.23 2506.69 1157.12 Q2506.69 1149.99 2504.86 1146.45 Q2503.05 1142.89 2499.42 1142.89 M2499.42 1139.18 Q2505.23 1139.18 2508.28 1143.79 Q2511.36 1148.37 2511.36 1157.12 Q2511.36 1165.85 2508.28 1170.46 Q2505.23 1175.04 2499.42 1175.04 Q2493.61 1175.04 2490.53 1170.46 Q2487.47 1165.85 2487.47 1157.12 Q2487.47 1148.37 2490.53 1143.79 Q2493.61 1139.18 2499.42 1139.18 Z" fill="#000000" fill-rule="nonzero" fill-opacity="1" /><path clip-path="url(#clip680)" d="M2518.4 1139.81 L2540.62 1139.81 L2540.62 1141.8 L2528.07 1174.37 L2523.19 1174.37 L2535 1143.74 L2518.4 1143.74 L2518.4 1139.81 Z" fill="#000000" fill-rule="nonzero" fill-opacity="1" /><path clip-path="url(#clip680)" d="M2549.79 1139.81 L2568.14 1139.81 L2568.14 1143.74 L2554.07 1143.74 L2554.07 1152.22 Q2555.09 1151.87 2556.11 1151.71 Q2557.13 1151.52 2558.14 1151.52 Q2563.93 1151.52 2567.31 1154.69 Q2570.69 1157.86 2570.69 1163.28 Q2570.69 1168.86 2567.22 1171.96 Q2563.75 1175.04 2557.43 1175.04 Q2555.25 1175.04 2552.98 1174.67 Q2550.74 1174.3 2548.33 1173.56 L2548.33 1168.86 Q2550.41 1169.99 2552.63 1170.55 Q2554.86 1171.1 2557.33 1171.1 Q2561.34 1171.1 2563.68 1169 Q2566.01 1166.89 2566.01 1163.28 Q2566.01 1159.67 2563.68 1157.56 Q2561.34 1155.46 2557.33 1155.46 Q2555.46 1155.46 2553.58 1155.87 Q2551.73 1156.29 2549.79 1157.17 L2549.79 1139.81 Z" fill="#000000" fill-rule="nonzero" fill-opacity="1" /><path clip-path="url(#clip680)" d="M2767.12 1170.43 L2774.76 1170.43 L2774.76 1144.07 L2766.45 1145.73 L2766.45 1141.47 L2774.72 1139.81 L2779.39 1139.81 L2779.39 1170.43 L2787.03 1170.43 L2787.03 1174.37 L2767.12 1174.37 L2767.12 1170.43 Z" fill="#000000" fill-rule="nonzero" fill-opacity="1" /><path clip-path="url(#clip680)" d="M2796.47 1168.49 L2801.36 1168.49 L2801.36 1174.37 L2796.47 1174.37 L2796.47 1168.49 Z" fill="#000000" fill-rule="nonzero" fill-opacity="1" /><path clip-path="url(#clip680)" d="M2821.54 1142.89 Q2817.93 1142.89 2816.1 1146.45 Q2814.3 1149.99 2814.3 1157.12 Q2814.3 1164.23 2816.1 1167.79 Q2817.93 1171.34 2821.54 1171.34 Q2825.18 1171.34 2826.98 1167.79 Q2828.81 1164.23 2828.81 1157.12 Q2828.81 1149.99 2826.98 1146.45 Q2825.18 1142.89 2821.54 1142.89 M2821.54 1139.18 Q2827.35 1139.18 2830.41 1143.79 Q2833.49 1148.37 2833.49 1157.12 Q2833.49 1165.85 2830.41 1170.46 Q2827.35 1175.04 2821.54 1175.04 Q2815.73 1175.04 2812.66 1170.46 Q2809.6 1165.85 2809.6 1157.12 Q2809.6 1148.37 2812.66 1143.79 Q2815.73 1139.18 2821.54 1139.18 Z" fill="#000000" fill-rule="nonzero" fill-opacity="1" /><path clip-path="url(#clip680)" d="M2851.71 1157.96 Q2848.37 1157.96 2846.45 1159.74 Q2844.55 1161.52 2844.55 1164.65 Q2844.55 1167.77 2846.45 1169.55 Q2848.37 1171.34 2851.71 1171.34 Q2855.04 1171.34 2856.96 1169.55 Q2858.88 1167.75 2858.88 1164.65 Q2858.88 1161.52 2856.96 1159.74 Q2855.06 1157.96 2851.71 1157.96 M2847.03 1155.97 Q2844.02 1155.22 2842.33 1153.16 Q2840.66 1151.1 2840.66 1148.14 Q2840.66 1144 2843.6 1141.59 Q2846.57 1139.18 2851.71 1139.18 Q2856.87 1139.18 2859.81 1141.59 Q2862.75 1144 2862.75 1148.14 Q2862.75 1151.1 2861.06 1153.16 Q2859.39 1155.22 2856.4 1155.97 Q2859.78 1156.75 2861.66 1159.04 Q2863.56 1161.34 2863.56 1164.65 Q2863.56 1169.67 2860.48 1172.35 Q2857.42 1175.04 2851.71 1175.04 Q2845.99 1175.04 2842.91 1172.35 Q2839.85 1169.67 2839.85 1164.65 Q2839.85 1161.34 2841.75 1159.04 Q2843.65 1156.75 2847.03 1155.97 M2845.32 1148.58 Q2845.32 1151.27 2846.98 1152.77 Q2848.67 1154.28 2851.71 1154.28 Q2854.72 1154.28 2856.4 1152.77 Q2858.12 1151.27 2858.12 1148.58 Q2858.12 1145.9 2856.4 1144.39 Q2854.72 1142.89 2851.71 1142.89 Q2848.67 1142.89 2846.98 1144.39 Q2845.32 1145.9 2845.32 1148.58 Z" fill="#000000" fill-rule="nonzero" fill-opacity="1" /><path clip-path="url(#clip680)" d="M2881.87 1142.89 Q2878.26 1142.89 2876.43 1146.45 Q2874.62 1149.99 2874.62 1157.12 Q2874.62 1164.23 2876.43 1167.79 Q2878.26 1171.34 2881.87 1171.34 Q2885.5 1171.34 2887.31 1167.79 Q2889.14 1164.23 2889.14 1157.12 Q2889.14 1149.99 2887.31 1146.45 Q2885.5 1142.89 2881.87 1142.89 M2881.87 1139.18 Q2887.68 1139.18 2890.73 1143.79 Q2893.81 1148.37 2893.81 1157.12 Q2893.81 1165.85 2890.73 1170.46 Q2887.68 1175.04 2881.87 1175.04 Q2876.06 1175.04 2872.98 1170.46 Q2869.92 1165.85 2869.92 1157.12 Q2869.92 1148.37 2872.98 1143.79 Q2876.06 1139.18 2881.87 1139.18 Z" fill="#000000" fill-rule="nonzero" fill-opacity="1" /><path clip-path="url(#clip680)" d="M3090.24 1170.43 L3097.88 1170.43 L3097.88 1144.07 L3089.57 1145.73 L3089.57 1141.47 L3097.84 1139.81 L3102.51 1139.81 L3102.51 1170.43 L3110.15 1170.43 L3110.15 1174.37 L3090.24 1174.37 L3090.24 1170.43 Z" fill="#000000" fill-rule="nonzero" fill-opacity="1" /><path clip-path="url(#clip680)" d="M3119.6 1168.49 L3124.48 1168.49 L3124.48 1174.37 L3119.6 1174.37 L3119.6 1168.49 Z" fill="#000000" fill-rule="nonzero" fill-opacity="1" /><path clip-path="url(#clip680)" d="M3144.67 1142.89 Q3141.05 1142.89 3139.23 1146.45 Q3137.42 1149.99 3137.42 1157.12 Q3137.42 1164.23 3139.23 1167.79 Q3141.05 1171.34 3144.67 1171.34 Q3148.3 1171.34 3150.11 1167.79 Q3151.93 1164.23 3151.93 1157.12 Q3151.93 1149.99 3150.11 1146.45 Q3148.3 1142.89 3144.67 1142.89 M3144.67 1139.18 Q3150.48 1139.18 3153.53 1143.79 Q3156.61 1148.37 3156.61 1157.12 Q3156.61 1165.85 3153.53 1170.46 Q3150.48 1175.04 3144.67 1175.04 Q3138.86 1175.04 3135.78 1170.46 Q3132.72 1165.85 3132.72 1157.12 Q3132.72 1148.37 3135.78 1143.79 Q3138.86 1139.18 3144.67 1139.18 Z" fill="#000000" fill-rule="nonzero" fill-opacity="1" /><path clip-path="url(#clip680)" d="M3174.83 1157.96 Q3171.49 1157.96 3169.57 1159.74 Q3167.67 1161.52 3167.67 1164.65 Q3167.67 1167.77 3169.57 1169.55 Q3171.49 1171.34 3174.83 1171.34 Q3178.16 1171.34 3180.08 1169.55 Q3182 1167.75 3182 1164.65 Q3182 1161.52 3180.08 1159.74 Q3178.18 1157.96 3174.83 1157.96 M3170.15 1155.97 Q3167.14 1155.22 3165.45 1153.16 Q3163.79 1151.1 3163.79 1148.14 Q3163.79 1144 3166.73 1141.59 Q3169.69 1139.18 3174.83 1139.18 Q3179.99 1139.18 3182.93 1141.59 Q3185.87 1144 3185.87 1148.14 Q3185.87 1151.1 3184.18 1153.16 Q3182.51 1155.22 3179.53 1155.97 Q3182.91 1156.75 3184.78 1159.04 Q3186.68 1161.34 3186.68 1164.65 Q3186.68 1169.67 3183.6 1172.35 Q3180.55 1175.04 3174.83 1175.04 Q3169.11 1175.04 3166.03 1172.35 Q3162.98 1169.67 3162.98 1164.65 Q3162.98 1161.34 3164.87 1159.04 Q3166.77 1156.75 3170.15 1155.97 M3168.44 1148.58 Q3168.44 1151.27 3170.11 1152.77 Q3171.8 1154.28 3174.83 1154.28 Q3177.84 1154.28 3179.53 1152.77 Q3181.24 1151.27 3181.24 1148.58 Q3181.24 1145.9 3179.53 1144.39 Q3177.84 1142.89 3174.83 1142.89 Q3171.8 1142.89 3170.11 1144.39 Q3168.44 1145.9 3168.44 1148.58 Z" fill="#000000" fill-rule="nonzero" fill-opacity="1" /><path clip-path="url(#clip680)" d="M3195.04 1139.81 L3213.39 1139.81 L3213.39 1143.74 L3199.32 1143.74 L3199.32 1152.22 Q3200.34 1151.87 3201.36 1151.71 Q3202.37 1151.52 3203.39 1151.52 Q3209.18 1151.52 3212.56 1154.69 Q3215.94 1157.86 3215.94 1163.28 Q3215.94 1168.86 3212.47 1171.96 Q3208.99 1175.04 3202.67 1175.04 Q3200.5 1175.04 3198.23 1174.67 Q3195.98 1174.3 3193.58 1173.56 L3193.58 1168.86 Q3195.66 1169.99 3197.88 1170.55 Q3200.11 1171.1 3202.58 1171.1 Q3206.59 1171.1 3208.92 1169 Q3211.26 1166.89 3211.26 1163.28 Q3211.26 1159.67 3208.92 1157.56 Q3206.59 1155.46 3202.58 1155.46 Q3200.71 1155.46 3198.83 1155.87 Q3196.98 1156.29 3195.04 1157.17 L3195.04 1139.81 Z" fill="#000000" fill-rule="nonzero" fill-opacity="1" /><polyline clip-path="url(#clip680)" style="stroke:#000000; stroke-linecap:round; stroke-linejoin:round; stroke-width:4; stroke-opacity:1; fill:none" points="1862.26,1105.57 1862.26,47.2441 "/>
<polyline clip-path="url(#clip680)" style="stroke:#000000; stroke-linecap:round; stroke-linejoin:round; stroke-width:4; stroke-opacity:1; fill:none" points="1862.26,1105.32 1881.16,1105.32 "/>
<polyline clip-path="url(#clip680)" style="stroke:#000000; stroke-linecap:round; stroke-linejoin:round; stroke-width:4; stroke-opacity:1; fill:none" points="1862.26,874.02 1881.16,874.02 "/>
<polyline clip-path="url(#clip680)" style="stroke:#000000; stroke-linecap:round; stroke-linejoin:round; stroke-width:4; stroke-opacity:1; fill:none" points="1862.26,642.718 1881.16,642.718 "/>
<polyline clip-path="url(#clip680)" style="stroke:#000000; stroke-linecap:round; stroke-linejoin:round; stroke-width:4; stroke-opacity:1; fill:none" points="1862.26,411.416 1881.16,411.416 "/>
<polyline clip-path="url(#clip680)" style="stroke:#000000; stroke-linecap:round; stroke-linejoin:round; stroke-width:4; stroke-opacity:1; fill:none" points="1862.26,180.114 1881.16,180.114 "/>
<path clip-path="url(#clip680)" d="M1616.83 1105.77 L1646.51 1105.77 L1646.51 1109.71 L1616.83 1109.71 L1616.83 1105.77 Z" fill="#000000" fill-rule="nonzero" fill-opacity="1" /><path clip-path="url(#clip680)" d="M1657.41 1118.67 L1665.05 1118.67 L1665.05 1092.3 L1656.74 1093.97 L1656.74 1089.71 L1665 1088.04 L1669.68 1088.04 L1669.68 1118.67 L1677.32 1118.67 L1677.32 1122.6 L1657.41 1122.6 L1657.41 1118.67 Z" fill="#000000" fill-rule="nonzero" fill-opacity="1" /><path clip-path="url(#clip680)" d="M1687.57 1118.67 L1695.21 1118.67 L1695.21 1092.3 L1686.9 1093.97 L1686.9 1089.71 L1695.16 1088.04 L1699.84 1088.04 L1699.84 1118.67 L1707.48 1118.67 L1707.48 1122.6 L1687.57 1122.6 L1687.57 1118.67 Z" fill="#000000" fill-rule="nonzero" fill-opacity="1" /><path clip-path="url(#clip680)" d="M1716.92 1116.72 L1721.81 1116.72 L1721.81 1122.6 L1716.92 1122.6 L1716.92 1116.72 Z" fill="#000000" fill-rule="nonzero" fill-opacity="1" /><path clip-path="url(#clip680)" d="M1741.99 1091.12 Q1738.38 1091.12 1736.55 1094.69 Q1734.75 1098.23 1734.75 1105.36 Q1734.75 1112.46 1736.55 1116.03 Q1738.38 1119.57 1741.99 1119.57 Q1745.63 1119.57 1747.43 1116.03 Q1749.26 1112.46 1749.26 1105.36 Q1749.26 1098.23 1747.43 1094.69 Q1745.63 1091.12 1741.99 1091.12 M1741.99 1087.42 Q1747.8 1087.42 1750.86 1092.02 Q1753.94 1096.61 1753.94 1105.36 Q1753.94 1114.08 1750.86 1118.69 Q1747.8 1123.27 1741.99 1123.27 Q1736.18 1123.27 1733.1 1118.69 Q1730.05 1114.08 1730.05 1105.36 Q1730.05 1096.61 1733.1 1092.02 Q1736.18 1087.42 1741.99 1087.42 Z" fill="#000000" fill-rule="nonzero" fill-opacity="1" /><path clip-path="url(#clip680)" d="M1772.15 1091.12 Q1768.54 1091.12 1766.71 1094.69 Q1764.91 1098.23 1764.91 1105.36 Q1764.91 1112.46 1766.71 1116.03 Q1768.54 1119.57 1772.15 1119.57 Q1775.79 1119.57 1777.59 1116.03 Q1779.42 1112.46 1779.42 1105.36 Q1779.42 1098.23 1777.59 1094.69 Q1775.79 1091.12 1772.15 1091.12 M1772.15 1087.42 Q1777.96 1087.42 1781.02 1092.02 Q1784.1 1096.61 1784.1 1105.36 Q1784.1 1114.08 1781.02 1118.69 Q1777.96 1123.27 1772.15 1123.27 Q1766.34 1123.27 1763.26 1118.69 Q1760.21 1114.08 1760.21 1105.36 Q1760.21 1096.61 1763.26 1092.02 Q1766.34 1087.42 1772.15 1087.42 Z" fill="#000000" fill-rule="nonzero" fill-opacity="1" /><path clip-path="url(#clip680)" d="M1802.32 1091.12 Q1798.7 1091.12 1796.88 1094.69 Q1795.07 1098.23 1795.07 1105.36 Q1795.07 1112.46 1796.88 1116.03 Q1798.7 1119.57 1802.32 1119.57 Q1805.95 1119.57 1807.76 1116.03 Q1809.58 1112.46 1809.58 1105.36 Q1809.58 1098.23 1807.76 1094.69 Q1805.95 1091.12 1802.32 1091.12 M1802.32 1087.42 Q1808.13 1087.42 1811.18 1092.02 Q1814.26 1096.61 1814.26 1105.36 Q1814.26 1114.08 1811.18 1118.69 Q1808.13 1123.27 1802.32 1123.27 Q1796.51 1123.27 1793.43 1118.69 Q1790.37 1114.08 1790.37 1105.36 Q1790.37 1096.61 1793.43 1092.02 Q1796.51 1087.42 1802.32 1087.42 Z" fill="#000000" fill-rule="nonzero" fill-opacity="1" /><path clip-path="url(#clip680)" d="M1617.83 874.471 L1647.5 874.471 L1647.5 878.406 L1617.83 878.406 L1617.83 874.471 Z" fill="#000000" fill-rule="nonzero" fill-opacity="1" /><path clip-path="url(#clip680)" d="M1658.4 887.365 L1666.04 887.365 L1666.04 860.999 L1657.73 862.666 L1657.73 858.406 L1666 856.74 L1670.67 856.74 L1670.67 887.365 L1678.31 887.365 L1678.31 891.3 L1658.4 891.3 L1658.4 887.365 Z" fill="#000000" fill-rule="nonzero" fill-opacity="1" /><path clip-path="url(#clip680)" d="M1697.76 859.818 Q1694.14 859.818 1692.32 863.383 Q1690.51 866.925 1690.51 874.054 Q1690.51 881.161 1692.32 884.726 Q1694.14 888.267 1697.76 888.267 Q1701.39 888.267 1703.2 884.726 Q1705.02 881.161 1705.02 874.054 Q1705.02 866.925 1703.2 863.383 Q1701.39 859.818 1697.76 859.818 M1697.76 856.115 Q1703.57 856.115 1706.62 860.721 Q1709.7 865.304 1709.7 874.054 Q1709.7 882.781 1706.62 887.388 Q1703.57 891.971 1697.76 891.971 Q1691.95 891.971 1688.87 887.388 Q1685.81 882.781 1685.81 874.054 Q1685.81 865.304 1688.87 860.721 Q1691.95 856.115 1697.76 856.115 Z" fill="#000000" fill-rule="nonzero" fill-opacity="1" /><path clip-path="url(#clip680)" d="M1717.92 885.42 L1722.8 885.42 L1722.8 891.3 L1717.92 891.3 L1717.92 885.42 Z" fill="#000000" fill-rule="nonzero" fill-opacity="1" /><path clip-path="url(#clip680)" d="M1733.13 890.582 L1733.13 886.323 Q1734.89 887.156 1736.69 887.596 Q1738.5 888.036 1740.23 888.036 Q1744.86 888.036 1747.29 884.934 Q1749.75 881.809 1750.09 875.466 Q1748.75 877.457 1746.69 878.522 Q1744.63 879.587 1742.13 879.587 Q1736.95 879.587 1733.91 876.462 Q1730.9 873.314 1730.9 867.874 Q1730.9 862.55 1734.05 859.332 Q1737.2 856.115 1742.43 856.115 Q1748.43 856.115 1751.57 860.721 Q1754.75 865.304 1754.75 874.054 Q1754.75 882.226 1750.86 887.11 Q1746.99 891.971 1740.44 891.971 Q1738.68 891.971 1736.88 891.624 Q1735.07 891.277 1733.13 890.582 M1742.43 875.929 Q1745.58 875.929 1747.41 873.777 Q1749.26 871.624 1749.26 867.874 Q1749.26 864.147 1747.41 861.994 Q1745.58 859.818 1742.43 859.818 Q1739.28 859.818 1737.43 861.994 Q1735.6 864.147 1735.6 867.874 Q1735.6 871.624 1737.43 873.777 Q1739.28 875.929 1742.43 875.929 Z" fill="#000000" fill-rule="nonzero" fill-opacity="1" /><path clip-path="url(#clip680)" d="M1761.97 856.74 L1784.19 856.74 L1784.19 858.73 L1771.64 891.3 L1766.76 891.3 L1778.57 860.675 L1761.97 860.675 L1761.97 856.74 Z" fill="#000000" fill-rule="nonzero" fill-opacity="1" /><path clip-path="url(#clip680)" d="M1793.36 856.74 L1811.71 856.74 L1811.71 860.675 L1797.64 860.675 L1797.64 869.147 Q1798.66 868.8 1799.68 868.638 Q1800.7 868.453 1801.71 868.453 Q1807.5 868.453 1810.88 871.624 Q1814.26 874.795 1814.26 880.212 Q1814.26 885.79 1810.79 888.892 Q1807.32 891.971 1801 891.971 Q1798.82 891.971 1796.55 891.601 Q1794.31 891.23 1791.9 890.49 L1791.9 885.79 Q1793.98 886.925 1796.2 887.48 Q1798.43 888.036 1800.9 888.036 Q1804.91 888.036 1807.25 885.929 Q1809.58 883.823 1809.58 880.212 Q1809.58 876.601 1807.25 874.494 Q1804.91 872.388 1800.9 872.388 Q1799.03 872.388 1797.15 872.804 Q1795.3 873.221 1793.36 874.101 L1793.36 856.74 Z" fill="#000000" fill-rule="nonzero" fill-opacity="1" /><path clip-path="url(#clip680)" d="M1616.83 643.169 L1646.51 643.169 L1646.51 647.104 L1616.83 647.104 L1616.83 643.169 Z" fill="#000000" fill-rule="nonzero" fill-opacity="1" /><path clip-path="url(#clip680)" d="M1657.41 656.063 L1665.05 656.063 L1665.05 629.697 L1656.74 631.364 L1656.74 627.104 L1665 625.438 L1669.68 625.438 L1669.68 656.063 L1677.32 656.063 L1677.32 659.998 L1657.41 659.998 L1657.41 656.063 Z" fill="#000000" fill-rule="nonzero" fill-opacity="1" /><path clip-path="url(#clip680)" d="M1696.76 628.516 Q1693.15 628.516 1691.32 632.081 Q1689.52 635.623 1689.52 642.752 Q1689.52 649.859 1691.32 653.424 Q1693.15 656.965 1696.76 656.965 Q1700.39 656.965 1702.2 653.424 Q1704.03 649.859 1704.03 642.752 Q1704.03 635.623 1702.2 632.081 Q1700.39 628.516 1696.76 628.516 M1696.76 624.813 Q1702.57 624.813 1705.63 629.419 Q1708.7 634.002 1708.7 642.752 Q1708.7 651.479 1705.63 656.086 Q1702.57 660.669 1696.76 660.669 Q1690.95 660.669 1687.87 656.086 Q1684.82 651.479 1684.82 642.752 Q1684.82 634.002 1687.87 629.419 Q1690.95 624.813 1696.76 624.813 Z" fill="#000000" fill-rule="nonzero" fill-opacity="1" /><path clip-path="url(#clip680)" d="M1716.92 654.118 L1721.81 654.118 L1721.81 659.998 L1716.92 659.998 L1716.92 654.118 Z" fill="#000000" fill-rule="nonzero" fill-opacity="1" /><path clip-path="url(#clip680)" d="M1732.13 659.28 L1732.13 655.021 Q1733.89 655.854 1735.7 656.294 Q1737.5 656.734 1739.24 656.734 Q1743.87 656.734 1746.3 653.632 Q1748.75 650.507 1749.1 644.164 Q1747.76 646.155 1745.7 647.22 Q1743.64 648.285 1741.14 648.285 Q1735.95 648.285 1732.92 645.16 Q1729.91 642.012 1729.91 636.572 Q1729.91 631.248 1733.06 628.03 Q1736.2 624.813 1741.44 624.813 Q1747.43 624.813 1750.58 629.419 Q1753.75 634.002 1753.75 642.752 Q1753.75 650.924 1749.86 655.808 Q1746 660.669 1739.45 660.669 Q1737.69 660.669 1735.88 660.322 Q1734.07 659.975 1732.13 659.28 M1741.44 644.627 Q1744.58 644.627 1746.41 642.475 Q1748.26 640.322 1748.26 636.572 Q1748.26 632.845 1746.41 630.692 Q1744.58 628.516 1741.44 628.516 Q1738.29 628.516 1736.44 630.692 Q1734.61 632.845 1734.61 636.572 Q1734.61 640.322 1736.44 642.475 Q1738.29 644.627 1741.44 644.627 Z" fill="#000000" fill-rule="nonzero" fill-opacity="1" /><path clip-path="url(#clip680)" d="M1762.2 625.438 L1780.56 625.438 L1780.56 629.373 L1766.48 629.373 L1766.48 637.845 Q1767.5 637.498 1768.52 637.336 Q1769.54 637.151 1770.56 637.151 Q1776.34 637.151 1779.72 640.322 Q1783.1 643.493 1783.1 648.91 Q1783.1 654.488 1779.63 657.59 Q1776.16 660.669 1769.84 660.669 Q1767.66 660.669 1765.39 660.299 Q1763.15 659.928 1760.74 659.188 L1760.74 654.488 Q1762.82 655.623 1765.05 656.178 Q1767.27 656.734 1769.75 656.734 Q1773.75 656.734 1776.09 654.627 Q1778.43 652.521 1778.43 648.91 Q1778.43 645.299 1776.09 643.192 Q1773.75 641.086 1769.75 641.086 Q1767.87 641.086 1766 641.502 Q1764.14 641.919 1762.2 642.799 L1762.2 625.438 Z" fill="#000000" fill-rule="nonzero" fill-opacity="1" /><path clip-path="url(#clip680)" d="M1802.32 628.516 Q1798.7 628.516 1796.88 632.081 Q1795.07 635.623 1795.07 642.752 Q1795.07 649.859 1796.88 653.424 Q1798.7 656.965 1802.32 656.965 Q1805.95 656.965 1807.76 653.424 Q1809.58 649.859 1809.58 642.752 Q1809.58 635.623 1807.76 632.081 Q1805.95 628.516 1802.32 628.516 M1802.32 624.813 Q1808.13 624.813 1811.18 629.419 Q1814.26 634.002 1814.26 642.752 Q1814.26 651.479 1811.18 656.086 Q1808.13 660.669 1802.32 660.669 Q1796.51 660.669 1793.43 656.086 Q1790.37 651.479 1790.37 642.752 Q1790.37 634.002 1793.43 629.419 Q1796.51 624.813 1802.32 624.813 Z" fill="#000000" fill-rule="nonzero" fill-opacity="1" /><path clip-path="url(#clip680)" d="M1617.83 411.867 L1647.5 411.867 L1647.5 415.802 L1617.83 415.802 L1617.83 411.867 Z" fill="#000000" fill-rule="nonzero" fill-opacity="1" /><path clip-path="url(#clip680)" d="M1658.4 424.761 L1666.04 424.761 L1666.04 398.395 L1657.73 400.062 L1657.73 395.802 L1666 394.136 L1670.67 394.136 L1670.67 424.761 L1678.31 424.761 L1678.31 428.696 L1658.4 428.696 L1658.4 424.761 Z" fill="#000000" fill-rule="nonzero" fill-opacity="1" /><path clip-path="url(#clip680)" d="M1697.76 397.214 Q1694.14 397.214 1692.32 400.779 Q1690.51 404.321 1690.51 411.45 Q1690.51 418.557 1692.32 422.122 Q1694.14 425.663 1697.76 425.663 Q1701.39 425.663 1703.2 422.122 Q1705.02 418.557 1705.02 411.45 Q1705.02 404.321 1703.2 400.779 Q1701.39 397.214 1697.76 397.214 M1697.76 393.511 Q1703.57 393.511 1706.62 398.117 Q1709.7 402.7 1709.7 411.45 Q1709.7 420.177 1706.62 424.784 Q1703.57 429.367 1697.76 429.367 Q1691.95 429.367 1688.87 424.784 Q1685.81 420.177 1685.81 411.45 Q1685.81 402.7 1688.87 398.117 Q1691.95 393.511 1697.76 393.511 Z" fill="#000000" fill-rule="nonzero" fill-opacity="1" /><path clip-path="url(#clip680)" d="M1717.92 422.816 L1722.8 422.816 L1722.8 428.696 L1717.92 428.696 L1717.92 422.816 Z" fill="#000000" fill-rule="nonzero" fill-opacity="1" /><path clip-path="url(#clip680)" d="M1733.13 427.978 L1733.13 423.719 Q1734.89 424.552 1736.69 424.992 Q1738.5 425.432 1740.23 425.432 Q1744.86 425.432 1747.29 422.33 Q1749.75 419.205 1750.09 412.862 Q1748.75 414.853 1746.69 415.918 Q1744.63 416.983 1742.13 416.983 Q1736.95 416.983 1733.91 413.858 Q1730.9 410.71 1730.9 405.27 Q1730.9 399.946 1734.05 396.728 Q1737.2 393.511 1742.43 393.511 Q1748.43 393.511 1751.57 398.117 Q1754.75 402.7 1754.75 411.45 Q1754.75 419.622 1750.86 424.506 Q1746.99 429.367 1740.44 429.367 Q1738.68 429.367 1736.88 429.02 Q1735.07 428.673 1733.13 427.978 M1742.43 413.325 Q1745.58 413.325 1747.41 411.173 Q1749.26 409.02 1749.26 405.27 Q1749.26 401.543 1747.41 399.39 Q1745.58 397.214 1742.43 397.214 Q1739.28 397.214 1737.43 399.39 Q1735.6 401.543 1735.6 405.27 Q1735.6 409.02 1737.43 411.173 Q1739.28 413.325 1742.43 413.325 Z" fill="#000000" fill-rule="nonzero" fill-opacity="1" /><path clip-path="url(#clip680)" d="M1767.18 424.761 L1783.5 424.761 L1783.5 428.696 L1761.55 428.696 L1761.55 424.761 Q1764.21 422.006 1768.8 417.376 Q1773.4 412.724 1774.58 411.381 Q1776.83 408.858 1777.71 407.122 Q1778.61 405.362 1778.61 403.673 Q1778.61 400.918 1776.67 399.182 Q1774.75 397.446 1771.64 397.446 Q1769.45 397.446 1766.99 398.21 Q1764.56 398.974 1761.78 400.525 L1761.78 395.802 Q1764.61 394.668 1767.06 394.089 Q1769.51 393.511 1771.55 393.511 Q1776.92 393.511 1780.12 396.196 Q1783.31 398.881 1783.31 403.372 Q1783.31 405.501 1782.5 407.423 Q1781.71 409.321 1779.61 411.913 Q1779.03 412.585 1775.93 415.802 Q1772.82 418.997 1767.18 424.761 Z" fill="#000000" fill-rule="nonzero" fill-opacity="1" /><path clip-path="url(#clip680)" d="M1793.36 394.136 L1811.71 394.136 L1811.71 398.071 L1797.64 398.071 L1797.64 406.543 Q1798.66 406.196 1799.68 406.034 Q1800.7 405.849 1801.71 405.849 Q1807.5 405.849 1810.88 409.02 Q1814.26 412.191 1814.26 417.608 Q1814.26 423.186 1810.79 426.288 Q1807.32 429.367 1801 429.367 Q1798.82 429.367 1796.55 428.997 Q1794.31 428.626 1791.9 427.886 L1791.9 423.186 Q1793.98 424.321 1796.2 424.876 Q1798.43 425.432 1800.9 425.432 Q1804.91 425.432 1807.25 423.325 Q1809.58 421.219 1809.58 417.608 Q1809.58 413.997 1807.25 411.89 Q1804.91 409.784 1800.9 409.784 Q1799.03 409.784 1797.15 410.2 Q1795.3 410.617 1793.36 411.497 L1793.36 394.136 Z" fill="#000000" fill-rule="nonzero" fill-opacity="1" /><path clip-path="url(#clip680)" d="M1616.83 180.565 L1646.51 180.565 L1646.51 184.5 L1616.83 184.5 L1616.83 180.565 Z" fill="#000000" fill-rule="nonzero" fill-opacity="1" /><path clip-path="url(#clip680)" d="M1657.41 193.459 L1665.05 193.459 L1665.05 167.093 L1656.74 168.76 L1656.74 164.5 L1665 162.834 L1669.68 162.834 L1669.68 193.459 L1677.32 193.459 L1677.32 197.394 L1657.41 197.394 L1657.41 193.459 Z" fill="#000000" fill-rule="nonzero" fill-opacity="1" /><path clip-path="url(#clip680)" d="M1696.76 165.912 Q1693.15 165.912 1691.32 169.477 Q1689.52 173.019 1689.52 180.148 Q1689.52 187.255 1691.32 190.82 Q1693.15 194.361 1696.76 194.361 Q1700.39 194.361 1702.2 190.82 Q1704.03 187.255 1704.03 180.148 Q1704.03 173.019 1702.2 169.477 Q1700.39 165.912 1696.76 165.912 M1696.76 162.209 Q1702.57 162.209 1705.63 166.815 Q1708.7 171.398 1708.7 180.148 Q1708.7 188.875 1705.63 193.482 Q1702.57 198.065 1696.76 198.065 Q1690.95 198.065 1687.87 193.482 Q1684.82 188.875 1684.82 180.148 Q1684.82 171.398 1687.87 166.815 Q1690.95 162.209 1696.76 162.209 Z" fill="#000000" fill-rule="nonzero" fill-opacity="1" /><path clip-path="url(#clip680)" d="M1716.92 191.514 L1721.81 191.514 L1721.81 197.394 L1716.92 197.394 L1716.92 191.514 Z" fill="#000000" fill-rule="nonzero" fill-opacity="1" /><path clip-path="url(#clip680)" d="M1732.13 196.676 L1732.13 192.417 Q1733.89 193.25 1735.7 193.69 Q1737.5 194.13 1739.24 194.13 Q1743.87 194.13 1746.3 191.028 Q1748.75 187.903 1749.1 181.56 Q1747.76 183.551 1745.7 184.616 Q1743.64 185.681 1741.14 185.681 Q1735.95 185.681 1732.92 182.556 Q1729.91 179.408 1729.91 173.968 Q1729.91 168.644 1733.06 165.426 Q1736.2 162.209 1741.44 162.209 Q1747.43 162.209 1750.58 166.815 Q1753.75 171.398 1753.75 180.148 Q1753.75 188.32 1749.86 193.204 Q1746 198.065 1739.45 198.065 Q1737.69 198.065 1735.88 197.718 Q1734.07 197.371 1732.13 196.676 M1741.44 182.023 Q1744.58 182.023 1746.41 179.871 Q1748.26 177.718 1748.26 173.968 Q1748.26 170.241 1746.41 168.088 Q1744.58 165.912 1741.44 165.912 Q1738.29 165.912 1736.44 168.088 Q1734.61 170.241 1734.61 173.968 Q1734.61 177.718 1736.44 179.871 Q1738.29 182.023 1741.44 182.023 Z" fill="#000000" fill-rule="nonzero" fill-opacity="1" /><path clip-path="url(#clip680)" d="M1772.15 165.912 Q1768.54 165.912 1766.71 169.477 Q1764.91 173.019 1764.91 180.148 Q1764.91 187.255 1766.71 190.82 Q1768.54 194.361 1772.15 194.361 Q1775.79 194.361 1777.59 190.82 Q1779.42 187.255 1779.42 180.148 Q1779.42 173.019 1777.59 169.477 Q1775.79 165.912 1772.15 165.912 M1772.15 162.209 Q1777.96 162.209 1781.02 166.815 Q1784.1 171.398 1784.1 180.148 Q1784.1 188.875 1781.02 193.482 Q1777.96 198.065 1772.15 198.065 Q1766.34 198.065 1763.26 193.482 Q1760.21 188.875 1760.21 180.148 Q1760.21 171.398 1763.26 166.815 Q1766.34 162.209 1772.15 162.209 Z" fill="#000000" fill-rule="nonzero" fill-opacity="1" /><path clip-path="url(#clip680)" d="M1802.32 165.912 Q1798.7 165.912 1796.88 169.477 Q1795.07 173.019 1795.07 180.148 Q1795.07 187.255 1796.88 190.82 Q1798.7 194.361 1802.32 194.361 Q1805.95 194.361 1807.76 190.82 Q1809.58 187.255 1809.58 180.148 Q1809.58 173.019 1807.76 169.477 Q1805.95 165.912 1802.32 165.912 M1802.32 162.209 Q1808.13 162.209 1811.18 166.815 Q1814.26 171.398 1814.26 180.148 Q1814.26 188.875 1811.18 193.482 Q1808.13 198.065 1802.32 198.065 Q1796.51 198.065 1793.43 193.482 Q1790.37 188.875 1790.37 180.148 Q1790.37 171.398 1793.43 166.815 Q1796.51 162.209 1802.32 162.209 Z" fill="#000000" fill-rule="nonzero" fill-opacity="1" /><polyline clip-path="url(#clip683)" style="stroke:#009af9; stroke-linecap:round; stroke-linejoin:round; stroke-width:4; stroke-opacity:1; fill:none" points="1862.26,868.622 1864.36,864.789 1866.46,860.966 1868.56,857.153 1870.66,853.349 1890.08,818.628 1909.51,784.723 1928.93,751.633 1948.35,719.358 1971.69,681.647 1995.04,645.113 2014.77,615.143 2034.51,586.016 2055.95,555.329 2077.39,525.637 2097.15,499.144 2116.92,473.495 2138.11,446.935 2159.3,421.346 2183.85,392.912 2208.4,365.782 2230.22,342.765 2252.04,320.778 2271.17,302.344 2290.3,284.702 2311.16,266.369 2332.02,248.976 2353,232.43 2373.99,216.835 2397.19,200.701 2420.39,185.731 2442.46,172.568 2464.54,160.458 2487.49,148.984 2510.44,138.649 2529.76,130.832 2549.08,123.822 2572.67,116.358 2596.26,110.097 2617.87,105.417 2639.48,101.747 2659.43,99.2543 2679.39,97.6224 2699.61,96.8474 2719.82,96.9559 2742.48,98.1276 2765.14,100.409 2785.67,103.435 2806.2,107.372 2829.7,112.999 2853.21,119.821 2874.97,127.202 2896.74,135.607 2918.2,144.897 2939.65,155.181 2960.49,166.119 2981.32,177.996 3002.67,191.145 3024.03,205.28 3047.43,221.898 3070.83,239.701 3104.82,267.67 3138.81,298.138 3145.78,304.697 3152.76,311.362 "/>
<polyline clip-path="url(#clip683)" style="stroke:#e26f46; stroke-linecap:round; stroke-linejoin:round; stroke-width:4; stroke-opacity:1; fill:none" points="1862.26,245.063 1864.36,243.189 1866.46,241.325 1868.56,239.472 1870.66,237.629 1890.08,221.088 1909.51,205.446 1928.93,190.703 1948.35,176.86 1971.69,161.412 1995.04,147.263 2014.77,136.314 2034.51,126.293 2055.95,116.461 2077.39,107.724 2097.15,100.641 2116.92,94.4887 2138.11,88.9277 2159.3,84.4374 2183.85,80.5736 2208.4,78.147 2230.22,77.1967 2252.04,77.3813 2271.17,78.4772 2290.3,80.4459 2311.16,83.5869 2332.02,87.7653 2353,93.0153 2373.99,99.3151 2397.19,107.502 2420.39,116.973 2442.46,127.176 2464.54,138.54 2487.49,151.588 2510.44,165.892 2529.76,178.907 2549.08,192.812 2572.67,210.995 2596.26,230.505 2617.87,249.541 2639.48,269.691 2659.43,289.289 2679.39,309.838 2699.61,331.621 2719.82,354.378 2742.48,381.041 2765.14,408.927 2785.67,435.254 2806.2,462.586 2829.7,495.113 2853.21,528.957 2874.97,561.469 2896.74,595.11 2918.2,629.381 2939.65,664.751 2960.49,700.142 2981.32,736.567 3002.67,774.983 3024.03,814.486 3047.43,859.014 3070.83,904.848 3104.82,973.754 3138.81,1045.42 3145.78,1060.46 3152.76,1075.62 "/>
</svg>
